<svg xmlns:xlink="http://www.w3.org/1999/xlink" xmlns="http://www.w3.org/2000/svg" width="24" height="18" viewBox="0 0 24 18" fill="none">
<path d="M19.0714 5.94006L22.6714 2.34007L21.2571 0.925781L17.3057 4.87718C15.6943 4.08004 13.9114 3.59147 12 3.59147C10.0885 3.59147 8.30571 4.08004 6.69423 4.87718L2.74283 0.925781L1.32854 2.34007L4.92854 5.94006C1.95428 8.11718 0 11.6143 0 15.5915V17.3058H24V15.5915C23.9999 11.6143 22.0456 8.11718 19.0714 5.94006ZM6.85711 13.8772C5.90568 13.8772 5.14285 13.1057 5.14285 12.1629C5.14285 11.2201 5.90568 10.4487 6.85711 10.4487C7.80854 10.4487 8.57137 11.2201 8.57137 12.1629C8.57137 13.1057 7.80854 13.8772 6.85711 13.8772ZM17.1428 13.8772C16.1914 13.8772 15.4286 13.1057 15.4286 12.1629C15.4286 11.2201 16.1914 10.4487 17.1428 10.4487C18.0942 10.4487 18.8571 11.2201 18.8571 12.1629C18.8571 13.1057 18.0942 13.8772 17.1428 13.8772Z" fill="#3DDAB4"/>
</svg>