<svg xmlns:xlink="http://www.w3.org/1999/xlink" xmlns="http://www.w3.org/2000/svg" width="24" height="17" viewBox="0 0 24 17" fill="none">
<path d="M19.0714 5.01428L22.6714 1.41428L21.2571 0L17.3057 3.9514C15.6943 3.15426 13.9114 2.66568 12 2.66568C10.0885 2.66568 8.30571 3.15426 6.69423 3.9514L2.74283 0L1.32854 1.41428L4.92854 5.01428C1.95428 7.19139 0 10.6885 0 14.6657V16.38H24V14.6657C23.9999 10.6885 22.0456 7.19139 19.0714 5.01428ZM6.85711 12.9514C5.90568 12.9514 5.14285 12.18 5.14285 11.2371C5.14285 10.2943 5.90568 9.52287 6.85711 9.52287C7.80854 9.52287 8.57137 10.2943 8.57137 11.2371C8.57137 12.18 7.80854 12.9514 6.85711 12.9514ZM17.1428 12.9514C16.1914 12.9514 15.4286 12.18 15.4286 11.2371C15.4286 10.2943 16.1914 9.52287 17.1428 9.52287C18.0942 9.52287 18.8571 10.2943 18.8571 11.2371C18.8571 12.18 18.0942 12.9514 17.1428 12.9514Z" fill="white"/>
</svg>