<svg xmlns:xlink="http://www.w3.org/1999/xlink" xmlns="http://www.w3.org/2000/svg" width="24" height="24" viewBox="0 0 24 24" fill="none">
<path d="M16.619 0C16.6748 0 16.7307 0 16.7897 0C16.9267 1.69253 16.2807 2.95719 15.4955 3.87301C14.7251 4.78251 13.6702 5.6646 11.964 5.53076C11.8502 3.86247 12.4972 2.69161 13.2813 1.77789C14.0085 0.92636 15.3417 0.168621 16.619 0Z" fill="white"/>
<path d="M21.7841 17.6169C21.7841 17.6337 21.7841 17.6485 21.7841 17.6643C21.3046 19.1165 20.6206 20.3612 19.7859 21.5162C19.024 22.5648 18.0903 23.976 16.423 23.976C14.9824 23.976 14.0254 23.0496 12.549 23.0243C10.9871 22.999 10.1282 23.7989 8.70019 24.0002C8.53684 24.0002 8.37348 24.0002 8.21329 24.0002C7.16468 23.8485 6.31842 23.018 5.7019 22.2698C3.88396 20.0587 2.47914 17.2027 2.21777 13.5478C2.21777 13.1895 2.21777 12.8323 2.21777 12.4739C2.32843 9.85821 3.59941 7.73148 5.28878 6.70079C6.18036 6.15277 7.40602 5.6859 8.7708 5.89457C9.3557 5.9852 9.95325 6.18544 10.477 6.38357C10.9734 6.57432 11.5941 6.91262 12.1822 6.8947C12.5806 6.88311 12.9768 6.67549 13.3784 6.529C14.5545 6.10429 15.7074 5.6174 17.2271 5.84609C19.0535 6.12221 20.3498 6.93369 21.1507 8.1857C19.6057 9.16897 18.3843 10.6507 18.593 13.1811C18.7784 15.4796 20.1148 16.8244 21.7841 17.6169Z" fill="white"/>
</svg>