<svg xmlns:xlink="http://www.w3.org/1999/xlink" xmlns="http://www.w3.org/2000/svg" width="32" height="32" viewBox="0 0 32 32" fill="none">
<path d="M22.6 4H9.4C6.41733 4 4 6.41733 4 9.4V22.6C4 25.582 6.41733 28 9.4 28H22.6C25.5827 28 28 25.582 28 22.6V9.4C28 6.41733 25.5827 4 22.6 4Z" fill="url(#paint0_linear_485_3544)"/>
<path opacity="0.05" d="M8.20011 20.6513C7.28145 20.6513 6.53345 19.9087 6.53345 18.9953C6.53345 18.082 7.28145 17.3393 8.20011 17.3393H10.7321L13.9781 11.8L13.0294 10.1807C12.8041 9.79533 12.7421 9.34666 12.8548 8.916C12.9674 8.48533 13.2414 8.124 13.6254 7.9C13.8814 7.75066 14.1721 7.672 14.4668 7.672C15.0568 7.672 15.6081 7.988 15.9054 8.49666L15.9101 8.50466L15.9141 8.49733C16.2108 7.98866 16.7621 7.67266 17.3528 7.67266C17.6481 7.67266 17.9388 7.752 18.1948 7.90133C18.9881 8.36666 19.2548 9.39 18.7894 10.1827L14.5954 17.34H16.8141L17.0094 17.5367C17.1574 17.6853 17.2928 17.854 17.4248 18.0527L17.5561 18.2727C17.8821 18.88 17.9548 19.5513 17.7688 20.1753L17.6281 20.6513H8.20011Z" fill="white"/>
<path opacity="0.07" d="M8.20052 20.318C7.46519 20.318 6.86719 19.7246 6.86719 18.9953C6.86719 18.266 7.46519 17.6726 8.20052 17.6726H10.9232L14.3645 11.8L13.3165 10.012C13.1365 9.70464 13.0865 9.34531 13.1772 8.99997C13.2672 8.65531 13.4859 8.36664 13.7932 8.18731C13.9979 8.06797 14.2305 8.00464 14.4665 8.00464C14.9385 8.00464 15.3799 8.25731 15.6179 8.66397L15.9099 9.16331L16.2019 8.66464C16.4392 8.25797 16.8805 8.00531 17.3525 8.00531C17.5885 8.00531 17.8212 8.06864 18.0259 8.18797C18.6605 8.56064 18.8732 9.37931 18.5012 10.0133L14.0139 17.6726H16.6752L16.7725 17.7706C16.9045 17.9033 17.0265 18.0553 17.1459 18.236L17.2692 18.4426C17.5479 18.9633 17.6099 19.54 17.4492 20.08L17.3785 20.318H8.20052Z" fill="white"/>
<path d="M16.8672 18.4199C16.7686 18.2706 16.6592 18.1306 16.5352 18.0059H13.4312L18.2132 9.8446C18.4926 9.36794 18.3326 8.75527 17.8566 8.47594C17.3792 8.1966 16.7666 8.3566 16.4886 8.83327L15.9086 9.8226L15.3286 8.8326C15.0499 8.35594 14.4372 8.1966 13.9606 8.47527C13.4839 8.75394 13.3239 9.3666 13.6032 9.84327L14.7499 11.7999L11.1132 18.0059H8.19922C7.64655 18.0059 7.19922 18.4493 7.19922 18.9953C7.19922 19.5413 7.64655 19.9846 8.19922 19.9846H17.1286C17.2579 19.5493 17.2226 19.0633 16.9812 18.6126L16.8672 18.4199Z" fill="white"/>
<path opacity="0.05" d="M9.66667 24.1193C9.37134 24.1193 9.08067 24.04 8.82467 23.89C8.44067 23.6646 8.16734 23.3033 8.05467 22.8726C7.94267 22.442 8.00467 21.9926 8.23001 21.6086L8.70534 20.7966L8.99867 20.738C9.23934 20.6906 9.46401 20.6666 9.68534 20.6666L9.76401 20.6673C10.4847 20.6886 11.1373 20.9966 11.608 21.534L11.9253 21.8953L11.106 23.2953C10.8073 23.804 10.2567 24.1193 9.66667 24.1193Z" fill="white"/>
<path opacity="0.07" d="M9.66719 23.786C9.43119 23.786 9.19786 23.7227 8.99386 23.6027C8.68719 23.4227 8.46786 23.1333 8.37786 22.7887C8.28786 22.444 8.33719 22.0847 8.51786 21.7773L8.91786 21.0947L9.06452 21.0653C9.28386 21.0213 9.48719 21 9.68586 21L9.76053 21.0007C10.3825 21.0193 10.9492 21.2867 11.3579 21.7533L11.5165 21.934L10.8185 23.1267C10.5805 23.5333 10.1392 23.786 9.66719 23.786Z" fill="white"/>
<path d="M9.7514 21.3347C9.54007 21.3287 9.33273 21.352 9.13007 21.3927L8.8054 21.9467C8.52607 22.4233 8.68607 23.036 9.16273 23.3153C9.3214 23.4087 9.49607 23.4527 9.6674 23.4527C10.0107 23.4527 10.3454 23.2753 10.5307 22.9587L11.1074 21.974C10.7827 21.6033 10.3141 21.3513 9.75407 21.3347H9.7514Z" fill="white"/>
<path opacity="0.05" d="M22.1536 24.1193C21.5636 24.1193 21.0123 23.8033 20.7149 23.2953L16.6969 16.4386L16.6856 16.404C16.4076 15.5446 16.4623 14.6586 16.8283 13.8753L17.9409 11.97L21.0876 17.34H23.8009C24.7196 17.34 25.4676 18.0826 25.4676 18.996C25.4676 19.9093 24.7196 20.652 23.8009 20.652H23.0283L23.5896 21.61C23.8149 21.994 23.8769 22.4426 23.7649 22.874C23.6529 23.3053 23.3789 23.666 22.9949 23.8913C22.7403 24.04 22.4496 24.1193 22.1536 24.1193Z" fill="white"/>
<path opacity="0.07" d="M22.1532 23.7861C21.6812 23.7861 21.2398 23.5341 21.0018 23.1274L17.0018 16.3021L16.9905 16.2674C16.7498 15.5221 16.7985 14.7227 17.1292 14.0167L17.9398 12.6294L20.8952 17.6727H23.8005C24.5358 17.6727 25.1338 18.2661 25.1338 18.9954C25.1338 19.7247 24.5358 20.3181 23.8005 20.3181H22.4465L23.3018 21.7781C23.4825 22.0854 23.5318 22.4447 23.4418 22.7894C23.3518 23.1341 23.1332 23.4234 22.8258 23.6034C22.6225 23.7227 22.3898 23.7861 22.1532 23.7861Z" fill="white"/>
<path d="M23.8001 18.006H20.7047L17.9401 13.2887L17.4314 14.1574C17.1354 14.7907 17.0954 15.5067 17.3081 16.1647L21.2894 22.9587C21.4754 23.276 21.8094 23.4527 22.1527 23.4527C22.3241 23.4527 22.4987 23.4087 22.6574 23.3154C23.1341 23.036 23.2934 22.4234 23.0141 21.9467L21.8641 19.9847H23.8001C24.3527 19.9847 24.8001 19.5414 24.8001 18.9954C24.8001 18.4494 24.3527 18.006 23.8001 18.006Z" fill="white"/>
<defs>
<linearGradient id="paint0_linear_485_3544" x1="16" y1="3.078" x2="16" y2="26.7307" gradientUnits="userSpaceOnUse">
<stop stop-color="#33BEF0"/>
<stop offset="1" stop-color="#0A85D9"/>
</linearGradient>
</defs>
</svg>