<svg xmlns:xlink="http://www.w3.org/1999/xlink" xmlns="http://www.w3.org/2000/svg" width="1157" height="381" viewBox="0 0 1157 381" fill="none">
<path d="M267.111 65.1489C249.145 65.1489 234.527 50.5347 234.527 32.5745C234.527 14.6142 249.145 0 267.111 0C285.076 0 299.694 14.6142 299.694 32.5745C299.694 50.5347 285.076 65.1489 267.111 65.1489ZM267.111 1.98383C250.237 1.98383 236.511 15.7053 236.511 32.5745C236.511 49.4436 250.24 63.1651 267.111 63.1651C283.981 63.1651 297.71 49.4436 297.71 32.5745C297.71 15.7053 283.985 1.98383 267.111 1.98383Z" fill="#E8E5FF"/>
<path d="M596.173 85.4746C577.714 85.4746 562.699 70.4637 562.699 52.0108C562.699 33.5578 577.714 18.5469 596.173 18.5469C614.631 18.5469 629.646 33.5578 629.646 52.0108C629.646 70.4637 614.631 85.4746 596.173 85.4746ZM596.173 20.5274C578.809 20.5274 564.684 34.6489 564.684 52.0074C564.684 69.3659 578.809 83.4875 596.173 83.4875C613.536 83.4875 627.662 69.3659 627.662 52.0074C627.662 34.6489 613.536 20.5274 596.173 20.5274V20.5274Z" fill="#E8E5FF"/>
<path d="M837.644 194.261C815.233 194.261 797 176.036 797 153.632C797 131.228 815.233 113 837.644 113C860.054 113 878.287 131.228 878.287 153.632C878.287 176.036 860.054 194.261 837.644 194.261ZM837.644 114.984C816.328 114.984 798.984 132.322 798.984 153.632C798.984 174.942 816.328 192.277 837.644 192.277C858.959 192.277 876.303 174.942 876.303 153.632C876.303 132.322 858.959 114.984 837.644 114.984Z" fill="#E8E5FF"/>
<path d="M360.498 179.621C339.536 179.621 322.484 162.573 322.484 141.617C322.484 120.661 339.536 103.614 360.498 103.614C381.46 103.614 398.513 120.661 398.513 141.617C398.513 162.573 381.46 179.621 360.498 179.621V179.621ZM360.498 105.594C340.631 105.594 324.468 121.752 324.468 141.614C324.468 161.475 340.631 177.633 360.498 177.633C380.365 177.633 396.528 161.475 396.528 141.614C396.528 121.752 380.365 105.594 360.498 105.594V105.594Z" fill="#E8E5FF"/>
<g style="mix-blend-mode:screen" opacity="0.5">
<path d="M667.329 33.5745C667.329 36.6593 664.829 39.1589 661.743 39.1589C658.658 39.1589 656.157 36.6593 656.157 33.5745C656.157 30.4896 658.658 27.99 661.743 27.99C664.829 27.99 667.329 30.4896 667.329 33.5745Z" fill="#E8E5FF"/>
</g>
<g opacity="0.6">
<path d="M661.743 40.1508C658.115 40.1508 655.165 37.2015 655.165 33.5744C655.165 29.9473 658.115 26.998 661.743 26.998C665.371 26.998 668.322 29.9473 668.322 33.5744C668.322 37.2015 665.371 40.1508 661.743 40.1508ZM661.743 28.9786C659.21 28.9786 657.149 31.0384 657.149 33.5711C657.149 36.1038 659.21 38.1637 661.743 38.1637C664.277 38.1637 666.337 36.1038 666.337 33.5711C666.337 31.0384 664.277 28.9786 661.743 28.9786Z" fill="#E8E5FF"/>
<path d="M423.578 99.1528C419.95 99.1528 417 96.2035 417 92.5764C417 88.9493 419.95 86 423.578 86C427.206 86 430.156 88.9493 430.156 92.5764C430.156 96.2035 427.206 99.1528 423.578 99.1528ZM423.578 87.9805C421.044 87.9805 418.984 90.0404 418.984 92.5731C418.984 95.1058 421.044 97.1656 423.578 97.1656C426.111 97.1656 428.172 95.1058 428.172 92.5731C428.172 90.0404 426.111 87.9805 423.578 87.9805Z" fill="#E8E5FF"/>
</g>
<g style="mix-blend-mode:screen" opacity="0.5">
<path d="M495.008 26.5649C495.008 29.6498 492.507 32.1494 489.422 32.1494C486.336 32.1494 483.835 29.6498 483.835 26.5649C483.835 23.4801 486.336 20.9805 489.422 20.9805C492.507 20.9805 495.008 23.4801 495.008 26.5649Z" fill="#E8E5FF"/>
</g>
<g opacity="0.6">
<path d="M489.422 33.1413C485.793 33.1413 482.843 30.192 482.843 26.5649C482.843 22.9378 485.793 19.9885 489.422 19.9885C493.05 19.9885 496 22.9378 496 26.5649C496 30.192 493.05 33.1413 489.422 33.1413ZM489.422 21.969C486.888 21.969 484.828 24.0289 484.828 26.5616C484.828 29.0943 486.888 31.1542 489.422 31.1542C491.955 31.1542 494.015 29.0943 494.015 26.5616C494.015 24.0289 491.955 21.969 489.422 21.969V21.969Z" fill="#E8E5FF"/>
</g>
<g opacity="0.8">
<path d="M478.541 131.45C473.547 131.45 469.482 127.39 469.482 122.394C469.482 117.398 473.543 113.338 478.541 113.338C483.538 113.338 487.599 117.398 487.599 122.394C487.599 127.39 483.538 131.45 478.541 131.45ZM478.541 115.381C474.671 115.381 471.526 118.529 471.526 122.394C471.526 126.259 474.674 129.407 478.541 129.407C482.407 129.407 485.556 126.259 485.556 122.394C485.556 118.529 482.407 115.381 478.541 115.381Z" fill="#E8E5FF"/>
</g>
<g opacity="0.8">
<path d="M712.448 103.541C707.454 103.541 703.39 99.4806 703.39 94.4846C703.39 89.4887 707.451 85.4285 712.448 85.4285C717.446 85.4285 721.507 89.4887 721.507 94.4846C721.507 99.4806 717.446 103.541 712.448 103.541ZM712.448 87.4718C708.579 87.4718 705.434 90.6195 705.434 94.4846C705.434 98.3498 708.582 101.497 712.448 101.497C716.315 101.497 719.463 98.3498 719.463 94.4846C719.463 90.6195 716.315 87.4718 712.448 87.4718Z" fill="#E8E5FF"/>
</g>
<g style="mix-blend-mode:screen" opacity="0.5">
<path d="M789.76 71.092C789.76 74.1769 787.26 76.6765 784.174 76.6765C781.088 76.6765 778.588 74.1769 778.588 71.092C778.588 68.0072 781.088 65.5076 784.174 65.5076C787.26 65.5076 789.76 68.0072 789.76 71.092Z" fill="#E8E5FF"/>
</g>
<g opacity="0.6">
<path d="M784.174 77.6684C780.546 77.6684 777.596 74.7191 777.596 71.092C777.596 67.4649 780.546 64.5156 784.174 64.5156C787.802 64.5156 790.752 67.4649 790.752 71.092C790.752 74.7191 787.802 77.6684 784.174 77.6684ZM784.174 66.4961C781.641 66.4961 779.58 68.556 779.58 71.0887C779.58 73.6214 781.641 75.6813 784.174 75.6813C786.707 75.6813 788.768 73.6214 788.768 71.0887C788.768 68.556 786.707 66.4961 784.174 66.4961V66.4961Z" fill="#E8E5FF"/>
</g>
<g style="mix-blend-mode:screen" opacity="0.5">
<path d="M216.175 67.2849C216.175 70.9253 213.225 73.8745 209.583 73.8745C205.942 73.8745 202.992 70.9253 202.992 67.2849C202.992 63.6446 205.942 60.6953 209.583 60.6953C213.225 60.6953 216.175 63.6446 216.175 67.2849Z" fill="#E8E5FF"/>
</g>
<g opacity="0.6">
<path d="M209.583 74.8664C205.403 74.8664 202 71.4642 202 67.2849C202 63.1056 205.403 59.7034 209.583 59.7034C213.764 59.7034 217.167 63.1056 217.167 67.2849C217.167 71.4642 213.764 74.8664 209.583 74.8664ZM209.583 61.6872C206.497 61.6872 203.984 64.1967 203.984 67.2849C203.984 70.3731 206.494 72.8826 209.583 72.8826C212.672 72.8826 215.183 70.3731 215.183 67.2849C215.183 64.1967 212.672 61.6872 209.583 61.6872Z" fill="#E8E5FF"/>
</g>
<path d="M439.97 237.525C435.862 237.525 432.522 234.186 432.522 230.079C432.522 225.973 435.862 222.633 439.97 222.633C444.078 222.633 447.418 225.973 447.418 230.079C447.418 234.186 444.078 237.525 439.97 237.525ZM439.97 224.617C436.957 224.617 434.506 227.067 434.506 230.079C434.506 233.091 436.957 235.541 439.97 235.541C442.983 235.541 445.434 233.091 445.434 230.079C445.434 227.067 442.983 224.617 439.97 224.617Z" fill="#E8E5FF"/>
<path d="M682.537 175.693C679.345 175.693 676.749 173.097 676.749 169.907C676.749 166.716 679.345 164.12 682.537 164.12C685.728 164.12 688.325 166.716 688.325 169.907C688.325 173.097 685.728 175.693 682.537 175.693ZM682.537 166.107C680.44 166.107 678.733 167.814 678.733 169.91C678.733 172.006 680.44 173.712 682.537 173.712C684.634 173.712 686.34 172.006 686.34 169.91C686.34 167.814 684.634 166.107 682.537 166.107Z" fill="#E8E5FF"/>
<path d="M574.014 284.446C544.856 284.446 521.14 260.733 521.14 231.584C521.14 202.435 544.86 178.725 574.014 178.725C603.168 178.725 626.891 202.438 626.891 231.584C626.891 260.729 603.171 284.446 574.014 284.446ZM574.014 180.708C545.951 180.708 523.124 203.532 523.124 231.584C523.124 259.635 545.955 282.462 574.014 282.462C602.073 282.462 624.907 259.638 624.907 231.584C624.907 203.529 602.077 180.708 574.014 180.708Z" fill="#E8E5FF"/>
<path d="M563.37 180.748L555.671 127.959L557.639 127.684L565.335 180.477L563.37 180.748Z" fill="#E8E5FF"/>
<path d="M550.908 122.037H486.703V124.02H550.908V122.037Z" fill="#E8E5FF"/>
<path d="M582.179 81.1505L557.802 118.692L559.466 119.773L583.844 82.2307L582.179 81.1505Z" fill="#E8E5FF"/>
<path d="M796.715 155.643L687.227 168.347L687.455 170.317L796.944 157.614L796.715 155.643Z" fill="#E8E5FF"/>
<path d="M677.825 171.206L617.205 202.633L618.119 204.394L678.739 172.967L677.825 171.206Z" fill="#E8E5FF"/>
<path d="M686.613 172.625L685.201 174.02L718.336 207.553L719.748 206.158L686.613 172.625Z" fill="#E8E5FF"/>
<path d="M685.272 165.846L683.437 165.096L708.665 102.129L710.5 102.879L685.272 165.846Z" fill="#E8E5FF"/>
<path d="M446.446 229.09L446.407 231.074L522.11 232.58L522.149 230.596L446.446 229.09Z" fill="#E8E5FF"/>
<path d="M386.587 169.24L385.137 170.594L436.112 225.128L437.562 223.773L386.587 169.24Z" fill="#E8E5FF"/>
<path d="M439.003 236.323L424.266 307.842L426.21 308.243L440.947 236.723L439.003 236.323Z" fill="#E8E5FF"/>
<path d="M433.173 230.652L354.242 258.549L354.903 260.419L433.834 232.523L433.173 230.652Z" fill="#E8E5FF"/>
<path d="M335.289 116.894L284.511 59.452L286.009 58.146L336.784 115.591L335.289 116.894Z" fill="#E8E5FF"/>
<path d="M471.141 116.901L428.946 94L428 95.7436L470.195 118.645L471.141 116.901Z" fill="#E8E5FF"/>
<path d="M238.309 46.6309L215.222 62.2869L216.336 63.9286L239.423 48.2726L238.309 46.6309Z" fill="#E8E5FF"/>
<path d="M706.035 88.781L664.955 39.2184L666.447 37.9124L707.527 87.4717L706.035 88.781Z" fill="#E8E5FF"/>
<path d="M720.254 91.3336L719.748 89.4126L777.845 71.9648L778.347 73.8825L720.254 91.3336Z" fill="#E8E5FF"/>
<path d="M555.705 128.815C552.513 128.815 549.917 126.219 549.917 123.029C549.917 119.838 552.513 117.242 555.705 117.242C558.896 117.242 561.493 119.838 561.493 123.029C561.493 126.219 558.896 128.815 555.705 128.815ZM555.705 119.23C553.608 119.23 551.901 120.936 551.901 123.032C551.901 125.128 553.608 126.834 555.705 126.834C557.802 126.834 559.508 125.128 559.508 123.032C559.508 120.936 557.802 119.23 555.705 119.23Z" fill="#E8E5FF"/>
<path d="M574.013 219.254C567.21 219.254 561.677 224.786 561.677 231.587C561.677 238.388 567.21 243.92 574.013 243.92C580.816 243.92 586.349 238.388 586.349 231.587C586.349 224.786 580.816 219.254 574.013 219.254ZM575.574 238.121V240.296H573.481V238.269C572.049 238.203 570.663 237.82 569.849 237.35L570.491 234.854C571.387 235.347 572.647 235.793 574.036 235.793C575.253 235.793 576.087 235.323 576.087 234.47C576.087 233.617 575.402 233.148 573.825 232.612C571.539 231.845 569.981 230.777 569.981 228.707C569.981 226.829 571.304 225.355 573.59 224.908V222.882H575.683V224.76C577.115 224.826 578.074 225.123 578.779 225.464L578.16 227.877C577.605 227.643 576.623 227.153 575.085 227.153C573.696 227.153 573.249 227.752 573.249 228.347C573.249 229.051 573.997 229.501 575.812 230.182C578.356 231.078 579.378 232.252 579.378 234.173C579.378 236.094 578.031 237.694 575.577 238.124L575.574 238.121Z" fill="#E8E5FF"/>
<path d="M574.013 246.419C567.018 246.419 561.171 241.576 559.6 235.065H551.027L550.736 254.695L557.344 248.089C561.568 252.173 567.313 254.695 573.636 254.695C586.105 254.695 596.328 244.918 597.049 232.632H588.797C588.258 240.336 581.852 246.419 574.01 246.419H574.013Z" fill="#E8E5FF"/>
<path d="M574.013 216.748C581.008 216.748 586.855 221.592 588.426 228.102H596.999L597.29 208.472L590.685 215.075C586.462 210.992 580.717 208.472 574.39 208.472C561.921 208.472 551.699 218.249 550.978 230.536H559.229C559.768 222.832 566.175 216.748 574.016 216.748H574.013Z" fill="#E8E5FF"/>
<path d="M262.957 20.8599H258.416L252.417 27.0197L258.416 33.1761H262.957L256.954 27.0163L262.957 20.8599Z" fill="#E8E5FF"/>
<path d="M270.607 44.289H268.242V42.3977H270.607V44.289ZM265.878 44.289H263.513V42.3977H265.878V44.289ZM261.148 44.289H258.783V42.3977H261.148V44.289ZM256.419 44.289H254.057V42.3977H256.419V44.289Z" fill="#E8E5FF"/>
<path d="M272.697 44.289V42.3977C276.679 42.3977 279.917 39.1608 279.917 35.1799C279.917 31.199 276.679 27.9621 272.697 27.9621H257.212V26.0708H272.697C277.721 26.0708 281.809 30.1575 281.809 35.1799C281.809 40.2023 277.721 44.289 272.697 44.289Z" fill="#E8E5FF"/>
<path d="M148.227 333.965C151.855 333.965 154.805 331.016 154.805 327.389C154.805 323.762 151.855 320.812 148.227 320.812C144.599 320.812 141.649 323.762 141.649 327.389C141.649 331.016 144.599 333.965 148.227 333.965V333.965ZM148.227 322.793C150.76 322.793 152.821 324.853 152.821 327.385C152.821 329.918 150.76 331.978 148.227 331.978C145.693 331.978 143.633 329.918 143.633 327.385C143.633 324.853 145.693 322.793 148.227 322.793V322.793Z" fill="#E8E5FF"/>
<path d="M177.325 288.72C192.701 288.72 205.212 276.216 205.212 260.841C205.212 245.466 192.701 232.962 177.325 232.962C161.949 232.962 149.438 245.466 149.438 260.841C149.438 276.216 161.949 288.72 177.325 288.72ZM177.325 234.945C191.606 234.945 203.228 246.561 203.228 260.841C203.228 275.121 191.609 286.737 177.325 286.737C163.041 286.737 151.422 275.121 151.422 260.841C151.422 246.561 163.041 234.945 177.325 234.945Z" fill="#E8E5FF"/>
<g opacity="0.8">
<path d="M42.2542 263.017C47.2483 263.017 51.313 258.956 51.313 253.96C51.313 248.965 47.2516 244.904 42.2542 244.904C37.2568 244.904 33.1954 248.965 33.1954 253.96C33.1954 258.956 37.2568 263.017 42.2542 263.017ZM42.2542 246.948C46.1238 246.948 49.2691 250.095 49.2691 253.96C49.2691 257.826 46.1205 260.973 42.2542 260.973C38.388 260.973 35.2394 257.826 35.2394 253.96C35.2394 250.095 38.388 246.948 42.2542 246.948Z" fill="#E8E5FF"/>
</g>
<g style="mix-blend-mode:screen" opacity="0.5">
<path d="M190.677 179.454C190.677 183.578 194.02 186.917 198.141 186.917C202.262 186.917 205.606 183.574 205.606 179.454C205.606 175.335 202.262 171.992 198.141 171.992C194.02 171.992 190.677 175.335 190.677 179.454V179.454Z" fill="#E8E5FF"/>
</g>
<g opacity="0.6">
<path d="M198.144 187.909C202.808 187.909 206.601 184.116 206.601 179.454C206.601 174.792 202.808 171 198.144 171C193.481 171 189.687 174.792 189.687 179.454C189.687 184.116 193.481 187.909 198.144 187.909ZM198.144 172.981C201.713 172.981 204.617 175.884 204.617 179.451C204.617 183.019 201.713 185.922 198.144 185.922C194.576 185.922 191.672 183.019 191.672 179.451C191.672 175.884 194.576 172.981 198.144 172.981Z" fill="#E8E5FF"/>
</g>
<path d="M7.44789 211.16C11.5556 211.16 14.896 207.82 14.896 203.714C14.896 199.607 11.5556 196.268 7.44789 196.268C3.34019 196.268 -0.000216436 199.607 -0.000216436 203.714C-0.000216436 207.82 3.34019 211.16 7.44789 211.16ZM7.44789 198.251C10.4609 198.251 12.9116 200.701 12.9116 203.714C12.9116 206.726 10.4609 209.176 7.44789 209.176C4.43492 209.176 1.98418 206.726 1.98418 203.714C1.98418 200.701 4.43492 198.251 7.44789 198.251Z" fill="#E8E5FF"/>
<path d="M203.782 264.956L278.574 265.224L278.566 267.208L203.774 266.94L203.782 264.956Z" fill="#E8E5FF"/>
<path d="M151.19 268.634L151.412 266.664L50.4654 255.574L50.2405 257.545L151.19 268.634Z" fill="#E8E5FF"/>
<path d="M195.787 187.157L197.721 187.6L186.739 235.538L184.804 235.095L195.787 187.157Z" fill="#E8E5FF"/>
<path d="M153.284 323.348L178.03 288.43L176.621 287.031L151.875 321.953L153.284 323.348Z" fill="#E8E5FF"/>
<path d="M34.7065 249.03L36.4263 248.042L12.1174 209.503L10.3976 210.495L34.7065 249.03Z" fill="#E8E5FF"/>
<path d="M178.757 251.285H166.378C165.723 251.285 165.191 251.818 165.191 252.472V252.681H179.945V252.472C179.945 251.818 179.412 251.285 178.757 251.285Z" fill="#E8E5FF"/>
<path d="M179.942 262.722H165.188V262.93C165.188 263.585 165.72 264.117 166.375 264.117H178.755C179.409 264.117 179.942 263.585 179.942 262.93V262.722Z" fill="#E8E5FF"/>
<path d="M166.345 270.4L170.361 263.069L171.637 263.77L168.006 270.4H166.345Z" fill="#E8E5FF"/>
<path d="M178.278 270.4L174.259 263.069L172.983 263.77L176.618 270.4H178.278Z" fill="#E8E5FF"/>
<path d="M184.082 253.243C184.082 252.247 184.889 251.441 185.885 251.441C186.88 251.441 187.687 252.247 187.687 253.243C187.687 254.238 186.88 255.045 185.885 255.045C184.889 255.045 184.082 254.238 184.082 253.243Z" fill="#E8E5FF"/>
<path d="M184.072 255.65H184.079C184.079 255.65 184.218 255.65 184.29 255.646V255.64H184.502L185.203 257.015L184.849 257.26L185.379 258.206L185.594 256.648H186.166L186.381 258.206L186.91 257.26L186.556 257.015L187.257 255.64H187.356C188.517 255.64 189.457 256.579 189.457 257.739V262.481C189.457 262.825 189.195 263.126 188.855 263.149C188.478 263.172 188.167 262.874 188.167 262.504V257.739C188.167 257.478 188.038 257.243 187.843 257.098V269.649C187.843 270.036 187.552 270.373 187.165 270.4C186.741 270.426 186.391 270.092 186.391 269.675V263.598H185.441V269.649C185.441 270.036 185.15 270.373 184.763 270.4C184.34 270.426 183.99 270.092 183.99 269.675V260.633C183.99 259.386 183.814 258.146 183.47 256.949C183.295 256.949 183.1 256.949 182.915 256.953C182.488 256.953 182.104 256.959 182.091 256.959H178.873C178.516 256.959 178.228 256.671 178.228 256.314C178.228 255.957 178.516 255.67 178.873 255.67H182.091C182.118 255.67 183.937 255.656 184.076 255.656L184.072 255.65Z" fill="#E8E5FF"/>
<path d="M185.881 256.651H185.689H185.597L185.64 256.351H186.126L186.166 256.651H186.076H185.881Z" fill="#E8E5FF"/>
<path d="M185.663 255.739H185.882H186.103L186.126 256.351H185.64L185.663 255.739Z" fill="#E8E5FF"/>
<path d="M178.734 252.175H179.174V263.42H178.734V252.175Z" fill="#E8E5FF"/>
<path d="M165.925 252.175H166.365V263.42H165.925V252.175Z" fill="#E8E5FF"/>
<path d="M174.825 259.026C174.786 259.207 174.901 259.383 175.08 259.422C175.262 259.462 175.437 259.346 175.477 259.168L175.837 257.498C175.877 257.316 175.761 257.141 175.583 257.101C175.401 257.062 175.226 257.177 175.186 257.356L174.825 259.026Z" fill="#E8E5FF"/>
<path d="M168.823 259.32C168.767 259.584 168.935 259.846 169.2 259.902C169.464 259.958 169.726 259.789 169.782 259.525L170.797 254.823C170.854 254.559 170.685 254.297 170.42 254.241C170.156 254.185 169.894 254.354 169.838 254.618L168.823 259.32Z" fill="#E8E5FF"/>
<path d="M175.443 257.422L175.265 258.249L175.086 259.075L169.252 259.641L169.808 257.072L170.363 254.502L175.447 257.422H175.443ZM170.979 256.919L174.564 257.693L174.627 257.399L171.26 255.61L170.975 256.923L170.979 256.919Z" fill="#E8E5FF"/>
<path d="M172.255 260.203C172.331 260.219 172.411 260.223 172.49 260.216L173.502 260.11C173.916 260.067 174.213 259.697 174.17 259.287L174.137 258.953C174.104 258.629 173.866 258.364 173.548 258.295C173.472 258.278 173.393 258.275 173.314 258.282L172.302 258.388C172.103 258.407 171.921 258.507 171.796 258.662C171.67 258.817 171.61 259.012 171.63 259.211L171.663 259.545C171.696 259.869 171.934 260.133 172.252 260.203H172.255ZM173.446 258.784C173.552 258.807 173.631 258.897 173.641 259.003L173.674 259.336C173.687 259.472 173.588 259.598 173.452 259.611L172.44 259.717C172.414 259.717 172.388 259.717 172.361 259.713C172.255 259.69 172.176 259.601 172.166 259.495L172.133 259.161C172.126 259.095 172.146 259.029 172.189 258.979C172.232 258.927 172.292 258.897 172.358 258.887L173.37 258.781C173.396 258.781 173.423 258.781 173.449 258.784H173.446Z" fill="#E8E5FF"/>
<path d="M585.722 52.0507C585.722 57.7938 590.382 62.4492 596.123 62.4492C598.425 62.4492 600.545 61.6921 602.268 60.429L607.378 65.1142C608.42 66.073 610.044 66.0036 611 64.9588C611.453 64.4661 611.678 63.8445 611.678 63.2262C611.678 62.5319 611.396 61.8409 610.847 61.335L605.536 56.4614C606.168 55.119 606.528 53.6278 606.528 52.0507C606.528 46.3042 601.871 41.6521 596.127 41.6521C590.382 41.6521 585.725 46.3075 585.725 52.0507H585.722ZM603.68 52.0507C603.68 56.22 600.297 59.5991 596.127 59.5991C591.956 59.5991 588.573 56.22 588.573 52.0507C588.573 47.8813 591.956 44.4989 596.127 44.4989C600.297 44.4989 603.68 47.8813 603.68 52.0507V52.0507Z" fill="#E8E5FF"/>
<path d="M599.652 52.0505C599.652 53.9979 598.075 55.5751 596.127 55.5751C594.179 55.5751 592.601 53.9979 592.601 52.0505C592.601 50.103 594.179 48.5259 596.127 48.5259C598.075 48.5259 599.652 50.103 599.652 52.0505Z" fill="#E8E5FF"/>
<path d="M594.516 67.4186C593.54 67.3161 592.571 67.1243 591.635 66.84L592.138 65.1802C592.968 65.4315 593.828 65.6034 594.695 65.6927L594.516 67.4186ZM598.038 67.3855L597.827 65.6629C598.69 65.5571 599.546 65.3653 600.373 65.0975L600.909 66.7474C599.98 67.0483 599.014 67.2632 598.042 67.3822L598.038 67.3855ZM588.404 65.4381C587.557 64.9487 586.754 64.3767 586.013 63.7353L587.147 62.4227C587.805 62.9914 588.52 63.5005 589.271 63.937L588.404 65.4381V65.4381ZM583.628 61.1431C583.049 60.3496 582.547 59.4998 582.13 58.617L583.701 57.8797C584.071 58.6633 584.518 59.4205 585.031 60.1214L583.628 61.1431V61.1431ZM581.009 55.2776C580.807 54.322 580.695 53.3433 580.675 52.3613L582.411 52.3283C582.428 53.2012 582.527 54.0707 582.709 54.9205L581.012 55.2809L581.009 55.2776ZM611.311 54.9767L609.607 54.6494C609.769 53.7996 609.852 52.9267 609.852 52.0539V52.0208H611.588V52.0539C611.588 53.0359 611.496 54.0212 611.311 54.9767ZM582.702 49.2104L581.006 48.8533C581.207 47.8944 581.502 46.9521 581.885 46.0495L583.483 46.724C583.145 47.5241 582.884 48.3606 582.702 49.2104ZM609.492 48.9161C609.293 48.0697 609.012 47.2398 608.658 46.4462L610.242 45.7354C610.643 46.6281 610.96 47.5671 611.182 48.5193L609.492 48.9128V48.9161ZM585.017 43.9995L583.615 42.9811C584.19 42.1909 584.845 41.447 585.556 40.7791L586.744 42.0454C586.109 42.6406 585.53 43.2986 585.017 44.0028V43.9995ZM607.061 43.7581C606.535 43.0671 605.939 42.4191 605.291 41.8404L606.452 40.551C607.18 41.2056 607.851 41.933 608.443 42.71L607.061 43.7581ZM589.254 40.174L588.384 38.6729C589.231 38.1803 590.13 37.7703 591.053 37.4463L591.622 39.0862C590.802 39.3706 590.005 39.7376 589.254 40.174V40.174ZM602.745 40.0252C601.984 39.6053 601.177 39.2582 600.35 38.9903L600.883 37.3405C601.815 37.6413 602.721 38.0348 603.581 38.5076L602.745 40.0252V40.0252ZM594.675 38.4051L594.493 36.6792C595.462 36.5767 596.457 36.5668 597.43 36.6461L597.284 38.3754C596.421 38.3026 595.535 38.3125 594.675 38.4051V38.4051Z" fill="#E8E5FF"/>
<path d="M849.497 153.421C849.365 152.832 848.842 152.419 848.247 152.419C848.22 152.419 848.194 152.419 848.167 152.419L840.458 152.889C840.167 152.905 839.889 153.024 839.674 153.219L839.36 153.507L839.023 153.199C838.785 152.985 838.48 152.866 838.16 152.866H828.482C827.88 152.866 827.361 153.282 827.229 153.867L824.957 164.048C824.864 164.454 824.98 164.881 825.261 165.192C825.506 165.46 825.85 165.612 826.21 165.612C826.263 165.612 826.319 165.608 826.372 165.602L829.418 165.215L837.558 171.566L838.401 172.353C838.646 172.582 838.963 172.697 839.277 172.697C839.36 172.697 839.443 172.691 839.525 172.674C839.807 172.651 840.081 172.539 840.299 172.334L846.137 166.888L849.024 164.253L850.033 164.55C850.152 164.587 850.274 164.603 850.397 164.603C850.717 164.603 851.032 164.484 851.273 164.259C851.607 163.949 851.749 163.486 851.65 163.043L849.5 153.414L849.497 153.421ZM832.435 165.919C832.484 165.886 832.53 165.846 832.57 165.797L832.858 165.44L833.536 164.597C833.757 164.319 833.714 163.915 833.437 163.694L832.527 162.963C832.249 162.742 831.846 162.785 831.624 163.062L831.062 163.763L830.658 164.263C830.606 164.329 830.569 164.398 830.546 164.474L829.779 163.876L829.422 163.922L826.204 164.329L828.476 154.148H838.153L838.398 154.37L838.5 154.466L836.493 156.965L835.669 157.99C835.669 157.99 835.282 158.414 835.318 158.896C835.332 159.068 835.398 159.247 835.553 159.419C836.291 160.226 837.971 159.604 837.971 159.604L840.065 157.108C840.065 157.108 840.336 156.751 840.819 156.572L848.167 163.241L846.597 164.706C846.577 164.683 846.557 164.656 846.534 164.636L841.034 159.561C840.772 159.32 840.365 159.336 840.127 159.597C839.886 159.859 839.902 160.262 840.164 160.503L845.661 165.575L845.257 165.952L844.354 166.795C844.354 166.795 844.351 166.789 844.348 166.785C844.318 166.739 844.285 166.696 844.242 166.66L839.674 162.593C839.41 162.358 839.006 162.381 838.768 162.646C838.533 162.91 838.556 163.317 838.821 163.552L843.388 167.619C843.388 167.619 843.405 167.632 843.415 167.638C843.421 167.645 843.428 167.648 843.438 167.655L842.108 168.892C842.108 168.892 842.092 168.865 842.085 168.852C842.052 168.796 842.013 168.739 841.96 168.693L838.219 165.364C837.954 165.129 837.548 165.152 837.313 165.417C837.078 165.681 837.101 166.088 837.366 166.323L841.106 169.652C841.126 169.669 841.146 169.682 841.163 169.695C841.179 169.708 841.196 169.718 841.212 169.728L840.604 170.293C840.597 170.27 840.584 170.25 840.577 170.227C840.537 170.138 840.478 170.055 840.395 169.989L839.486 169.259C839.211 169.037 838.804 169.08 838.583 169.358L837.928 170.174L837.895 170.217L837.353 169.794L837.425 169.705L838.067 168.908C838.288 168.63 838.245 168.227 837.968 168.005L837.061 167.275C836.784 167.053 836.38 167.096 836.159 167.374L835.629 168.032L835.421 168.29L834.875 167.863L835.12 167.559L835.782 166.736C836.003 166.458 835.96 166.055 835.682 165.833L834.773 165.102C834.498 164.881 834.095 164.924 833.87 165.202L833.321 165.883L832.941 166.356L832.61 166.098L832.405 165.939C832.405 165.939 832.418 165.929 832.425 165.926L832.435 165.919Z" fill="#E8E5FF"/>
<path d="M825.942 153.299C825.82 153.147 825.634 153.061 825.443 153.061H819.642C819.288 153.061 819 153.348 819 153.702V166.799C819 167.152 819.288 167.44 819.642 167.44H822.555C822.856 167.44 823.118 167.232 823.18 166.937L826.068 153.841C826.111 153.652 826.064 153.454 825.942 153.302V153.299Z" fill="#E8E5FF"/>
<path d="M857.19 152.522H851.389C851.194 152.522 851.009 152.611 850.889 152.76C850.767 152.912 850.721 153.11 850.764 153.299L853.651 166.395C853.717 166.689 853.975 166.898 854.276 166.898H857.19C857.544 166.898 857.832 166.61 857.832 166.256V153.16C857.832 152.806 857.544 152.518 857.19 152.518V152.522Z" fill="#E8E5FF"/>
<path d="M850.145 151.483H826.683V138H850.145V151.483ZM828.208 149.959H848.621V139.528H828.208V149.959Z" fill="#E8E5FF"/>
<path d="M830.113 141.3C830.672 140.668 830.612 139.706 829.984 139.147C829.352 138.589 828.39 138.648 827.831 139.276C827.272 139.908 827.331 140.87 827.96 141.429C828.592 141.988 829.554 141.928 830.113 141.3Z" fill="#E8E5FF"/>
<path d="M846.716 141.3C846.157 140.668 846.216 139.706 846.845 139.147C847.476 138.589 848.439 138.648 848.998 139.276C849.557 139.908 849.497 140.87 848.869 141.429C848.237 141.988 847.275 141.928 846.716 141.3Z" fill="#E8E5FF"/>
<path d="M830.113 148.184C830.672 148.815 830.612 149.777 829.984 150.336C829.352 150.895 828.39 150.835 827.831 150.207C827.272 149.576 827.331 148.613 827.96 148.055C828.592 147.496 829.554 147.555 830.113 148.184Z" fill="#E8E5FF"/>
<path d="M846.716 148.184C846.157 148.815 846.216 149.777 846.845 150.336C847.476 150.895 848.439 150.835 848.998 150.207C849.557 149.576 849.497 148.613 848.869 148.055C848.237 147.496 847.275 147.555 846.716 148.184Z" fill="#E8E5FF"/>
<path d="M838.414 139.121C836.02 139.121 834.078 141.637 834.078 144.742C834.078 147.846 836.02 150.363 838.414 150.363C840.809 150.363 842.75 147.846 842.75 144.742C842.75 141.637 840.809 139.121 838.414 139.121ZM838.814 147.456V148.362H837.944V147.519C837.349 147.493 836.774 147.334 836.433 147.139L836.701 146.101C837.075 146.306 837.597 146.491 838.176 146.491C838.682 146.491 839.029 146.296 839.029 145.942C839.029 145.588 838.745 145.393 838.09 145.168C837.141 144.847 836.492 144.404 836.492 143.545C836.492 142.764 837.042 142.149 837.994 141.964V141.121H838.864V141.902C839.459 141.928 839.859 142.054 840.15 142.196L839.892 143.198C839.661 143.098 839.254 142.897 838.612 142.897C838.037 142.897 837.848 143.145 837.848 143.393C837.848 143.687 838.159 143.872 838.913 144.156C839.972 144.53 840.395 145.016 840.395 145.816C840.395 146.616 839.836 147.281 838.814 147.46V147.456Z" fill="#E8E5FF"/>
<path d="M870.779 176.899L869.856 178.655L913.429 201.538L914.352 199.781L870.779 176.899Z" fill="#E8E5FF"/>
<path d="M1107.8 254.439C1108.27 258.036 1105.73 261.347 1102.14 261.821C1098.54 262.296 1095.23 259.758 1094.76 256.161C1094.28 252.564 1096.82 249.253 1100.41 248.778C1104.01 248.303 1107.32 250.842 1107.8 254.439ZM1096.72 255.901C1097.05 258.413 1099.36 260.186 1101.87 259.855C1104.38 259.523 1106.16 257.211 1105.83 254.699C1105.49 252.187 1103.18 250.414 1100.67 250.746C1098.16 251.077 1096.39 253.39 1096.72 255.901Z" fill="#E8E5FF"/>
<g opacity="0.8">
<path d="M1043.06 221.24C1040 225.188 1034.3 225.914 1030.36 222.854C1026.41 219.794 1025.68 214.097 1028.74 210.147C1031.81 206.196 1037.5 205.473 1041.45 208.533C1045.4 211.593 1046.12 217.29 1043.06 221.24ZM1030.36 211.398C1027.99 214.457 1028.55 218.871 1031.61 221.238C1034.66 223.606 1039.08 223.045 1041.45 219.989C1043.82 216.932 1043.26 212.516 1040.2 210.148C1037.14 207.781 1032.73 208.342 1030.36 211.398Z" fill="#E8E5FF"/>
</g>
<path d="M886.563 270.129C884.047 273.376 879.362 273.971 876.115 271.456C872.869 268.941 872.275 264.255 874.791 261.008C877.307 257.761 881.993 257.166 885.239 259.681C888.485 262.196 889.079 266.882 886.563 270.129ZM876.36 262.223C874.514 264.605 874.95 268.043 877.331 269.887C879.712 271.732 883.15 271.296 884.995 268.914C886.84 266.532 886.405 263.094 884.024 261.25C881.643 259.405 878.205 259.841 876.36 262.223Z" fill="#E8E5FF"/>
<path d="M960.129 228.422C950.916 240.312 933.751 242.493 921.864 233.283C909.977 224.072 907.802 206.906 917.015 195.016C926.227 183.126 943.393 180.946 955.28 190.156C967.167 199.366 969.342 216.532 960.129 228.422ZM918.58 196.229C910.038 207.254 912.055 223.172 923.077 231.712C934.098 240.252 950.016 238.23 958.558 227.205C967.101 216.18 965.083 200.262 954.062 191.722C943.04 183.182 927.122 185.204 918.58 196.229Z" fill="#E8E5FF"/>
<path d="M1027.89 216.315L964.93 216.849L965.642 214.791L1027.87 214.33L1027.89 216.315Z" fill="#E8E5FF"/>
<path d="M885.576 260.173L886.8 261.734L923.07 233.279L921.846 231.718L885.576 260.173Z" fill="#E8E5FF"/>
<path d="M944.244 119.531L943.752 185.444L945.736 185.458L946.228 119.545L944.244 119.531Z" fill="#E8E5FF"/>
<path d="M1096.34 251.255L1095.29 252.94L1041.2 220.144L1042.25 218.459L1096.34 251.255Z" fill="#E8E5FF"/>
<path d="M930.892 217.84L923.535 210.852L924.906 209.409L930.822 215.028L935.884 209.699L942.373 215.862L947.624 210.334L949.067 211.705L942.448 218.674L935.957 212.508L930.892 217.84Z" fill="#E8E5FF"/>
<path d="M948.367 216.371L948.23 211.142L943 211.273L942.949 209.286L950.167 209.102L950.354 216.32L948.367 216.371Z" fill="#E8E5FF"/>
<path d="M935.986 204.87C937.378 203.959 937.768 202.092 936.857 200.7C935.946 199.307 934.079 198.917 932.687 199.827C931.295 200.738 930.905 202.605 931.816 203.998C932.727 205.39 934.594 205.78 935.986 204.87Z" fill="#E8E5FF"/>
<path d="M944.162 222.976L937.401 223.149L937.453 225.139L944.213 224.966L944.162 222.976Z" fill="#E8E5FF"/>
<path d="M941.712 220.659L939.722 220.709L939.897 227.47L941.887 227.419L941.712 220.659Z" fill="#E8E5FF"/>
<path d="M741.584 262.149C723.618 262.149 709 247.535 709 229.574C709 211.614 723.618 197 741.584 197C759.549 197 774.168 211.614 774.168 229.574C774.168 247.535 759.549 262.149 741.584 262.149ZM741.584 198.984C724.71 198.984 710.984 212.705 710.984 229.574C710.984 246.444 724.713 260.165 741.584 260.165C758.454 260.165 772.183 246.444 772.183 229.574C772.183 212.705 758.454 198.984 741.584 198.984Z" fill="#E8E5FF"/>
<path d="M733.666 241.081H728.672V244.572H733.666V241.081Z" fill="#E8E5FF"/>
<path d="M740.556 237.599H735.562V244.658H740.556V237.599Z" fill="#E8E5FF"/>
<path d="M747.445 233.168H742.451V244.744H747.445V233.168Z" fill="#E8E5FF"/>
<path d="M754.493 229.161H749.499V244.744H754.493V229.161Z" fill="#E8E5FF"/>
<path d="M749.035 220.518L747.15 222.211L751.152 222.476L741.137 229.723L732.866 229.69L728.666 233.469V235.248C728.666 235.248 728.685 235.232 728.695 235.222L733.203 231.165L741.432 231.188L751.893 223.567L751.744 227.323L753.629 225.63L753.821 220.832L749.029 220.515L749.035 220.518Z" fill="#E8E5FF"/>
<path d="M741.438 225.141V226.675H739.963V225.246C738.955 225.2 737.979 224.929 737.407 224.598L737.857 222.839C738.488 223.187 739.375 223.501 740.354 223.501C741.21 223.501 741.799 223.17 741.799 222.568C741.799 221.966 741.319 221.636 740.205 221.259C738.597 220.717 737.496 219.966 737.496 218.508C737.496 217.185 738.429 216.147 740.036 215.833V214.405H741.511V215.727C742.52 215.774 743.195 215.982 743.691 216.223L743.254 217.923C742.864 217.757 742.169 217.414 741.088 217.414C740.109 217.414 739.795 217.834 739.795 218.257C739.795 218.753 740.321 219.07 741.6 219.55C743.39 220.181 744.111 221.008 744.111 222.36C744.111 223.712 743.165 224.84 741.435 225.141H741.438Z" fill="#E8E5FF"/>
<path d="M317.282 305.543C296.171 305.543 279 288.373 279 267.271C279 246.17 296.174 229 317.282 229C338.389 229 355.564 246.17 355.564 267.271C355.564 288.373 338.389 305.543 317.282 305.543V305.543ZM317.282 230.984C297.266 230.984 280.984 247.261 280.984 267.271C280.984 287.282 297.266 303.559 317.282 303.559C337.298 303.559 353.58 287.282 353.58 267.271C353.58 247.261 337.298 230.984 317.282 230.984V230.984Z" fill="#E8E5FF"/>
<path d="M303.179 261.69L305.494 266.177L298.585 263.975L303.179 261.69Z" fill="#E8E5FF"/>
<path d="M321.475 282.467L324.204 278.219L325.748 285.301L321.475 282.467Z" fill="#E8E5FF"/>
<path d="M330.326 256.238L325.279 256.003L330.643 251.123L330.326 256.238Z" fill="#E8E5FF"/>
<path d="M331.44 259.468C333.474 263.039 334.07 267.417 332.727 271.633C331.324 276.027 328.1 279.343 324.151 281.016L324.7 283.526C329.502 281.638 333.451 277.687 335.138 272.4C336.768 267.291 335.951 261.978 333.349 257.729L331.44 259.465V259.468Z" fill="#E8E5FF"/>
<path d="M304.908 259.581C308.364 253.388 315.826 250.257 322.841 252.495C324.554 253.041 326.102 253.867 327.454 254.899L329.349 253.173C327.689 251.834 325.761 250.769 323.611 250.081C315.263 247.42 306.373 251.278 302.458 258.797L304.908 259.577V259.581Z" fill="#E8E5FF"/>
<path d="M318.211 282.233C316.676 282.233 315.118 282.004 313.581 281.512C306.566 279.273 302.296 272.403 303.067 265.354L300.616 264.573C299.452 272.971 304.462 281.264 312.81 283.925C314.788 284.557 316.795 284.818 318.76 284.755L318.211 282.236V282.233Z" fill="#E8E5FF"/>
<path d="M318.3 258.556C313.624 258.556 309.817 262.361 309.817 267.037C309.817 271.712 313.624 275.517 318.3 275.517C322.977 275.517 326.783 271.712 326.783 267.037C326.783 262.361 322.977 258.556 318.3 258.556ZM319.372 271.53V273.028H317.933V271.632C316.947 271.589 315.995 271.325 315.436 271.001L315.876 269.285C316.494 269.622 317.361 269.93 318.313 269.93C319.15 269.93 319.722 269.606 319.722 269.02C319.722 268.435 319.253 268.111 318.165 267.744C316.594 267.215 315.522 266.481 315.522 265.059C315.522 263.767 316.432 262.755 318.003 262.447V261.052H319.441V262.345C320.423 262.388 321.085 262.596 321.571 262.831L321.144 264.491C320.761 264.329 320.086 263.991 319.028 263.991C318.072 263.991 317.764 264.401 317.764 264.815C317.764 265.301 318.277 265.608 319.527 266.078C321.277 266.693 321.978 267.503 321.978 268.822C321.978 270.141 321.052 271.246 319.365 271.536L319.372 271.53Z" fill="#E8E5FF"/>
<path d="M318.3 255.481C311.917 255.481 306.741 260.655 306.741 267.036C306.741 273.418 311.917 278.592 318.3 278.592C324.683 278.592 329.859 273.418 329.859 267.036C329.859 260.655 324.683 255.481 318.3 255.481ZM318.3 276.784C312.922 276.784 308.55 272.413 308.55 267.036C308.55 261.66 312.925 257.289 318.3 257.289C323.674 257.289 328.05 261.66 328.05 267.036C328.05 272.413 323.678 276.784 318.3 276.784Z" fill="#E8E5FF"/>
<path d="M355.703 150.842L352.68 153.17V159.601H355.71V150.849L355.703 150.842Z" fill="#E8E5FF"/>
<path d="M363.68 154.413V159.601H366.71V152.138L363.68 154.413Z" fill="#E8E5FF"/>
<path d="M369.18 150.283V159.601H372.21V148.012L369.18 150.283Z" fill="#E8E5FF"/>
<path d="M361.144 156.314L358.18 153.335V159.601H361.21V156.264L361.144 156.314Z" fill="#E8E5FF"/>
<path d="M347.18 157.412V159.601H350.21V155.077L347.18 157.412Z" fill="#E8E5FF"/>
<path d="M376.76 141.171L370.639 140.48L372.315 142.583L361.553 150.657L356.076 145.148L344.233 154.277L346.181 156.8L355.795 149.387L361.249 154.869L374.303 145.076L376.066 147.291L376.76 141.171Z" fill="#E8E5FF"/>
<path d="M359.462 136.244C358.609 136.244 357.835 135.97 357.283 135.666L356.889 137.2C357.389 137.487 358.242 137.726 359.122 137.765V139.012H360.408V137.673C361.916 137.411 362.746 136.413 362.746 135.246C362.746 134.079 362.118 133.341 360.554 132.792C359.439 132.373 358.979 132.098 358.979 131.665C358.979 131.298 359.254 130.931 360.107 130.931C361.053 130.931 361.655 131.232 361.999 131.377L362.379 129.893C361.946 129.681 361.354 129.499 360.474 129.46V128.306H359.188V129.552C357.782 129.827 356.969 130.733 356.969 131.89C356.969 133.163 357.928 133.821 359.333 134.29C360.306 134.618 360.726 134.932 360.726 135.431C360.726 135.957 360.213 136.244 359.466 136.244H359.462Z" fill="#E8E5FF"/>
<path d="M359.516 141.154C357.511 141.154 355.6 140.39 354.135 139.002L353.414 138.321L355.653 136.082H349.881L349.795 141.938L351.876 139.858L352.56 140.519C354.442 142.338 356.913 143.34 359.516 143.34C364.463 143.34 368.624 139.726 369.401 134.941H367.182C366.435 138.539 363.283 141.157 359.519 141.157L359.516 141.154Z" fill="#E8E5FF"/>
<path d="M367.509 127.112L366.825 126.451C364.943 124.632 362.472 123.63 359.869 123.63C354.922 123.63 350.761 127.244 349.984 132.029H352.203C352.951 128.431 356.102 125.813 359.866 125.813C361.87 125.813 363.782 126.576 365.247 127.965L365.968 128.646L363.729 130.885H369.5L369.586 125.029L367.506 127.109L367.509 127.112Z" fill="#E8E5FF"/>
<path d="M418.473 371.928C400.015 371.928 385 356.917 385 338.464C385 320.011 400.015 305 418.473 305C436.931 305 451.946 320.011 451.946 338.464C451.946 356.917 436.931 371.928 418.473 371.928ZM418.473 306.981C401.109 306.981 386.984 321.102 386.984 338.461C386.984 355.819 401.109 369.941 418.473 369.941C435.836 369.941 449.962 355.819 449.962 338.461C449.962 321.102 435.836 306.981 418.473 306.981Z" fill="#E8E5FF"/>
<path d="M409.229 333.954V333.345C409.229 332.466 409.848 331.735 410.671 331.55V325.625H409.511C408.098 325.625 406.951 326.772 406.951 328.184V339.115C406.951 340.527 408.098 341.674 409.511 341.674H410.671V335.749C409.848 335.564 409.229 334.83 409.229 333.954V333.954Z" fill="#E8E5FF"/>
<path d="M423.659 333.954V333.345C423.659 332.466 424.278 331.735 425.101 331.55V325.625H422.389V324.451C422.389 323.033 421.235 321.879 419.816 321.879H416.998C415.58 321.879 414.425 323.033 414.425 324.451V325.625H411.74V331.55C412.563 331.735 413.182 332.469 413.182 333.345V333.954C413.182 334.833 412.563 335.564 411.74 335.749V341.674H425.101V335.749C424.278 335.564 423.659 334.83 423.659 333.954ZM420.736 325.625H416.076V324.451C416.076 323.942 416.489 323.529 416.998 323.529H419.816C420.326 323.529 420.739 323.942 420.739 324.451V325.625H420.736Z" fill="#E8E5FF"/>
<path d="M427.301 325.625H426.167V331.55C426.99 331.735 427.608 332.469 427.608 333.345V333.954C427.608 334.833 426.99 335.564 426.167 335.749V341.674H427.301C428.716 341.674 429.861 340.527 429.861 339.115V328.184C429.861 326.769 428.713 325.625 427.301 325.625V325.625Z" fill="#E8E5FF"/>
<path d="M412.299 333.954V333.345C412.299 332.959 412.067 332.625 411.736 332.473C411.614 332.416 411.478 332.383 411.333 332.383H411.072C410.926 332.383 410.791 332.416 410.668 332.473C410.337 332.625 410.106 332.959 410.106 333.345V333.954C410.106 334.341 410.337 334.675 410.668 334.827C410.791 334.883 410.926 334.916 411.072 334.916H411.333C411.478 334.916 411.614 334.883 411.736 334.827C412.067 334.675 412.299 334.341 412.299 333.954Z" fill="#E8E5FF"/>
<path d="M426.728 333.954V333.345C426.728 332.959 426.497 332.625 426.166 332.473C426.044 332.416 425.908 332.383 425.763 332.383H425.501C425.356 332.383 425.22 332.416 425.098 332.473C424.767 332.625 424.536 332.959 424.536 333.345V333.954C424.536 334.341 424.767 334.675 425.098 334.827C425.22 334.883 425.356 334.916 425.501 334.916H425.763C425.908 334.916 426.044 334.883 426.166 334.827C426.497 334.675 426.728 334.341 426.728 333.954Z" fill="#E8E5FF"/>
<path d="M425.243 343.268C425.164 342.908 424.843 342.656 424.479 342.656C424.463 342.656 424.446 342.656 424.43 342.656L419.723 342.944C419.545 342.954 419.376 343.027 419.244 343.146L419.052 343.321L418.847 343.132C418.702 343 418.516 342.931 418.321 342.931H412.411C412.044 342.931 411.726 343.185 411.647 343.542L410.258 349.758C410.202 350.006 410.271 350.268 410.443 350.456C410.592 350.621 410.804 350.711 411.022 350.711C411.055 350.711 411.088 350.711 411.121 350.704L412.98 350.469L417.951 354.348L418.467 354.827C418.616 354.966 418.811 355.039 419.002 355.039C419.052 355.039 419.105 355.032 419.155 355.025C419.327 355.012 419.495 354.943 419.628 354.817L423.193 351.494L424.956 349.884L425.571 350.066C425.644 350.089 425.72 350.099 425.792 350.099C425.988 350.099 426.179 350.026 426.328 349.887C426.53 349.699 426.619 349.414 426.556 349.143L425.243 343.265V343.268ZM414.825 350.899C414.855 350.879 414.885 350.853 414.908 350.823L415.083 350.605L415.497 350.089C415.632 349.92 415.606 349.672 415.437 349.537L414.882 349.09C414.713 348.955 414.465 348.981 414.329 349.15L413.985 349.577L413.741 349.881C413.707 349.92 413.688 349.967 413.671 350.013L413.205 349.646L412.986 349.672L411.022 349.92L412.411 343.704H418.321L418.47 343.84L418.533 343.896L417.306 345.424L416.803 346.049C416.803 346.049 416.565 346.306 416.588 346.601C416.598 346.707 416.638 346.816 416.73 346.918C417.18 347.411 418.209 347.031 418.209 347.031L419.489 345.506C419.489 345.506 419.654 345.288 419.948 345.179L424.436 349.249L423.477 350.145C423.477 350.145 423.454 350.115 423.438 350.102L420.081 347.004C419.922 346.859 419.674 346.869 419.528 347.027C419.383 347.186 419.393 347.434 419.551 347.579L422.908 350.678L422.66 350.909L422.108 351.425C422.108 351.425 422.108 351.421 422.105 351.418C422.088 351.392 422.065 351.365 422.042 351.342L419.254 348.859C419.092 348.714 418.844 348.73 418.702 348.892C418.556 349.054 418.573 349.302 418.735 349.444L421.523 351.927C421.523 351.927 421.533 351.934 421.539 351.937C421.543 351.941 421.549 351.944 421.552 351.947L420.742 352.704C420.742 352.704 420.732 352.688 420.729 352.681C420.709 352.645 420.686 352.612 420.653 352.585L418.367 350.552C418.205 350.41 417.957 350.423 417.815 350.585C417.67 350.747 417.686 350.995 417.848 351.137L420.134 353.171C420.134 353.171 420.157 353.187 420.17 353.197C420.18 353.204 420.19 353.21 420.2 353.217L419.829 353.564C419.829 353.564 419.819 353.538 419.813 353.524C419.79 353.468 419.753 353.419 419.7 353.379L419.145 352.932C418.976 352.797 418.728 352.823 418.592 352.992L418.192 353.491L418.172 353.518L417.842 353.26L417.885 353.204L418.275 352.718C418.41 352.549 418.384 352.301 418.215 352.165L417.66 351.719C417.491 351.583 417.243 351.61 417.107 351.779L416.787 352.179L416.661 352.337L416.33 352.076L416.479 351.891L416.882 351.388C417.018 351.22 416.992 350.972 416.823 350.836L416.267 350.39C416.099 350.254 415.854 350.281 415.718 350.449L415.384 350.866L415.153 351.154L414.951 350.995L414.825 350.896C414.825 350.896 414.832 350.889 414.839 350.889L414.825 350.899Z" fill="#E8E5FF"/>
<path d="M410.856 343.195C410.78 343.103 410.671 343.05 410.552 343.05H407.01C406.795 343.05 406.62 343.225 406.62 343.44V351.438C406.62 351.653 406.795 351.828 407.01 351.828H408.789C408.974 351.828 409.133 351.699 409.173 351.521L410.936 343.523C410.962 343.407 410.936 343.285 410.86 343.192L410.856 343.195Z" fill="#E8E5FF"/>
<path d="M429.939 342.722H426.397C426.278 342.722 426.166 342.775 426.093 342.868C426.02 342.96 425.99 343.083 426.017 343.199L427.78 351.197C427.819 351.375 427.978 351.504 428.163 351.504H429.943C430.158 351.504 430.333 351.329 430.333 351.111V343.116C430.333 342.901 430.158 342.726 429.943 342.726L429.939 342.722Z" fill="#E8E5FF"/>
<path d="M1133 167C1135.33 167 1137.22 165.111 1137.22 162.781C1137.22 160.451 1135.33 158.562 1133 158.562C1130.67 158.562 1128.78 160.451 1128.78 162.781C1128.78 165.111 1130.67 167 1133 167Z" fill="#E8E5FF"/>
<path d="M1147.04 132.32C1146.66 125 1140.62 119.151 1133.29 119.003C1133.19 119.001 1133.1 119 1133 119C1126 119 1120.04 124.158 1119.07 131.106C1118.98 131.75 1118.94 132.409 1118.94 133.062C1118.94 135.392 1120.83 137.281 1123.16 137.281C1125.49 137.281 1127.37 135.392 1127.37 133.062C1127.37 132.797 1127.39 132.532 1127.43 132.273C1127.82 129.459 1130.26 127.382 1133.12 127.439C1134.53 127.467 1135.87 128.033 1136.9 129.032C1137.94 130.031 1138.54 131.354 1138.62 132.757C1138.7 134.32 1138.15 135.803 1137.08 136.933C1136 138.065 1134.56 138.688 1133 138.688C1130.67 138.688 1128.78 140.576 1128.78 142.906V151.25C1128.78 153.58 1130.67 155.469 1133 155.469C1135.33 155.469 1137.22 153.58 1137.22 151.25V146.472C1139.48 145.759 1141.55 144.483 1143.2 142.743C1145.88 139.918 1147.24 136.217 1147.04 132.32V132.32Z" fill="#E8E5FF"/>
</svg>