<svg xmlns:xlink="http://www.w3.org/1999/xlink" xmlns="http://www.w3.org/2000/svg" width="24" height="24" viewBox="0 0 24 24" fill="none">
<g clip-path="url(#clip0_135_11834)">
<path d="M7.34161 10.0845L12.0029 5.42516L16.666 10.0883L19.3767 7.37572L12.0029 0L4.62903 7.37383L7.34161 10.0845Z" fill="#F3BA2F"/>
<path d="M0 12.0007L2.71069 9.28809L5.42327 12.0007L2.71069 14.7114L0 12.0007Z" fill="#F3BA2F"/>
<path d="M7.34161 13.916L12.0029 18.5772L16.666 13.9141L19.3786 16.6229L12.0047 23.9986L4.62903 16.6285L7.34161 13.916Z" fill="#F3BA2F"/>
<path d="M18.5768 12.0007L21.2875 9.28809L24.0001 11.9988L21.2875 14.7133L18.5768 12.0007Z" fill="#F3BA2F"/>
<path d="M14.7533 11.9995L12.0028 9.24707L9.96885 11.281L9.7338 11.5142L9.25232 11.9957L12.0028 14.7443L14.7533 12.0014V11.9995Z" fill="#F3BA2F"/>
</g>
<defs>
<clipPath id="clip0_135_11834">
<rect width="24" height="24" fill="white"/>
</clipPath>
</defs>
</svg>