<svg xmlns:xlink="http://www.w3.org/1999/xlink" xmlns="http://www.w3.org/2000/svg" width="70" height="138" viewBox="0 0 70 138" fill="none">
<path d="M34.679 60.892V1" stroke="#F0E1D3" stroke-width="2" stroke-miterlimit="10" stroke-linecap="round"/>
<path d="M40.0719 58.7827H28.5693V68.0269H40.0719V58.7827Z" fill="#FFDEC0"/>
<path d="M35.0382 67.9999C54.3471 67.9999 70.0001 83.6347 70.0001 102.921C70.0001 122.208 54.3471 137.842 35.0382 137.842C15.7292 137.842 0.0761719 122.208 0.0761719 102.921C0.0761719 83.6347 15.7292 67.9999 35.0382 67.9999Z" fill="#F9B233"/>
<path d="M35.0381 73.4176C51.3515 73.4176 64.5761 86.6268 64.5761 102.921C64.5761 119.216 51.3515 132.425 35.0381 132.425C18.7246 132.425 5.5 119.216 5.5 102.921C5.5 86.6268 18.7246 73.4176 35.0381 73.4176Z" fill="#DD902A"/>
<path d="M35.7517 74.2728C51.093 74.2728 63.5296 86.6949 63.5296 102.018C63.5296 117.342 51.093 129.764 35.7517 129.764C20.4104 129.764 7.97388 117.342 7.97388 102.018C7.97388 86.6949 20.4104 74.2728 35.7517 74.2728Z" fill="#F9B233"/>
<g style="mix-blend-mode:overlay" opacity="0.22">
<path d="M66.772 117.596L35.0378 102.921L69.4523 109.111C69.4523 109.111 69.1615 111.848 66.772 117.596Z" fill="white"/>
</g>
<g style="mix-blend-mode:overlay" opacity="0.22">
<path d="M69.9984 102.092L35.0381 102.921L68.652 93.2964C68.652 93.2964 69.601 95.8804 69.9982 102.092H69.9984Z" fill="white"/>
</g>
<g style="mix-blend-mode:overlay" opacity="0.15">
<path d="M4.07443 119.153L35.038 102.921L14.6102 74.578C14.6102 74.578 -9.32319 91.2954 4.07443 119.153Z" fill="white"/>
</g>
<path opacity="0.03" d="M56.7836 120.244L17.5186 81.0244C28.4061 70.7822 45.5465 70.9782 56.194 81.6133C66.8415 92.2484 67.0378 109.369 56.7836 120.244Z" fill="#1D1D1B"/>
<path d="M46.0152 104.362C45.2114 103.31 43.9985 102.588 42.3765 102.196C44.442 101.13 45.3497 99.3208 45.1005 96.7685C45.0172 95.8429 44.7643 95.0408 44.3413 94.3608C43.9181 93.6808 43.3469 93.1341 42.6256 92.7205C41.905 92.3063 41.1211 91.9911 40.276 91.7738C39.4306 91.5564 38.4601 91.3986 37.365 91.3006V86H34.1633V91.1533C33.6089 91.1533 32.7634 91.1673 31.6268 91.1954V86H28.4247V91.3006C27.9671 91.3146 27.2949 91.3218 26.4079 91.3218L22 91.3006V94.7502H24.3078C25.3613 94.7502 25.9781 95.2271 26.1583 96.1805V102.217C26.2971 102.217 26.4079 102.225 26.4911 102.239H26.1583V110.694C26.0475 111.409 25.6456 111.767 24.9524 111.767H22.6448L22.0001 115.616H26.1586C26.4221 115.616 26.803 115.619 27.3022 115.626C27.8012 115.633 28.1753 115.636 28.4248 115.636V121H31.6275V115.7C32.2095 115.714 33.055 115.721 34.1639 115.721V121H37.3657V115.636C38.5026 115.58 39.511 115.476 40.3908 115.321C41.271 115.166 42.1133 114.925 42.9171 114.595C43.7208 114.266 44.393 113.855 44.9335 113.364C45.4743 112.874 45.9209 112.25 46.275 111.492C46.6279 110.735 46.8535 109.859 46.9502 108.863C47.1311 106.914 46.8191 105.414 46.0152 104.362ZM31.6891 94.9809C31.7862 94.9809 32.0599 94.9774 32.5104 94.9703C32.9611 94.9631 33.3353 94.9562 33.6333 94.9491C33.9313 94.9422 34.3333 94.9597 34.8395 95.0018C35.3454 95.0439 35.7716 95.1001 36.118 95.1701C36.4644 95.24 36.846 95.3558 37.2614 95.5171C37.6776 95.6782 38.0101 95.8746 38.2593 96.1059C38.509 96.3372 38.7204 96.6319 38.8933 96.9895C39.0668 97.347 39.1534 97.7571 39.1534 98.2198C39.1534 98.6125 39.0912 98.9701 38.9666 99.2928C38.8422 99.6153 38.6546 99.8853 38.4054 100.103C38.1561 100.32 37.8992 100.51 37.6358 100.671C37.3726 100.832 37.0362 100.962 36.6274 101.06C36.2187 101.158 35.8618 101.235 35.557 101.291C35.252 101.347 34.8709 101.386 34.4134 101.407C33.9559 101.428 33.6092 101.442 33.3737 101.449C33.138 101.456 32.8158 101.456 32.4067 101.449C31.9976 101.442 31.7588 101.438 31.6893 101.438V94.9809H31.6891V94.9809ZM40.4326 109.305C40.3005 109.628 40.131 109.908 39.9232 110.147C39.7151 110.385 39.4412 110.595 39.1017 110.777C38.7624 110.96 38.4328 111.107 38.1143 111.219C37.7953 111.332 37.4105 111.429 36.9604 111.514C36.5094 111.598 36.1146 111.657 35.7746 111.692C35.4352 111.728 35.0299 111.755 34.5584 111.777C34.0873 111.797 33.7198 111.808 33.4565 111.808C33.1931 111.808 32.8604 111.804 32.4584 111.797C32.0561 111.791 31.7999 111.787 31.689 111.787V104.677C31.7997 104.677 32.129 104.671 32.6766 104.656C33.2243 104.642 33.6711 104.636 34.0177 104.636C34.3642 104.636 34.8426 104.656 35.4527 104.699C36.0623 104.74 36.5752 104.803 36.9914 104.887C37.4071 104.972 37.8607 105.101 38.3532 105.277C38.8451 105.452 39.2438 105.666 39.5489 105.918C39.8539 106.171 40.1102 106.493 40.318 106.886C40.5264 107.278 40.6303 107.727 40.6303 108.232C40.6302 108.625 40.5644 108.982 40.4326 109.305Z" fill="white"/>
</svg>