<svg xmlns:xlink="http://www.w3.org/1999/xlink" xmlns="http://www.w3.org/2000/svg" width="105" height="174" viewBox="0 0 105 174" fill="none">
<path d="M52 162.357V1" stroke="#F0E1D3" stroke-width="2" stroke-miterlimit="10" stroke-linecap="round"/>
<path d="M57.6271 59.9678H46.4111V68.9906H57.6271V59.9678Z" fill="#FFDEC0"/>
<path d="M52.5572 69.0001C81.5207 69.0001 105 92.4522 105 121.382C105 150.312 81.5207 173.764 52.5572 173.764C23.5938 173.764 0.114258 150.312 0.114258 121.382C0.114258 92.4522 23.5938 69.0001 52.5572 69.0001Z" fill="#F9B233"/>
<path d="M52.5571 77.1264C77.0272 77.1264 96.8642 96.9402 96.8642 121.382C96.8642 145.823 77.0272 165.637 52.5571 165.637C28.087 165.637 8.25 145.823 8.25 121.382C8.25 96.9402 28.087 77.1264 52.5571 77.1264Z" fill="#DD902A"/>
<path d="M53.6277 78.4097C76.6396 78.4097 95.2945 97.0428 95.2945 120.028C95.2945 143.013 76.6396 161.646 53.6277 161.646C30.6158 161.646 11.9609 143.013 11.9609 120.028C11.9609 97.0428 30.6158 78.4097 53.6277 78.4097Z" fill="#F9B233"/>
<g style="mix-blend-mode:overlay" opacity="0.22">
<path d="M100.158 143.394L52.5569 121.382L104.179 130.666C104.179 130.666 103.742 134.771 100.158 143.394Z" fill="white"/>
</g>
<g style="mix-blend-mode:overlay" opacity="0.22">
<path d="M104.997 120.139L52.5566 121.382L102.978 106.946C102.978 106.946 104.401 110.822 104.997 120.139H104.997Z" fill="white"/>
</g>
<g style="mix-blend-mode:overlay" opacity="0.15">
<path d="M6.11164 145.729L52.557 121.382L21.9154 78.8668C21.9154 78.8668 -13.9848 103.943 6.11164 145.729Z" fill="white"/>
</g>
<path d="M57.4975 109.69L51.8262 104.025L46.1549 109.69L40.2809 115.558L32.8252 108.111L51.8262 89.1318L70.8272 108.111L63.3719 115.558L57.4975 109.69Z" fill="white"/>
<path d="M46.1549 132.754L51.8262 138.419L57.4975 132.754L63.3719 126.887L70.8272 134.334L51.8262 153.312L32.8252 134.334L40.2809 126.887L46.1549 132.754Z" fill="white"/>
<path d="M28.5132 130.33L19.5283 121.355L28.5132 112.381L37.4982 121.355L28.5132 130.33Z" fill="white"/>
<path d="M75.19 130.33L66.2051 121.355L75.19 112.381L84.1749 121.355L75.19 130.33Z" fill="white"/>
<path d="M51.8267 130.33L42.8418 121.355L51.8267 112.381L60.8116 121.355L51.8267 130.33Z" fill="white"/>
<path opacity="0.03" d="M85.176 147.366L26.2783 88.5368C42.6096 73.1735 68.3202 73.4676 84.2915 89.4202C100.263 105.373 100.557 131.054 85.176 147.366Z" fill="#1D1D1B"/>
</svg>