<svg xmlns:xlink="http://www.w3.org/1999/xlink" xmlns="http://www.w3.org/2000/svg" width="706" height="298" viewBox="0 0 706 298" fill="none">
<path d="M43.8704 233.48H61.0703V292.45L37.8704 290.64L43.8704 233.48Z" fill="#FFCD50"/>
<path d="M50.8804 289.41V233.48H61.0703V292.45L37.8704 290.64L38.1003 288.41L50.8804 289.41Z" fill="#FFAD4A"/>
<path d="M62.8511 221L74.4232 222.012L75.6299 260.494L56.6299 261L62.8511 221Z" fill="#FFCD50"/>
<path d="M210.99 218.33L239.01 219.77L241.92 274.55L195.92 275.27L210.99 218.33Z" fill="#FFAD4A"/>
<path d="M205.78 197L223.96 198.44L225.85 253.22L196 253.94L205.78 197Z" fill="#FFAD4A"/>
<path d="M257.319 228.33L271.089 229.77L272.52 284.55L249.929 285.27L257.319 228.33Z" fill="#FFAD4A"/>
<path d="M235.26 206.9L257.83 209.11L259.85 263.88L233.93 262.23L235.26 206.9Z" fill="#FFAD4A"/>
<path d="M69.1943 221L74.5194 221.516L75.6299 260.792L68.6299 261L69.1943 221Z" fill="#FFAD4A"/>
<path d="M7.04016 279.55H24.1602V294.66H7.04016V279.55Z" fill="#FFCD50"/>
<path d="M32.2196 270.7H52.3496V293.18H29.2296L32.2196 270.7Z" fill="#FFCD50"/>
<path d="M280.409 285.44H299.359V299.82H280.409V285.44Z" fill="#FFCD50"/>
<path d="M278.99 243.43H294.15V288.39H278.99V243.43Z" fill="#FFCD50"/>
<path d="M293.68 290.98H312.63V299.82H293.68V290.98Z" fill="#FFCD50"/>
<path d="M52.5797 255.59H273.07L288.47 299.82H52.5797V255.59Z" fill="#FFCD50"/>
<path d="M0.000244141 288.76H255.78V299.82H0.000244141V288.76Z" fill="#FFCD50"/>
<path d="M189.35 285.72L175.14 281.85L173.72 274.11L160.93 273.01L150.27 264.44L50.9498 258.72L52.5798 255.59H273.07L278.99 272.6V243.43H294.15V285.44H299.36V290.98H312.63V299.82H299.36H293.68H288.47H280.41H255.78H194.82L190.41 294.01L189.35 285.72Z" fill="#FFAD4A"/>
<path d="M148.01 260.57H166.13V271.72H148.01V260.57Z" fill="#FFCD50"/>
<path d="M190.29 275.22H203.88V278.81H190.29V275.22Z" fill="#FFCD50"/>
<path d="M197.88 294.85L215.25 292.83V297.21H198.75L197.88 294.85Z" fill="#FFCD50"/>
<path d="M236.01 280.2L218.64 278.18V282.56H235.14L236.01 280.2Z" fill="#FFCD50"/>
<path d="M169.94 267.49L187.31 265.46V269.84H170.81L169.94 267.49Z" fill="#FFCD50"/>
<path d="M195.96 285.44H208.83V289.03H195.96V285.44Z" fill="#FFCD50"/>
<path d="M177.74 281.85H210.09V285.44H177.74V281.85Z" fill="#FFAD4A"/>
<path d="M78.3103 294.44H98.0703V297.42H78.3103V294.44Z" fill="#FFAD4A"/>
<path d="M82.8501 278.41H98.5801V281.39H82.8501V278.41Z" fill="#FFE592"/>
<path d="M108.02 272.15L124.5 271.22V274.57L108.02 274.36V272.15Z" fill="#FFE592"/>
<path d="M143.76 288.55L160.25 287.63V290.97L143.76 290.76V288.55Z" fill="#FFE592"/>
<path d="M50.1196 284.12H71.8896V287.1H50.1196V284.12Z" fill="#FFAD4A"/>
<path d="M50.1199 277.67H64.3398V280.65H50.1199V277.67Z" fill="#FFAD4A"/>
<path d="M36.53 277.31H50.75V280.29H36.53V277.31Z" fill="#FFAD4A"/>
<path d="M54.28 269.84H68.5V272.82H54.28V269.84Z" fill="#FFAD4A"/>
<path d="M138.04 276.51L155.86 275.07L156.31 278.65L138.26 278.22L138.04 276.51Z" fill="#FFAD4A"/>
<path d="M45.1498 290.6V270.7H56.2798L58.4297 293.18H32.2197V290.6H45.1498Z" fill="#FFAD4A"/>
<path d="M17.3602 279.55H24.1602V294.66H17.3602V279.55Z" fill="#FFAD4A"/>
<path d="M17.3698 286.89H37.7598V299.82H17.3698V286.89Z" fill="#FFAD4A"/>
<path d="M33.0096 292.05H83.0996V299.82H33.0096V292.05Z" fill="#FFAD4A"/>
<path d="M31.4995 289.1L47.9795 288.18V291.53L31.4995 291.31V289.1Z" fill="#FFCD50"/>
<path d="M64.47 265.88L80.96 264.96V268.31L64.47 268.09V265.88Z" fill="#FFE592"/>
<path d="M62.3102 232.16L72.9102 231.23V234.58L62.3102 234.37V232.16Z" fill="#FFAD4A"/>
<path d="M36.7798 271.13L51.2598 270.21V273.56L36.7798 273.34V271.13Z" fill="#FFAD4A"/>
<path d="M6.61011 295.25L21.0801 294.32V297.67L6.61011 297.46V295.25Z" fill="#FFAD4A"/>
<path d="M8.11011 289.86L22.5801 288.94V292.29L8.11011 292.08V289.86Z" fill="#FFCD50"/>
<path d="M63.4199 248.56L72.25 247.64V250.99L63.4199 250.77V248.56Z" fill="#FFCD50"/>
<path d="M65.4399 225.75L73.1699 224.83V228.18L65.4399 227.96V225.75Z" fill="#FFAD4A"/>
<path d="M66.9799 220L74.6299 221.45L74.2499 224.77L66.7198 222.2L66.9799 220Z" fill="#FFAD4A"/>
<path opacity="0.6" d="M281.03 260.81H288.85V264.13H281.03V260.81Z" fill="#FFCD50"/>
<path opacity="0.6" d="M248.71 264.68H265.76V268H248.71V264.68Z" fill="#FFCD50"/>
<path opacity="0.6" d="M265.05 287.28H279.97V290.18H265.05V287.28Z" fill="#FFCD50"/>
<path opacity="0.6" d="M244.8 277.4H259.72V280.3H244.8V277.4Z" fill="#FFCD50"/>
<path d="M446.557 87.0001C475.521 87.0001 499 110.452 499 139.382C499 168.312 475.521 191.764 446.557 191.764C417.594 191.764 394.114 168.312 394.114 139.382C394.114 110.452 417.594 87.0001 446.557 87.0001Z" fill="#555ABE"/>
<path d="M446.557 95.1264C471.027 95.1264 490.864 114.94 490.864 139.382C490.864 163.823 471.027 183.637 446.557 183.637C422.087 183.637 402.25 163.823 402.25 139.382C402.25 114.94 422.087 95.1264 446.557 95.1264Z" fill="#262964"/>
<path d="M447.628 96.4097C470.64 96.4097 489.294 115.043 489.294 138.028C489.294 161.013 470.64 179.646 447.628 179.646C424.616 179.646 405.961 161.013 405.961 138.028C405.961 115.043 424.616 96.4097 447.628 96.4097Z" fill="#555ABE"/>
<g style="mix-blend-mode:overlay" opacity="0.22">
<path d="M494.158 161.394L446.557 139.382L498.179 148.666C498.179 148.666 497.742 152.771 494.158 161.394Z" fill="white"/>
</g>
<g style="mix-blend-mode:overlay" opacity="0.22">
<path d="M498.997 138.139L446.557 139.382L496.978 124.946C496.978 124.946 498.401 128.822 498.997 138.139H498.997Z" fill="white"/>
</g>
<g style="mix-blend-mode:overlay" opacity="0.15">
<path d="M400.112 163.729L446.557 139.382L415.915 96.8668C415.915 96.8668 380.015 121.943 400.112 163.729Z" fill="white"/>
</g>
<path opacity="0.03" d="M479.176 165.366L420.278 106.537C436.61 91.1735 462.32 91.4676 478.292 107.42C494.263 123.373 494.557 149.054 479.176 165.366Z" fill="#1D1D1B"/>
<path d="M466.138 143.414C466.053 143.408 446.811 154.811 446.559 154.908C446.503 154.876 427.092 143.388 427 143.399C427.047 143.468 446.546 171 446.559 171C446.573 171 466.138 143.414 466.138 143.414Z" fill="white"/>
<path d="M446.569 107L427.063 139.622L446.569 151.176L466.074 139.622L446.569 107Z" fill="white"/>
<path d="M520.536 163.737L729.549 262.572" stroke="#00492C" stroke-width="3" stroke-miterlimit="10"/>
<path d="M550.393 149.376L562.73 183.762L528.339 196.092" stroke="#00492C" stroke-width="3" stroke-miterlimit="10"/>
<path d="M537.887 154.506L545.456 175.612L524.353 183.176" stroke="#00492C" stroke-width="3" stroke-miterlimit="10"/>
<path d="M565.96 156.615L578.297 190.988L543.906 203.318" stroke="#00492C" stroke-width="3" stroke-miterlimit="10"/>
<path d="M581.527 163.842L593.863 198.215L559.473 210.545" stroke="#00492C" stroke-width="3" stroke-miterlimit="10"/>
<path d="M597.107 171.068L609.444 205.441L575.04 217.771" stroke="#00492C" stroke-width="3" stroke-miterlimit="10"/>
<path d="M612.673 178.294L625.01 212.667L590.619 224.997" stroke="#00492C" stroke-width="3" stroke-miterlimit="10"/>
<path d="M628.241 185.52L640.577 219.893L606.187 232.223" stroke="#00492C" stroke-width="3" stroke-miterlimit="10"/>
<path d="M643.807 192.746L656.143 227.119L621.753 239.449" stroke="#00492C" stroke-width="3" stroke-miterlimit="10"/>
<path d="M659.387 199.972L671.724 234.345L637.333 246.688" stroke="#00492C" stroke-width="3" stroke-miterlimit="10"/>
<path d="M674.955 207.198L687.291 241.584L652.9 253.914" stroke="#00492C" stroke-width="3" stroke-miterlimit="10"/>
<path d="M31.6455 130.589C148.82 88.0392 279.96 148.283 323.378 267.689" stroke="#006941" stroke-width="3" stroke-miterlimit="10"/>
<path d="M83.7913 152.436C94.7858 139.742 107.93 128.024 123.002 117.803C109.102 105.799 92.8318 95.0571 74.3469 86.3467" stroke="#006941" stroke-width="3" stroke-miterlimit="10"/>
<path d="M65.6712 146.851C73.7477 136.357 83.1139 126.357 93.6915 117.1C81.7982 109.392 68.5892 102.622 54.1426 97.1533" stroke="#006941" stroke-width="3" stroke-miterlimit="10"/>
<path d="M108.672 150.887C121.035 139.729 135.416 129.768 151.556 121.54C139.402 107.882 124.799 95.1743 107.852 84.1333" stroke="#006941" stroke-width="3" stroke-miterlimit="10"/>
<path d="M133.24 152.553C146.801 143.048 162.251 134.976 179.263 128.818C168.972 113.766 156.18 99.3403 140.952 86.2422" stroke="#006941" stroke-width="3" stroke-miterlimit="10"/>
<path d="M157.236 157.28C171.838 149.559 188.148 143.465 205.786 139.481C197.462 123.271 186.624 107.374 173.258 92.479" stroke="#006941" stroke-width="3" stroke-miterlimit="10"/>
<path d="M180.371 164.974C195.807 159.129 212.768 155.131 230.81 153.4C224.557 136.252 215.79 119.144 204.431 102.713" stroke="#006941" stroke-width="3" stroke-miterlimit="10"/>
<path d="M202.347 175.482C218.409 171.628 235.786 169.792 253.958 170.391C249.855 152.541 243.25 134.456 234.028 116.723" stroke="#006941" stroke-width="3" stroke-miterlimit="10"/>
<path d="M222.903 188.697C239.369 186.913 256.903 187.33 274.945 190.351C273.043 172.018 268.705 153.165 261.723 134.391" stroke="#006941" stroke-width="3" stroke-miterlimit="10"/>
<path d="M241.739 204.49C258.374 204.868 275.791 207.615 293.403 213.096C293.768 194.491 291.749 175.104 287.111 155.509" stroke="#006941" stroke-width="3" stroke-miterlimit="10"/>
<path d="M258.57 222.731C275.101 225.348 292.127 230.478 309.01 238.472C311.654 219.788 312.019 200.089 309.817 179.908" stroke="#006941" stroke-width="3" stroke-miterlimit="10"/>
<path d="M160.467 214.495H76.4785V310.328H160.467V214.495Z" fill="#1A71BE"/>
<path d="M107.736 270.547V214.495H76.4785V310.328H160.467V289.859H127.05C116.382 289.859 107.736 281.218 107.736 270.555V270.547Z" fill="#1269AA"/>
<path d="M136.206 229.713V200.994C136.206 191.206 128.266 183.271 118.473 183.271C108.68 183.271 100.74 191.206 100.74 200.994V229.713" stroke="#F0E1D3" stroke-width="2.5" stroke-miterlimit="10"/>
<path d="M244.084 236.116L190.454 214.19C187.301 212.901 185.79 209.307 187.08 206.157L206.529 158.647C207.18 157.045 208.47 155.808 210.098 155.209L246.989 141.564C249.986 140.458 253.346 141.825 254.701 144.715L271.44 180.299C272.17 181.861 272.222 183.658 271.571 185.246L252.122 232.756C250.832 235.907 247.237 237.418 244.084 236.129V236.116Z" fill="#A55A3C"/>
<path d="M245.556 232.509L191.925 210.583C188.773 209.294 187.262 205.701 188.551 202.55L208 155.04C208.652 153.439 209.941 152.202 211.57 151.603L248.461 137.958C251.457 136.851 254.818 138.218 256.173 141.109L272.912 176.692C273.642 178.255 273.694 180.052 273.042 181.64L253.594 229.15C252.304 232.301 248.709 233.811 245.556 232.522V232.509Z" fill="#D27350"/>
<path d="M264.823 178.736L251.913 151.303C250.572 148.439 247.315 147.111 244.332 148.205L215.895 158.725C214.305 159.311 213.029 160.548 212.39 162.11L196.407 201.144C195.143 204.23 196.628 207.771 199.716 209.034L211.101 213.695L229.677 221.299L241.062 225.96C244.149 227.223 247.693 225.739 248.956 222.653L264.94 183.619C265.578 182.057 265.539 180.286 264.81 178.749L264.823 178.736ZM237.102 193.592L225.248 188.749C223.398 187.994 221.262 188.879 220.506 190.741L216.246 201.144L201.67 195.181L212.938 167.643C215.543 169.362 216.65 172.734 215.426 175.729L214.579 177.799C213.498 180.442 214.761 183.45 217.406 184.53C220.05 185.611 223.059 184.348 224.141 181.705L226.59 175.729C227.098 174.479 228.517 173.88 229.768 174.401C231.019 174.909 231.618 176.328 231.097 177.578L230.393 179.309C229.481 181.536 230.55 184.088 232.777 184.999C235.005 185.91 237.558 184.843 238.47 182.616C239.369 180.416 241.896 179.361 244.097 180.26L244.358 180.364C246.703 181.327 247.823 183.997 246.872 186.34C246.012 188.436 247.015 190.819 249.113 191.678L249.569 191.861C251.913 192.824 254.597 191.691 255.548 189.348C256.382 187.317 258.661 186.327 260.706 187.056L249.386 214.698L234.809 208.735L239.069 198.332C239.825 196.483 238.939 194.347 237.076 193.592H237.102ZM245.244 150.652C246.09 150.34 246.976 150.379 247.745 150.691C248.513 151.004 249.178 151.603 249.556 152.423L262.465 179.856C262.686 180.325 262.791 180.82 262.791 181.327L215.556 162.006C215.908 161.654 216.338 161.368 216.807 161.186L245.244 150.665V150.652ZM200.719 206.638C198.96 205.922 198.113 203.904 198.83 202.146L200.693 197.589L215.269 203.553L212.104 211.299L200.719 206.651V206.638ZM214.514 212.276L222.929 191.717C223.137 191.197 223.75 190.936 224.271 191.158L236.125 196.001C236.646 196.222 236.907 196.821 236.685 197.342L233.168 205.935L229.468 204.425L228.478 206.834L232.178 208.344L228.27 217.888L214.514 212.263V212.276ZM242.065 223.538L230.68 218.89L233.845 211.143L248.422 217.106L246.559 221.663C245.843 223.421 243.824 224.267 242.065 223.551V223.538Z" fill="#A55A3C"/>
<path d="M240.111 169.336C243.889 170.885 248.214 169.063 249.764 165.287C251.314 161.511 249.49 157.188 245.713 155.639C241.935 154.09 237.61 155.912 236.06 159.688C234.51 163.464 236.333 167.787 240.098 169.336H240.111ZM244.723 158.061C247.172 159.063 248.344 161.862 247.341 164.31C246.338 166.758 243.537 167.93 241.088 166.927C238.639 165.925 237.467 163.125 238.47 160.678C239.473 158.23 242.274 157.058 244.723 158.061Z" fill="#A55A3C"/>
<path d="M242.352 222.835L201.005 205.922C198.582 204.933 197.41 202.159 198.413 199.725L214.397 160.691C214.905 159.467 215.895 158.503 217.145 158.035L245.583 147.515C247.901 146.655 250.481 147.71 251.536 149.949L264.445 177.382C265.005 178.58 265.044 179.973 264.536 181.197L248.553 220.231C247.563 222.653 244.788 223.825 242.352 222.822V222.835Z" stroke="#FFCD9B" stroke-width="2" stroke-miterlimit="10"/>
<path d="M214.384 160.704L264.524 181.198" stroke="#FFCD9B" stroke-width="2" stroke-miterlimit="10"/>
<path d="M225.565 188.031L237.416 192.877C238.61 193.365 239.18 194.724 238.692 195.917L229.783 217.68L213.615 211.069L222.524 189.305C223.012 188.112 224.371 187.543 225.565 188.031Z" stroke="#FFCD9B" stroke-width="2" stroke-miterlimit="10"/>
<path d="M200.771 193.983L217.745 200.923" stroke="#FFCD9B" stroke-width="2" stroke-miterlimit="10"/>
<path d="M233.91 207.537L250.897 214.476" stroke="#FFCD9B" stroke-width="2" stroke-miterlimit="10"/>
<path d="M264.523 181.197L259.704 179.231L251.21 175.755L242.717 172.279L234.627 168.972L230.107 167.123L220.545 163.217L214.371 160.691L212.56 165.105C215.973 166.498 217.601 170.391 216.208 173.802L215.361 175.872C214.28 178.515 215.543 181.523 218.188 182.604C220.832 183.684 223.841 182.421 224.922 179.778L227.371 173.802C227.879 172.552 229.312 171.953 230.55 172.474C231.8 172.982 232.4 174.414 231.879 175.651L231.175 177.383C230.263 179.609 231.331 182.161 233.559 183.072C235.787 183.984 238.34 182.916 239.252 180.69C240.151 178.489 242.678 177.435 244.879 178.333L245.14 178.437C247.485 179.401 248.605 182.07 247.654 184.413C246.794 186.51 247.797 188.892 249.894 189.752L250.35 189.934C252.695 190.897 255.379 189.765 256.33 187.421C257.189 185.325 259.573 184.335 261.671 185.182L262.713 185.611L264.523 181.197Z" fill="#FFCD9B"/>
<path d="M249.347 162.891C248.071 166.003 244.515 167.5 241.401 166.224C238.288 164.948 236.79 161.394 238.066 158.282C239.343 155.17 242.899 153.673 246.013 154.949C249.126 156.225 250.624 159.779 249.347 162.891Z" stroke="#FFCD9B" stroke-width="2" stroke-miterlimit="10"/>
<path d="M229.755 203.722L234.653 205.727" stroke="#FFCD9B" stroke-width="2" stroke-miterlimit="10"/>
<path d="M244.84 176.614L220.832 166.797C220.011 166.459 219.62 165.521 219.959 164.714C220.298 163.894 221.236 163.503 222.043 163.842L246.052 173.659C246.872 173.997 247.263 174.935 246.924 175.742C246.586 176.562 245.648 176.953 244.84 176.614Z" fill="#FFDEC0"/>
<path d="M694.52 343.375L640.889 321.449C637.737 320.16 636.226 316.567 637.515 313.416L656.964 265.906C657.615 264.304 658.905 263.067 660.533 262.469L697.425 248.824C700.421 247.717 703.782 249.084 705.137 251.974L721.876 287.558C722.606 289.121 722.658 290.917 722.006 292.506L702.557 340.016C701.268 343.167 697.672 344.677 694.52 343.388V343.375Z" fill="#A55A3C"/>
<path d="M696.005 339.755L642.375 317.83C639.222 316.541 637.711 312.947 639.001 309.796L658.449 262.286C659.101 260.685 660.39 259.448 662.019 258.849L698.91 245.204C701.906 244.097 705.267 245.464 706.622 248.355L723.361 283.939C724.091 285.501 724.143 287.298 723.492 288.886L704.043 336.396C702.753 339.547 699.158 341.057 696.005 339.768V339.755Z" fill="#D27350"/>
<path d="M715.259 285.996L702.349 258.563C701.007 255.698 697.751 254.37 694.768 255.464L666.33 265.984C664.741 266.57 663.465 267.807 662.826 269.369L646.843 308.403C645.579 311.489 647.064 315.03 650.151 316.293L661.537 320.941L680.113 328.545L691.498 333.193C694.585 334.456 698.129 332.972 699.392 329.886L715.376 290.852C716.014 289.29 715.975 287.519 715.246 285.983L715.259 285.996ZM687.538 300.852L675.684 296.008C673.834 295.253 671.697 296.138 670.942 298L666.682 308.403L652.105 302.44L663.386 274.903C665.992 276.621 667.099 279.994 665.875 282.988L665.028 285.058C663.947 287.701 665.21 290.709 667.855 291.79C670.499 292.87 673.508 291.607 674.589 288.964L677.038 282.988C677.546 281.738 678.979 281.139 680.217 281.66C681.467 282.168 682.067 283.6 681.546 284.837L680.842 286.569C679.93 288.795 680.999 291.347 683.226 292.258C685.454 293.17 688.007 292.102 688.919 289.876C689.818 287.675 692.345 286.621 694.546 287.519L694.807 287.623C697.152 288.587 698.272 291.256 697.321 293.599C696.461 295.696 697.464 298.078 699.562 298.938L700.017 299.12C702.362 300.083 705.046 298.951 705.997 296.607C706.83 294.576 709.11 293.586 711.155 294.316L699.835 321.957L685.258 315.994L689.518 305.591C690.273 303.742 689.388 301.607 687.525 300.852H687.538ZM695.68 257.912C696.526 257.599 697.412 257.638 698.181 257.951C698.949 258.263 699.614 258.862 699.991 259.682L712.901 287.115C713.122 287.584 713.226 288.079 713.226 288.587L665.992 269.265C666.343 268.914 666.773 268.627 667.242 268.445L695.68 257.925V257.912ZM651.154 313.898C649.396 313.182 648.549 311.163 649.266 309.406L651.128 304.849L665.705 310.812L662.54 318.559L651.154 313.911V313.898ZM664.95 319.535L673.365 298.977C673.573 298.456 674.186 298.196 674.707 298.417L686.561 303.26C687.082 303.469 687.343 304.081 687.121 304.601L683.604 313.195L679.904 311.684L678.914 314.093L682.614 315.603L678.706 325.147L664.95 319.522V319.535ZM692.501 330.798L681.116 326.149L684.281 318.403L698.858 324.366L696.995 328.923C696.279 330.68 694.26 331.527 692.501 330.811V330.798Z" fill="#A55A3C"/>
<path d="M690.56 276.583C694.338 278.132 698.663 276.309 700.213 272.533C701.763 268.758 699.94 264.435 696.162 262.886C692.384 261.336 688.059 263.159 686.509 266.935C684.959 270.711 686.783 275.033 690.56 276.583ZM695.172 265.307C697.621 266.31 698.793 269.109 697.79 271.557C696.787 274.005 693.986 275.176 691.537 274.174C689.088 273.171 687.916 270.372 688.919 267.924C689.922 265.476 692.723 264.305 695.172 265.307Z" fill="#A55A3C"/>
<path d="M692.788 330.081L651.441 313.168C649.018 312.179 647.846 309.406 648.849 306.971L664.832 267.937C665.34 266.713 666.33 265.749 667.581 265.281L696.018 254.761C698.337 253.901 700.916 254.956 701.971 257.195L714.881 284.628C715.441 285.826 715.48 287.219 714.985 288.443L699.001 327.477C698.011 329.899 695.237 331.071 692.801 330.068L692.788 330.081Z" stroke="#FFCD9B" stroke-width="2" stroke-miterlimit="10"/>
<path d="M664.832 267.95L714.959 288.443" stroke="#FFCD9B" stroke-width="2" stroke-miterlimit="10"/>
<path d="M676.019 295.258L687.87 300.105C689.064 300.593 689.634 301.951 689.146 303.144L680.238 324.907L664.07 318.296L672.978 296.533C673.466 295.34 674.825 294.77 676.019 295.258Z" stroke="#FFCD9B" stroke-width="2" stroke-miterlimit="10"/>
<path d="M714.959 288.444L710.139 286.477L701.646 283.001L693.152 279.525L685.063 276.218L680.543 274.369L670.981 270.463L664.806 267.937L662.996 272.351C666.409 273.744 668.037 277.637 666.643 281.048L665.796 283.118C664.715 285.761 665.979 288.769 668.623 289.85C671.268 290.93 674.277 289.667 675.358 287.024L677.807 281.048C678.315 279.798 679.748 279.199 680.985 279.72C682.236 280.228 682.835 281.66 682.314 282.897L681.611 284.629C680.699 286.855 681.767 289.407 683.995 290.318C686.222 291.23 688.775 290.162 689.687 287.936C690.586 285.735 693.113 284.681 695.315 285.579L695.575 285.683C697.92 286.647 699.04 289.316 698.089 291.659C697.23 293.756 698.233 296.138 700.33 296.998L700.786 297.18C703.131 298.143 705.814 297.011 706.765 294.667C707.625 292.571 710.009 291.581 712.106 292.428L713.148 292.857L714.959 288.444Z" fill="#FFCD9B"/>
<path d="M699.783 270.137C698.506 273.249 694.95 274.746 691.837 273.47C688.723 272.194 687.225 268.64 688.502 265.528C689.779 262.416 693.335 260.919 696.448 262.195C699.562 263.471 701.06 267.025 699.783 270.137Z" stroke="#FFCD9B" stroke-width="2" stroke-miterlimit="10"/>
<path d="M695.275 283.86L671.267 274.043C670.447 273.705 670.056 272.767 670.394 271.96C670.733 271.14 671.671 270.749 672.479 271.088L696.487 280.905C697.308 281.243 697.698 282.181 697.36 282.988C697.021 283.808 696.083 284.199 695.275 283.86Z" fill="#FFDEC0"/>
<path d="M309.635 115.082C324.133 107.452 342.149 113.038 349.783 127.529L406.227 234.697C408.468 238.941 406.827 244.188 402.58 246.428C398.333 248.667 393.084 247.027 390.843 242.782L334.398 135.614C331.233 129.599 323.743 127.269 317.724 130.446C311.706 133.609 309.374 141.096 312.553 147.111L320.33 161.863C322.57 166.107 320.929 171.354 316.682 173.594C312.435 175.833 307.186 174.193 304.945 169.948L297.168 155.197C289.535 140.692 295.123 122.699 309.622 115.069L309.635 115.082Z" fill="white"/>
<path d="M309.635 115.082C324.133 107.452 342.149 113.038 349.783 127.529L406.227 234.697C408.468 238.941 406.827 244.188 402.58 246.428C398.333 248.667 393.084 247.027 390.843 242.782L334.398 135.614C331.233 129.599 323.743 127.269 317.724 130.446C311.706 133.609 309.374 141.096 312.553 147.111L320.33 161.863C322.57 166.107 320.929 171.354 316.682 173.594C312.435 175.833 307.186 174.193 304.945 169.948L297.168 155.197C289.535 140.692 295.123 122.699 309.622 115.069L309.635 115.082Z" fill="#FFDEC0"/>
<path d="M373.087 171.797L379.666 184.284L368.671 200.689L362.093 188.203L373.087 171.797Z" fill="#FC5954"/>
<path d="M385.815 195.962L392.393 208.449L381.386 224.854L374.82 212.368L385.815 195.962Z" fill="#FC5954"/>
<path d="M390.843 242.795C391.885 244.774 393.592 246.18 395.546 246.897L405.12 232.614L398.542 220.127L387.534 236.533L390.83 242.795H390.843Z" fill="#FC5954"/>
<path d="M347.438 123.792L336.639 139.872L343.217 152.358L354.225 135.953L349.796 127.529C349.105 126.201 348.311 124.964 347.451 123.792H347.438Z" fill="#FC5954"/>
<path d="M360.373 147.632L366.938 160.118L355.944 176.523L349.365 164.037L360.373 147.632Z" fill="#FC5954"/>
<path d="M320.486 162.24L302.757 165.834L304.932 169.974C307.173 174.219 312.422 175.846 316.669 173.62C320.799 171.445 322.44 166.42 320.473 162.24H320.486Z" fill="#FC5954"/>
<path d="M319.495 129.703C323.742 128.258 328.392 129.261 331.662 132.151L335.218 114.092C331.388 112.452 327.246 111.619 323.038 111.671L319.495 129.703Z" fill="#FC5954"/>
<path d="M312.552 147.124C311.575 145.262 311.119 143.27 311.132 141.304L293.95 144.781C294.354 148.335 295.409 151.863 297.168 155.21L297.923 156.642L315.666 153.048L312.552 147.124Z" fill="#FC5954"/>
<path d="M311.315 139.377C311.927 135.693 314.181 132.32 317.724 130.445C318.206 130.185 318.701 129.99 319.209 129.794L305.284 117.868C301.91 120.472 299.2 123.727 297.272 127.347L311.302 139.364L311.315 139.377Z" fill="#FC5954"/>
<path d="M313.439 122.334C303.161 127.75 299.2 140.458 304.62 150.744L316.669 173.62C320.916 171.38 322.544 166.133 320.317 161.889L312.54 147.137C309.374 141.122 311.693 133.635 317.711 130.471C323.73 127.308 331.22 129.625 334.385 135.64L390.83 242.808C393.071 247.053 398.32 248.68 402.567 246.454L341.85 131.162C336.431 120.889 323.717 116.931 313.426 122.347L313.439 122.334Z" fill="#D8C5B6"/>
<path d="M395.545 246.897L399.623 240.816L393.044 228.33L387.547 236.533L390.843 242.795C391.807 244.618 393.448 246.128 395.545 246.897Z" fill="#CD2846"/>
<path d="M380.317 204.165L374.82 212.368L381.386 224.854L386.896 216.651L380.317 204.165Z" fill="#CD2846"/>
<path d="M367.59 180L362.093 188.203L368.671 200.689L374.168 192.486L367.59 180Z" fill="#CD2846"/>
<path d="M354.863 155.834L349.366 164.037L355.944 176.523L361.442 168.321L354.863 155.834Z" fill="#CD2846"/>
<path d="M336.639 139.872L343.217 152.358L348.714 144.156L342.149 131.683L336.639 139.872Z" fill="#CD2846"/>
<path d="M319.495 129.703C323.742 128.258 328.393 129.261 331.662 132.151L333.538 122.608C329.865 120.55 325.644 119.613 321.397 119.977L319.482 129.69L319.495 129.703Z" fill="#CD2846"/>
<path d="M303.786 132.945L311.302 139.39C312.019 135.042 314.989 131.37 319.196 129.821L311.68 123.389C308.032 125.771 305.349 129.144 303.773 132.958L303.786 132.945Z" fill="#CD2846"/>
<path d="M306.782 154.845L315.666 153.048L312.553 147.124C311.628 145.379 311.12 143.244 311.133 141.304L302.314 143.088C302.574 145.692 303.33 148.283 304.619 150.731L306.782 154.832V154.845Z" fill="#CD2846"/>
<path d="M321.307 166.302C321.307 166.302 321.307 166.302 321.307 166.289C321.359 164.935 321.098 163.542 320.486 162.24L311.628 164.037L316.669 173.62C316.773 173.516 321.085 171.328 321.307 166.302Z" fill="#CD2846"/>
<path d="M202.19 244.063H128.07V318.145H202.19V244.063Z" fill="#FAC855"/>
<path d="M147.35 297.507V244.063H128.07V318.145H202.19V306.547H156.387C151.388 306.547 147.342 302.503 147.342 297.507H147.35Z" fill="#E69632"/>
<path d="M128.07 282.808H202.198" stroke="#E69632" stroke-width="2" stroke-miterlimit="10"/>
<path d="M159.175 268.126C161.589 270.539 165.134 282.808 165.134 282.808C165.134 282.808 152.859 279.265 150.445 276.852C148.03 274.439 148.03 270.53 150.445 268.117C152.859 265.704 156.769 265.704 159.184 268.117L159.175 268.126Z" stroke="#E69632" stroke-width="2" stroke-miterlimit="10" stroke-linecap="round"/>
<path d="M170.745 268.126C168.331 270.539 164.786 282.808 164.786 282.808C164.786 282.808 177.061 279.265 179.476 276.852C181.89 274.439 181.89 270.53 179.476 268.117C177.061 265.704 173.151 265.704 170.737 268.117L170.745 268.126Z" stroke="#E69632" stroke-width="2" stroke-miterlimit="10" stroke-linecap="round"/>
<path d="M177.673 289.639C174.885 290.82 171.663 290.14 169.589 287.931L164.786 282.808L161.794 291.168C160.722 294.159 157.526 295.816 154.466 294.966" stroke="#E69632" stroke-width="2" stroke-miterlimit="10" stroke-linecap="round"/>
<path d="M140.422 265.169L146.602 270.267L152.774 265.169L158.946 270.267L165.126 265.169L171.297 270.267L177.478 265.169L183.658 270.267L189.829 265.169L196.009 270.267L202.198 265.169V264.064L196.009 269.162L189.829 264.064L183.658 269.162L177.478 264.064L171.297 269.162L165.126 264.064L158.946 269.162L152.774 264.064L146.602 269.162L140.422 264.064L134.25 269.162L128.07 264.064V265.169L134.25 270.267L140.422 265.169Z" fill="#FFDC8C"/>
<path d="M128.07 247.539L134.25 252.637L140.422 247.539L146.602 252.637L152.774 247.539L158.946 252.637L165.126 247.539L171.297 252.637L177.478 247.539L183.658 252.637L189.829 247.539L196.009 252.637L202.198 247.539V246.434L196.009 251.532L189.829 246.434L183.658 251.532L177.478 246.434L171.297 251.532L165.126 246.434L158.946 251.532L152.774 246.434L146.602 251.532L140.422 246.434L134.25 251.532L128.07 246.434V247.539Z" fill="#FFDC8C"/>
<path d="M140.422 256.349L146.602 261.447L152.774 256.349L158.946 261.447L165.126 256.349L171.297 261.447L177.478 256.349L183.658 261.447L189.829 256.349L196.009 261.447L202.198 256.349V255.253L196.009 260.351L189.829 255.253L183.658 260.351L177.478 255.253L171.297 260.351L165.126 255.253L158.946 260.351L152.774 255.253L146.602 260.351L140.422 255.253L134.25 260.351L128.07 255.253V256.349L134.25 261.447L140.422 256.349Z" fill="#FFDC8C"/>
<path d="M140.422 273.98L146.602 279.078L152.774 273.98L158.946 279.078L165.126 273.98L171.297 279.078L177.478 273.98L183.658 279.078L189.829 273.98L196.009 279.078L202.198 273.98V272.875L196.009 277.973L189.829 272.875L183.658 277.973L177.478 272.875L171.297 277.973L165.126 272.875L158.946 277.973L152.774 272.875L146.602 277.973L140.422 272.875L134.25 277.973L128.07 272.875V273.98L134.25 279.078L140.422 273.98Z" fill="#FFDC8C"/>
<path d="M140.422 291.61L146.602 296.708L152.774 291.61L158.946 296.708L165.126 291.61L171.297 296.708L177.478 291.61L183.658 296.708L189.829 291.61L196.009 296.708L202.198 291.61V290.506L196.009 295.604L189.829 290.506L183.658 295.604L177.478 290.506L171.297 295.604L165.126 290.506L158.946 295.604L152.774 290.506L146.602 295.604L140.422 290.506L134.25 295.604L128.07 290.506V291.61L134.25 296.708L140.422 291.61Z" fill="#FFDC8C"/>
<path d="M140.422 282.791L146.602 287.889L152.774 282.791L158.946 287.889L165.126 282.791L171.297 287.889L177.478 282.791L183.658 287.889L189.829 282.791L196.009 287.889L202.198 282.791V281.695L196.009 286.793L189.829 281.695L183.658 286.793L177.478 281.695L171.297 286.793L165.126 281.695L158.946 286.793L152.774 281.695L146.602 286.793L140.422 281.695L134.25 286.793L128.07 281.695V282.791L134.25 287.889L140.422 282.791Z" fill="#FFDC8C"/>
<path d="M140.422 256.349L146.602 261.447L147.35 260.827V259.731L146.602 260.351L140.422 255.253L134.25 260.351L128.07 255.253V256.349L134.25 261.447L140.422 256.349Z" fill="#FAC855"/>
<path d="M128.07 247.539L134.25 252.637L140.422 247.539L146.602 252.637L147.35 252.016V250.912L146.602 251.532L140.422 246.434L134.25 251.532L128.07 246.434V247.539Z" fill="#FAC855"/>
<path d="M140.422 265.169L146.602 270.267L147.35 269.647V268.542L146.602 269.162L140.422 264.064L134.25 269.162L128.07 264.064V265.169L134.25 270.267L140.422 265.169Z" fill="#FAC855"/>
<path d="M140.422 282.791L146.602 287.889L147.35 287.269V286.164L146.602 286.793L140.422 281.695L134.25 286.793L128.07 281.695V282.791L134.25 287.889L140.422 282.791Z" fill="#FAC855"/>
<path d="M140.422 273.98L146.602 279.078L147.35 278.458V277.353L146.602 277.973L140.422 272.875L134.25 277.973L128.07 272.875V273.98L134.25 279.078L140.422 273.98Z" fill="#FAC855"/>
<path d="M140.422 291.61L146.602 296.708L147.35 296.08V294.984L146.602 295.604L140.422 290.506L134.25 295.604L128.07 290.506V291.61L134.25 296.708L140.422 291.61Z" fill="#FAC855"/>
<path d="M128.07 281.108H202.198" stroke="#FC5954" stroke-width="2" stroke-miterlimit="10" stroke-linecap="round"/>
<path d="M165.135 244.063V318.145" stroke="#FC5954" stroke-width="2" stroke-miterlimit="10" stroke-linecap="round"/>
<path d="M159.175 266.427C161.589 268.84 165.134 281.109 165.134 281.109C165.134 281.109 152.859 277.566 150.445 275.153C148.03 272.74 148.03 268.831 150.445 266.418C152.859 264.005 156.769 264.005 159.184 266.418L159.175 266.427Z" stroke="#FC5954" stroke-width="2" stroke-miterlimit="10" stroke-linecap="round"/>
<path d="M170.745 266.427C168.331 268.84 164.786 281.109 164.786 281.109C164.786 281.109 177.061 277.566 179.476 275.153C181.89 272.74 181.89 268.831 179.476 266.418C177.061 264.005 173.151 264.005 170.737 266.418L170.745 266.427Z" stroke="#FC5954" stroke-width="2" stroke-miterlimit="10" stroke-linecap="round"/>
<path d="M177.673 287.931C174.885 289.112 171.663 288.432 169.589 286.223L164.786 281.1L161.794 289.46C160.722 292.451 157.526 294.108 154.466 293.258" stroke="#FC5954" stroke-width="2" stroke-miterlimit="10" stroke-linecap="round"/>
<path d="M599.074 74.915H485.494V188.436H599.074V74.915Z" fill="#297F58"/>
<path d="M515.039 156.824V74.9282H485.494V188.45H599.074V170.677H528.886C521.226 170.677 515.026 164.48 515.026 156.824H515.039Z" fill="#006941"/>
<path d="M485.494 134.286H599.087" stroke="#006941" stroke-width="2" stroke-miterlimit="10"/>
<path d="M533.159 111.788C536.858 115.485 542.29 134.286 542.29 134.286C542.29 134.286 523.48 128.857 519.78 125.159C516.081 121.462 516.081 115.472 519.78 111.775C523.48 108.077 529.472 108.077 533.172 111.775L533.159 111.788Z" stroke="#006941" stroke-width="2" stroke-miterlimit="10" stroke-linecap="round"/>
<path d="M550.888 111.788C547.188 115.485 541.756 134.286 541.756 134.286C541.756 134.286 560.566 128.857 564.266 125.159C567.966 121.462 567.966 115.472 564.266 111.775C560.566 108.077 554.574 108.077 550.875 111.775L550.888 111.788Z" stroke="#006941" stroke-width="2" stroke-miterlimit="10" stroke-linecap="round"/>
<path d="M561.505 144.754C557.232 146.564 552.295 145.522 549.117 142.137L541.757 134.286L537.171 147.098C535.53 151.681 530.632 154.22 525.942 152.918" stroke="#006941" stroke-width="2" stroke-miterlimit="10" stroke-linecap="round"/>
<path d="M559.447 74.915H557.597L485.494 146.981V148.817L559.447 74.915Z" fill="#5A915A"/>
<path d="M538.747 74.915H536.91L485.494 126.305V128.141L538.747 74.915Z" fill="#5A915A"/>
<path d="M518.061 74.915H516.224L485.494 105.629V107.465L518.061 74.915Z" fill="#5A915A"/>
<path d="M599.087 74.915H598.969L485.494 188.332V188.449H487.227L599.087 76.6467V74.915Z" fill="#5A915A"/>
<path d="M485.494 86.7893L497.374 74.915H495.538L485.494 84.9534V86.7893Z" fill="#5A915A"/>
<path d="M599.087 159.362V157.514L568.136 188.449H569.986L599.087 159.362Z" fill="#5A915A"/>
<path d="M599.086 180.038V178.189L588.821 188.449H590.671L599.086 180.038Z" fill="#5A915A"/>
<path d="M599.087 138.674V136.838L547.449 188.45H549.299L599.087 138.674Z" fill="#5A915A"/>
<path d="M599.087 97.3226V95.4868L506.076 188.45H507.913L599.087 97.3226Z" fill="#5A915A"/>
<path d="M580.133 74.915H578.283L485.494 167.656V169.505L580.133 74.915Z" fill="#5A915A"/>
<path d="M599.087 117.998V116.163L526.763 188.45H528.613L599.087 117.998Z" fill="#5A915A"/>
<path d="M485.494 131.682H599.087" stroke="#F0E1D3" stroke-width="2" stroke-miterlimit="10" stroke-linecap="round"/>
<path d="M542.29 74.915V188.449" stroke="#F0E1D3" stroke-width="2" stroke-miterlimit="10" stroke-linecap="round"/>
<path d="M533.159 109.184C536.858 112.881 542.29 131.682 542.29 131.682C542.29 131.682 523.48 126.253 519.78 122.555C516.081 118.858 516.081 112.868 519.78 109.171C523.48 105.473 529.472 105.473 533.172 109.171L533.159 109.184Z" stroke="#F0E1D3" stroke-width="2" stroke-miterlimit="10" stroke-linecap="round"/>
<path d="M550.888 109.184C547.188 112.881 541.756 131.682 541.756 131.682C541.756 131.682 560.566 126.253 564.266 122.555C567.966 118.858 567.966 112.868 564.266 109.171C560.566 105.473 554.574 105.473 550.875 109.171L550.888 109.184Z" stroke="#F0E1D3" stroke-width="2" stroke-miterlimit="10" stroke-linecap="round"/>
<path d="M561.505 142.15C557.232 143.96 552.295 142.918 549.117 139.533L541.757 131.682L537.171 144.494C535.53 149.077 530.632 151.616 525.942 150.314" stroke="#F0E1D3" stroke-width="2" stroke-miterlimit="10" stroke-linecap="round"/>
<path d="M366.054 191.301C349.549 205.792 346.996 216.182 346.813 215.805C347.347 216.377 338.763 199.126 356.557 172.383C363.969 161.863 374.964 157.696 378.781 161.785C380.774 163.79 380.839 167.266 379.719 171.25C377.778 177.474 370.939 186.952 366.041 191.301H366.054Z" fill="#297F58"/>
<path d="M356.701 200.532C349.197 208.514 346.97 215.401 346.944 215.323C347.061 215.44 343.518 207.459 349.744 194.114C352.298 188.788 356.727 185.794 359.085 187.226C360.283 187.929 360.778 189.544 360.687 191.562C360.544 194.752 358.954 198.124 356.688 200.532H356.701Z" fill="#5A915A"/>
<path d="M364.048 229.762C347.595 231.988 341.629 237.47 341.655 237.339C341.342 237.873 343.948 215.726 364.478 205.401C372.593 201.443 379.693 204.698 381.035 210.492C381.738 213.435 381.009 216.56 379.289 219.515C376.54 224.033 369.024 228.955 364.048 229.762Z" fill="#297F58"/>
<path d="M354.29 231.689C346.201 233.213 341.928 237.027 341.941 237.027C341.889 237.158 342.957 226.872 352.089 220.062C355.749 217.367 359.501 218.096 360.556 221.143C361.09 222.679 360.895 224.528 360.152 226.338C358.993 229.189 356.739 231.22 354.277 231.702L354.29 231.689Z" fill="#5A915A"/>
<path d="M362.484 261.934C347.451 268.978 343.4 276.022 343.387 275.892C343.231 276.491 339.153 254.526 355.58 238.798C362.093 232.691 369.844 233.655 372.893 238.681C374.469 241.232 374.703 244.383 373.961 247.677C372.71 252.755 366.991 259.669 362.484 261.934Z" fill="#297F58"/>
<path d="M353.757 266.7C346.501 270.58 343.557 275.514 343.57 275.501C343.544 275.645 341.512 265.476 348.181 256.297C350.865 252.651 354.656 252.222 356.571 254.786C357.548 256.075 357.899 257.885 357.743 259.838C357.495 262.898 355.945 265.502 353.744 266.7H353.757Z" fill="#5A915A"/>
<path d="M370.704 293.3C358.537 304.64 356.883 312.7 356.844 312.569C356.844 313.181 346.097 293.066 357.104 273.106C361.494 265.32 369.167 263.914 373.583 267.794C375.85 269.76 377.022 272.702 377.309 276.1C377.634 281.347 374.312 289.758 370.704 293.3Z" fill="#297F58"/>
<path d="M363.852 300.539C358.133 306.476 356.883 312.153 356.896 312.14C356.909 312.283 351.763 303.013 355.346 292.154C356.792 287.831 360.283 286.269 362.901 288.183C364.217 289.133 365.116 290.774 365.572 292.701C366.275 295.734 365.598 298.729 363.878 300.539H363.852Z" fill="#5A915A"/>
<path d="M337.473 214.32C336.626 239.136 342.279 246.336 341.797 246.415C342.266 245.894 327.103 248.914 317.073 223.421C313.217 212.953 316.356 198.423 322.909 193.137C326.113 190.455 329.305 190.494 331.819 192.46C335.688 195.676 337.785 206.899 337.473 214.307V214.32Z" fill="#297F58"/>
<path d="M337.695 228.812C338.398 240.699 341.655 246.05 341.563 246.05C341.668 245.92 334.646 246.87 328.967 235.634C326.726 231.051 327.182 224.684 329.774 221.937C331.064 220.557 332.575 220.323 333.982 221.013C336.196 222.106 337.512 225.218 337.695 228.812Z" fill="#5A915A"/>
<path d="M332.797 262.676C340.691 286.125 348.572 291.073 348.142 291.281C348.402 290.656 335.232 298.768 316.891 278.353C309.609 269.89 307.46 255.281 311.706 248.146C313.765 244.553 316.748 243.485 319.796 244.422C324.551 246.037 330.478 255.659 332.783 262.676H332.797Z" fill="#297F58"/>
<path d="M338.085 276.139C342.918 287.05 347.881 290.995 347.79 291.034C347.842 290.878 341.589 294.237 332.314 285.644C328.601 282.116 326.791 275.983 328.263 272.494C328.979 270.749 330.334 270.007 331.884 270.15C334.346 270.398 336.652 272.845 338.098 276.139H338.085Z" fill="#5A915A"/>
<path d="M347.465 209.868C332.328 254.331 342.501 305.5 377.973 340.966" stroke="#5A915A" stroke-width="1.6" stroke-miterlimit="10"/>
<path d="M344.26 220.908C343.165 218.721 342.136 216.469 341.159 214.164C341.159 219.815 341.55 225.361 342.279 230.752C342.814 227.458 343.465 224.163 344.26 220.908Z" fill="#5A915A"/>
<path d="M340.821 257.182C340.677 254.226 340.638 251.271 340.703 248.315C342.384 246.232 344.116 244.24 345.901 242.326C343.921 247.078 342.214 252.039 340.834 257.182H340.821Z" fill="#5A915A"/>
<path d="M341.394 264.551C339.57 262.273 337.799 259.89 336.105 257.417C338.02 264.512 340.521 271.335 343.517 277.806C342.579 273.418 341.863 268.991 341.394 264.551Z" fill="#5A915A"/>
<path d="M349.406 297.375C348.038 293.86 346.827 290.305 345.771 286.712C347.113 284.277 348.507 281.92 349.979 279.655C349.354 285.397 349.145 291.321 349.406 297.388V297.375Z" fill="#5A915A"/>
<path d="M231.722 235.843C216.572 249.344 212.638 256.466 212.638 256.466C212.638 256.466 204.965 241.363 213.823 219.203C217.393 210.271 225.586 205.142 232.113 207.759C235.383 209.061 237.61 212.055 238.574 215.831C240.111 221.807 236.32 231.741 231.722 235.843Z" fill="#297F58"/>
<path d="M222.942 244.149C215.491 250.789 212.794 256.063 212.794 256.063C212.794 256.063 209.017 248.628 213.38 237.73C215.139 233.343 219.164 230.817 222.382 232.093C223.984 232.731 225.091 234.202 225.56 236.064C226.316 239.006 225.222 242.118 222.955 244.136L222.942 244.149Z" fill="#5A915A"/>
<path d="M232.699 273.861C212.521 271.674 204.588 273.523 204.588 273.523C204.588 273.523 210.658 257.703 233.051 249.423C242.079 246.09 251.367 248.72 253.816 255.321C255.04 258.615 254.311 262.273 252.148 265.528C248.735 270.671 238.822 274.525 232.686 273.861H232.699Z" fill="#297F58"/>
<path d="M220.649 272.91C210.723 271.83 204.991 273.366 204.991 273.366C204.991 273.366 207.974 265.593 218.995 261.518C223.437 259.877 228.009 261.179 229.208 264.421C229.807 266.049 229.455 267.846 228.387 269.447C226.707 271.973 223.658 273.249 220.649 272.923V272.91Z" fill="#5A915A"/>
<path d="M220.493 304.406C200.315 302.219 192.382 304.068 192.382 304.068C192.382 304.068 198.452 288.248 220.845 279.968C229.873 276.634 239.161 279.264 241.61 285.866C242.834 289.16 242.105 292.818 239.942 296.073C236.529 301.216 226.616 305.07 220.48 304.406H220.493Z" fill="#297F58"/>
<path d="M208.444 303.469C198.518 302.388 192.786 303.924 192.786 303.924C192.786 303.924 195.769 296.151 206.79 292.076C211.232 290.436 215.804 291.738 217.003 294.98C217.602 296.594 217.25 298.404 216.182 300.005C214.502 302.531 211.453 303.807 208.444 303.482V303.469Z" fill="#5A915A"/>
<path d="M201.383 252.977C200.341 273.236 202.647 281.048 202.647 281.048C202.647 281.048 186.507 275.892 176.958 254.006C173.115 245.191 175.226 235.765 181.661 232.952C184.878 231.546 188.578 232.067 191.952 234.033C197.28 237.145 201.696 246.819 201.383 252.977Z" fill="#297F58"/>
<path d="M201.123 265.06C200.615 275.02 202.465 280.657 202.465 280.657C202.465 280.657 194.531 278.119 189.829 267.364C187.94 263.028 188.969 258.393 192.147 257.013C193.737 256.323 195.547 256.57 197.215 257.547C199.833 259.07 201.279 262.052 201.123 265.073V265.06Z" fill="#5A915A"/>
<path d="M186.793 288.951C185.751 309.21 188.057 317.022 188.057 317.022C188.057 317.022 171.917 311.867 162.368 289.98C158.526 281.165 160.636 271.739 167.071 268.927C170.289 267.52 173.988 268.041 177.362 270.007C182.69 273.119 187.106 282.793 186.793 288.951Z" fill="#297F58"/>
<path d="M186.533 301.034C186.025 310.994 187.875 316.632 187.875 316.632C187.875 316.632 179.941 314.093 175.239 303.339C173.35 299.003 174.379 294.368 177.558 292.988C179.147 292.298 180.958 292.545 182.625 293.522C185.243 295.045 186.689 298.026 186.533 301.047V301.034Z" fill="#5A915A"/>
<path d="M213.121 251.337L169.221 361.148" stroke="#5A915A" stroke-width="2" stroke-miterlimit="10"/>
<path d="M209.524 260.32L205.799 253.745L206.372 268.197L209.524 260.32Z" fill="#5A915A"/>
<path d="M198.035 289.069L200.823 282.077L208.535 279.369L198.035 289.069Z" fill="#5A915A"/>
<path d="M195.704 294.888L192.552 286.881L191.483 305.447L195.704 294.888Z" fill="#5A915A"/>
<path d="M654.79 163.712C663.492 182.031 669.236 187.812 669.236 187.812C669.236 187.812 652.575 190.923 633.791 176.211C626.222 170.274 623.591 160.977 627.929 155.444C630.104 152.684 633.595 151.382 637.503 151.512C643.665 151.72 652.158 158.139 654.803 163.712H654.79Z" fill="#297F58"/>
<path d="M660.3 174.479C664.586 183.489 668.885 187.564 668.885 187.564C668.885 187.564 660.691 189.101 651.455 181.862C647.73 178.945 646.44 174.375 648.576 171.654C649.644 170.3 651.364 169.649 653.279 169.714C656.314 169.818 658.998 171.745 660.3 174.479Z" fill="#5A915A"/>
<path d="M691.577 173.451C683.8 192.186 683.357 200.324 683.357 200.324C683.357 200.324 669.874 190.051 668.22 166.251C667.555 156.655 672.701 148.478 679.709 147.997C683.214 147.749 686.522 149.481 689.049 152.462C693.023 157.176 693.948 167.774 691.59 173.464L691.577 173.451Z" fill="#297F58"/>
<path d="M687.278 184.752C683.461 193.97 683.318 199.894 683.318 199.894C683.318 199.894 676.688 194.843 675.867 183.138C675.541 178.424 678.068 174.401 681.52 174.154C683.24 174.037 684.868 174.883 686.119 176.354C688.073 178.672 688.451 181.953 687.278 184.752Z" fill="#5A915A"/>
<path d="M717.474 193.749C709.697 212.485 709.254 220.622 709.254 220.622C709.254 220.622 695.772 210.349 694.117 186.549C693.453 176.953 698.598 168.777 705.607 168.295C709.111 168.047 712.42 169.779 714.947 172.761C718.92 177.474 719.845 188.072 717.487 193.762L717.474 193.749Z" fill="#297F58"/>
<path d="M713.175 205.05C709.358 214.269 709.215 220.193 709.215 220.193C709.215 220.193 702.584 215.141 701.764 203.436C701.438 198.723 703.965 194.7 707.417 194.452C709.137 194.335 710.765 195.181 712.016 196.653C713.97 198.97 714.347 202.251 713.175 205.05Z" fill="#5A915A"/>
<path d="M662.723 197.629C681.885 204.321 690.027 204.308 690.027 204.308C690.027 204.308 680.53 218.343 656.848 221.351C647.299 222.562 638.845 217.901 637.959 210.922C637.516 207.433 639.054 204.034 641.88 201.352C646.361 197.121 656.9 195.597 662.723 197.629Z" fill="#297F58"/>
<path d="M674.252 201.274C683.67 204.568 689.597 204.36 689.597 204.36C689.597 204.36 684.934 211.26 673.275 212.745C668.585 213.344 664.417 211.039 663.987 207.615C663.765 205.896 664.521 204.23 665.915 202.902C668.116 200.818 671.373 200.259 674.239 201.261L674.252 201.274Z" fill="#5A915A"/>
<path d="M693.166 221.729C712.329 228.421 720.47 228.408 720.47 228.408C720.47 228.408 710.974 242.443 687.291 245.451C677.743 246.662 669.289 242.001 668.403 235.022C667.96 231.533 669.497 228.135 672.324 225.452C676.805 221.221 687.343 219.698 693.166 221.729Z" fill="#297F58"/>
<path d="M704.695 225.374C714.113 228.668 720.04 228.46 720.04 228.46C720.04 228.46 715.377 235.361 703.718 236.845C699.028 237.444 694.86 235.139 694.43 231.715C694.208 229.996 694.964 228.33 696.358 227.002C698.559 224.919 701.816 224.359 704.682 225.361L704.695 225.374Z" fill="#5A915A"/>
<path d="M724.678 246.219C743.84 252.912 751.982 252.899 751.982 252.899C751.982 252.899 742.485 266.934 718.803 269.942C709.254 271.153 700.8 266.492 699.914 259.513C699.471 256.023 701.008 252.625 703.835 249.943C708.316 245.712 718.855 244.188 724.678 246.219Z" fill="#297F58"/>
<path d="M664.442 185.911L757.544 258.875" stroke="#5A915A" stroke-width="2" stroke-miterlimit="10"/>
<path d="M672.051 191.887L664.69 193.605L678.733 197.121L672.051 191.887Z" fill="#5A915A"/>
<path d="M696.436 210.987L690.509 206.339L690.066 198.188L696.436 210.987Z" fill="#5A915A"/>
<path d="M701.373 214.854L692.788 215.623L710.309 221.859L701.373 214.854Z" fill="#5A915A"/>
<path d="M503.653 194.804H420.452V200.441H503.653V194.804Z" fill="#A55A3C"/>
<path d="M467.4 170.313L478.994 184.857C479.762 185.82 480.765 186.549 481.912 186.979L499.341 193.502C503.419 195.025 505.021 199.947 502.624 203.579L492.359 219.099C491.682 220.128 491.291 221.313 491.239 222.537L490.418 241.116C490.223 245.465 486.041 248.511 481.846 247.34L463.909 242.379C462.723 242.054 461.473 242.054 460.3 242.379L442.363 247.34C438.168 248.498 433.973 245.465 433.791 241.116L432.97 222.537C432.918 221.313 432.528 220.128 431.85 219.099L421.585 203.579C419.188 199.947 420.777 195.025 424.868 193.502L442.298 186.979C443.444 186.549 444.46 185.82 445.215 184.857L456.809 170.313C459.519 166.915 464.703 166.915 467.413 170.313H467.4Z" fill="#A55A3C"/>
<path d="M467.4 166.407L478.994 180.95C479.762 181.914 480.765 182.643 481.912 183.073L499.342 189.596C503.419 191.119 505.021 196.041 502.624 199.673L492.359 215.193C491.682 216.222 491.291 217.406 491.239 218.63L490.418 237.21C490.223 241.559 486.041 244.592 481.847 243.433L463.909 238.473C462.724 238.147 461.473 238.147 460.301 238.473L442.363 243.433C438.168 244.592 433.974 241.559 433.791 237.21L432.971 218.63C432.919 217.406 432.528 216.222 431.85 215.193L421.585 199.673C419.188 196.041 420.778 191.119 424.868 189.596L442.298 183.073C443.444 182.643 444.46 181.914 445.216 180.95L456.81 166.407C459.519 163.009 464.704 163.009 467.413 166.407H467.4Z" fill="#D27350"/>
<path d="M465.667 179.87L473.483 189.687C474.005 190.338 474.682 190.833 475.451 191.119L487.201 195.52C489.949 196.549 491.03 199.869 489.415 202.317L482.498 212.785C482.042 213.475 481.781 214.269 481.742 215.102L481.182 227.64C481.052 230.57 478.225 232.627 475.398 231.846L463.297 228.5C462.502 228.278 461.655 228.278 460.861 228.5L448.759 231.846C445.932 232.627 443.105 230.583 442.975 227.64L442.415 215.102C442.376 214.282 442.115 213.475 441.659 212.785L434.742 202.317C433.127 199.869 434.195 196.549 436.957 195.52L448.707 191.119C449.475 190.833 450.166 190.338 450.674 189.687L458.49 179.87C460.314 177.578 463.805 177.578 465.641 179.87H465.667Z" fill="#A55A3C"/>
<path d="M465.667 178.568L473.483 188.385C474.005 189.036 474.682 189.531 475.451 189.817L487.201 194.218C489.949 195.246 491.03 198.567 489.415 201.014L482.498 211.482C482.042 212.172 481.781 212.967 481.742 213.8L481.182 226.338C481.052 229.268 478.225 231.325 475.398 230.544L463.297 227.197C462.502 226.976 461.655 226.976 460.861 227.197L448.759 230.544C445.932 231.325 443.105 229.281 442.975 226.338L442.415 213.8C442.376 212.98 442.115 212.172 441.659 211.482L434.742 201.014C433.127 198.567 434.195 195.246 436.957 194.218L448.707 189.817C449.475 189.531 450.166 189.036 450.674 188.385L458.49 178.568C460.314 176.276 463.805 176.276 465.641 178.568H465.667Z" fill="#FFCD9B"/>
<path d="M436.983 196.822L448.733 192.421C449.501 192.135 450.192 191.64 450.7 190.989L458.516 181.172C460.339 178.88 463.831 178.88 465.667 181.172L473.483 190.989C474.004 191.64 474.682 192.135 475.45 192.421L487.2 196.822C488.607 197.356 489.545 198.475 489.936 199.777C490.6 197.551 489.519 195.077 487.2 194.218L475.45 189.817C474.682 189.531 473.991 189.036 473.483 188.385L465.667 178.568C463.844 176.276 460.352 176.276 458.516 178.568L450.7 188.385C450.179 189.036 449.501 189.531 448.733 189.817L436.983 194.218C434.664 195.09 433.583 197.564 434.247 199.777C434.638 198.475 435.576 197.343 436.983 196.822Z" fill="#FFAF82"/>
<path d="M542.291 48.2893C659.466 5.73989 790.605 65.9835 834.023 185.39" stroke="#5A915A" stroke-width="3" stroke-miterlimit="10"/>
<path d="M594.437 70.1237C605.431 57.4292 618.575 45.7112 633.647 35.4905C619.748 23.4861 603.477 12.7446 584.992 4.03418" stroke="#5A915A" stroke-width="3" stroke-miterlimit="10"/>
<path d="M576.317 64.5382C584.393 54.0441 593.759 44.0447 604.337 34.7875C592.444 27.0796 579.235 20.3092 564.788 14.8408" stroke="#5A915A" stroke-width="3" stroke-miterlimit="10"/>
<path d="M619.305 68.5875C631.667 57.4294 646.049 47.4691 662.189 39.2405C650.035 25.5825 635.432 12.8749 618.484 1.83398" stroke="#5A915A" stroke-width="3" stroke-miterlimit="10"/>
<path d="M643.886 70.2411C657.447 60.7365 672.896 52.6641 689.909 46.5056C679.618 31.4545 666.826 17.0283 651.598 3.93018" stroke="#5A915A" stroke-width="3" stroke-miterlimit="10"/>
<path d="M667.868 74.9802C682.471 67.2594 698.78 61.166 716.419 57.1819C708.095 40.972 697.256 25.0746 683.891 10.1797" stroke="#5A915A" stroke-width="3" stroke-miterlimit="10"/>
<path d="M691.004 82.662C706.441 76.816 723.401 72.8189 741.443 71.0872C735.19 53.9399 726.423 36.8316 715.064 20.4004" stroke="#5A915A" stroke-width="3" stroke-miterlimit="10"/>
<path d="M399.298 126.774L399.089 357.879" stroke="#5A915A" stroke-width="3" stroke-miterlimit="10"/>
<path d="M425.025 147.632L399.193 173.45L373.361 147.632" stroke="#5A915A" stroke-width="3" stroke-miterlimit="10"/>
<path d="M415.047 138.518L399.193 154.363L383.34 138.518" stroke="#5A915A" stroke-width="3" stroke-miterlimit="10"/>
<path d="M425.143 164.792L399.298 190.611L373.466 164.792" stroke="#5A915A" stroke-width="3" stroke-miterlimit="10"/>
<path d="M425.246 181.939L399.401 207.771L373.569 181.939" stroke="#5A915A" stroke-width="3" stroke-miterlimit="10"/>
<path d="M425.351 199.1L399.506 224.932L373.674 199.1" stroke="#5A915A" stroke-width="3" stroke-miterlimit="10"/>
<path d="M425.455 216.26L399.623 242.092L373.778 216.26" stroke="#5A915A" stroke-width="3" stroke-miterlimit="10"/>
<path d="M425.56 233.421L399.728 259.24L373.883 233.421" stroke="#5A915A" stroke-width="3" stroke-miterlimit="10"/>
<path d="M425.664 250.581L399.832 276.4L374 250.581" stroke="#5A915A" stroke-width="3" stroke-miterlimit="10"/>
<path d="M425.767 267.741L399.935 293.56L374.104 267.741" stroke="#5A915A" stroke-width="3" stroke-miterlimit="10"/>
<path d="M425.885 284.902L400.04 310.72L374.208 284.902" stroke="#5A915A" stroke-width="3" stroke-miterlimit="10"/>
<path d="M502.416 277.962L404.481 203.93C412.988 213.279 422.094 233.811 414.186 244.253C414.186 244.253 414.173 244.279 414.16 244.292C413.118 245.659 413.822 247.677 415.515 247.938C419.697 248.602 423.774 250.268 427.382 252.99C432.515 256.869 435.85 262.234 437.244 268.015C437.582 269.408 439.054 270.163 440.383 269.603C448.902 266.023 459.05 266.934 466.957 272.91C470.475 275.566 473.132 278.938 474.917 282.662C475.373 283.613 476.441 284.081 477.457 283.847L502.416 277.949V277.962Z" fill="#006941"/>
<path d="M502.416 277.962L404.481 203.93C415.802 209.568 438.038 212.732 445.945 202.277C445.945 202.277 445.958 202.251 445.971 202.238C447.014 200.858 449.137 200.988 449.853 202.55C451.638 206.391 454.348 209.854 457.956 212.589C463.088 216.468 469.159 218.213 475.112 217.992C476.558 217.94 477.665 219.151 477.496 220.583C476.363 229.762 480.01 239.267 487.917 245.243C491.434 247.899 495.408 249.539 499.472 250.242C500.501 250.425 501.257 251.323 501.309 252.365L502.429 277.975L502.416 277.962Z" fill="#005935"/>
<path d="M429.623 239.449L449.541 235.53" stroke="#005935" stroke-width="1.12" stroke-miterlimit="10"/>
<path d="M452.954 257.078L472.872 253.172" stroke="#005935" stroke-width="1.12" stroke-miterlimit="10"/>
<path d="M518.582 295.252L402.918 336.474C415.411 334.495 437.569 338.153 441.972 350.496C441.972 350.509 441.972 350.522 441.985 350.535C442.558 352.163 444.629 352.684 445.789 351.408C448.642 348.283 452.263 345.783 456.536 344.26C462.593 342.098 468.911 342.255 474.526 344.26C475.88 344.741 477.313 343.921 477.574 342.502C479.254 333.414 485.585 325.433 494.925 322.113C499.081 320.628 503.354 320.264 507.444 320.811C508.486 320.954 509.476 320.316 509.828 319.339L518.595 295.252H518.582Z" fill="#006941"/>
<path d="M518.582 295.252L402.918 336.474C413.847 330.107 428.685 313.259 424.295 300.916C424.295 300.903 424.295 300.89 424.282 300.877C423.696 299.263 424.972 297.544 426.679 297.804C430.86 298.416 435.25 298.065 439.523 296.541C445.58 294.38 450.374 290.266 453.448 285.162C454.191 283.925 455.819 283.665 456.914 284.589C463.961 290.565 473.913 292.74 483.253 289.406C487.409 287.922 490.952 285.513 493.779 282.493C494.495 281.725 495.655 281.594 496.554 282.128L518.595 295.239L518.582 295.252Z" fill="#005935"/>
<path d="M497.023 274.251L615.005 308.299C603.711 302.609 587.858 286.712 591.492 274.121C591.492 274.108 591.492 274.095 591.492 274.082C591.974 272.429 590.606 270.801 588.913 271.153C584.77 272.025 580.367 271.934 576.016 270.684C569.842 268.9 564.8 265.085 561.414 260.19C560.593 259.005 558.952 258.836 557.909 259.838C551.24 266.244 541.431 269.017 531.908 266.27C527.674 265.046 523.988 262.859 520.979 260.02C520.223 259.304 519.051 259.239 518.178 259.825L496.984 274.264L497.023 274.251Z" fill="#006941"/>
<path d="M497.023 274.251L615.005 308.299C602.421 307.088 580.524 312.1 576.889 324.691C576.889 324.704 576.889 324.717 576.889 324.73C576.42 326.383 574.388 327.034 573.151 325.837C570.115 322.894 566.338 320.629 561.987 319.366C555.812 317.582 549.52 318.129 544.036 320.472C542.707 321.032 541.235 320.303 540.883 318.91C538.656 309.939 531.843 302.361 522.32 299.614C518.087 298.39 513.788 298.286 509.737 299.08C508.708 299.289 507.678 298.716 507.262 297.752L497.036 274.238L497.023 274.251Z" fill="#005935"/>
<path d="M578.804 284.134L561.609 294.914" stroke="#005935" stroke-width="1.12" stroke-miterlimit="10"/>
<path d="M550.692 276.022L533.51 286.803" stroke="#005935" stroke-width="1.12" stroke-miterlimit="10"/>
<path d="M503.458 260.32C508.942 264.46 510.023 272.259 505.881 277.741C501.738 283.222 493.935 284.303 488.451 280.162C482.967 276.022 481.886 268.223 486.028 262.742C490.171 257.26 497.974 256.18 503.458 260.32Z" fill="#FC5954"/>
<path d="M503.979 268.64C499.836 274.121 492.033 275.202 486.549 271.062C485.402 270.202 484.465 269.174 483.709 268.041C482.914 272.507 484.569 277.246 488.438 280.163C493.922 284.303 501.725 283.222 505.867 277.741C509.15 273.405 509.137 267.611 506.284 263.341C505.946 265.203 505.19 267.025 503.965 268.64H503.979Z" fill="#CD2846"/>
<path d="M490.952 262.69C491.773 263.315 491.525 265.007 490.405 266.491C489.285 267.976 487.708 268.666 486.901 268.054C486.08 267.429 486.327 265.736 487.448 264.252C488.568 262.768 490.144 262.078 490.952 262.69Z" fill="#32285F"/>
<path d="M531.521 274.21C533.806 266.21 529.169 257.874 521.165 255.59C513.16 253.307 504.819 257.941 502.535 265.941C500.25 273.941 504.887 282.278 512.891 284.561C520.896 286.845 529.236 282.21 531.521 274.21Z" fill="#FC5954"/>
<path d="M525.316 275.632C517.07 276.777 509.463 271.022 508.316 262.781C508.082 261.062 508.16 259.383 508.473 257.768C503.965 260.906 501.334 266.387 502.142 272.194C503.288 280.436 510.896 286.191 519.142 285.045C525.668 284.134 530.618 279.186 531.843 273.067C529.954 274.382 527.752 275.293 525.316 275.618V275.632Z" fill="#CD2846"/>
<path d="M519.272 259.383C519.442 260.62 517.774 261.87 515.547 262.169C513.319 262.468 511.378 261.726 511.209 260.502C511.04 259.266 512.707 258.016 514.935 257.716C517.162 257.404 519.103 258.159 519.272 259.383Z" fill="#32285F"/>
<path d="M505.221 303.84C512.026 302.896 516.777 296.617 515.833 289.815C514.889 283.013 508.606 278.264 501.801 279.208C494.995 280.151 490.244 286.431 491.188 293.233C492.133 300.035 498.415 304.784 505.221 303.84Z" fill="#FC5954"/>
<path d="M511.521 289.94C507.379 295.422 499.576 296.502 494.092 292.362C492.945 291.503 492.007 290.474 491.252 289.341C490.457 293.807 492.111 298.546 495.98 301.463C501.465 305.603 509.268 304.523 513.41 299.041C516.693 294.706 516.68 288.912 513.827 284.641C513.488 286.503 512.733 288.326 511.508 289.94H511.521Z" fill="#CD2846"/>
<path d="M498.495 283.977C499.316 284.602 499.068 286.295 497.948 287.779C496.827 289.263 495.251 289.953 494.444 289.341C493.623 288.716 493.87 287.024 494.991 285.54C496.111 284.055 497.687 283.365 498.495 283.977Z" fill="#32285F"/>
<path d="M307.889 262.481L220.65 196.535C228.231 204.868 236.334 223.148 229.286 232.457C229.286 232.457 229.273 232.483 229.26 232.496C228.335 233.72 228.948 235.504 230.472 235.751C234.197 236.35 237.832 237.822 241.036 240.256C245.609 243.707 248.579 248.485 249.829 253.641C250.129 254.891 251.445 255.555 252.63 255.06C260.225 251.87 269.265 252.677 276.3 258.003C279.439 260.372 281.797 263.367 283.386 266.687C283.79 267.533 284.741 267.963 285.653 267.742L307.889 262.494V262.481Z" fill="#006941"/>
<path d="M307.889 262.481L220.65 196.535C230.732 201.548 250.546 204.373 257.58 195.064C257.58 195.064 257.593 195.038 257.606 195.025C258.531 193.801 260.42 193.905 261.071 195.298C262.661 198.709 265.071 201.808 268.288 204.243C272.861 207.693 278.267 209.255 283.568 209.047C284.845 208.995 285.848 210.076 285.692 211.352C284.689 219.528 287.932 227.991 294.98 233.316C298.119 235.686 301.649 237.144 305.271 237.769C306.196 237.925 306.86 238.733 306.899 239.657L307.902 262.468L307.889 262.481Z" fill="#005935"/>
<path d="M243.042 228.173L260.785 224.684" stroke="#005935" stroke-miterlimit="10"/>
<path d="M263.82 243.876L281.562 240.399" stroke="#005935" stroke-miterlimit="10"/>
<path d="M322.284 277.884L219.256 314.6C230.381 312.843 250.129 316.098 254.05 327.086C254.05 327.099 254.05 327.112 254.063 327.125C254.571 328.571 256.408 329.039 257.45 327.907C259.99 325.12 263.221 322.894 267.012 321.54C272.405 319.613 278.032 319.756 283.034 321.54C284.246 321.97 285.522 321.24 285.757 319.977C287.255 311.879 292.896 304.77 301.207 301.815C304.906 300.5 308.723 300.161 312.357 300.656C313.282 300.786 314.168 300.226 314.481 299.341L322.284 277.884Z" fill="#006941"/>
<path d="M322.284 277.884L219.256 314.6C228.987 308.923 242.209 293.924 238.288 282.935C238.288 282.935 238.288 282.909 238.275 282.896C237.754 281.451 238.887 279.928 240.398 280.162C244.124 280.709 248.032 280.397 251.836 279.042C257.229 277.115 261.501 273.457 264.237 268.913C264.901 267.819 266.347 267.572 267.324 268.405C273.603 273.73 282.474 275.67 290.785 272.702C294.485 271.387 297.65 269.225 300.151 266.543C300.79 265.866 301.819 265.736 302.627 266.218L322.258 277.897L322.284 277.884Z" fill="#005935"/>
<path d="M258.01 313.246L264.823 296.502" stroke="#005935" stroke-miterlimit="10"/>
<path d="M282.553 304.496L289.366 287.766" stroke="#005935" stroke-miterlimit="10"/>
<path d="M308.801 246.766C313.686 250.451 314.65 257.404 310.95 262.286C307.264 267.169 300.308 268.132 295.423 264.434C290.538 260.75 289.574 253.797 293.273 248.915C296.96 244.032 303.916 243.069 308.801 246.766Z" fill="#FC5954"/>
<path d="M309.27 254.175C305.583 259.057 298.627 260.02 293.742 256.323C292.726 255.555 291.892 254.643 291.215 253.641C290.498 257.612 291.984 261.843 295.436 264.434C300.321 268.119 307.264 267.155 310.963 262.286C313.881 258.419 313.881 253.263 311.328 249.448C311.029 251.115 310.351 252.729 309.27 254.175Z" fill="#CD2846"/>
<path d="M297.663 248.875C298.393 249.422 298.171 250.946 297.181 252.261C296.178 253.576 294.784 254.201 294.055 253.641C293.325 253.094 293.547 251.571 294.537 250.256C295.54 248.94 296.934 248.316 297.663 248.875Z" fill="#32285F"/>
<path d="M334.15 257.903C335.468 250.614 330.624 243.638 323.332 242.322C316.04 241.005 309.06 245.846 307.743 253.135C306.426 260.423 311.269 267.399 318.561 268.716C325.854 270.032 332.833 265.191 334.15 257.903Z" fill="#FC5954"/>
<path d="M328.289 260.398C320.942 261.413 314.168 256.296 313.152 248.953C312.944 247.43 313.009 245.92 313.296 244.487C309.283 247.287 306.938 252.169 307.655 257.338C308.671 264.681 315.458 269.798 322.792 268.783C328.602 267.975 333.018 263.562 334.099 258.106C332.419 259.278 330.452 260.085 328.289 260.385V260.398Z" fill="#CD2846"/>
<path d="M322.896 245.92C323.052 247.013 321.567 248.133 319.587 248.407C317.607 248.68 315.875 248.016 315.718 246.922C315.562 245.829 317.047 244.709 319.027 244.436C321.007 244.162 322.74 244.826 322.896 245.92Z" fill="#32285F"/>
<path d="M315.536 265.749C320.421 269.434 321.385 276.386 317.686 281.269C313.999 286.151 307.043 287.115 302.158 283.417C297.273 279.733 296.309 272.78 300.009 267.897C303.695 263.015 310.651 262.051 315.536 265.749Z" fill="#FC5954"/>
<path d="M315.993 273.157C312.306 278.04 305.35 279.003 300.465 275.306C299.449 274.538 298.615 273.626 297.938 272.624C297.221 276.595 298.706 280.826 302.158 283.417C307.043 287.102 313.986 286.138 317.686 281.269C320.604 277.402 320.604 272.246 318.051 268.431C317.751 270.098 317.074 271.712 315.993 273.157Z" fill="#CD2846"/>
<path d="M304.399 267.845C305.128 268.392 304.907 269.915 303.917 271.23C302.914 272.545 301.52 273.17 300.79 272.61C300.061 272.064 300.282 270.54 301.272 269.225C302.275 267.91 303.669 267.285 304.399 267.845Z" fill="#32285F"/>
<path d="M618.327 126.826L726.031 145.9C715.493 141.929 699.952 129.326 701.984 117.842C701.984 117.829 701.984 117.816 701.984 117.803C702.258 116.293 700.89 114.978 699.431 115.46C695.849 116.618 691.941 116.957 687.967 116.254C682.327 115.251 677.507 112.348 674.042 108.325C673.208 107.348 671.736 107.361 670.902 108.325C665.588 114.626 657.172 117.999 648.484 116.462C644.615 115.772 641.136 114.184 638.219 111.944C637.476 111.384 636.434 111.423 635.717 112.035L618.301 126.826H618.327Z" fill="#006941"/>
<path d="M618.327 126.826L726.031 145.9C714.763 146.018 695.848 152.515 693.803 163.998C693.803 164.011 693.803 164.024 693.803 164.037C693.542 165.548 691.81 166.316 690.598 165.365C687.628 163.048 684.072 161.381 680.099 160.678C674.458 159.676 668.935 160.756 664.298 163.347C663.177 163.972 661.796 163.464 661.354 162.254C658.527 154.52 651.792 148.452 643.09 146.916C639.221 146.226 635.404 146.538 631.9 147.632C631.014 147.906 630.05 147.502 629.581 146.695L618.313 126.826H618.327Z" fill="#005935"/>
<path d="M691.68 127.894L677.468 139.065" stroke="#005935" stroke-miterlimit="10"/>
<path d="M666.03 123.35L651.818 134.521" stroke="#005935" stroke-miterlimit="10"/>
<path d="M598.501 119.652L673.547 40.1128C664.442 46.74 645.371 52.8073 636.877 44.8C636.877 44.8 636.851 44.787 636.851 44.774C635.731 43.7194 633.894 44.136 633.49 45.6203C632.5 49.2528 630.637 52.7032 627.863 55.6327C623.929 59.7991 618.861 62.2338 613.599 62.9108C612.322 63.0801 611.527 64.304 611.892 65.5409C614.25 73.431 612.452 82.3236 606.395 88.7425C603.698 91.6069 600.455 93.625 596.99 94.8489C596.104 95.1614 595.583 96.0597 595.7 96.9841L598.514 119.652H598.501Z" fill="#006941"/>
<path d="M598.5 119.652L673.547 40.1128C667.464 49.5914 662.513 68.9651 671.007 76.9724C671.007 76.9724 671.033 76.9855 671.033 76.9985C672.153 78.0531 671.84 79.9149 670.381 80.4097C666.812 81.6206 663.477 83.6777 660.703 86.6072C656.769 90.7736 654.645 95.9686 654.268 101.268C654.176 102.544 652.991 103.416 651.74 103.13C643.716 101.242 634.949 103.546 628.892 109.978C626.195 112.843 624.358 116.189 623.342 119.717C623.082 120.615 622.222 121.188 621.284 121.136L598.487 119.652H598.5Z" fill="#005935"/>
<path d="M639.639 58.9395L641.189 76.9461" stroke="#005935" stroke-miterlimit="10"/>
<path d="M621.767 77.8838L623.304 95.8904" stroke="#005935" stroke-miterlimit="10"/>
<path d="M624.646 141.226C618.614 140.159 614.602 134.404 615.67 128.388C616.738 122.36 622.496 118.35 628.515 119.418C634.546 120.485 638.558 126.24 637.49 132.255C636.422 138.284 630.664 142.294 624.646 141.226Z" fill="#FC5954"/>
<path d="M620.868 134.846C621.937 128.818 627.694 124.808 633.713 125.875C634.963 126.097 636.136 126.539 637.178 127.125C636.005 123.258 632.762 120.173 628.515 119.43C622.484 118.363 616.739 122.386 615.671 128.401C614.824 133.167 617.182 137.763 621.181 140.002C620.686 138.388 620.556 136.643 620.868 134.859V134.846Z" fill="#CD2846"/>
<path d="M633.621 134.3C632.722 134.143 632.227 132.698 632.514 131.071C632.8 129.443 633.764 128.258 634.663 128.415C635.562 128.571 636.057 130.016 635.77 131.644C635.484 133.271 634.52 134.456 633.621 134.3Z" fill="#32285F"/>
<path d="M598.879 146.655C594.632 140.588 596.117 132.216 602.187 127.972C608.258 123.727 616.634 125.211 620.881 131.279C625.127 137.346 623.642 145.718 617.572 149.962C611.501 154.207 603.125 152.723 598.879 146.655Z" fill="#FC5954"/>
<path d="M601.106 137.945C607.177 133.7 615.553 135.185 619.799 141.252C620.685 142.515 621.31 143.882 621.701 145.288C624.007 140.979 623.877 135.562 620.881 131.279C616.634 125.211 608.271 123.727 602.187 127.972C597.381 131.331 595.466 137.268 596.977 142.619C597.941 140.822 599.321 139.195 601.106 137.945Z" fill="#CD2846"/>
<path d="M612.491 148.387C611.853 147.475 612.673 145.809 614.315 144.663C615.956 143.517 617.806 143.322 618.431 144.234C619.07 145.145 618.249 146.811 616.608 147.957C614.966 149.103 613.116 149.298 612.491 148.387Z" fill="#32285F"/>
<path d="M610.03 127.386C603.998 126.318 599.986 120.563 601.054 114.548C602.122 108.52 607.88 104.51 613.899 105.577C619.93 106.645 623.942 112.4 622.874 118.415C621.806 124.443 616.048 128.454 610.03 127.386Z" fill="#FC5954"/>
<path d="M606.239 121.006C607.307 114.978 613.065 110.968 619.083 112.036C620.333 112.257 621.506 112.7 622.548 113.285C621.376 109.419 618.132 106.333 613.885 105.591C607.854 104.523 602.109 108.546 601.041 114.561C600.194 119.327 602.552 123.923 606.551 126.162C606.056 124.548 605.926 122.803 606.239 121.019V121.006Z" fill="#CD2846"/>
<path d="M618.992 120.459C618.093 120.303 617.598 118.858 617.884 117.23C618.171 115.603 619.135 114.418 620.034 114.574C620.933 114.731 621.428 116.176 621.141 117.803C620.854 119.431 619.89 120.616 618.992 120.459Z" fill="#32285F"/>
<path d="M721.433 194.83C726.422 210.441 717.772 227.184 702.166 232.171L586.737 269.018C582.165 270.476 577.28 267.963 575.821 263.393C574.362 258.823 576.876 253.94 581.448 252.482L696.878 215.636C703.365 213.565 706.96 206.613 704.876 200.129C702.805 193.645 695.848 190.051 689.361 192.134L673.469 197.212C668.896 198.67 664.011 196.158 662.552 191.588C661.093 187.018 663.607 182.135 668.18 180.677L684.072 175.599C699.691 170.612 716.444 179.258 721.433 194.856V194.83Z" fill="white"/>
<path d="M721.433 194.83C726.422 210.441 717.772 227.184 702.166 232.171L586.737 269.018C582.165 270.476 577.28 267.963 575.821 263.393C574.362 258.823 576.876 253.94 581.448 252.482L696.878 215.636C703.365 213.565 706.96 206.613 704.876 200.129C702.805 193.645 695.848 190.051 689.361 192.134L673.469 197.212C668.896 198.67 664.011 196.158 662.552 191.588C661.093 187.018 663.607 182.135 668.18 180.677L684.072 175.599C699.691 170.612 716.444 179.258 721.433 194.856V194.83Z" fill="#FFDEC0"/>
<path d="M654.489 247.404L641.046 251.688L626.795 238.004L640.238 233.707L654.489 247.404Z" fill="#FC5954"/>
<path d="M628.462 255.711L615.018 260.007L600.78 246.31L614.224 242.027L628.462 255.711Z" fill="#FC5954"/>
<path d="M581.449 252.482C579.312 253.159 577.632 254.591 576.59 256.388L588.991 268.301L602.435 264.005L588.196 250.321L581.449 252.469V252.482Z" fill="#FC5954"/>
<path d="M706.257 230.53L692.306 217.094L678.862 221.39L693.1 235.074L702.167 232.184C703.587 231.728 704.955 231.168 706.257 230.53Z" fill="#FC5954"/>
<path d="M680.504 239.097L667.06 243.381L652.822 229.697L666.266 225.4L680.504 239.097Z" fill="#FC5954"/>
<path d="M673.078 197.291L672.635 179.219L668.18 180.638C663.607 182.096 661.08 186.979 662.552 191.549C663.972 195.989 668.636 198.488 673.091 197.277L673.078 197.291Z" fill="#FC5954"/>
<path d="M705.306 201.991C705.996 206.417 704.198 210.831 700.772 213.539L717.942 220.18C720.221 216.703 721.771 212.758 722.449 208.618L705.306 201.978V201.991Z" fill="#FC5954"/>
<path d="M689.361 192.121C691.367 191.483 693.399 191.392 695.34 191.744L694.91 174.232C691.341 174.011 687.681 174.427 684.072 175.586L682.535 176.081L682.978 194.179L689.361 192.147V192.121Z" fill="#FC5954"/>
<path d="M697.203 192.252C700.734 193.489 703.665 196.301 704.876 200.129C705.046 200.65 705.163 201.171 705.254 201.704L719.427 190.077C717.447 186.302 714.724 183.073 711.481 180.547L697.19 192.265L697.203 192.252Z" fill="#FC5954"/>
<path d="M713.617 197.316C710.087 186.249 698.246 180.143 687.173 183.684L662.54 191.548C663.999 196.118 668.884 198.644 673.456 197.173L689.349 192.095C695.836 190.025 702.792 193.619 704.863 200.089C706.935 206.573 703.339 213.526 696.865 215.596L581.436 252.443C576.863 253.901 574.336 258.784 575.808 263.354L699.978 223.708C711.051 220.179 717.16 208.344 713.617 197.277V197.316Z" fill="#D8C5B6"/>
<path d="M576.59 256.388L581.866 261.466L595.309 257.169L588.184 250.321L581.436 252.469C579.469 253.094 577.697 254.461 576.577 256.375L576.59 256.388Z" fill="#CD2846"/>
<path d="M621.336 248.862L614.224 242.027L600.78 246.31L607.893 253.159L621.336 248.862Z" fill="#CD2846"/>
<path d="M647.364 240.556L640.238 233.707L626.795 238.004L633.92 244.852L647.364 240.556Z" fill="#CD2846"/>
<path d="M673.39 232.249L666.265 225.4L652.821 229.697L659.947 236.546L673.39 232.249Z" fill="#CD2846"/>
<path d="M692.292 217.094L678.849 221.39L685.974 228.226L699.405 223.942L692.292 217.094Z" fill="#CD2846"/>
<path d="M705.306 201.99C705.996 206.417 704.198 210.831 700.772 213.539L709.839 217.054C712.51 213.799 714.164 209.802 714.542 205.571L705.306 201.99Z" fill="#CD2846"/>
<path d="M704.85 185.976L697.191 192.252C701.346 193.723 704.446 197.277 705.241 201.691L712.888 195.415C711.168 191.405 708.315 188.176 704.837 185.963L704.85 185.976Z" fill="#CD2846"/>
<path d="M682.757 185.104L682.979 194.166L689.362 192.134C691.25 191.536 693.426 191.405 695.341 191.757L695.119 182.773C692.514 182.578 689.831 182.864 687.186 183.711L682.757 185.117V185.104Z" fill="#CD2846"/>
<path d="M668.936 197.394C670.264 197.681 671.671 197.668 673.065 197.29L672.844 188.254L662.527 191.548C662.605 191.666 664.012 196.301 668.923 197.381L668.936 197.394Z" fill="#CD2846"/>
<path d="M521.93 200.845C527.401 222.107 535.504 229.098 535.087 229.085C535.829 228.877 516.563 228.721 500.761 200.754C494.73 189.387 495.981 177.695 501.361 176.146C504.044 175.274 507.184 176.797 510.232 179.583C514.908 184.127 520.275 194.504 521.93 200.845Z" fill="#297F58"/>
<path d="M525.929 213.357C529.654 223.669 534.787 228.76 534.709 228.747C534.865 228.695 526.15 228.239 517.058 216.651C513.462 211.964 512.798 206.665 515.143 205.206C516.315 204.464 517.969 204.751 519.741 205.74C522.529 207.316 524.821 210.245 525.942 213.357H525.929Z" fill="#5A915A"/>
<path d="M555.33 220.037C549.872 235.713 552.06 243.512 551.969 243.42C552.308 243.941 533.732 231.598 533.797 208.618C533.94 199.595 540.05 194.739 545.821 196.158C548.765 196.861 551.214 198.931 553.076 201.796C555.864 206.287 556.854 215.219 555.317 220.024L555.33 220.037Z" fill="#297F58"/>
<path d="M552.647 229.606C550.354 237.496 551.826 243.043 551.813 243.03C551.904 243.134 543.216 237.522 541.262 226.299C540.506 221.82 542.851 218.8 546.055 219.242C547.671 219.464 549.221 220.479 550.511 221.95C552.53 224.281 553.311 227.197 552.634 229.606H552.647Z" fill="#5A915A"/>
<path d="M583.337 235.986C582.829 252.573 587.271 259.37 587.141 259.318C587.597 259.721 566.168 253.42 559.564 231.676C557.063 223.109 561.427 216.638 567.289 216.195C570.272 215.948 573.19 217.159 575.808 219.32C579.768 222.731 583.363 230.96 583.337 235.999V235.986Z" fill="#297F58"/>
<path d="M583.637 245.933C583.807 254.162 586.894 259.005 586.881 258.992C586.998 259.07 577.007 256.297 571.835 246.193C569.79 242.157 571.132 238.577 574.284 238.03C575.874 237.743 577.658 238.251 579.326 239.267C581.944 240.881 583.559 243.433 583.637 245.933Z" fill="#5A915A"/>
<path d="M615.031 242.847C619.643 258.823 626.091 263.94 625.961 263.927C626.508 264.2 603.698 264.682 590.867 245.842C585.904 238.408 588.118 230.934 593.576 228.747C596.351 227.614 599.503 227.9 602.669 229.189C607.502 231.273 613.494 238.043 615.031 242.847Z" fill="#297F58"/>
<path d="M618.393 252.235C621.102 260.021 625.609 263.705 625.596 263.692C625.727 263.731 615.123 264.135 607.059 256.037C603.855 252.795 604.05 248.967 606.929 247.508C608.375 246.766 610.251 246.701 612.166 247.183C615.188 247.938 617.559 249.878 618.393 252.248V252.235Z" fill="#5A915A"/>
<path d="M529.525 236.754C551.292 248.732 560.268 246.949 560.124 247.417C559.877 246.766 555.708 261.648 528.431 259.057C517.345 257.755 505.803 248.381 504.058 240.165C503.12 236.09 504.605 233.264 507.484 231.923C512.108 229.931 523.064 233.134 529.538 236.767L529.525 236.754Z" fill="#297F58"/>
<path d="M542.564 243.095C553.493 247.834 559.733 247.365 559.694 247.456C559.629 247.313 557.297 253.993 544.7 253.966C539.594 253.901 534.122 250.607 532.846 247.053C532.194 245.282 532.676 243.824 533.927 242.886C535.907 241.402 539.268 241.65 542.564 243.108V243.095Z" fill="#5A915A"/>
<path d="M570.559 262.794C595.049 266.361 603.034 261.583 603.021 262.052C602.578 261.531 603.855 276.947 577.345 284.056C566.494 286.712 552.491 282.024 548.049 275.007C545.782 271.556 546.173 268.406 548.387 266.114C551.983 262.599 563.238 261.674 570.559 262.794Z" fill="#297F58"/>
<path d="M584.953 264.161C596.873 264.786 602.643 262.156 602.63 262.247C602.513 262.13 602.682 269.226 590.815 273.601C585.995 275.32 579.69 274.148 577.254 271.27C576.03 269.838 575.965 268.302 576.798 266.987C578.127 264.903 581.358 263.953 584.953 264.161Z" fill="#5A915A"/>
<path d="M619.878 272.52C644.537 266.895 650.699 259.253 650.829 259.721C650.256 259.357 657.16 273.301 634.311 289.81C624.88 296.307 609.86 297.011 603.112 292.063C599.699 289.654 598.931 286.568 600.168 283.639C602.253 279.069 612.518 274.147 619.891 272.52H619.878Z" fill="#297F58"/>
<path d="M634.154 268.51C645.839 264.656 650.516 259.969 650.529 260.06C650.385 259.982 653.199 266.518 643.364 275.072C639.339 278.483 632.864 279.746 629.452 277.949C627.745 277.077 627.107 275.658 627.419 274.135C627.914 271.713 630.637 269.63 634.167 268.497L634.154 268.51Z" fill="#5A915A"/>
<path d="M530.085 225.83C562.912 259.435 613.169 273.535 660.86 257.95" stroke="#5A915A" stroke-width="1.6" stroke-miterlimit="10"/>
<path d="M538.474 233.681C536.025 233.668 533.55 233.564 531.062 233.395C536.103 235.947 541.222 238.108 546.368 239.905C543.658 237.939 541.027 235.869 538.487 233.694L538.474 233.681Z" fill="#5A915A"/>
<path d="M569.282 253.146C566.585 251.935 563.928 250.633 561.309 249.24C560.215 246.805 559.225 244.358 558.326 241.897C561.674 245.803 565.322 249.566 569.282 253.133V253.146Z" fill="#5A915A"/>
<path d="M576.12 255.972C573.255 256.571 570.337 257.065 567.354 257.456C574.557 258.953 581.774 259.826 588.9 260.073C584.562 258.927 580.289 257.56 576.107 255.972H576.12Z" fill="#5A915A"/>
<path d="M609.026 263.679C605.275 263.315 601.549 262.781 597.863 262.091C596.299 259.799 594.827 257.482 593.473 255.138C598.306 258.302 603.503 261.166 609.026 263.679Z" fill="#5A915A"/>
<path d="M621.402 264.278C618.992 265.853 616.504 267.364 613.938 268.796C620.164 267.572 626.222 265.905 632.084 263.822C628.514 264.135 624.945 264.278 621.402 264.291V264.278Z" fill="#5A915A"/>
<path d="M656.156 259.383C651.766 259.174 647.507 258.706 643.364 258.042C645.097 259.161 646.894 260.229 648.731 261.27C651.206 260.724 653.681 260.099 656.156 259.396V259.383Z" fill="#5A915A"/>
</svg>