<svg xmlns:xlink="http://www.w3.org/1999/xlink" xmlns="http://www.w3.org/2000/svg" width="400" height="277" viewBox="0 0 400 277" fill="none">
<path d="M277.439 276.939H39.8716C18.4229 276.939 0.951172 259.467 0.951172 238.019V81.7928C0.951172 60.344 18.4229 42.8723 39.8716 42.8723H91.471C92.6267 42.8723 93.5445 43.7901 93.5445 44.9458C93.5445 46.1015 92.6267 47.0193 91.471 47.0193H39.8716C20.7003 47.0193 5.09816 62.6215 5.09816 81.7928V238.019C5.09816 257.19 20.7003 272.792 39.8716 272.792H277.439C296.611 272.792 312.213 257.19 312.213 238.019V179.961C312.213 178.805 313.131 177.887 314.286 177.887H394.677C395.832 177.887 396.75 178.805 396.75 179.961C396.75 181.116 395.832 182.034 394.677 182.034H316.36V238.019C316.36 259.467 298.888 276.939 277.439 276.939Z" fill="#8C7BFE"/>
<path d="M380.876 196.957L378.021 193.931L393.045 179.961L378.021 165.99L380.876 162.965L399.163 179.961L380.876 196.957Z" fill="#8C7BFE"/>
<path style="mix-blend-mode:multiply" opacity="0.3" d="M200.466 87.3018C208.163 54.6879 187.965 22.009 155.351 14.3114C122.737 6.61386 90.0581 26.8125 82.3605 59.4264C74.663 92.0402 94.8616 124.719 127.475 132.417C160.089 140.114 192.768 119.916 200.466 87.3018Z" fill="url(#paint0_radial_286_1028)"/>
<rect x="93" width="96" height="96" rx="24" fill="white"/>
<rect x="101" y="8" width="80" height="80" rx="16" fill="#8C7BFE"/>
<path d="M148.594 48H133.406C131.08 48 129.188 49.8918 129.188 52.2188C129.188 54.5457 131.08 56.4375 133.406 56.4375H148.594C150.921 56.4375 152.812 54.5457 152.812 52.2188C152.812 49.8918 150.921 48 148.594 48ZM135.094 54.75C133.698 54.75 132.562 53.6146 132.562 52.2188C132.562 50.8229 133.698 49.6875 135.094 49.6875C136.49 49.6875 137.625 50.8229 137.625 52.2188C137.625 53.6146 136.49 54.75 135.094 54.75ZM146.906 54.75C145.51 54.75 144.375 53.6146 144.375 52.2188C144.375 50.8229 145.51 49.6875 146.906 49.6875C148.302 49.6875 149.438 50.8229 149.438 52.2188C149.438 53.6146 148.302 54.75 146.906 54.75ZM162.938 49.8429V36.0321C163.918 35.6826 164.625 34.7548 164.625 33.6562C164.625 32.2604 163.49 31.125 162.094 31.125C160.698 31.125 159.562 32.2604 159.562 33.6562C159.562 34.7548 160.27 35.6826 161.25 36.0321V49.8429C160.904 49.9663 160.591 50.1558 160.333 50.4067C157.76 42.1767 150.067 36.1875 141 36.1875C131.934 36.1875 124.24 42.1768 121.668 50.4068C121.409 50.1558 121.096 49.9663 120.75 49.8429V36.0321C121.73 35.6826 122.438 34.7548 122.438 33.6562C122.438 32.2604 121.302 31.125 119.906 31.125C118.51 31.125 117.375 32.2604 117.375 33.6562C117.375 34.7548 118.082 35.6826 119.062 36.0321V49.8429C118.082 50.1924 117.375 51.1202 117.375 52.2188V58.9688C117.375 60.3646 118.51 61.5 119.906 61.5C120.701 61.5 121.402 61.1248 121.866 60.5506C123.315 63.1175 126.036 64.875 129.188 64.875H152.812C155.964 64.875 158.685 63.1175 160.134 60.5506C160.598 61.1248 161.299 61.5 162.094 61.5C163.49 61.5 164.625 60.3646 164.625 58.9688V52.2188C164.625 51.1202 163.918 50.1924 162.938 49.8429ZM148.594 58.125H133.406C130.15 58.125 127.5 55.4751 127.5 52.2188C127.5 48.9624 130.15 46.3125 133.406 46.3125H148.594C151.85 46.3125 154.5 48.9624 154.5 52.2188C154.5 55.4751 151.85 58.125 148.594 58.125Z" fill="white"/>
<defs>
<radialGradient id="paint0_radial_286_1028" cx="0" cy="0" r="1" gradientUnits="userSpaceOnUse" gradientTransform="translate(141.43 73.3542) scale(60.6751)">
<stop offset="0.11"/>
<stop offset="0.12" stop-color="#030303"/>
<stop offset="0.26" stop-color="#454545"/>
<stop offset="0.41" stop-color="#7D7D7D"/>
<stop offset="0.55" stop-color="#ACACAC"/>
<stop offset="0.68" stop-color="#D0D0D0"/>
<stop offset="0.8" stop-color="#E9E9E9"/>
<stop offset="0.91" stop-color="#F9F9F9"/>
<stop offset="1" stop-color="white"/>
</radialGradient>
</defs>
</svg>