<svg xmlns:xlink="http://www.w3.org/1999/xlink" xmlns="http://www.w3.org/2000/svg" width="220" height="307" viewBox="0 0 220 307" fill="none">
<path d="M130.932 250.99C137.835 258.119 137.654 269.537 130.522 276.436L77.8044 327.455C75.7138 329.473 72.3844 329.418 70.3647 327.337C68.345 325.247 68.4003 321.919 70.4831 319.901L123.2 268.882C126.159 266.012 126.238 261.273 123.374 258.316C120.502 255.359 115.76 255.28 112.802 258.142L105.544 265.168C103.453 267.187 100.124 267.132 98.1039 265.05C96.0842 262.96 96.1394 259.633 98.2222 257.614L105.481 250.588C112.613 243.688 124.036 243.87 130.94 250.998L130.932 250.99Z" fill="white"/>
<path d="M130.932 250.99C137.835 258.119 137.654 269.537 130.522 276.436L77.8044 327.455C75.7138 329.473 72.3844 329.418 70.3647 327.337C68.345 325.247 68.4003 321.919 70.4831 319.901L123.2 268.882C126.159 266.012 126.238 261.273 123.374 258.316C120.502 255.359 115.76 255.28 112.802 258.142L105.544 265.168C103.453 267.187 100.124 267.132 98.1039 265.05C96.0842 262.96 96.1394 259.633 98.2222 257.614L105.481 250.588C112.613 243.688 124.036 243.87 130.94 250.998L130.932 250.99Z" fill="#FFDEC0"/>
<path d="M108.747 297.506L102.601 303.452L91.1929 299.848L97.3308 293.902L108.747 297.506Z" fill="#FC5954"/>
<path d="M96.8577 309.011L90.7118 314.956L79.3037 311.353L85.4417 305.407L96.8577 309.011Z" fill="#FC5954"/>
<path d="M132.297 274.441L121.11 270.901L114.972 276.846L126.38 280.45L130.522 276.444C131.169 275.813 131.76 275.151 132.297 274.449V274.441Z" fill="#FC5954"/>
<path d="M120.628 286.001L114.49 291.947L103.082 288.343L109.22 282.405L120.628 286.001Z" fill="#FC5954"/>
<path d="M105.354 265.318L100.25 255.635L98.2145 257.606C96.1238 259.625 96.0764 262.96 98.0961 265.042C100.061 267.069 103.264 267.171 105.354 265.318Z" fill="#FC5954"/>
<path d="M124.099 259.207C125.661 261.43 125.874 264.3 124.746 266.698L135.855 265.688C136.154 263.189 135.933 260.634 135.192 258.205L124.099 259.214V259.207Z" fill="#FC5954"/>
<path d="M112.794 258.134C113.709 257.251 114.79 256.652 115.934 256.321L110.987 246.929C108.991 247.773 107.114 248.979 105.473 250.572L104.771 251.25L109.883 260.949L112.794 258.126V258.134Z" fill="#FC5954"/>
<path d="M117.086 256.1C119.334 255.824 121.678 256.557 123.374 258.308C123.603 258.544 123.808 258.796 124.005 259.057L128.573 248.94C126.482 247.426 124.131 246.409 121.701 245.896L117.102 256.092L117.086 256.1Z" fill="#FC5954"/>
<path d="M127.366 254.436C122.467 249.382 114.404 249.256 109.346 254.145L98.0961 265.034C100.116 267.124 103.453 267.179 105.536 265.153L112.794 258.127C115.753 255.256 120.502 255.335 123.366 258.3C126.238 261.257 126.159 266.004 123.192 268.867L70.4753 319.885C68.3846 321.904 68.3294 325.239 70.357 327.321L127.074 272.431C132.131 267.534 132.257 259.475 127.366 254.421V254.436Z" fill="#D8C5B6"/>
<path d="M91.1536 307.213L85.4417 305.407L79.3037 311.353L85.0078 313.151L91.1536 307.213Z" fill="#CD2846"/>
<path d="M103.035 295.708L97.3313 293.902L91.1934 299.848L96.8974 301.646L103.035 295.708Z" fill="#CD2846"/>
<path d="M114.924 284.203L109.22 282.405L103.082 288.343L108.786 290.149L114.924 284.203Z" fill="#CD2846"/>
<path d="M121.109 270.901L114.964 276.839L120.676 278.644L126.806 272.699L121.109 270.901Z" fill="#CD2846"/>
<path d="M124.1 259.207C125.662 261.43 125.875 264.301 124.747 266.698L130.616 266.162C131.184 263.678 131.019 261.06 130.08 258.663L124.1 259.207Z" fill="#CD2846"/>
<path d="M119.548 250.635L117.078 256.1C119.729 255.777 122.364 256.873 123.989 259.057L126.451 253.592C124.439 251.881 122.025 250.896 119.54 250.627L119.548 250.635Z" fill="#CD2846"/>
<path d="M107.319 256.1L109.875 260.957L112.786 258.134C113.646 257.298 114.798 256.644 115.926 256.32L113.386 251.502C111.918 252.102 110.538 252.969 109.33 254.144L107.311 256.1H107.319Z" fill="#CD2846"/>
<path d="M103.13 266.485C103.926 266.288 104.692 265.901 105.346 265.318L102.79 260.476L98.0803 265.034C98.1592 265.081 100.163 267.21 103.122 266.485H103.13Z" fill="#CD2846"/>
<path d="M73.2283 332.036L170.315 300.148C159.886 301.535 141.519 298.026 138.119 287.673C138.119 287.657 138.111 287.649 138.103 287.634C137.661 286.269 135.949 285.796 134.963 286.829C132.525 289.368 129.456 291.371 125.882 292.546C120.801 294.218 115.547 293.958 110.916 292.168C109.796 291.734 108.589 292.388 108.344 293.563C106.758 301.094 101.322 307.591 93.4883 310.17C90.0012 311.313 86.4352 311.534 83.0427 310.99C82.1828 310.848 81.3465 311.353 81.0309 312.165L73.2362 332.028L73.2283 332.036Z" fill="#006941"/>
<path d="M73.228 332.036L170.315 300.147C161.092 305.218 148.39 318.923 151.799 329.284C151.799 329.3 151.807 329.308 151.815 329.323C152.264 330.688 151.175 332.075 149.763 331.831C146.292 331.232 142.639 331.437 139.057 332.612C133.977 334.283 129.906 337.603 127.231 341.782C126.584 342.792 125.227 342.981 124.336 342.184C118.592 337.067 110.356 335.048 102.521 337.627C99.0343 338.77 96.0363 340.71 93.6222 343.154C93.0147 343.777 92.0443 343.864 91.3027 343.399L73.2438 332.028L73.228 332.036Z" fill="#005935"/>
<path d="M134.079 300.51L127.318 315.981" stroke="#005935" stroke-width="1.54" stroke-miterlimit="10"/>
<path d="M94.7195 213.069H25.9316V281.822H94.7195V213.069Z" fill="#FC5954"/>
<path d="M43.8248 262.676V213.077H25.9316V281.83H94.7195V271.066H52.2113C47.5723 271.066 43.8169 267.313 43.8169 262.676H43.8248Z" fill="#CD2846"/>
<path d="M25.9316 249.027H94.7195" stroke="#CD2846" stroke-width="2" stroke-miterlimit="10"/>
<path d="M54.7995 235.401C57.0401 237.64 60.33 249.027 60.33 249.027C60.33 249.027 48.9376 245.739 46.697 243.499C44.4565 241.26 44.4565 237.632 46.697 235.393C48.9376 233.154 52.5668 233.154 54.8074 235.393L54.7995 235.401Z" stroke="#CD2846" stroke-width="2" stroke-miterlimit="10" stroke-linecap="round"/>
<path d="M65.5288 235.401C63.2882 237.64 59.9983 249.027 59.9983 249.027C59.9983 249.027 71.3906 245.739 73.6312 243.499C75.8718 241.26 75.8718 237.632 73.6312 235.393C71.3906 233.154 67.7615 233.154 65.5209 235.393L65.5288 235.401Z" stroke="#CD2846" stroke-width="2" stroke-miterlimit="10" stroke-linecap="round"/>
<path d="M71.9668 255.366C69.3791 256.462 66.389 255.831 64.464 253.781L60.0065 249.026L57.2294 256.786C56.2353 259.561 53.2689 261.099 50.4287 260.31" stroke="#CD2846" stroke-width="2" stroke-miterlimit="10" stroke-linecap="round"/>
<path d="M25.9316 247.45H94.7195" stroke="#F0E1D3" stroke-width="2" stroke-miterlimit="10" stroke-linecap="round"/>
<path d="M60.3213 213.069V281.83" stroke="#F0E1D3" stroke-width="2" stroke-miterlimit="10" stroke-linecap="round"/>
<path d="M54.7995 233.824C57.0401 236.063 60.33 247.45 60.33 247.45C60.33 247.45 48.9376 244.161 46.697 241.922C44.4565 239.683 44.4565 236.055 46.697 233.816C48.9376 231.576 52.5668 231.576 54.8074 233.816L54.7995 233.824Z" stroke="#F0E1D3" stroke-width="2" stroke-miterlimit="10" stroke-linecap="round"/>
<path d="M65.5288 233.824C63.2882 236.063 59.9983 247.45 59.9983 247.45C59.9983 247.45 71.3906 244.161 73.6312 241.922C75.8718 239.683 75.8718 236.055 73.6312 233.816C71.3906 231.576 67.7615 231.576 65.5209 233.816L65.5288 233.824Z" stroke="#F0E1D3" stroke-width="2" stroke-miterlimit="10" stroke-linecap="round"/>
<path d="M71.9668 253.79C69.3791 254.886 66.389 254.255 64.464 252.205L60.0065 247.45L57.2294 255.209C56.2353 257.985 53.2689 259.522 50.4287 258.734" stroke="#F0E1D3" stroke-width="2" stroke-miterlimit="10" stroke-linecap="round"/>
<path d="M14.0739 158.268C-39.9213 211.013 -41.4519 298.367 12.3461 353.399" stroke="#5A915A" stroke-width="3" stroke-miterlimit="10"/>
<path d="M12.3066 192.451C2.49218 195.116 -7.3617 199.208 -16.8921 204.744C-19.7954 194.012 -21.3891 182.318 -21.3023 169.946" stroke="#5A915A" stroke-width="3" stroke-miterlimit="10"/>
<path d="M14.0185 181.096C6.16853 182.744 -1.75244 185.228 -9.57874 188.571C-10.6675 180.063 -10.8963 171.081 -10.0916 161.761" stroke="#5A915A" stroke-width="3" stroke-miterlimit="10"/>
<path d="M4.93807 205.611C-4.39511 209.42 -13.6099 214.656 -22.3514 221.303C-26.6117 211.084 -29.7201 199.784 -31.3059 187.641" stroke="#5A915A" stroke-width="3" stroke-miterlimit="10"/>
<path d="M-0.60773 219.45C-9.35709 224.355 -17.8224 230.663 -25.6487 238.328C-31.1634 228.763 -35.6841 217.999 -38.8398 206.25" stroke="#5A915A" stroke-width="3" stroke-miterlimit="10"/>
<path d="M-0.726626 292.271C-4.88435 301.442 -7.96122 311.67 -9.59433 322.717C-19.8506 318.025 -29.9017 311.835 -39.3848 304.171" stroke="#5A915A" stroke-width="3" stroke-miterlimit="10"/>
<path d="M4.81224 306.244C1.90105 315.951 0.236385 326.588 0.165381 337.896C-10.7299 334.434 -21.5857 329.467 -32.0234 322.961" stroke="#5A915A" stroke-width="3" stroke-miterlimit="10"/>
<path d="M70.7431 303.286L18.0576 432.969" stroke="#00492C" stroke-width="3" stroke-miterlimit="10"/>
<path d="M76.9128 313.458L64.408 318.749L59.1143 306.251" stroke="#00492C" stroke-width="3" stroke-miterlimit="10"/>
<path d="M175.76 243.48H158.561V302.45L181.76 300.64L175.76 243.48Z" fill="#FFCD50"/>
<path d="M168.75 299.41V243.48H158.561V302.45L181.76 300.64L181.531 298.41L168.75 299.41Z" fill="#FFAD4A"/>
<path d="M156.779 231L145.207 232.012L144 270.494L163 271L156.779 231Z" fill="#FFCD50"/>
<path d="M8.63989 228.33L-19.3801 229.77L-22.29 284.55L23.71 285.27L8.63989 228.33Z" fill="#FFAD4A"/>
<path d="M13.8502 207L-4.32971 208.44L-6.21973 263.22L23.6302 263.94L13.8502 207Z" fill="#FFAD4A"/>
<path d="M150.436 231L145.111 231.516L144 270.792L151 271L150.436 231Z" fill="#FFAD4A"/>
<path d="M212.59 289.55H195.47V304.66H212.59V289.55Z" fill="#FFCD50"/>
<path d="M187.41 280.7H167.28V303.18H190.4L187.41 280.7Z" fill="#FFCD50"/>
<path d="M167.05 265.59H-53.4398L-68.8398 309.82H167.05V265.59Z" fill="#FFCD50"/>
<path d="M219.63 298.76H-36.1504V309.82H219.63V298.76Z" fill="#FFCD50"/>
<path d="M30.28 295.72L44.49 291.85L45.91 284.11L58.7001 283.01L69.36 274.44L168.68 268.72L167.05 265.59H-53.4399L-59.36 282.6V253.43H-74.52V295.44H-79.73V300.98H-93V309.82H-79.73H-74.0499H-68.84H-60.7799H-36.15H24.8101L29.2201 304.01L30.28 295.72Z" fill="#FFAD4A"/>
<path d="M71.62 270.57H53.5V281.72H71.62V270.57Z" fill="#FFCD50"/>
<path d="M29.3401 285.22H15.75V288.81H29.3401V285.22Z" fill="#FFCD50"/>
<path d="M21.7499 304.85L4.37988 302.83V307.21H20.8799L21.7499 304.85Z" fill="#FFCD50"/>
<path d="M-16.3799 290.2L0.990112 288.18V292.56H-15.5099L-16.3799 290.2Z" fill="#FFCD50"/>
<path d="M49.6903 277.49L32.3203 275.46V279.84H48.8203L49.6903 277.49Z" fill="#FFCD50"/>
<path d="M23.6698 295.44H10.7998V299.03H23.6698V295.44Z" fill="#FFCD50"/>
<path d="M41.89 291.85H9.54004V295.44H41.89V291.85Z" fill="#FFAD4A"/>
<path d="M141.321 304.44H121.561V307.42H141.321V304.44Z" fill="#FFAD4A"/>
<path d="M136.78 288.41H121.05V291.39H136.78V288.41Z" fill="#FFE592"/>
<path d="M111.61 282.15L95.1299 281.22V284.57L111.61 284.36V282.15Z" fill="#FFE592"/>
<path d="M75.8699 298.55L59.3799 297.63V300.97L75.8699 300.76V298.55Z" fill="#FFE592"/>
<path d="M169.51 294.12H147.74V297.1H169.51V294.12Z" fill="#FFAD4A"/>
<path d="M169.51 287.67H155.29V290.65H169.51V287.67Z" fill="#FFAD4A"/>
<path d="M183.1 287.31H168.88V290.29H183.1V287.31Z" fill="#FFAD4A"/>
<path d="M165.35 279.84H151.13V282.82H165.35V279.84Z" fill="#FFAD4A"/>
<path d="M81.5903 286.51L63.7703 285.07L63.3203 288.65L81.3702 288.22L81.5903 286.51Z" fill="#FFAD4A"/>
<path d="M174.48 300.6V280.7H163.35L161.2 303.18H187.41V300.6H174.48Z" fill="#FFAD4A"/>
<path d="M202.27 289.55H195.47V304.66H202.27V289.55Z" fill="#FFAD4A"/>
<path d="M202.26 296.89H181.87V309.82H202.26V296.89Z" fill="#FFAD4A"/>
<path d="M186.62 302.05H136.53V309.82H186.62V302.05Z" fill="#FFAD4A"/>
<path d="M188.13 299.1L171.65 298.18V301.53L188.13 301.31V299.1Z" fill="#FFCD50"/>
<path d="M155.16 275.88L138.67 274.96V278.31L155.16 278.09V275.88Z" fill="#FFE592"/>
<path d="M157.32 242.16L146.72 241.23V244.58L157.32 244.37V242.16Z" fill="#FFAD4A"/>
<path d="M186.62 248.79L176.02 247.87V251.22L186.62 251V248.79Z" fill="#FFAD4A"/>
<path d="M182.85 281.13L168.37 280.21V283.56L182.85 283.34V281.13Z" fill="#FFAD4A"/>
<path d="M213.02 305.25L198.55 304.32V307.67L213.02 307.46V305.25Z" fill="#FFAD4A"/>
<path d="M211.52 299.86L197.05 298.94V302.29L211.52 302.08V299.86Z" fill="#FFCD50"/>
<path d="M156.21 258.56L147.38 257.64V260.99L156.21 260.77V258.56Z" fill="#FFCD50"/>
<path d="M154.19 235.75L146.46 234.83V238.18L154.19 237.96V235.75Z" fill="#FFAD4A"/>
<path d="M152.65 230L145 231.45L145.38 234.77L152.91 232.2L152.65 230Z" fill="#FFAD4A"/>
<path d="M18.9833 136.323C26.2262 115.595 23.3473 105.283 23.686 105.53C22.9435 105.296 38.9011 116.102 36.5563 148.132C35.2797 160.93 27.7503 169.966 22.4094 168.274C19.6998 167.505 17.9282 164.498 16.9382 160.501C15.5704 154.121 16.86 142.52 18.9833 136.323Z" fill="#297F58"/>
<path d="M22.5787 123.68C25.1971 113.043 23.7381 105.96 23.8033 106.012C23.6469 105.973 30.6553 111.181 31.7886 125.854C32.1794 131.753 29.7955 136.531 27.0339 136.44C25.653 136.414 24.4285 135.255 23.5036 133.458C22.0577 130.607 21.7841 126.896 22.5787 123.68Z" fill="#5A915A"/>
<path d="M1.81415 101.845C15.0492 91.82 17.5504 84.1252 17.5894 84.2424C17.5894 83.6174 26.2131 104.189 13.4209 123.263C8.30143 130.698 0.524511 131.362 -3.50073 126.974C-5.55894 124.761 -6.45778 121.675 -6.4187 118.251C-6.24936 112.965 -2.1199 104.983 1.81415 101.845Z" fill="#297F58"/>
<path d="M9.35583 95.3616C15.6477 90.0624 17.4975 84.6331 17.4845 84.6461C17.4714 84.5029 21.5879 93.9945 16.9895 104.41C15.1266 108.551 11.5052 109.775 9.0953 107.626C7.87079 106.559 7.1413 104.84 6.88076 102.9C6.48996 99.8405 7.45394 96.9761 9.35583 95.3486V95.3616Z" fill="#5A915A"/>
<path d="M-12.6589 73.0454C-3.03219 59.5177 -2.96706 51.4062 -2.8889 51.5104C-3.04522 50.9114 11.2971 68.0327 4.7317 89.8022C2.06123 98.3173 -5.15554 101.286 -10.288 98.4084C-12.9064 96.9632 -14.678 94.3331 -15.642 91.0912C-17.0489 86.0654 -15.4727 77.2249 -12.6589 73.0454Z" fill="#297F58"/>
<path d="M-7.39646 64.6085C-2.98041 57.6689 -2.85015 51.9271 -2.85015 51.9401C-2.90226 51.8099 3.87161 59.6479 2.56894 70.9232C2.03485 75.4151 -1.0655 77.6546 -3.99649 76.3656C-5.48153 75.7146 -6.67999 74.3215 -7.50067 72.5507C-8.79031 69.7645 -8.71215 66.7308 -7.39646 64.6085Z" fill="#5A915A"/>
<path d="M32.5564 102.223C21.0799 80.1933 12.6256 76.704 13.0034 76.4045C12.8471 77.0816 24.5711 67.0041 45.8436 84.2816C54.35 91.5077 58.7661 105.7 55.6527 113.512C54.1807 117.418 51.3799 118.954 48.2275 118.472C43.2774 117.574 35.9303 108.837 32.5564 102.223Z" fill="#297F58"/>
<path d="M25.2227 89.7111C18.7615 79.7117 13.3033 76.639 13.3814 76.5869C13.3554 76.7432 19.009 72.4726 29.4694 79.4644C33.677 82.3418 36.4126 88.1227 35.5007 91.7943C35.0578 93.6301 33.8463 94.5806 32.2831 94.6717C29.8081 94.8019 27.1506 92.7448 25.2097 89.7111H25.2227Z" fill="#5A915A"/>
<path d="M12.8477 57.825C-5.55898 41.2896 -14.847 40.8469 -14.5865 40.4563C-14.5083 41.1334 -7.031 27.6056 18.9833 36.368C29.4827 40.1699 38.5363 51.8228 38.3539 60.1295C38.3279 64.2699 36.2436 66.6656 33.1432 67.3426C28.2061 68.2801 18.3189 62.8117 12.8477 57.825Z" fill="#297F58"/>
<path d="M1.61839 48.6979C-7.95621 41.5759 -14.209 40.5734 -14.1569 40.4953C-14.1309 40.6515 -10.3401 34.6623 1.97011 37.5918C6.93327 38.8287 11.5317 43.2946 11.9616 47.0443C12.196 48.9192 11.3884 50.2342 9.96848 50.8592C7.70184 51.8617 4.48426 50.8592 1.61839 48.6979Z" fill="#5A915A"/>
<path d="M-22.8196 22.3976C-46.463 13.4268 -55.8292 16.3693 -55.6729 15.9006C-55.3993 16.5125 -53.4193 1.08382 -25.2426 0.00315991C-13.7921 -0.17912 -0.895752 7.55476 1.98314 15.4188C3.49424 19.3118 2.42605 22.3064 -0.231392 24.0641C-4.50414 26.7202 -15.7722 25.1187 -22.8066 22.3976H-22.8196Z" fill="#297F58"/>
<path d="M26.0434 111.012C17.3546 64.8558 -16.6711 25.288 -65 11.8384" stroke="#5A915A" stroke-width="1.6" stroke-miterlimit="10"/>
<path d="M23.3989 99.8273C25.418 101.194 27.4241 102.653 29.4042 104.176C26.6164 99.2545 23.5682 94.6194 20.2725 90.2837C21.4318 93.4215 22.474 96.5984 23.3858 99.8273H23.3989Z" fill="#5A915A"/>
<path d="M8.54883 66.5483C10.1251 69.0482 11.6231 71.6131 13.017 74.2171C12.5741 76.8472 12.04 79.4381 11.4407 81.977C10.8285 76.8732 9.86452 71.7173 8.54883 66.5483Z" fill="#5A915A"/>
<path d="M4.43246 60.416C7.142 61.5097 9.85155 62.7205 12.5481 64.0356C7.37648 58.7885 1.85318 54.0753 -3.93066 49.9219C-0.960584 53.281 1.84015 56.7834 4.43246 60.416Z" fill="#5A915A"/>
<path d="M-5.08018 249.601L51.8196 142C44.0175 151.812 25.3665 163.978 13.8769 157.909C13.8627 157.902 13.8484 157.895 13.8342 157.888C12.325 157.084 10.4671 158.087 10.4742 159.795C10.4884 163.986 9.51315 168.24 7.41314 172.211C4.43752 177.846 -0.282176 181.958 -5.7351 184.256C-7.05206 184.811 -7.55037 186.369 -6.78867 187.579C-1.91948 195.349 -1.20049 205.416 -5.79205 214.104C-7.83511 217.967 -10.7111 221.105 -14.0711 223.439C-14.9253 224.029 -15.2243 225.154 -14.8257 226.114L-5.08018 249.594V249.601Z" fill="#006941"/>
<path d="M-5.0798 249.601L51.82 142C48.104 153.968 48.5525 176.231 60.0349 182.3C60.0492 182.307 60.0634 182.314 60.0777 182.321C61.5868 183.118 61.8075 185.21 60.3909 186.17C56.9169 188.525 53.9484 191.727 51.8556 195.69C48.8799 201.325 48.1325 207.537 49.2999 213.336C49.5847 214.737 48.5738 216.025 47.143 216.075C37.9812 216.431 29.2466 221.511 24.655 230.198C22.6119 234.062 21.6367 238.203 21.6011 242.294C21.594 243.333 20.8323 244.215 19.8143 244.421L-5.08691 249.594L-5.0798 249.601Z" fill="#005935"/>
<path d="M21.0383 172.253L28.0431 191.115" stroke="#005935" stroke-width="2.04" stroke-miterlimit="10"/>
<path d="M7.48438 197.882L14.4892 216.744" stroke="#005935" stroke-width="2.04" stroke-miterlimit="10"/>
<path d="M122.815 246.428C112.301 249.943 108.784 252.675 108.784 252.675C108.784 252.675 108.186 243.44 117.412 234.211C121.128 230.497 126.346 229.686 129.065 232.397C130.425 233.756 130.902 235.741 130.575 237.847C130.055 241.177 126.011 245.354 122.815 246.421V246.428Z" fill="#297F58"/>
<path d="M116.607 248.705C111.432 250.434 108.941 252.504 108.941 252.504C108.941 252.504 108.649 247.958 113.183 243.425C115.013 241.597 117.576 241.198 118.914 242.536C119.583 243.205 119.818 244.18 119.654 245.218C119.398 246.855 118.181 248.185 116.607 248.712V248.705Z" fill="#5A915A"/>
<path d="M115.112 265.731C105.452 260.288 101.067 259.505 101.067 259.505C101.067 259.505 107.524 252.867 120.558 253.536C125.812 253.806 129.912 257.129 129.713 260.964C129.613 262.885 128.46 264.564 126.68 265.731C123.861 267.581 118.045 267.382 115.112 265.731Z" fill="#297F58"/>
<path d="M109.26 262.657C104.512 259.982 101.302 259.512 101.302 259.512C101.302 259.512 104.477 256.247 110.891 256.574C113.475 256.702 115.489 258.338 115.397 260.231C115.347 261.177 114.785 262.003 113.902 262.579C112.514 263.49 110.713 263.468 109.268 262.657H109.26Z" fill="#5A915A"/>
<path d="M102.391 278.446C92.7308 273.003 88.3457 272.22 88.3457 272.22C88.3457 272.22 94.8024 265.582 107.837 266.25C113.09 266.521 117.191 269.844 116.991 273.679C116.892 275.6 115.738 277.279 113.959 278.446C111.14 280.296 105.324 280.096 102.391 278.446Z" fill="#297F58"/>
<path d="M96.5398 275.372C91.7916 272.697 88.5811 272.227 88.5811 272.227C88.5811 272.227 91.756 268.961 98.1699 269.289C100.754 269.417 102.769 271.053 102.676 272.946C102.626 273.892 102.064 274.717 101.181 275.294C99.793 276.205 97.992 276.19 96.5469 275.372H96.5398Z" fill="#5A915A"/>
<path d="M89.6702 291.153C80.0101 285.71 75.625 284.928 75.625 284.928C75.625 284.928 82.0817 278.289 95.116 278.958C100.37 279.228 104.47 282.551 104.271 286.386C104.171 288.307 103.018 289.986 101.238 291.153C98.4191 293.003 92.6031 292.804 89.6702 291.153Z" fill="#297F58"/>
<path d="M83.8259 288.086C79.0777 285.411 75.8672 284.942 75.8672 284.942C75.8672 284.942 79.0421 281.676 85.4561 282.003C88.0402 282.131 90.0548 283.768 89.9622 285.66C89.9124 286.606 89.35 287.432 88.4673 288.008C87.0791 288.919 85.2781 288.905 83.833 288.086H83.8259Z" fill="#5A915A"/>
<path d="M103.879 248.498C98.9887 258.445 98.4619 262.863 98.4619 262.863C98.4619 262.863 91.4642 256.794 91.393 243.752C91.3645 238.494 94.4541 234.218 98.2982 234.197C100.22 234.183 101.964 235.243 103.239 236.958C105.246 239.668 105.374 245.474 103.893 248.498H103.879Z" fill="#297F58"/>
<path d="M101.146 254.511C98.7395 259.406 98.4619 262.629 98.4619 262.629C98.4619 262.629 95.0235 259.648 94.9808 253.23C94.9666 250.647 96.4829 248.541 98.3764 248.527C99.3232 248.527 100.177 249.039 100.804 249.886C101.793 251.216 101.879 253.024 101.146 254.511Z" fill="#5A915A"/>
<path d="M88.8018 263.426C83.9113 273.373 83.3845 277.791 83.3845 277.791C83.3845 277.791 76.3868 271.722 76.3156 258.68C76.2872 253.422 79.3767 249.146 83.2208 249.125C85.1428 249.11 86.8869 250.171 88.1611 251.885C90.1686 254.596 90.2967 260.402 88.8161 263.426H88.8018Z" fill="#297F58"/>
<path d="M86.0682 269.438C83.6621 274.333 83.3845 277.556 83.3845 277.556C83.3845 277.556 79.9461 274.575 79.9034 268.157C79.8892 265.574 81.4055 263.468 83.299 263.454C84.2458 263.454 85.1001 263.966 85.7265 264.813C86.716 266.144 86.8014 267.951 86.0682 269.438Z" fill="#5A915A"/>
<path d="M73.4395 278.901C68.549 288.848 68.0222 293.266 68.0222 293.266C68.0222 293.266 61.0245 287.197 60.9533 274.155C60.9248 268.897 64.0144 264.621 67.8585 264.6C69.7805 264.586 71.5246 265.646 72.7988 267.36C74.8063 270.071 74.9344 275.877 73.4538 278.901H73.4395Z" fill="#297F58"/>
<path d="M70.6991 284.913C68.293 289.809 68.0153 293.032 68.0153 293.032C68.0153 293.032 64.577 290.051 64.5343 283.633C64.52 281.05 66.0363 278.944 67.9299 278.93C68.8767 278.93 69.7309 279.442 70.3574 280.289C71.3469 281.619 71.4323 283.426 70.6991 284.913Z" fill="#5A915A"/>
<path d="M110.129 250.199L64.4131 295.899" stroke="#5A915A" stroke-width="2" stroke-miterlimit="10"/>
<path d="M106.385 253.942L105.936 249.829L103.11 257.215L106.385 253.942Z" fill="#5A915A"/>
<path d="M94.418 265.902L97.3295 262.992L101.779 263.291L94.418 265.902Z" fill="#5A915A"/>
<path d="M91.998 268.328L92.1404 263.625L87.5986 272.718L91.998 268.328Z" fill="#5A915A"/>
<path d="M80.9502 279.363L84.6092 275.706L89.3645 276.638L80.9502 279.363Z" fill="#5A915A"/>
<path d="M76.9633 283.348L76.9989 278.759L73.5535 286.756L76.9633 283.348Z" fill="#5A915A"/>
<path d="M65.908 294.398L71.7738 292.619L68.2643 292.042L65.908 294.398Z" fill="#5A915A"/>
<path d="M34.4998 293.863L-13.1741 257.826C-9.03099 262.379 -4.60316 272.369 -8.45438 277.456C-8.45438 277.456 -8.46149 277.47 -8.46861 277.477C-8.97404 278.146 -8.63946 279.121 -7.80657 279.256C-5.77063 279.584 -3.78451 280.388 -2.03331 281.718C0.465352 283.604 2.08842 286.215 2.77181 289.032C2.93554 289.715 3.65453 290.078 4.30233 289.808C8.45253 288.065 13.3929 288.506 17.237 291.416C18.9526 292.711 20.2411 294.347 21.1096 296.162C21.3303 296.624 21.8499 296.859 22.3482 296.738L34.4998 293.871V293.863Z" fill="#006941"/>
<path d="M34.4998 293.864L-13.1741 257.826C-7.6642 260.565 3.16334 262.109 7.00744 257.022C7.00744 257.022 7.01455 257.008 7.02167 257.001C7.5271 256.332 8.55931 256.389 8.91525 257.15C9.78373 259.014 11.1007 260.707 12.859 262.038C15.3577 263.923 18.3119 264.777 21.2092 264.663C21.9069 264.635 22.455 265.226 22.3696 265.923C21.8214 270.391 23.594 275.016 27.4452 277.926C29.1608 279.221 31.09 280.018 33.069 280.359C33.5744 280.445 33.9375 280.879 33.9588 281.391L34.507 293.857L34.4998 293.864Z" fill="#005935"/>
<path d="M-0.929932 275.123L8.75862 273.216" stroke="#005935" stroke-miterlimit="10"/>
<path d="M10.4246 283.703L20.1202 281.804" stroke="#005935" stroke-miterlimit="10"/>
<path d="M42.3662 302.288L-13.9355 322.352C-7.85618 321.392 2.93577 323.17 5.0785 329.175C5.0785 329.183 5.0785 329.19 5.08562 329.197C5.36324 329.986 6.36698 330.243 6.93648 329.624C8.32462 328.101 10.0901 326.884 12.1616 326.144C15.1087 325.091 18.184 325.17 20.9176 326.144C21.5796 326.379 22.2773 325.981 22.4054 325.291C23.2241 320.865 26.3065 316.98 30.8482 315.365C32.8699 314.646 34.9557 314.461 36.9418 314.732C37.4472 314.803 37.9313 314.497 38.1021 314.013L42.3662 302.288Z" fill="#006941"/>
<path d="M42.3662 302.288L-13.9355 322.352C-8.61788 319.25 -1.3924 311.053 -3.53513 305.048C-3.53513 305.048 -3.53513 305.034 -3.54225 305.027C-3.827 304.237 -3.20767 303.405 -2.3819 303.533C-0.345952 303.832 1.78966 303.661 3.86832 302.921C6.81546 301.868 9.15039 299.869 10.6453 297.385C11.0084 296.788 11.7985 296.653 12.3325 297.108C15.7637 300.018 20.6115 301.078 25.1532 299.456C27.1749 298.737 28.9048 297.556 30.2716 296.09C30.6204 295.72 31.1828 295.649 31.6241 295.913L42.352 302.295L42.3662 302.288Z" fill="#005935"/>
<path d="M31.8799 292.064L89.3135 308.635C83.8179 305.867 76.1012 298.126 77.8667 292C77.8667 291.992 77.8667 291.985 77.8667 291.978C78.1016 291.174 77.4324 290.384 76.6138 290.555C74.5992 290.982 72.4565 290.939 70.3351 290.328C67.331 289.459 64.8751 287.602 63.2306 285.219C62.832 284.643 62.0347 284.557 61.5293 285.048C58.2831 288.165 53.5136 289.516 48.8722 288.179C46.8078 287.581 45.0139 286.514 43.5545 285.134C43.1844 284.785 42.6149 284.749 42.1949 285.041L31.8799 292.071V292.064Z" fill="#006941"/>
<path d="M31.8799 292.064L89.3135 308.635C83.1843 308.044 72.5277 310.485 70.7551 316.611C70.7551 316.618 70.7551 316.625 70.7551 316.632C70.5273 317.436 69.5378 317.749 68.9327 317.166C67.452 315.736 65.6154 314.626 63.5011 314.014C60.4971 313.146 57.4289 313.409 54.7594 314.554C54.1116 314.832 53.3926 314.476 53.2289 313.793C52.1397 309.424 48.8295 305.739 44.1881 304.401C42.1237 303.804 40.0379 303.754 38.066 304.145C37.5677 304.245 37.0694 303.967 36.863 303.498L31.887 292.057L31.8799 292.064Z" fill="#005935"/>
<path d="M71.6799 296.873L63.3154 302.124" stroke="#005935" stroke-miterlimit="10"/>
<path d="M58.0054 292.924L49.6338 298.175" stroke="#005935" stroke-miterlimit="10"/>
<path d="M35.005 285.283C37.6745 287.296 38.2013 291.096 36.1796 293.764C34.1579 296.432 30.3636 296.958 27.6941 294.938C25.0246 292.924 24.4978 289.125 26.5195 286.457C28.5341 283.788 32.3355 283.262 35.005 285.283Z" fill="#FC5954"/>
<path d="M35.2615 289.331C33.2469 291.999 29.4455 292.526 26.776 290.505C26.2207 290.085 25.7651 289.587 25.395 289.039C25.0034 291.209 25.815 293.522 27.7014 294.938C30.3709 296.951 34.1652 296.425 36.1869 293.764C37.7815 291.651 37.7815 288.833 36.3862 286.755C36.2225 287.666 35.8523 288.548 35.2615 289.338V289.331Z" fill="#CD2846"/>
<path d="M28.9181 286.435C29.3168 286.734 29.1958 287.566 28.6547 288.285C28.1066 289.004 27.3449 289.345 26.9463 289.039C26.5476 288.74 26.6686 287.908 27.2096 287.189C27.7578 286.471 28.5195 286.129 28.9181 286.435Z" fill="#32285F"/>
<path d="M48.9012 289.046C49.4565 293.059 46.6589 296.759 42.6439 297.314C38.629 297.869 34.9272 295.073 34.372 291.06C33.8167 287.047 36.6144 283.347 40.6293 282.792C44.6443 282.237 48.346 285.034 48.9012 289.046Z" fill="#FC5954"/>
<path d="M45.648 292.732C41.6331 293.287 37.9313 290.491 37.3761 286.478C37.2622 285.646 37.2978 284.82 37.4544 284.038C35.2618 285.567 33.9805 288.235 34.372 291.06C34.9273 295.073 38.6361 297.869 42.6439 297.314C45.8189 296.873 48.2321 294.461 48.823 291.48C47.9046 292.12 46.8297 292.561 45.648 292.725V292.732Z" fill="#CD2846"/>
<path d="M42.7079 284.82C42.7933 285.418 41.9818 286.03 40.8997 286.179C39.8177 286.329 38.8709 285.966 38.7855 285.368C38.7 284.771 39.5116 284.159 40.5936 284.009C41.6757 283.86 42.6224 284.223 42.7079 284.82Z" fill="#32285F"/>
<path d="M38.6786 295.657C41.3481 297.67 41.8749 301.47 39.8532 304.138C37.8386 306.806 34.0372 307.332 31.3677 305.312C28.6982 303.298 28.1714 299.499 30.1931 296.831C32.2148 294.162 36.0091 293.636 38.6786 295.657Z" fill="#FC5954"/>
<path d="M38.9348 299.705C36.9202 302.373 33.1188 302.899 30.4493 300.879C29.8941 300.459 29.4385 299.961 29.0683 299.413C28.6768 301.583 29.4883 303.896 31.3748 305.312C34.0443 307.325 37.8385 306.799 39.8602 304.138C41.4548 302.024 41.4548 299.207 40.0596 297.122C39.8958 298.033 39.5257 298.915 38.9348 299.705Z" fill="#CD2846"/>
<path d="M32.5917 296.802C32.9904 297.101 32.8693 297.933 32.3283 298.652C31.7802 299.37 31.0185 299.712 30.6198 299.406C30.2212 299.107 30.3422 298.275 30.8832 297.556C31.4314 296.837 32.1931 296.496 32.5917 296.802Z" fill="#32285F"/>
</svg>