<svg xmlns:xlink="http://www.w3.org/1999/xlink" xmlns="http://www.w3.org/2000/svg" width="48" height="48" viewBox="0 0 48 48" fill="none">
<path d="M23.8799 4.41991L19.0599 15.6399H14.2399C13.4399 15.6399 12.6599 15.6999 11.8999 15.8599L13.8999 11.0599L13.9799 10.8799L14.0999 10.5599C14.1599 10.4199 14.1999 10.2999 14.2599 10.1999C16.5799 4.81991 19.1799 3.13991 23.8799 4.41991Z" fill="#FCD535"/>
<path d="M37.4602 16.18L37.4202 16.16C36.2202 15.82 35.0002 15.64 33.7602 15.64H21.2402L25.7402 5.18004L25.8002 5.04004C26.0802 5.14004 26.3802 5.28004 26.6802 5.38004L31.1002 7.24004C33.5602 8.26004 35.2802 9.32004 36.3402 10.6C36.5202 10.84 36.6802 11.06 36.8402 11.32C37.0202 11.6 37.1602 11.88 37.2402 12.18C37.3202 12.36 37.3802 12.52 37.4202 12.7C37.7202 13.72 37.7402 14.88 37.4602 16.18Z" fill="#FCD535"/>
<path d="M25.04 35.3199H25.54C26.14 35.3199 26.64 34.7799 26.64 34.1199C26.64 33.2799 26.4 33.1599 25.88 32.9599L25.04 32.6599V35.3199Z" fill="#292D32"/>
<path d="M36.58 19.0399C35.68 18.7799 34.74 18.6399 33.76 18.6399H14.24C12.88 18.6399 11.6 18.8999 10.4 19.4199C6.91998 20.9199 4.47998 24.3799 4.47998 28.3999V32.2999C4.47998 32.7799 4.51998 33.2399 4.57998 33.7199C5.01998 40.0799 8.41998 43.4799 14.78 43.8999C15.24 43.9599 15.7 43.9999 16.2 43.9999H31.8C39.2 43.9999 43.1 40.4799 43.48 33.4799C43.5 33.0999 43.52 32.6999 43.52 32.2999V28.3999C43.52 23.9799 40.58 20.2599 36.58 19.0399ZM26.56 30.9999C27.48 31.3199 28.72 31.9999 28.72 34.1199C28.72 35.9399 27.3 37.3999 25.54 37.3999H25.04V37.8399C25.04 38.4199 24.58 38.8799 24 38.8799C23.42 38.8799 22.96 38.4199 22.96 37.8399V37.3999H22.78C20.86 37.3999 19.28 35.7799 19.28 33.7799C19.28 33.1999 19.74 32.7399 20.32 32.7399C20.9 32.7399 21.36 33.1999 21.36 33.7799C21.36 34.6199 22 35.3199 22.78 35.3199H22.96V31.9399L21.44 31.3999C20.52 31.0799 19.28 30.3999 19.28 28.2799C19.28 26.4599 20.7 24.9999 22.46 24.9999H22.96V24.5599C22.96 23.9799 23.42 23.5199 24 23.5199C24.58 23.5199 25.04 23.9799 25.04 24.5599V24.9999H25.22C27.14 24.9999 28.72 26.6199 28.72 28.6199C28.72 29.1999 28.26 29.6599 27.68 29.6599C27.1 29.6599 26.64 29.1999 26.64 28.6199C26.64 27.7799 26 27.0799 25.22 27.0799H25.04V30.4599L26.56 30.9999Z" fill="#8C7BFE"/>
<path d="M21.3599 28.2801C21.3599 29.1201 21.5999 29.2401 22.1199 29.4401L22.9599 29.7401V27.0801H22.4599C21.8399 27.0801 21.3599 27.6201 21.3599 28.2801Z" fill="#292D32"/>
</svg>