<svg width="79" height="234" viewBox="0 0 79 234" fill="none" xmlns="http://www.w3.org/2000/svg">
<path d="M50.9642 222.257C66.3581 215.884 73.6683 198.245 67.2919 182.859C60.9155 167.473 43.2672 160.166 27.8732 166.54C12.4793 172.913 5.16908 190.552 11.5455 205.938C17.9219 221.324 35.5702 228.631 50.9642 222.257Z" fill="#FFDEC0"/>
<path d="M60.2612 172.617C54.8421 167.436 47.5082 164.246 39.4186 164.246C31.329 164.246 23.982 167.436 18.5759 172.617H60.2743H60.2612Z" fill="#006941"/>
<path d="M67.204 206.157C68.7412 202.55 69.5879 198.566 69.5879 194.4C69.5879 189.114 68.2201 184.14 65.8232 179.817H13.0001C10.6032 184.14 9.23535 189.114 9.23535 194.4C9.23535 198.566 10.0821 202.537 11.6193 206.157H67.204Z" fill="#FC5954"/>
<path d="M15.958 213.357C21.4943 220.18 29.9356 224.555 39.419 224.555C48.9025 224.555 57.3437 220.193 62.88 213.357H15.971H15.958Z" fill="#006941"/>
<path d="M45.1637 155.601H33.6611V164.845H45.1637V155.601Z" fill="#FFDEC0"/>
<path d="M39.5622 195.936C41.2097 195.936 42.5453 194.601 42.5453 192.955C42.5453 191.308 41.2097 189.973 39.5622 189.973C37.9147 189.973 36.5791 191.308 36.5791 192.955C36.5791 194.601 37.9147 195.936 39.5622 195.936Z" fill="#FFDEC0"/>
<path d="M26.8608 195.936C28.5083 195.936 29.8439 194.601 29.8439 192.955C29.8439 191.308 28.5083 189.973 26.8608 189.973C25.2133 189.973 23.8777 191.308 23.8777 192.955C23.8777 194.601 25.2133 195.936 26.8608 195.936Z" fill="#FFDEC0"/>
<path d="M17.1303 192.955C17.1303 194.595 15.8015 195.936 14.1471 195.936C12.4928 195.936 11.1641 194.608 11.1641 192.955C11.1641 191.301 12.4928 189.973 14.1471 189.973C15.8015 189.973 17.1303 191.301 17.1303 192.955Z" fill="#FFDEC0"/>
<path d="M52.2624 195.936C53.9099 195.936 55.2455 194.601 55.2455 192.955C55.2455 191.308 53.9099 189.973 52.2624 189.973C50.6149 189.973 49.2793 191.308 49.2793 192.955C49.2793 194.601 50.6149 195.936 52.2624 195.936Z" fill="#FFDEC0"/>
<path d="M64.9636 195.936C66.6112 195.936 67.9467 194.601 67.9467 192.955C67.9467 191.308 66.6112 189.973 64.9636 189.973C63.3161 189.973 61.9805 191.308 61.9805 192.955C61.9805 194.601 63.3161 195.936 64.9636 195.936Z" fill="#FFDEC0"/>
<g style="mix-blend-mode:overlay" opacity="0.31">
<path d="M54.6593 212.836C37.9982 212.836 24.4896 199.335 24.4896 182.682C24.4896 176.458 26.3785 170.691 29.596 165.886C17.7548 169.961 9.23535 181.185 9.23535 194.4C9.23535 211.053 22.744 224.554 39.4051 224.554C49.8525 224.554 59.0494 219.255 64.4684 211.196C61.3942 212.25 58.0853 212.836 54.6593 212.836Z" fill="black"/>
</g>
<path d="M39 162.357V1" stroke="#F0E1D3" stroke-width="2" stroke-miterlimit="10" stroke-linecap="round"/>
</svg>
