<svg xmlns:xlink="http://www.w3.org/1999/xlink" xmlns="http://www.w3.org/2000/svg" width="48" height="48" viewBox="0 0 48 48" fill="none">
<g clip-path="url(#clip0_20_1025)">
<path d="M48 20.6897C48 25.7174 43.9242 29.7931 38.8966 29.7931H9.10345C4.07575 29.7931 0 25.7174 0 20.6897C0 15.662 4.07575 11.5862 9.10345 11.5862C9.6195 11.5837 10.1347 11.628 10.6428 11.7186C11.8238 9.20889 14.3017 7.56336 17.0731 7.4483C18.7017 2.40933 23.7549 -0.695198 28.9859 0.129554C34.2169 0.954305 38.0698 5.46304 38.069 10.7586C38.0855 11.0481 38.0855 11.3382 38.069 11.6276C38.3503 11.6276 38.6483 11.5862 38.8966 11.5862C43.9242 11.5862 48 15.662 48 20.6897Z" fill="#CCD0DA"/>
<path d="M48 20.6897C48 25.7174 43.9243 29.7931 38.8966 29.7931H34.6676C34.6676 9.1614 17.0731 7.4483 17.0731 7.4483C18.7017 2.40933 23.755 -0.695198 28.9859 0.129554C34.2169 0.954305 38.0698 5.46304 38.069 10.7586C38.0855 11.0481 38.0855 11.3382 38.069 11.6276C38.3504 11.6276 38.6483 11.5862 38.8966 11.5862C43.9243 11.5862 48 15.662 48 20.6897Z" fill="#E8E9EC"/>
<path d="M32.9624 6.74473C32.7205 6.74475 32.4907 6.63892 32.3335 6.45508C31.0774 4.98657 29.2424 4.14013 27.31 4.13784C26.8529 4.13784 26.4824 3.76732 26.4824 3.31025C26.4824 2.85319 26.8529 2.48267 27.31 2.48267C29.7249 2.48285 32.0193 3.53784 33.5914 5.37094C33.7341 5.53775 33.8046 5.75441 33.7876 5.97325C33.7705 6.19208 33.6672 6.39518 33.5004 6.53784C33.3516 6.66903 33.1607 6.74245 32.9624 6.74473Z" fill="white"/>
<path d="M39.7241 32.2759C39.7248 39.3902 34.9486 45.6187 28.0777 47.4636C21.2068 49.3085 13.9531 46.3102 10.39 40.1525C6.82699 33.9947 7.84235 26.2118 12.8659 21.1742C17.8895 16.1366 25.6696 15.0996 31.8373 18.6456C36.7159 21.4504 39.7236 26.6485 39.7241 32.2759Z" fill="#FCD535"/>
<path d="M33.9314 26.4829C33.9309 32.0952 30.9391 37.2818 26.0811 40.0921C21.2231 42.9025 15.2355 42.9105 10.37 40.1132C6.83044 33.953 7.86137 26.1846 12.8852 21.1608C17.909 16.137 25.6774 15.1061 31.8376 18.6457C33.2126 21.0285 33.9348 23.7318 33.9314 26.4829Z" fill="#FCEE5C"/>
<path d="M26.3421 32.2759L31.7876 26.8221C32.35 26.1654 32.3121 25.1864 31.7008 24.5751C31.0894 23.9637 30.1105 23.9259 29.4538 24.4883L24 29.9338L18.5462 24.4883C17.8895 23.9259 16.9106 23.9637 16.2992 24.5751C15.6878 25.1864 15.65 26.1654 16.2124 26.8221L21.6579 32.2759L16.2124 37.7297C15.74 38.1342 15.5343 38.7693 15.6797 39.3739C15.8252 39.9786 16.2973 40.4507 16.9019 40.5961C17.5065 40.7415 18.1417 40.5358 18.5462 40.0634L24 34.6179L29.4538 40.0634C30.1105 40.6258 31.0894 40.588 31.7008 39.9767C32.3121 39.3653 32.35 38.3864 31.7876 37.7297L26.3421 32.2759Z" fill="white"/>
</g>
<defs>
<clipPath id="clip0_20_1025">
<rect width="48" height="48" fill="white"/>
</clipPath>
</defs>
</svg>