<svg xmlns:xlink="http://www.w3.org/1999/xlink" xmlns="http://www.w3.org/2000/svg" width="158" height="40" viewBox="0 0 158 40" fill="none">
<g clip-path="url(#clip0_402_3607)">
<path fill-rule="evenodd" clip-rule="evenodd" d="M150.688 32.7105C154.463 32.7105 157.524 29.65 157.524 25.8751H157.509V19.4797C157.519 19.3354 157.524 19.1887 157.524 19.0421H157.509V12.2067H154.092V19.3543C153.933 21.0951 152.472 22.4598 150.688 22.4598C148.801 22.4598 147.271 20.9295 147.271 19.0421V12.2067H143.853V19.0421C143.853 22.8169 146.913 25.8775 150.688 25.8775C151.928 25.8775 153.089 25.5487 154.092 24.9716V25.8775H154.106C154.106 27.7649 152.576 29.2952 150.688 29.2952C148.801 29.2952 147.271 27.7649 147.271 25.8775H143.853C143.853 29.65 146.913 32.7105 150.688 32.7105M125.057 12.2067C126.301 12.2067 127.469 12.5402 128.474 13.122V12.2067H131.892V25.8775H128.474V24.9622C127.469 25.544 126.303 25.8775 125.057 25.8775C121.282 25.8775 118.221 22.8169 118.221 19.0421C118.224 15.2673 121.282 12.2067 125.057 12.2067V12.2067ZM125.057 15.6244C126.944 15.6244 128.474 17.1547 128.474 19.0421C128.474 20.9295 126.944 22.4598 125.057 22.4598C123.169 22.4598 121.639 20.9295 121.639 19.0421C121.639 17.1547 123.169 15.6244 125.057 15.6244ZM98.297 12.2067C102.072 12.2067 105.132 15.2673 105.132 19.0421C105.132 22.8169 102.072 25.8775 98.297 25.8775C94.5222 25.8775 91.4617 22.8169 91.4617 19.0421C91.4617 15.2673 94.5222 12.2067 98.297 12.2067V12.2067ZM98.297 15.6244C100.184 15.6244 101.715 17.1547 101.715 19.0421C101.715 20.9295 100.184 22.4598 98.297 22.4598C96.4096 22.4598 94.8793 20.9295 94.8793 19.0421C94.8793 17.1523 96.4073 15.6244 98.297 15.6244ZM113.07 12.2067C115.005 12.2067 116.757 12.9707 118.025 14.2077L115.549 16.6249C114.915 16.0076 114.04 15.6244 113.072 15.6244C111.138 15.6244 109.57 17.1547 109.57 19.0421C109.57 20.9295 111.138 22.4598 113.072 22.4598C114.04 22.4598 114.915 22.0766 115.549 21.4593L118.025 23.8765C116.757 25.1135 115.005 25.8775 113.07 25.8775C109.201 25.8775 106.064 22.8169 106.064 19.0421C106.062 15.2673 109.201 12.2067 113.07 12.2067V12.2067ZM86.7242 5.37134H90.1419V25.8751H86.7242V5.37134V5.37134ZM85.0142 19.0397V25.8751H81.5965V19.0397C81.5965 17.1523 80.0662 15.622 78.1788 15.622C76.2914 15.622 74.7611 17.1523 74.7611 19.0397V25.8751H71.3434V12.2044H74.7611V13.1197C75.7663 12.5378 76.9347 12.2044 78.1788 12.2044C81.9536 12.2067 85.0142 15.2673 85.0142 19.0397V19.0397ZM66.218 12.2067H69.6357V25.8751H66.218V12.2067V12.2067ZM67.9281 7.079C68.8718 7.079 69.6381 7.84296 69.6381 8.78666C69.6381 9.73037 68.8718 10.4943 67.9281 10.4943C66.9844 10.4943 66.2204 9.73037 66.2204 8.78666C66.218 7.84532 66.9844 7.079 67.9281 7.079ZM133.6 5.37134H137.017V25.8751H133.6V5.37134V5.37134ZM58.0392 12.2067C61.8141 12.2067 64.8746 15.2673 64.8746 19.0421C64.8746 22.8169 61.8141 25.8775 58.0392 25.8775C54.2644 25.8775 51.2039 22.8169 51.2039 19.0421C51.2039 15.2673 54.2644 12.2067 58.0392 12.2067V12.2067ZM58.0392 15.6244C59.9266 15.6244 61.4569 17.1547 61.4569 19.0421C61.4569 20.9295 59.9266 22.4598 58.0392 22.4598C56.1518 22.4598 54.6215 20.9295 54.6215 19.0421C54.6215 17.1523 56.1518 15.6244 58.0392 15.6244ZM45.92 12.2067C47.85 12.2067 49.5979 12.9707 50.8633 14.2029L48.3916 16.6131C47.7601 15.9957 46.885 15.615 45.92 15.615C43.99 15.615 42.4243 17.1405 42.4243 19.0232C42.4243 20.9059 43.9877 22.4314 45.92 22.4314C46.885 22.4314 47.7578 22.0506 48.3916 21.4333L50.8633 23.8434C49.5979 25.0781 47.85 25.8396 45.92 25.8396C42.06 25.8396 38.9309 22.7862 38.9309 19.0208C38.9309 15.2554 42.06 12.2067 45.92 12.2067V12.2067ZM138.727 5.37134H142.145V25.8751H138.727V5.37134Z" fill="black"/>
<path fill-rule="evenodd" clip-rule="evenodd" d="M18.044 8.40822C23.2663 8.40822 27.5 12.6419 27.5 17.8642C27.5 23.0866 23.2663 27.3202 18.044 27.3202C12.8216 27.3202 8.58797 23.0866 8.58797 17.8642C8.5856 12.6419 12.8193 8.40822 18.044 8.40822M28.9522 17.4314H28.9569C28.9475 17.202 28.9333 16.9749 28.9096 16.7479V16.7337L28.9049 16.7195C28.3609 11.1684 23.7039 6.82828 18.0416 6.82828C12.3794 6.82828 7.72704 11.1613 7.17832 16.71V16.7242L7.17359 16.7384V16.7526C7.14757 16.9773 7.13338 17.202 7.12392 17.429H7.12865C7.12392 17.5544 7.12155 17.6821 7.12155 17.8098V17.9683H7.11682C7.11919 18.2639 7.13338 18.5549 7.15939 18.8434H7.16886C7.18541 19.0208 7.2067 19.2006 7.23272 19.3779H7.22089C7.26346 19.6831 7.31786 19.9787 7.38409 20.272L7.39828 20.2673C7.43849 20.4446 7.48342 20.6173 7.53073 20.7923L7.51654 20.7971C7.59459 21.0809 7.68683 21.3623 7.78853 21.6367L7.80509 21.6296C7.86658 21.7975 7.93517 21.9655 8.00613 22.131L7.98957 22.1381C8.1102 22.4196 8.24028 22.6939 8.38219 22.9636L8.39639 22.9541C8.48153 23.1126 8.56904 23.271 8.66129 23.4248L8.6471 23.4342C8.79847 23.6897 8.9593 23.938 9.12959 24.1769L9.14142 24.1674C9.24549 24.3141 9.35429 24.4584 9.46545 24.6003L9.45362 24.6097C9.64284 24.851 9.84151 25.0828 10.0497 25.3051L10.0591 25.2956C10.1821 25.4281 10.3075 25.5582 10.4375 25.6835L10.4281 25.693C10.6409 25.9011 10.8633 26.0998 11.0927 26.289L11.0974 26.2819C11.2346 26.3954 11.3765 26.509 11.5208 26.6154L11.5161 26.6225C11.762 26.807 12.0175 26.9797 12.2777 27.1428V27.1381C12.4314 27.2327 12.5875 27.325 12.7436 27.4125V27.4172C13.0014 27.5615 13.2687 27.6963 13.5407 27.8193C13.7039 27.8902 13.8718 27.9612 14.0397 28.0274C14.1958 28.0889 14.3543 28.1457 14.5128 28.2024L14.5269 28.2072L14.5411 28.2119L14.5553 28.2166L14.5695 28.2214L14.5837 28.2261L14.5979 28.2308L14.7209 28.271L14.7351 28.2758L14.7493 28.2805L14.7635 28.2852L14.8321 28.3065L14.8462 28.3112L14.8604 28.316L14.8746 28.3207L14.8888 28.3254L14.903 28.3302L14.9172 28.3349C15.9082 28.6329 16.9584 28.7937 18.0463 28.7937C19.1343 28.7937 20.1845 28.6329 21.1755 28.3349L21.1897 28.3302L21.2039 28.3254L21.2181 28.3207L21.3529 28.2805L21.3671 28.2758L21.3812 28.271L21.3954 28.2663L21.4617 28.245L21.4759 28.2403L21.49 28.2356L21.5042 28.2308L21.5184 28.2261L21.5326 28.2214L21.5823 28.2048L21.5965 28.2001C21.7431 28.1504 21.8874 28.0984 22.0293 28.0416C22.1972 27.9754 22.3628 27.9068 22.5284 27.8311C22.8098 27.7058 23.0865 27.5686 23.3538 27.4196V27.4148C23.5075 27.3273 23.6637 27.2351 23.815 27.1405V27.1452C24.0705 26.9867 24.3164 26.8188 24.5553 26.6438L24.5506 26.6367C24.6949 26.5279 24.8368 26.4167 24.9763 26.3032L24.9834 26.3103C25.2199 26.1164 25.4494 25.9106 25.6693 25.6977L25.6599 25.6883C25.79 25.5629 25.9153 25.4328 26.0383 25.3004L26.0478 25.3098C26.2488 25.0922 26.4427 24.8675 26.6272 24.6358L26.6154 24.6263C26.7266 24.4844 26.8354 24.3425 26.9394 24.1958L26.9513 24.2053C27.1286 23.9569 27.2966 23.7015 27.4527 23.4366L27.4385 23.4271C27.5307 23.2734 27.6182 23.1149 27.701 22.9565L27.7152 22.9659C27.8524 22.7058 27.9801 22.4385 28.096 22.1665L28.0795 22.1594C28.1504 21.9938 28.219 21.8259 28.2805 21.658L28.297 21.6651C28.4035 21.3813 28.4957 21.0927 28.5785 20.7994L28.5643 20.7947C28.614 20.622 28.6566 20.447 28.6968 20.2696L28.711 20.2744C28.7748 19.9905 28.8268 19.702 28.8694 19.4087H28.8576C28.8836 19.2289 28.9049 19.0516 28.9215 18.8718H28.9309C28.9593 18.5761 28.9735 18.2734 28.9759 17.9707H28.9688V17.8122C28.9569 17.6845 28.9546 17.5591 28.9498 17.4314H28.9522Z" fill="#FBBB20"/>
<path fill-rule="evenodd" clip-rule="evenodd" d="M0 17.3155C0.0141911 16.6958 0.0591296 16.0833 0.134816 15.4801L1.20388 15.622C1.13529 16.1779 1.09035 16.7431 1.07852 17.3155H0V17.3155Z" fill="black"/>
<path fill-rule="evenodd" clip-rule="evenodd" d="M11.14 29.0634L11.632 28.2119C11.3103 28.0132 10.9981 27.8027 10.6978 27.5757L10.0994 28.3538C10.4329 28.6069 10.7805 28.8434 11.14 29.0634" fill="black"/>
<path fill-rule="evenodd" clip-rule="evenodd" d="M12.6726 29.8699L13.0487 28.9617C12.7128 28.8127 12.3865 28.6471 12.0672 28.4697L11.5752 29.3212C11.9323 29.5199 12.2989 29.7044 12.6726 29.8699" fill="black"/>
<path fill-rule="evenodd" clip-rule="evenodd" d="M14.333 30.4778L14.5884 29.5293C14.2242 29.4229 13.8671 29.2999 13.5194 29.1604L13.1433 30.0662C13.5312 30.2223 13.9286 30.3595 14.333 30.4778" fill="black"/>
<path fill-rule="evenodd" clip-rule="evenodd" d="M16.0265 30.8515L16.1565 29.8794C15.7923 29.8226 15.4328 29.7493 15.078 29.6618L14.825 30.6102C15.2176 30.7095 15.6197 30.79 16.0265 30.8515Z" fill="black"/>
<path fill-rule="evenodd" clip-rule="evenodd" d="M17.7649 31.4144L17.7743 30.272C17.3935 30.2625 17.0175 30.2341 16.6461 30.1845L16.5066 31.3174C16.9205 31.3742 17.3415 31.4049 17.7649 31.4144" fill="black"/>
<path fill-rule="evenodd" clip-rule="evenodd" d="M19.5104 30.6575L19.3827 29.6831C19.0208 29.7233 18.6542 29.7469 18.2852 29.754V30.7356C18.6968 30.7285 19.1059 30.7001 19.5104 30.6575" fill="black"/>
<path fill-rule="evenodd" clip-rule="evenodd" d="M21.2653 30.6102L21.0099 29.6618C20.6457 29.7517 20.2767 29.8273 19.9006 29.8841L20.0284 30.8586C20.447 30.7947 20.8585 30.7119 21.2653 30.6102" fill="black"/>
<path fill-rule="evenodd" clip-rule="evenodd" d="M22.9163 30.0804L22.5426 29.1722C22.202 29.307 21.8567 29.4253 21.5019 29.5293L21.7573 30.4778C22.15 30.3619 22.5355 30.2294 22.9163 30.0804Z" fill="black"/>
<path fill-rule="evenodd" clip-rule="evenodd" d="M24.5104 29.3212L24.0185 28.4697C23.6897 28.6542 23.3538 28.8221 23.0062 28.9759L23.3799 29.8841C23.7701 29.7138 24.1462 29.5246 24.5104 29.3212" fill="black"/>
<path fill-rule="evenodd" clip-rule="evenodd" d="M25.9626 28.3775L25.3666 27.597C25.0733 27.8146 24.7706 28.0204 24.4584 28.2119L24.9503 29.0634C25.298 28.8505 25.6362 28.6211 25.9626 28.3775" fill="black"/>
<path fill-rule="evenodd" clip-rule="evenodd" d="M27.3037 27.2304L26.6083 26.535C26.3387 26.7975 26.0596 27.0482 25.7663 27.2848L26.3623 28.0653C26.6887 27.8004 27.0033 27.5213 27.3037 27.2304Z" fill="black"/>
<path fill-rule="evenodd" clip-rule="evenodd" d="M28.4579 25.9437L27.6797 25.3453C27.455 25.6315 27.2162 25.9082 26.9655 26.1731L27.6608 26.8685C27.9399 26.5705 28.2048 26.263 28.4579 25.9437Z" fill="black"/>
<path fill-rule="evenodd" clip-rule="evenodd" d="M12.1215 31.1992L12.4811 30.3382C12.0861 30.1632 11.7005 29.9693 11.3268 29.7588L10.8609 30.5677C11.2677 30.7971 11.6887 31.0076 12.1215 31.1992Z" fill="black"/>
<path fill-rule="evenodd" clip-rule="evenodd" d="M13.9617 31.8685L14.203 30.9674C13.7749 30.8444 13.3562 30.6977 12.947 30.5345L12.5899 31.3955C13.0369 31.5752 13.4934 31.7337 13.9617 31.8685" fill="black"/>
<path fill-rule="evenodd" clip-rule="evenodd" d="M15.8373 32.2777L15.9603 31.3529C15.5298 31.2867 15.1088 31.2015 14.6925 31.0974L14.4513 31.9986C14.9054 32.1145 15.3666 32.2091 15.8373 32.2777Z" fill="black"/>
<path fill-rule="evenodd" clip-rule="evenodd" d="M17.7507 33.0889L17.7602 32.0033C17.3132 31.9939 16.8709 31.9607 16.4357 31.9016L16.3032 32.9778C16.7786 33.044 17.2611 33.0795 17.7507 33.0889" fill="black"/>
<path fill-rule="evenodd" clip-rule="evenodd" d="M19.6807 31.8448L19.5601 30.92C19.1343 30.9673 18.7039 30.9957 18.2687 31.0028V31.9347C18.7464 31.9276 19.2171 31.8969 19.6807 31.8448Z" fill="black"/>
<path fill-rule="evenodd" clip-rule="evenodd" d="M21.6367 32.001L21.3954 31.0998C20.9697 31.2063 20.5345 31.2938 20.0922 31.36L20.2128 32.2848C20.6953 32.2115 21.1707 32.1169 21.6367 32.001Z" fill="black"/>
<path fill-rule="evenodd" clip-rule="evenodd" d="M23.465 31.4097L23.1102 30.5464C22.7105 30.7048 22.3037 30.8444 21.8874 30.965L22.1286 31.8661C22.5828 31.736 23.0274 31.5823 23.465 31.4097Z" fill="black"/>
<path fill-rule="evenodd" clip-rule="evenodd" d="M25.2318 30.5676L24.7659 29.7611C24.3803 29.9763 23.9854 30.175 23.5786 30.3548L23.9357 31.2181C24.378 31.0194 24.8108 30.8042 25.2318 30.5676" fill="black"/>
<path fill-rule="evenodd" clip-rule="evenodd" d="M26.8378 29.5199L26.2725 28.7796C25.9295 29.0374 25.5724 29.2786 25.2034 29.5033L25.6694 30.3122C26.0715 30.0662 26.4617 29.8013 26.8378 29.5199Z" fill="black"/>
<path fill-rule="evenodd" clip-rule="evenodd" d="M28.3207 28.2474L27.6608 27.5875C27.3463 27.8974 27.0151 28.1906 26.6722 28.4674L27.2398 29.2077C27.6159 28.9049 27.9754 28.5833 28.3207 28.2474" fill="black"/>
<path fill-rule="evenodd" clip-rule="evenodd" d="M29.5979 26.8188L28.8599 26.2512C28.595 26.5894 28.3136 26.9134 28.0179 27.2256L28.6778 27.8855C28.9995 27.5449 29.307 27.1902 29.5979 26.8188Z" fill="black"/>
<path fill-rule="evenodd" clip-rule="evenodd" d="M30.6977 25.2081L29.8888 24.7422C29.6641 25.123 29.4229 25.492 29.1627 25.8467L29.903 26.4144C30.1868 26.0288 30.4517 25.6244 30.6977 25.2081" fill="black"/>
<path fill-rule="evenodd" clip-rule="evenodd" d="M11.5445 32.5875L11.9276 31.6651C11.4759 31.4664 11.0336 31.2441 10.6055 31.0028L10.1064 31.8661C10.57 32.131 11.0502 32.3723 11.5445 32.5875Z" fill="black"/>
<path fill-rule="evenodd" clip-rule="evenodd" d="M13.5714 33.3207L13.8292 32.3581C13.3396 32.2162 12.8618 32.053 12.3935 31.8638L12.0104 32.7862C12.5189 32.9896 13.0392 33.167 13.5714 33.3207" fill="black"/>
<path fill-rule="evenodd" clip-rule="evenodd" d="M15.6386 33.7701L15.7711 32.7815C15.2791 32.7081 14.7966 32.6112 14.3212 32.4905L14.0634 33.4532C14.579 33.5833 15.1041 33.6897 15.6386 33.7701Z" fill="black"/>
<path fill-rule="evenodd" clip-rule="evenodd" d="M17.7365 34.8392L17.746 33.6778C17.2351 33.6684 16.7289 33.6282 16.2322 33.562L16.0903 34.7114C16.632 34.7871 17.1807 34.8297 17.7365 34.8392Z" fill="black"/>
<path fill-rule="evenodd" clip-rule="evenodd" d="M19.8486 33.1812L19.7186 32.1925C19.2337 32.2469 18.7394 32.28 18.2427 32.2871V33.2852C18.7843 33.2782 19.3212 33.2427 19.8486 33.1812" fill="black"/>
<path fill-rule="evenodd" clip-rule="evenodd" d="M22.027 33.4532L21.7692 32.4905C21.282 32.6135 20.7853 32.7129 20.2791 32.7862L20.4092 33.7748C20.9556 33.6944 21.4972 33.588 22.027 33.4532Z" fill="black"/>
<path fill-rule="evenodd" clip-rule="evenodd" d="M24.0374 32.8004L23.6566 31.878C23.2001 32.0601 22.7342 32.2185 22.2564 32.3557L22.5142 33.3207C23.0346 33.1717 23.5431 32.9991 24.0374 32.8004" fill="black"/>
<path fill-rule="evenodd" clip-rule="evenodd" d="M25.9839 31.8685L25.4849 31.0052C25.0449 31.2535 24.5908 31.4782 24.1273 31.6816L24.5081 32.6041C25.0118 32.3841 25.5062 32.1381 25.9839 31.8685Z" fill="black"/>
<path fill-rule="evenodd" clip-rule="evenodd" d="M29.3827 29.3094L28.6779 28.6046C28.3184 28.957 27.9399 29.2928 27.5473 29.6098L28.1528 30.4021C28.5809 30.0591 28.9924 29.6949 29.3827 29.3094" fill="black"/>
<path fill-rule="evenodd" clip-rule="evenodd" d="M30.79 27.7365L30 27.1287C29.6973 27.5166 29.3756 27.8879 29.035 28.2427L29.7399 28.9475C30.1088 28.562 30.4589 28.1575 30.79 27.7365Z" fill="black"/>
<path fill-rule="evenodd" clip-rule="evenodd" d="M31.9986 25.9603L31.1353 25.4612C30.8799 25.8964 30.6008 26.3174 30.3051 26.7242L31.0951 27.3321C31.4191 26.8921 31.7219 26.4357 31.9986 25.9603Z" fill="black"/>
<path fill-rule="evenodd" clip-rule="evenodd" d="M15.4305 35.343C14.8274 35.2531 14.2337 35.1348 13.6519 34.9882L13.9309 33.9451C14.4678 34.0823 15.0166 34.1911 15.5724 34.2739L15.4305 35.343V35.343Z" fill="black"/>
<path fill-rule="evenodd" clip-rule="evenodd" d="M17.72 36.684C17.0932 36.6745 16.4735 36.6249 15.8657 36.5421L16.0194 35.298C16.5823 35.3761 17.1523 35.4186 17.7318 35.4305L17.72 36.684V36.684Z" fill="black"/>
<path fill-rule="evenodd" clip-rule="evenodd" d="M20.045 34.6074C19.4489 34.676 18.8458 34.7162 18.2356 34.7233V33.6447C18.8009 33.6353 19.3567 33.5998 19.9078 33.5359L20.045 34.6074V34.6074Z" fill="black"/>
<path fill-rule="evenodd" clip-rule="evenodd" d="M22.4361 34.9858C21.8401 35.1372 21.2299 35.2578 20.6126 35.3477L20.473 34.2786C21.0454 34.1958 21.6059 34.0823 22.157 33.9427L22.4361 34.9858V34.9858Z" fill="black"/>
<path fill-rule="evenodd" clip-rule="evenodd" d="M24.6428 34.2668C24.0847 34.4915 23.5123 34.6878 22.9281 34.8533L22.649 33.8103C23.1882 33.6566 23.718 33.4744 24.2337 33.2687L24.6428 34.2668Z" fill="black"/>
<path fill-rule="evenodd" clip-rule="evenodd" d="M26.7763 33.2427C26.2394 33.5478 25.6836 33.8245 25.1112 34.0705L24.6996 33.0747C25.2271 32.8453 25.738 32.5899 26.237 32.3084L26.7763 33.2427V33.2427Z" fill="black"/>
<path fill-rule="evenodd" clip-rule="evenodd" d="M28.7157 31.9749C28.2332 32.3368 27.7318 32.675 27.2138 32.9872L26.6746 32.053C27.1523 31.7644 27.6135 31.4522 28.0582 31.1164L28.7157 31.9749Z" fill="black"/>
<path fill-rule="evenodd" clip-rule="evenodd" d="M32.0482 28.7039C31.6769 29.1793 31.2819 29.6358 30.8633 30.0686L30.1017 29.307C30.4872 28.9049 30.8514 28.4839 31.1944 28.0464L32.0482 28.7039V28.7039Z" fill="black"/>
<path fill-rule="evenodd" clip-rule="evenodd" d="M33.3727 26.755C33.0582 27.2895 32.7176 27.8051 32.351 28.3018L31.4971 27.6443C31.8354 27.1854 32.1499 26.7077 32.4385 26.2157L33.3727 26.755V26.755Z" fill="black"/>
<path fill-rule="evenodd" clip-rule="evenodd" d="M34.4134 24.6925C34.1769 25.2484 33.9144 25.79 33.6258 26.315L32.6916 25.7758C32.9565 25.2909 33.2001 24.7919 33.4177 24.2786L34.4134 24.6925Z" fill="black"/>
<path fill-rule="evenodd" clip-rule="evenodd" d="M35.0024 27.7152C34.6405 28.3302 34.2479 28.9238 33.8269 29.4962L32.843 28.7394C33.2308 28.2119 33.5927 27.6632 33.9262 27.0956L35.0024 27.7152V27.7152Z" fill="black"/>
<path fill-rule="evenodd" clip-rule="evenodd" d="M8.8103 8.02506L9.50567 8.72043C9.77057 8.46972 10.0473 8.23084 10.3358 8.00378L9.73982 7.22327C9.41579 7.47634 9.10595 7.74361 8.8103 8.02506" fill="black"/>
<path fill-rule="evenodd" clip-rule="evenodd" d="M7.5899 9.23842L8.36805 9.83681C8.59274 9.56245 8.83163 9.29518 9.07997 9.0421L8.38461 8.34674C8.10788 8.63293 7.84298 8.93094 7.5899 9.23842" fill="black"/>
<path fill-rule="evenodd" clip-rule="evenodd" d="M6.43805 10.5818L7.28952 11.0738C7.48346 10.7616 7.6916 10.4565 7.91156 10.1656L7.13341 9.56717C6.88743 9.89356 6.65565 10.2318 6.43805 10.5818" fill="black"/>
<path fill-rule="evenodd" clip-rule="evenodd" d="M5.97443 12.3203L6.88266 12.6963C7.03166 12.3699 7.1925 12.0506 7.36988 11.7408L6.51842 11.2512C6.32211 11.5965 6.13999 11.9537 5.97443 12.3203" fill="black"/>
<path fill-rule="evenodd" clip-rule="evenodd" d="M5.36426 13.9522L6.3127 14.2077C6.4215 13.8529 6.54448 13.5052 6.68167 13.1646L5.7758 12.7885C5.6197 13.167 5.48252 13.5549 5.36426 13.9522" fill="black"/>
<path fill-rule="evenodd" clip-rule="evenodd" d="M4.9787 15.6197L5.95315 15.7497C6.01228 15.3926 6.08797 15.0426 6.17548 14.6949L5.22704 14.4418C5.12771 14.8273 5.04492 15.2199 4.9787 15.6197Z" fill="black"/>
<path fill-rule="evenodd" clip-rule="evenodd" d="M4.86989 19.0728L5.84435 18.9451C5.81123 18.588 5.79231 18.2285 5.78758 17.8642H4.80603C4.80603 18.2734 4.82968 18.6755 4.86989 19.0728Z" fill="black"/>
<path fill-rule="evenodd" clip-rule="evenodd" d="M5.15607 20.8018L6.10451 20.5464C6.02173 20.1869 5.95314 19.8202 5.90347 19.4489L4.92902 19.5766C4.98578 19.9929 5.06147 20.4021 5.15607 20.8018" fill="black"/>
<path fill-rule="evenodd" clip-rule="evenodd" d="M5.6575 22.4503L6.56573 22.0766C6.43801 21.7384 6.32684 21.3931 6.22987 21.0431L5.28143 21.2961C5.39023 21.6888 5.51559 22.0719 5.6575 22.4503" fill="black"/>
<path fill-rule="evenodd" clip-rule="evenodd" d="M6.38837 24.0492L7.23983 23.5573C7.06245 23.2285 6.90161 22.8903 6.75497 22.545L5.84674 22.9187C6.00994 23.3065 6.18969 23.6826 6.38837 24.0492Z" fill="black"/>
<path fill-rule="evenodd" clip-rule="evenodd" d="M7.30608 25.5109L8.08659 24.9149C7.87373 24.6192 7.67505 24.3141 7.49057 24.0019L6.6391 24.4938C6.84487 24.8415 7.0672 25.1821 7.30608 25.5109" fill="black"/>
<path fill-rule="evenodd" clip-rule="evenodd" d="M8.4295 26.8661L9.12486 26.1708C8.86706 25.8988 8.62344 25.6126 8.39166 25.3169L7.61115 25.913C7.86895 26.2464 8.14331 26.5634 8.4295 26.8661Z" fill="black"/>
<path fill-rule="evenodd" clip-rule="evenodd" d="M9.6996 28.044L10.298 27.2658C10.0142 27.0341 9.74217 26.7904 9.482 26.535L8.789 27.228C9.07755 27.5142 9.38266 27.7862 9.6996 28.044Z" fill="black"/>
<path fill-rule="evenodd" clip-rule="evenodd" d="M9.40161 5.90113L9.96926 6.64143C10.3075 6.39545 10.6575 6.16367 11.0194 5.9508L10.5535 5.14191C10.1561 5.37843 9.77295 5.6315 9.40161 5.90113" fill="black"/>
<path fill-rule="evenodd" clip-rule="evenodd" d="M7.54022 6.73604L8.20011 7.39592C8.51231 7.10027 8.83871 6.81645 9.1793 6.55155L8.61165 5.81125C8.24032 6.10217 7.88081 6.40964 7.54022 6.73604" fill="black"/>
<path fill-rule="evenodd" clip-rule="evenodd" d="M6.36945 8.28288L7.10975 8.85289C7.37465 8.5265 7.65611 8.21193 7.94939 7.91391L7.2895 7.25403C6.96784 7.58042 6.66036 7.92574 6.36945 8.28288" fill="black"/>
<path fill-rule="evenodd" clip-rule="evenodd" d="M4.89117 9.69489L5.70007 10.1608C5.92713 9.79186 6.1731 9.43236 6.43327 9.0894L5.69534 8.52176C5.40678 8.89782 5.13952 9.29044 4.89117 9.69489" fill="black"/>
<path fill-rule="evenodd" clip-rule="evenodd" d="M4.6452 11.7668L5.50613 12.1239C5.68115 11.7384 5.87037 11.3624 6.0785 10.9958L5.26961 10.5298C5.04492 10.9319 4.83442 11.3434 4.6452 11.7668Z" fill="black"/>
<path fill-rule="evenodd" clip-rule="evenodd" d="M3.97351 13.5785L4.87465 13.8198C5 13.4011 5.14428 12.992 5.30748 12.5923L4.44655 12.2351C4.26679 12.6727 4.10833 13.1197 3.97351 13.5785" fill="black"/>
<path fill-rule="evenodd" clip-rule="evenodd" d="M3.55249 15.4305L4.47728 15.5535C4.54587 15.1325 4.63338 14.7186 4.73745 14.3117L3.83631 14.0705C3.72042 14.5152 3.62581 14.9693 3.55249 15.4305" fill="black"/>
<path fill-rule="evenodd" clip-rule="evenodd" d="M3.37274 17.3581H4.30699C4.31882 16.9182 4.35193 16.483 4.40633 16.0525L3.48154 15.9295C3.42241 16.4002 3.38457 16.8779 3.37274 17.3581" fill="black"/>
<path fill-rule="evenodd" clip-rule="evenodd" d="M3.44136 19.2597L4.36615 19.1391C4.32358 18.7204 4.30229 18.2947 4.29992 17.8666H3.36804C3.37041 18.3349 3.39406 18.8009 3.44136 19.2597Z" fill="black"/>
<path fill-rule="evenodd" clip-rule="evenodd" d="M3.76534 21.1755L4.66648 20.9342C4.56714 20.5109 4.48672 20.0804 4.42759 19.6429L3.50281 19.7635C3.56667 20.2412 3.65418 20.7119 3.76534 21.1755" fill="black"/>
<path fill-rule="evenodd" clip-rule="evenodd" d="M4.32594 22.9991L5.18923 22.6419C5.03786 22.2446 4.90541 21.8401 4.79188 21.4262L3.89075 21.6675C4.0161 22.1216 4.16038 22.5639 4.32594 22.9991" fill="black"/>
<path fill-rule="evenodd" clip-rule="evenodd" d="M5.14191 24.7682L5.9508 24.3023C5.74267 23.9168 5.55109 23.5194 5.37843 23.115L4.51514 23.4697C4.70435 23.9144 4.91249 24.3472 5.14191 24.7682" fill="black"/>
<path fill-rule="evenodd" clip-rule="evenodd" d="M6.16129 26.386L6.9016 25.8184C6.65089 25.473 6.41673 25.1135 6.19677 24.7446L5.38788 25.2105C5.63149 25.615 5.88693 26.0076 6.16129 26.386" fill="black"/>
<path fill-rule="evenodd" clip-rule="evenodd" d="M7.41246 27.8855L8.07235 27.2256C7.7696 26.9063 7.48105 26.5728 7.20905 26.2252L6.46875 26.7928C6.7644 27.1712 7.07897 27.5355 7.41246 27.8855" fill="black"/>
<path fill-rule="evenodd" clip-rule="evenodd" d="M8.82216 29.184L9.39217 28.4437C9.05868 28.1741 8.73701 27.8879 8.42954 27.5851L7.76965 28.245C8.10551 28.5762 8.45556 28.8884 8.82216 29.184" fill="black"/>
<path fill-rule="evenodd" clip-rule="evenodd" d="M8.48865 4.70672L9.09413 5.49906C9.48203 5.21524 9.88411 4.95034 10.298 4.70436L9.79896 3.84106C9.34721 4.10833 8.90965 4.39688 8.48865 4.70672" fill="black"/>
<path fill-rule="evenodd" clip-rule="evenodd" d="M4.9054 7.16176L5.69537 7.76962C6.00048 7.39355 6.32214 7.03404 6.658 6.69109L5.95317 5.98627C5.58657 6.35997 5.23416 6.75259 4.9054 7.16176Z" fill="black"/>
<path fill-rule="evenodd" clip-rule="evenodd" d="M3.11261 8.61399L3.97827 9.11305C4.23844 8.68968 4.51753 8.27814 4.81791 7.88315L4.02794 7.2753C3.69918 7.70576 3.39407 8.15042 3.11261 8.61399Z" fill="black"/>
<path fill-rule="evenodd" clip-rule="evenodd" d="M3.25684 11.1897L4.17926 11.5729C4.37793 11.1306 4.59553 10.6977 4.83441 10.2767L3.97112 9.77768C3.70859 10.2365 3.47207 10.7072 3.25684 11.1897Z" fill="black"/>
<path fill-rule="evenodd" clip-rule="evenodd" d="M2.5213 13.1906L3.48393 13.4484C3.62584 12.9683 3.79141 12.5 3.97825 12.0411L3.05583 11.658C2.85243 12.1547 2.67504 12.6679 2.5213 13.1906" fill="black"/>
<path fill-rule="evenodd" clip-rule="evenodd" d="M2.06006 15.2318L3.04871 15.3642C3.12676 14.8818 3.22609 14.4063 3.34672 13.938L2.38409 13.6802C2.25164 14.1864 2.14284 14.7044 2.06006 15.2318Z" fill="black"/>
<path fill-rule="evenodd" clip-rule="evenodd" d="M1.71478 17.3581H2.71289C2.72708 16.8543 2.76256 16.3552 2.82642 15.8633L1.83777 15.7308C1.76918 16.2677 1.72897 16.8094 1.71478 17.3581" fill="black"/>
<path fill-rule="evenodd" clip-rule="evenodd" d="M1.95128 19.4536L2.93993 19.3235C2.89026 18.8434 2.86424 18.3562 2.86188 17.8642H1.86377C1.86613 18.4011 1.89688 18.9309 1.95128 19.4536Z" fill="black"/>
<path fill-rule="evenodd" clip-rule="evenodd" d="M2.31313 21.5634L3.27813 21.3056C3.16224 20.8231 3.06999 20.3288 3.0014 19.8297L2.01276 19.9598C2.08371 20.5014 2.18541 21.0383 2.31313 21.5634Z" fill="black"/>
<path fill-rule="evenodd" clip-rule="evenodd" d="M2.93755 23.5738L3.85997 23.193C3.68494 22.7389 3.53357 22.2729 3.40349 21.7999L2.44086 22.0577C2.5804 22.5733 2.74597 23.0795 2.93755 23.5738Z" fill="black"/>
<path fill-rule="evenodd" clip-rule="evenodd" d="M3.83868 25.5204L4.70197 25.0213C4.46308 24.5814 4.24312 24.1273 4.04681 23.6613L3.12439 24.0421C3.33962 24.5483 3.5785 25.0426 3.83868 25.5204Z" fill="black"/>
<path fill-rule="evenodd" clip-rule="evenodd" d="M4.9669 27.2989L5.75924 26.6935C5.47068 26.2985 5.20105 25.8869 4.95271 25.4636L4.08942 25.9626C4.36141 26.4238 4.6547 26.8685 4.9669 27.2989" fill="black"/>
<path fill-rule="evenodd" clip-rule="evenodd" d="M6.34815 28.9475L7.05297 28.2427C6.70529 27.8784 6.37653 27.4953 6.06669 27.0979L5.27435 27.7034C5.61257 28.1386 5.96972 28.5525 6.34815 28.9475" fill="black"/>
<path fill-rule="evenodd" clip-rule="evenodd" d="M7.90447 30.3761L8.51232 29.5861C8.12916 29.2763 7.76256 28.9499 7.41015 28.6046L6.70532 29.3094C7.08848 29.6854 7.48583 30.0402 7.90447 30.3761Z" fill="black"/>
<path fill-rule="evenodd" clip-rule="evenodd" d="M9.66885 31.613L10.1679 30.7497C9.73508 30.4872 9.31644 30.201 8.91199 29.8983L8.30414 30.6883C8.7417 31.0194 9.19818 31.3269 9.66885 31.613" fill="black"/>
<path fill-rule="evenodd" clip-rule="evenodd" d="M5.39734 4.55062C5.8349 4.12962 6.29611 3.7299 6.77624 3.3562L7.4314 4.2124C6.98911 4.55771 6.56574 4.92432 6.15893 5.31221L5.39734 4.55062V4.55062Z" fill="black"/>
<path fill-rule="evenodd" clip-rule="evenodd" d="M3.46497 5.99337C3.83866 5.5298 4.23365 5.08514 4.64992 4.66177L5.41151 5.42336C5.02835 5.81362 4.66411 6.2228 4.3188 6.64853L3.46497 5.99337V5.99337Z" fill="black"/>
<path fill-rule="evenodd" clip-rule="evenodd" d="M1.12109 7.41957C1.43803 6.89687 1.78335 6.39308 2.15231 5.90585L3.00615 6.56337C2.66556 7.01039 2.34862 7.47634 2.05534 7.95883L1.12109 7.41957V7.41957Z" fill="black"/>
<path fill-rule="evenodd" clip-rule="evenodd" d="M1.57996 10.4825C1.8212 9.93614 2.09084 9.40398 2.38412 8.88837L3.31837 9.42763C3.04874 9.90303 2.80039 10.395 2.5757 10.8964L1.57996 10.4825V10.4825Z" fill="black"/>
<path fill-rule="evenodd" clip-rule="evenodd" d="M0.487244 15.0213C0.579486 14.4276 0.702475 13.8411 0.851482 13.2663L1.89216 13.5454C1.75498 14.0752 1.64145 14.6145 1.55631 15.1632L0.487244 15.0213V15.0213Z" fill="black"/>
<path fill-rule="evenodd" clip-rule="evenodd" d="M0.376071 19.6594C0.312211 19.0705 0.279099 18.4721 0.276733 17.8666H1.35526C1.35762 18.4248 1.38837 18.9759 1.44513 19.5199L0.376071 19.6594V19.6594Z" fill="black"/>
<path fill-rule="evenodd" clip-rule="evenodd" d="M1.4688 24.1793C1.25357 23.6211 1.06435 23.0511 0.905884 22.4692L1.94656 22.1902C2.09321 22.7271 2.26823 23.2545 2.46454 23.7677L1.4688 24.1793V24.1793Z" fill="black"/>
<path fill-rule="evenodd" clip-rule="evenodd" d="M2.46455 26.315C2.1689 25.7758 1.89927 25.22 1.65802 24.6499L2.65613 24.2384C2.87846 24.7658 3.1268 25.2791 3.3988 25.7758L2.46455 26.315V26.315Z" fill="black"/>
<path fill-rule="evenodd" clip-rule="evenodd" d="M5.22709 30.071C4.79899 29.6263 4.39454 29.158 4.01611 28.6684L4.87231 28.0132C5.22236 28.4626 5.59606 28.8955 5.99104 29.307L5.22709 30.071V30.071Z" fill="black"/>
<path fill-rule="evenodd" clip-rule="evenodd" d="M8.87415 32.9872C8.34198 32.6656 7.82874 32.3179 7.33441 31.9442L7.99193 31.0904C8.44841 31.4357 8.92145 31.7573 9.41341 32.053L8.87415 32.9872V32.9872Z" fill="black"/>
<path fill-rule="evenodd" clip-rule="evenodd" d="M10.9342 34.0539C10.3784 33.8103 9.83678 33.5407 9.31171 33.2427L9.85097 32.3084C10.3358 32.5828 10.8349 32.8311 11.3481 33.0582L10.9342 34.0539Z" fill="black"/>
<path fill-rule="evenodd" clip-rule="evenodd" d="M1.73602 4.64995C2.14283 4.1438 2.5733 3.65893 3.02978 3.19772L3.86232 4.03027C3.44369 4.456 3.04634 4.90302 2.67027 5.36896L1.73602 4.64995V4.64995Z" fill="black"/>
<path fill-rule="evenodd" clip-rule="evenodd" d="M10.2767 7.04352L10.8728 7.82403C11.1589 7.6159 11.457 7.42195 11.7621 7.23983L11.2701 6.38837C10.9295 6.59177 10.5984 6.81173 10.2767 7.04352" fill="black"/>
<path fill-rule="evenodd" clip-rule="evenodd" d="M29.5719 11.2512L28.7205 11.7431C28.9002 12.0624 29.0681 12.3912 29.2195 12.7271L30.1277 12.3534C29.9598 11.9749 29.773 11.606 29.5719 11.2512" fill="black"/>
<path fill-rule="evenodd" clip-rule="evenodd" d="M27.5071 8.50757L26.8117 9.20293C27.0671 9.46547 27.3108 9.73746 27.5425 10.0213L28.3231 9.42526C28.0676 9.10596 27.7933 8.80085 27.5071 8.50757" fill="black"/>
<path fill-rule="evenodd" clip-rule="evenodd" d="M26.2417 7.3699L25.6433 8.14805C25.9224 8.36801 26.192 8.60217 26.4498 8.84578L27.1452 8.15041C26.8566 7.87842 26.5563 7.61825 26.2417 7.3699" fill="black"/>
<path fill-rule="evenodd" clip-rule="evenodd" d="M24.8155 6.38837L24.3235 7.23983C24.6381 7.42905 24.9432 7.63009 25.2389 7.84296L25.8373 7.06481C25.5109 6.82356 25.1679 6.59887 24.8155 6.38837" fill="black"/>
<path fill-rule="evenodd" clip-rule="evenodd" d="M23.3065 5.61496L22.9305 6.52083C23.2569 6.66274 23.5762 6.81884 23.886 6.98677L24.378 6.1353C24.0303 5.94845 23.6731 5.77343 23.3065 5.61496Z" fill="black"/>
<path fill-rule="evenodd" clip-rule="evenodd" d="M21.6769 5.03311L21.4238 5.98155C21.7762 6.08325 22.1216 6.19915 22.4598 6.32923L22.8358 5.42337C22.4598 5.27436 22.0719 5.14428 21.6769 5.03311Z" fill="black"/>
<path fill-rule="evenodd" clip-rule="evenodd" d="M20.0213 4.67361L19.8912 5.64571C20.2436 5.69774 20.5913 5.76633 20.9319 5.84911L21.1873 4.90067C20.8041 4.81079 20.4162 4.73274 20.0213 4.67361" fill="black"/>
<path fill-rule="evenodd" clip-rule="evenodd" d="M18.2994 4.52933V5.51088C18.666 5.51797 19.0303 5.54163 19.3874 5.58183L19.5175 4.60738C19.1154 4.56481 18.7086 4.53879 18.2994 4.52933" fill="black"/>
<path fill-rule="evenodd" clip-rule="evenodd" d="M16.6391 4.82262L16.7668 5.79707C17.1145 5.75923 17.4693 5.73795 17.8241 5.73085V4.7493C17.4267 4.75639 17.0294 4.78005 16.6391 4.82262" fill="black"/>
<path fill-rule="evenodd" clip-rule="evenodd" d="M14.9006 4.90304L15.1537 5.85148C15.5061 5.76633 15.8633 5.69774 16.2251 5.64334L16.0974 4.66888C15.6953 4.73038 15.2956 4.80843 14.9006 4.90304" fill="black"/>
<path fill-rule="evenodd" clip-rule="evenodd" d="M13.2829 5.40918L13.6566 6.31741C13.9854 6.19205 14.3212 6.07852 14.6642 5.98155L14.4087 5.03311C14.0279 5.14191 13.6519 5.26726 13.2829 5.40918Z" fill="black"/>
<path fill-rule="evenodd" clip-rule="evenodd" d="M11.7124 6.13765L12.2044 6.98912C12.5237 6.81646 12.8524 6.65563 13.1883 6.51135L12.8146 5.60312C12.4361 5.76395 12.0695 5.94371 11.7124 6.13765" fill="black"/>
<path fill-rule="evenodd" clip-rule="evenodd" d="M31.3695 12.3746L30.5062 12.7294C30.6646 13.1197 30.8042 13.517 30.9248 13.9238L31.8259 13.6826C31.6959 13.2379 31.5421 12.8004 31.3695 12.3746" fill="black"/>
<path fill-rule="evenodd" clip-rule="evenodd" d="M30.816 10.5298L30.0095 10.9958C30.2223 11.3718 30.4186 11.7597 30.596 12.1571L31.4593 11.7999C31.2654 11.3671 31.0501 10.9414 30.816 10.5298" fill="black"/>
<path fill-rule="evenodd" clip-rule="evenodd" d="M29.78 8.94986L29.0397 9.5175C29.2928 9.85336 29.5293 10.201 29.7517 10.5606L30.5605 10.0946C30.3169 9.69962 30.0568 9.31883 29.78 8.94986" fill="black"/>
<path fill-rule="evenodd" clip-rule="evenodd" d="M28.5241 7.49054L27.8643 8.15043C28.167 8.4579 28.4532 8.78193 28.7252 9.11779L29.4655 8.55014C29.1698 8.18117 28.8553 7.82876 28.5241 7.49054" fill="black"/>
<path fill-rule="evenodd" clip-rule="evenodd" d="M27.1192 6.22989L26.5516 6.96783C26.8803 7.228 27.1996 7.50236 27.5024 7.79091L28.1623 7.13102C27.8288 6.81645 27.4811 6.51608 27.1192 6.22989Z" fill="black"/>
<path fill-rule="evenodd" clip-rule="evenodd" d="M25.5345 5.14191L25.0686 5.9508C25.4399 6.17313 25.7994 6.40965 26.1471 6.66509L26.7171 5.92478C26.3363 5.64569 25.9437 5.38552 25.5345 5.14191Z" fill="black"/>
<path fill-rule="evenodd" clip-rule="evenodd" d="M23.8599 4.28571L23.5028 5.14663C23.8883 5.31456 24.2644 5.49668 24.631 5.69772L25.0969 4.88883C24.6949 4.67123 24.2833 4.46782 23.8599 4.28571" fill="black"/>
<path fill-rule="evenodd" clip-rule="evenodd" d="M22.0506 3.6424L21.8094 4.54353C22.2257 4.66179 22.6325 4.79897 23.0322 4.95507L23.3893 4.09415C22.9518 3.92149 22.5071 3.77248 22.0506 3.6424" fill="black"/>
<path fill-rule="evenodd" clip-rule="evenodd" d="M20.2105 3.24741L20.0875 4.17219C20.5038 4.23369 20.9153 4.3141 21.3174 4.41344L21.5587 3.51231C21.1164 3.40351 20.667 3.316 20.2105 3.24741Z" fill="black"/>
<path fill-rule="evenodd" clip-rule="evenodd" d="M18.2994 3.09131V4.02319C18.7323 4.03029 19.1604 4.05867 19.5837 4.10597L19.7067 3.18119C19.2431 3.12915 18.7725 3.0984 18.2994 3.09131" fill="black"/>
<path fill-rule="evenodd" clip-rule="evenodd" d="M16.4617 3.51465L16.5823 4.43944C16.9938 4.3945 17.4101 4.36848 17.8335 4.36139V3.4295C17.3699 3.4366 16.9111 3.46498 16.4617 3.51465" fill="black"/>
<path fill-rule="evenodd" clip-rule="evenodd" d="M14.5294 3.51231L14.7706 4.41344C15.1845 4.31174 15.6079 4.22896 16.036 4.16746L15.9154 3.24268C15.4447 3.31127 14.9835 3.40114 14.5294 3.51231" fill="black"/>
<path fill-rule="evenodd" clip-rule="evenodd" d="M12.7341 4.07995L13.0913 4.94325C13.4792 4.79424 13.8765 4.65942 14.281 4.54353L14.0397 3.6424C13.5951 3.76775 13.1599 3.91439 12.7341 4.07995" fill="black"/>
<path fill-rule="evenodd" clip-rule="evenodd" d="M10.9933 4.89119L11.4593 5.70009C11.8354 5.49432 12.2232 5.3051 12.6206 5.13481L12.2635 4.27151C11.8283 4.45836 11.4049 4.66414 10.9933 4.89119" fill="black"/>
<path fill-rule="evenodd" clip-rule="evenodd" d="M32.6419 11.8354L31.7195 12.2162C31.8992 12.6632 32.0601 13.122 32.1996 13.588L33.1646 13.3302C33.0109 12.8193 32.8382 12.3226 32.6419 11.8354" fill="black"/>
<path fill-rule="evenodd" clip-rule="evenodd" d="M30.9745 8.0369L30.1821 8.64238C30.473 9.02791 30.745 9.42762 30.9981 9.83917L31.8614 9.34011C31.587 8.89309 31.2914 8.45553 30.9745 8.0369" fill="black"/>
<path fill-rule="evenodd" clip-rule="evenodd" d="M29.5884 6.42856L28.8836 7.13338C29.2313 7.4858 29.56 7.85713 29.8699 8.24265L30.6622 7.63717C30.324 7.21616 29.9669 6.81172 29.5884 6.42856" fill="black"/>
<path fill-rule="evenodd" clip-rule="evenodd" d="M28.0369 5.03784L27.429 5.82781C27.8074 6.12583 28.1717 6.44276 28.5217 6.77389L29.2266 6.06906C28.8458 5.70719 28.4508 5.36187 28.0369 5.03784" fill="black"/>
<path fill-rule="evenodd" clip-rule="evenodd" d="M26.289 3.83868L25.79 4.70198C26.2157 4.95505 26.6296 5.22941 27.027 5.52033L27.6348 4.73036C27.202 4.41342 26.7526 4.11541 26.289 3.83868Z" fill="black"/>
<path fill-rule="evenodd" clip-rule="evenodd" d="M24.4371 2.89734L24.054 3.81976C24.4962 4.01134 24.9291 4.22184 25.3501 4.45363L25.8491 3.59034C25.3903 3.3349 24.9196 3.10548 24.4371 2.89734" fill="black"/>
<path fill-rule="evenodd" clip-rule="evenodd" d="M20.4092 1.75732L20.2767 2.74597C20.7545 2.81693 21.2275 2.90917 21.6887 3.0227L21.9466 2.06007C21.4451 1.93471 20.9295 1.83301 20.4092 1.75732" fill="black"/>
<path fill-rule="evenodd" clip-rule="evenodd" d="M18.2994 1.58704V2.58514C18.7961 2.59224 19.2881 2.62535 19.7729 2.67975L19.9054 1.6911C19.3756 1.63197 18.8411 1.5965 18.2994 1.58704Z" fill="black"/>
<path fill-rule="evenodd" clip-rule="evenodd" d="M14.1391 2.06008L14.3969 3.02271C14.8723 2.90682 15.3572 2.80985 15.8491 2.73889L15.7214 1.75024C15.1845 1.8283 14.6571 1.93236 14.1391 2.06008" fill="black"/>
<path fill-rule="evenodd" clip-rule="evenodd" d="M12.1594 2.68921L12.5402 3.61163C12.9849 3.43897 13.4414 3.28524 13.9073 3.15279L13.6495 2.19016C13.141 2.33207 12.6443 2.49999 12.1594 2.68921Z" fill="black"/>
<path fill-rule="evenodd" clip-rule="evenodd" d="M10.2413 3.58797L10.7403 4.45127C11.1708 4.21475 11.6154 3.99715 12.0719 3.80084L11.6911 2.87842C11.1944 3.09365 10.7096 3.33017 10.2413 3.58797Z" fill="black"/>
<path fill-rule="evenodd" clip-rule="evenodd" d="M16.062 0.759235C16.6438 0.69301 17.2351 0.655167 17.8335 0.648071V1.7266C17.2824 1.73606 16.7384 1.76917 16.2015 1.83066L16.062 0.759235V0.759235Z" fill="black"/>
<path fill-rule="evenodd" clip-rule="evenodd" d="M11.554 1.22043C12.1027 1.0052 12.6656 0.815984 13.238 0.655151L13.5171 1.6982C12.9896 1.8472 12.4716 2.01986 11.9655 2.21854L11.554 1.22043V1.22043Z" fill="black"/>
<path fill-rule="evenodd" clip-rule="evenodd" d="M9.44653 2.21382C9.97633 1.92053 10.5227 1.65327 11.0832 1.41202L11.4948 2.41013C10.9768 2.63009 10.473 2.87843 9.9858 3.14806L9.44653 2.21382Z" fill="black"/>
<path fill-rule="evenodd" clip-rule="evenodd" d="M34.0019 11.2938C34.2242 11.8425 34.4205 12.4078 34.5908 12.9825L33.5478 13.2616C33.3917 12.7318 33.2119 12.2115 33.0062 11.7053L34.0019 11.2938V11.2938Z" fill="black"/>
<path fill-rule="evenodd" clip-rule="evenodd" d="M33.4934 8.98535C33.7938 9.51515 34.0705 10.0615 34.3165 10.6221L33.3184 11.0336C33.0889 10.5156 32.8359 10.0118 32.5591 9.52461L33.4934 8.98535V8.98535Z" fill="black"/>
<path fill-rule="evenodd" clip-rule="evenodd" d="M32.2351 7.0719C32.5922 7.54494 32.9281 8.03689 33.2379 8.54777L32.3037 9.08704C32.0175 8.61873 31.71 8.16461 31.3789 7.72706L32.2351 7.0719V7.0719Z" fill="black"/>
<path fill-rule="evenodd" clip-rule="evenodd" d="M30.7095 5.30511C31.1376 5.73794 31.5421 6.19442 31.9229 6.66983L31.0667 7.32498C30.7143 6.88742 30.3406 6.46642 29.9479 6.0667L30.7095 5.30511Z" fill="black"/>
<path fill-rule="evenodd" clip-rule="evenodd" d="M27.0814 2.46451C27.6064 2.77435 28.1126 3.11257 28.6022 3.47444L27.9447 4.32827C27.4929 3.99478 27.027 3.68494 26.5421 3.39876L27.0814 2.46451V2.46451Z" fill="black"/>
<path fill-rule="evenodd" clip-rule="evenodd" d="M25.0449 1.43094C25.5913 1.66509 26.1235 1.92763 26.6414 2.21381L26.1022 3.14806C25.6268 2.88553 25.1348 2.64428 24.631 2.42668L25.0449 1.43094V1.43094Z" fill="black"/>
<path fill-rule="evenodd" clip-rule="evenodd" d="M22.8501 0.655151C23.439 0.820714 24.0137 1.01466 24.5767 1.23699L24.1628 2.23509C23.6448 2.03169 23.115 1.85193 22.571 1.70056L22.8501 0.655151V0.655151Z" fill="black"/>
<path fill-rule="evenodd" clip-rule="evenodd" d="M20.6173 0.184479C21.2086 0.269625 21.7881 0.385519 22.3581 0.527431L22.079 1.57048C21.5539 1.44039 21.0194 1.33396 20.4754 1.25591L20.6173 0.184479V0.184479Z" fill="black"/>
<path fill-rule="evenodd" clip-rule="evenodd" d="M18.2994 0C18.912 0.00946074 19.5175 0.0473037 20.1159 0.118259L19.974 1.18732C19.4229 1.12346 18.8647 1.08798 18.3018 1.07852V0H18.2994Z" fill="black"/>
<path fill-rule="evenodd" clip-rule="evenodd" d="M30.2294 22.9517L29.3236 22.5757C29.1793 22.9115 29.0232 23.2379 28.8505 23.5572L29.702 24.0492C29.8912 23.6921 30.0686 23.3278 30.2294 22.9517Z" fill="black"/>
<path fill-rule="evenodd" clip-rule="evenodd" d="M30.8065 21.2938L29.8581 21.0407C29.7587 21.4026 29.6428 21.7573 29.5104 22.105L30.4186 22.4811C30.5652 22.0932 30.6953 21.6982 30.8065 21.2938" fill="black"/>
<path fill-rule="evenodd" clip-rule="evenodd" d="M31.1542 19.6098L30.1798 19.4797C30.1301 19.8415 30.0639 20.1963 29.9811 20.5464L30.9295 20.8018C31.0241 20.4116 31.0998 20.0142 31.1542 19.6098" fill="black"/>
<path fill-rule="evenodd" clip-rule="evenodd" d="M31.282 17.8666H30.3004C30.3004 18.2427 30.2767 18.614 30.2413 18.9806L31.2157 19.1107C31.2559 18.6992 31.2796 18.2852 31.282 17.8666" fill="black"/>
<path fill-rule="evenodd" clip-rule="evenodd" d="M31.185 16.1566L30.2105 16.2843C30.2531 16.6391 30.2815 16.9986 30.2933 17.3605H31.2748C31.263 16.9537 31.2346 16.5516 31.185 16.1566Z" fill="black"/>
<path fill-rule="evenodd" clip-rule="evenodd" d="M31.0004 14.3969L30.052 14.65C30.1442 15.0047 30.2199 15.3666 30.2791 15.7356L31.2535 15.6079C31.1873 15.1987 31.1021 14.7942 31.0004 14.3969Z" fill="black"/>
<path fill-rule="evenodd" clip-rule="evenodd" d="M31.5563 23.5052L30.6954 23.1481C30.5275 23.5431 30.3406 23.9286 30.1372 24.3023L30.9461 24.7682C31.1708 24.359 31.3742 23.938 31.5563 23.5052" fill="black"/>
<path fill-rule="evenodd" clip-rule="evenodd" d="M32.1973 21.6675L31.2961 21.4262C31.1779 21.8519 31.0407 22.2682 30.887 22.675L31.7479 23.0322C31.9182 22.5875 32.0696 22.1334 32.1973 21.6675" fill="black"/>
<path fill-rule="evenodd" clip-rule="evenodd" d="M32.5828 19.8013L31.658 19.6783C31.5988 20.1041 31.5208 20.5227 31.4214 20.9343L32.3226 21.1755C32.4314 20.7238 32.5165 20.2673 32.5828 19.8013Z" fill="black"/>
<path fill-rule="evenodd" clip-rule="evenodd" d="M32.7199 17.8666H31.7881C31.7881 18.3089 31.762 18.7441 31.7171 19.1746L32.6419 19.2975C32.6916 18.8269 32.7176 18.3491 32.7199 17.8666Z" fill="black"/>
<path fill-rule="evenodd" clip-rule="evenodd" d="M32.6135 15.9697L31.6887 16.0904C31.7384 16.5066 31.7715 16.93 31.7833 17.3581H32.7176C32.7034 16.8898 32.6679 16.4262 32.6135 15.9697Z" fill="black"/>
<path fill-rule="evenodd" clip-rule="evenodd" d="M32.5189 14.0043L31.6178 14.2455C31.7266 14.6642 31.8141 15.0899 31.8851 15.5227L32.8099 15.4021C32.7342 14.9291 32.6372 14.4631 32.5189 14.0043" fill="black"/>
<path fill-rule="evenodd" clip-rule="evenodd" d="M32.947 24.0823L32.0246 23.6992C31.833 24.1509 31.6178 24.5932 31.386 25.0213L32.2493 25.5204C32.5047 25.0544 32.7365 24.5743 32.947 24.0823Z" fill="black"/>
<path fill-rule="evenodd" clip-rule="evenodd" d="M33.6495 22.0554L32.6869 21.7975C32.552 22.2848 32.3959 22.7602 32.2162 23.2285L33.1386 23.6116C33.3326 23.1055 33.5052 22.5852 33.6495 22.0554Z" fill="black"/>
<path fill-rule="evenodd" clip-rule="evenodd" d="M34.0728 19.9976L33.0842 19.8652C33.018 20.3524 32.9257 20.8325 32.8122 21.3032L33.7772 21.561C33.9002 21.0525 33.9995 20.5298 34.0728 19.9976Z" fill="black"/>
<path fill-rule="evenodd" clip-rule="evenodd" d="M34.2242 17.8666H33.2261C33.2261 18.3728 33.1953 18.8718 33.1433 19.3661L34.132 19.4986C34.1911 18.9593 34.2218 18.4153 34.2242 17.8666Z" fill="black"/>
<path fill-rule="evenodd" clip-rule="evenodd" d="M34.1036 15.7758L33.1149 15.9059C33.1741 16.3836 33.2095 16.8709 33.2237 17.3605H34.2218C34.2076 16.8236 34.1674 16.2961 34.1036 15.7758Z" fill="black"/>
<path fill-rule="evenodd" clip-rule="evenodd" d="M34.132 13.5809L33.1694 13.8387C33.2947 14.3165 33.3964 14.8061 33.4745 15.3028L34.4631 15.1727C34.378 14.6334 34.2668 14.1012 34.132 13.5809Z" fill="black"/>
<path fill-rule="evenodd" clip-rule="evenodd" d="M35.6457 20.2081C35.5629 20.8065 35.4517 21.3978 35.3098 21.9749L34.2668 21.6958C34.3945 21.1613 34.4986 20.6173 34.5743 20.0662L35.6457 20.2081V20.2081Z" fill="black"/>
<path fill-rule="evenodd" clip-rule="evenodd" d="M35.8113 17.8666C35.8113 18.4887 35.7734 19.1012 35.7072 19.7067L34.6381 19.5648C34.6973 19.0066 34.7304 18.4413 34.7327 17.8666H35.8113V17.8666Z" fill="black"/>
<path fill-rule="evenodd" clip-rule="evenodd" d="M35.9815 13.115C36.1353 13.7039 36.2582 14.3023 36.3529 14.9125L35.2814 15.052C35.1939 14.4891 35.0804 13.9357 34.9385 13.3941L35.9815 13.115V13.115Z" fill="black"/>
<path fill-rule="evenodd" clip-rule="evenodd" d="M18.0676 10.3571C20.1774 10.3571 22.0884 11.1921 23.4721 12.5402L20.7687 15.1774C20.078 14.5033 19.1225 14.0847 18.0676 14.0847C15.9579 14.0847 14.2455 15.7545 14.2455 17.8122C14.2455 19.8699 15.9555 21.5397 18.0676 21.5397C19.1225 21.5397 20.078 21.1235 20.7687 20.447L23.4721 23.0818C22.0884 24.4324 20.1774 25.2649 18.0676 25.2649C13.8458 25.2649 10.4233 21.9276 10.4233 17.8098C10.4233 13.6944 13.8458 10.3571 18.0676 10.3571" fill="black"/>
<path d="M73.4224 31.5137V34.0847H76.755V35.648H73.4224V38.271H77.7081V39.8888H71.3434V29.8936H77.7081V31.5113H73.4224V31.5137Z" fill="#FBBB20"/>
<path d="M87.176 39.8888H85.1112C84.9716 39.8888 84.8605 39.8557 84.7777 39.7871C84.6925 39.7185 84.6239 39.6381 84.5743 39.5459L82.4125 35.868C82.3912 35.9177 82.3676 35.9673 82.3463 36.0147C82.3273 36.062 82.3013 36.1069 82.273 36.1471L80.2223 39.5435C80.1608 39.6287 80.0923 39.7091 80.0118 39.7824C79.9314 39.851 79.8297 39.8888 79.7067 39.8888H77.7767L81.0501 34.7422L77.9021 29.8936H79.9693C80.1088 29.8936 80.2081 29.9125 80.272 29.948C80.3359 29.9834 80.395 30.0449 80.4447 30.1277L82.5923 33.6613C82.6135 33.6069 82.6396 33.5501 82.6679 33.491C82.6963 33.4319 82.7271 33.3751 82.7649 33.316L84.6949 30.1608C84.7493 30.0686 84.8108 30 84.877 29.9574C84.9432 29.9148 85.0237 29.8936 85.1206 29.8936H87.0979L83.9215 34.6547L87.1736 39.8865L87.176 39.8888Z" fill="#FBBB20"/>
<path d="M94.2384 37.429C94.352 37.429 94.449 37.4716 94.527 37.5544L95.3454 38.4295C94.9409 38.9428 94.4395 39.3354 93.8411 39.6003C93.2427 39.8652 92.5284 40 91.7006 40C90.9508 40 90.2791 39.8723 89.6831 39.6168C89.0871 39.3614 88.5786 39.0066 88.1599 38.5549C87.7413 38.1007 87.422 37.5615 87.1973 36.9371C86.9726 36.3127 86.8591 35.6291 86.8591 34.8912C86.8591 34.3945 86.9111 33.9215 87.0199 33.4744C87.1287 33.0274 87.2872 32.6135 87.4929 32.2375C87.6987 31.859 87.9471 31.5208 88.2403 31.2181C88.5313 30.9153 88.8624 30.6575 89.229 30.4446C89.5956 30.2318 89.9977 30.0662 90.4305 29.9551C90.8633 29.8439 91.3269 29.7848 91.8189 29.7848C92.1855 29.7848 92.5331 29.8179 92.8619 29.8817C93.1883 29.9456 93.4981 30.0355 93.7796 30.1514C94.0611 30.2673 94.326 30.4044 94.5672 30.5676C94.8085 30.7308 95.0261 30.9082 95.22 31.0998L94.5223 32.0482C94.4797 32.1097 94.4277 32.1618 94.3638 32.2067C94.2999 32.254 94.2148 32.2753 94.1036 32.2753C93.9925 32.2753 93.8813 32.2375 93.7678 32.1594C93.6566 32.0814 93.5171 31.9962 93.3539 31.8992C93.1907 31.8023 92.9873 31.7171 92.7413 31.6391C92.4953 31.561 92.1831 31.5232 91.8094 31.5232C91.3908 31.5232 91.0076 31.5989 90.6599 31.7502C90.3099 31.8992 90.0095 32.1192 89.7612 32.4078C89.5104 32.6939 89.3165 33.0464 89.1793 33.465C89.0421 33.8836 88.9735 34.359 88.9735 34.8912C88.9735 35.4234 89.0492 35.9082 89.1982 36.3269C89.3472 36.7455 89.5507 37.1003 89.8108 37.3888C90.071 37.6774 90.3737 37.8973 90.7214 38.0463C91.0691 38.1954 91.4404 38.271 91.8354 38.271C92.0696 38.271 92.2824 38.2592 92.4717 38.2379C92.6632 38.2166 92.8383 38.1764 93.0015 38.122C93.1647 38.0676 93.3184 37.9943 93.4627 37.9092C93.6069 37.8193 93.7536 37.7129 93.9002 37.578C93.9499 37.5355 94.0019 37.5024 94.0587 37.4763C94.1202 37.4432 94.177 37.429 94.2408 37.429H94.2384Z" fill="#FBBB20"/>
<path d="M104.669 29.8936V39.8888H102.59V35.5842H98.1883V39.8888H96.1069V29.8936H98.1883V34.1367H102.59V29.8936H104.669V29.8936Z" fill="#FBBB20"/>
<path d="M115.109 39.8888H113.505C113.328 39.8888 113.181 39.8463 113.07 39.7611C112.956 39.6783 112.874 39.5672 112.817 39.4347L112.143 37.526H108.162L107.488 39.4347C107.441 39.5483 107.363 39.6547 107.247 39.7493C107.133 39.8439 106.989 39.8912 106.814 39.8912H105.196L109.101 29.8959H111.216L115.111 39.8912L115.109 39.8888ZM111.637 36.0951L110.553 33.0369C110.49 32.8761 110.421 32.6869 110.35 32.4716C110.277 32.254 110.21 32.0222 110.147 31.7692C110.083 32.027 110.014 32.2635 109.943 32.4834C109.87 32.7034 109.804 32.8926 109.74 33.0535L108.666 36.0974H111.634L111.637 36.0951Z" fill="#FBBB20"/>
<path d="M124.191 29.8936V39.8888H123.122C122.961 39.8888 122.824 39.8628 122.713 39.8084C122.602 39.7564 122.493 39.6641 122.389 39.5364L117.41 33.2001C117.424 33.3609 117.436 33.5194 117.441 33.6755C117.446 33.8316 117.453 33.9782 117.453 34.1083V39.8865H115.627V29.8912H116.715C116.805 29.8912 116.876 29.8936 116.939 29.903C117.001 29.9077 117.058 29.9243 117.11 29.9503C117.159 29.9763 117.207 30.0094 117.254 30.0497C117.301 30.0922 117.351 30.1466 117.408 30.2152L122.424 36.5799C122.405 36.4049 122.391 36.2393 122.382 36.0738C122.372 35.9082 122.368 35.7545 122.368 35.6078V29.8888H124.193L124.191 29.8936Z" fill="#FBBB20"/>
<path d="M130.745 34.799H134.177V38.9262C133.666 39.2975 133.124 39.5695 132.547 39.7422C131.97 39.9148 131.362 40 130.719 40C129.898 40 129.153 39.8723 128.486 39.6168C127.819 39.3614 127.252 39.0066 126.779 38.5549C126.303 38.1007 125.941 37.5615 125.681 36.9371C125.421 36.3127 125.296 35.6291 125.296 34.8912C125.296 34.1533 125.419 33.4555 125.665 32.8311C125.911 32.2067 126.261 31.6674 126.717 31.2181C127.171 30.7687 127.722 30.4186 128.366 30.1632C129.011 29.9101 129.735 29.7848 130.535 29.7848C130.948 29.7848 131.334 29.8179 131.691 29.8841C132.048 29.9503 132.379 30.0426 132.684 30.1585C132.987 30.2744 133.264 30.4139 133.517 30.5747C133.77 30.7356 134 30.913 134.205 31.1045L133.607 32.0293C133.515 32.176 133.396 32.2658 133.25 32.299C133.103 32.3321 132.942 32.2942 132.767 32.1878C132.602 32.0884 132.441 31.9962 132.282 31.9158C132.124 31.8354 131.956 31.7668 131.776 31.7053C131.597 31.6438 131.403 31.5989 131.19 31.5657C130.977 31.5326 130.736 31.5184 130.459 31.5184C129.995 31.5184 129.574 31.5989 129.198 31.7597C128.82 31.9205 128.5 32.1476 128.238 32.4432C127.975 32.7389 127.772 33.0889 127.628 33.5028C127.483 33.9167 127.415 34.3779 127.415 34.8888C127.415 35.4375 127.493 35.9319 127.649 36.3647C127.805 36.7975 128.027 37.1641 128.309 37.4645C128.59 37.7649 128.933 37.9896 129.331 38.1481C129.728 38.3042 130.168 38.3822 130.658 38.3822C130.989 38.3822 131.282 38.3491 131.542 38.2829C131.802 38.2166 132.055 38.1244 132.304 38.0109V36.3316H131.173C131.041 36.3316 130.934 36.2961 130.859 36.2228C130.783 36.1542 130.745 36.062 130.745 35.9508V34.799V34.799Z" fill="#FBBB20"/>
<path d="M137.54 31.5137V34.0847H140.873V35.648H137.54V38.271H141.826V39.8888H135.461V29.8936H141.826V31.5113H137.54V31.5137Z" fill="#FBBB20"/>
</g>
<defs>
<clipPath id="clip0_402_3607">
<rect width="157.524" height="40" fill="white"/>
</clipPath>
</defs>
</svg>