<svg xmlns:xlink="http://www.w3.org/1999/xlink" xmlns="http://www.w3.org/2000/svg" width="24" height="24" viewBox="0 0 24 24" fill="none">
<path d="M4.58002 12.25H8C8.41 12.25 8.75 12.59 8.75 13V19.99C8.75 20.73 8.46 21.42 7.94 21.94C7.42 22.46 6.72999 22.75 5.98999 22.75H5.97998C4.72998 22.74 3.55002 22.25 2.65002 21.36C1.75002 20.45 1.26001 19.25 1.26001 18V15.58C1.25001 13.59 2.59002 12.25 4.58002 12.25ZM7.25 13.75H4.58002C3.42002 13.75 2.75 14.42 2.75 15.58V18C2.75 18.86 3.09001 19.68 3.70001 20.3C4.31001 20.9 5.11998 21.24 5.97998 21.25C5.97998 21.25 5.97999 21.25 5.98999 21.25C6.31999 21.25 6.64 21.12 6.88 20.88C7.12 20.64 7.25 20.33 7.25 19.99V13.75Z" fill="#FBBB20"/>
<path d="M15.0002 0.67C15.4702 0.67 15.9102 0.85 16.2402 1.19L17.9003 2.86C17.9903 2.95 18.1302 2.96 18.2302 2.88L19.9402 1.6C20.4702 1.2 21.1703 1.13 21.7703 1.43C22.3703 1.73 22.7402 2.33 22.7402 3V18C22.7402 21.02 21.0102 22.75 17.9902 22.75H5.99023C5.58023 22.75 5.24023 22.41 5.24023 22C5.24023 21.59 5.58023 21.25 5.99023 21.25C6.68023 21.25 7.24023 20.69 7.24023 20V3C7.24023 2.33 7.61027 1.73 8.21027 1.43C8.80027 1.13 9.51022 1.2 10.0402 1.6L11.7502 2.88C11.8502 2.96 11.9903 2.94 12.0703 2.86L13.7502 1.18C14.0902 0.85 14.5302 0.67 15.0002 0.67ZM18.0903 4.43C17.6303 4.43 17.1803 4.26 16.8403 3.91L15.1802 2.24C15.1202 2.18 15.0402 2.17 15.0002 2.17C14.9602 2.17 14.8803 2.18 14.8203 2.24L13.1403 3.92C12.5203 4.54 11.5402 4.6 10.8502 4.07L9.15027 2.8C9.04027 2.72 8.94026 2.75 8.89026 2.78C8.84026 2.81 8.75024 2.87 8.75024 3V20C8.75024 20.45 8.64026 20.88 8.45026 21.25H18.0002C20.2202 21.25 21.2502 20.22 21.2502 18V3C21.2502 2.86 21.1602 2.8 21.1102 2.77C21.0502 2.74 20.9502 2.72 20.8502 2.8L19.1403 4.08C18.8303 4.31 18.4603 4.43 18.0903 4.43Z" fill="#FBBB20"/>
<path d="M15 16.6606C13.351 16.6606 12 15.462 12 13.9863V12.5728C12 12.2888 12.2356 12.0532 12.5196 12.0532C12.8037 12.0532 13.0393 12.2888 13.0393 12.5728C13.0393 13.4389 13.8776 14.0902 15 14.0902C16.1224 14.0902 16.9607 13.4389 16.9607 12.5728C16.9607 12.2888 17.1963 12.0532 17.4804 12.0532C17.7644 12.0532 18 12.2888 18 12.5728V13.9863C18 15.462 16.6559 16.6606 15 16.6606ZM13.2194 14.6652C13.5242 15.2334 14.2101 15.6213 15 15.6213C15.7898 15.6213 16.4757 15.2264 16.7806 14.6652C16.2887 14.9631 15.679 15.1364 15 15.1364C14.321 15.1364 13.7113 14.9631 13.2194 14.6652Z" fill="#FBBB20"/>
<path d="M15 13.2309C13.8637 13.2309 12.8453 12.7113 12.3395 11.8868C12.1178 11.5265 12 11.1039 12 10.6743C12 9.94684 12.3187 9.26785 12.9007 8.76207C14.0231 7.77824 15.9561 7.77827 17.0854 8.75518C17.6674 9.26788 17.9931 9.94684 17.9931 10.6743C17.9931 11.1039 17.8753 11.5265 17.6536 11.8868C17.1547 12.7113 16.1362 13.2309 15 13.2309ZM15 9.03923C14.4596 9.03923 13.9607 9.21935 13.5866 9.54499C13.2332 9.84984 13.0393 10.2517 13.0393 10.6743C13.0393 10.9168 13.1016 11.1386 13.2263 11.3464C13.545 11.873 14.224 12.1986 15 12.1986C15.776 12.1986 16.4549 11.873 16.7667 11.3533C16.8914 11.1524 16.9538 10.9238 16.9538 10.6813C16.9538 10.2586 16.7598 9.85677 16.4065 9.54499C16.0393 9.21935 15.5404 9.03923 15 9.03923Z" fill="#FBBB20"/>
<path d="M15 15.1363C13.2887 15.1363 12 14.0347 12 12.5797V10.6744C12 9.19861 13.3441 8 15 8C15.7829 8 16.5312 8.27023 17.0924 8.75522C17.6744 9.26792 18 9.94688 18 10.6744V12.5797C18 14.0347 16.7113 15.1363 15 15.1363ZM15 9.03926C13.9191 9.03926 13.0393 9.77367 13.0393 10.6744V12.5797C13.0393 13.4457 13.8776 14.097 15 14.097C16.1224 14.097 16.9607 13.4457 16.9607 12.5797V10.6744C16.9607 10.2517 16.7668 9.84987 16.4134 9.53809C16.0393 9.21938 15.5404 9.03926 15 9.03926Z" fill="#FBBB20"/>
</svg>