<svg xmlns:xlink="http://www.w3.org/1999/xlink" xmlns="http://www.w3.org/2000/svg" width="399" height="277" viewBox="0 0 399 277" fill="none">
<path d="M276.488 276.939H38.9205C17.4717 276.939 0 259.467 0 238.019V81.7928C0 60.344 17.4717 42.8723 38.9205 42.8723H90.5198C91.6755 42.8723 92.5933 43.7901 92.5933 44.9458C92.5933 46.1015 91.6755 47.0193 90.5198 47.0193H38.9205C19.7492 47.0193 4.14698 62.6215 4.14698 81.7928V238.019C4.14698 257.19 19.7492 272.792 38.9205 272.792H276.488C295.66 272.792 311.262 257.19 311.262 238.019V179.961C311.262 178.805 312.18 177.887 313.335 177.887H393.726C394.881 177.887 395.799 178.805 395.799 179.961C395.799 181.116 394.881 182.034 393.726 182.034H315.409V238.019C315.409 259.467 297.937 276.939 276.488 276.939Z" fill="#FCD535"/>
<path d="M379.959 196.957L377.104 193.931L392.128 179.961L377.104 165.99L379.959 162.965L398.246 179.961L379.959 196.957Z" fill="#FCD535"/>
<path style="mix-blend-mode:multiply" opacity="0.3" d="M199.466 87.3018C207.163 54.6879 186.965 22.009 154.351 14.3114C121.737 6.61386 89.0581 26.8125 81.3605 59.4264C73.663 92.0402 93.8616 124.719 126.475 132.417C159.089 140.114 191.768 119.916 199.466 87.3018Z" fill="url(#paint0_radial_286_1024)"/>
<rect x="92" width="96" height="96" rx="24" fill="white"/>
<rect x="100" y="8" width="80" height="80" rx="16" fill="#FCD535"/>
<g clip-path="url(#clip0_286_1024)">
<path d="M135.469 62.9999C130.783 62.9999 126.969 59.1858 126.969 54.4998V34H123.469C120.435 34 117.969 36.4657 117.969 39.4998V66.4998C117.969 69.5338 120.435 71.9999 123.469 71.9999H148.469C151.503 71.9999 153.969 69.5338 153.969 66.4998V62.9999H135.469Z" fill="white"/>
<path d="M161.969 29.5001C161.969 26.462 159.507 24 156.469 24H135.469C132.431 24 129.969 26.462 129.969 29.5001V54.4999C129.969 57.538 132.431 60 135.469 60H156.469C159.507 60 161.969 57.538 161.969 54.4999V29.5001Z" fill="white"/>
</g>
<defs>
<radialGradient id="paint0_radial_286_1024" cx="0" cy="0" r="1" gradientUnits="userSpaceOnUse" gradientTransform="translate(140.43 73.3542) scale(60.6751)">
<stop offset="0.11"/>
<stop offset="0.12" stop-color="#030303"/>
<stop offset="0.26" stop-color="#454545"/>
<stop offset="0.41" stop-color="#7D7D7D"/>
<stop offset="0.55" stop-color="#ACACAC"/>
<stop offset="0.68" stop-color="#D0D0D0"/>
<stop offset="0.8" stop-color="#E9E9E9"/>
<stop offset="0.91" stop-color="#F9F9F9"/>
<stop offset="1" stop-color="white"/>
</radialGradient>
<clipPath id="clip0_286_1024">
<rect width="48" height="48" fill="white" transform="translate(116 24)"/>
</clipPath>
</defs>
</svg>