<svg xmlns:xlink="http://www.w3.org/1999/xlink" xmlns="http://www.w3.org/2000/svg" width="40" height="41" viewBox="0 0 40 41" fill="none">
<path d="M9.28334 38.449C5.38334 38.449 2.08334 35.149 2.08334 31.249V20.9823C2 16.1157 3.8 11.5323 7.16667 8.09901C10.5333 4.68235 15.05 2.78235 19.9167 2.78235C29.85 2.78235 37.9167 10.8657 37.9167 20.7823V31.049C37.9167 35.0157 34.6833 38.249 30.7167 38.249C26.8167 38.249 23.5167 34.949 23.5167 31.049V26.3657C23.5167 23.949 25.4167 22.049 27.8333 22.049C30.25 22.049 32.15 23.949 32.15 26.3657V31.4157C32.15 32.099 31.5833 32.6657 30.9 32.6657C30.2167 32.6657 29.65 32.099 29.65 31.4157V26.3657C29.65 25.2323 28.7333 24.549 27.8333 24.549C26.7 24.549 26.0167 25.4657 26.0167 26.3657V31.049C26.0167 33.599 28.1667 35.749 30.7167 35.749C33.2667 35.749 35.4167 33.599 35.4167 31.049V20.7823C35.4167 12.2323 28.4667 5.28235 19.9167 5.28235C15.7333 5.28235 11.85 6.89901 8.95 9.84901C6.05 12.799 4.5 16.749 4.58334 20.949V31.249C4.58334 33.799 6.73334 35.949 9.28334 35.949C11.8333 35.949 13.9833 33.799 13.9833 31.249V26.5657C13.9833 25.4323 13.0667 24.749 12.1667 24.749C11.0333 24.749 10.35 25.6657 10.35 26.5657V31.4323C10.35 32.1157 9.78334 32.6823 9.1 32.6823C8.41667 32.6823 7.85 32.1157 7.85 31.4323V26.5657C7.85 24.149 9.75 22.249 12.1667 22.249C14.5833 22.249 16.4833 24.149 16.4833 26.5657V31.249C16.4833 35.149 13.1833 38.449 9.28334 38.449Z" fill="#FCD535"/>
</svg>