<svg xmlns:xlink="http://www.w3.org/1999/xlink" xmlns="http://www.w3.org/2000/svg" width="403" height="288" viewBox="0 0 403 288" fill="none">
<g clip-path="url(#clip0_189_12601)">
<path d="M190.356 202.004L183.599 262.656H262.012L251.798 202.004H190.356Z" fill="url(#paint0_linear_189_12601)"/>
<path d="M58.6348 52.5669V191.479C58.6348 202.905 67.7352 212.251 79.1526 212.544C129.858 213.852 307.204 217.026 355.474 216.314C363.77 216.193 370.491 209.548 370.731 201.251C371.66 168.979 373.173 91.3773 367.579 55.3503C366.4 47.7631 360.001 42.0897 352.331 41.845C309.845 40.4836 121.847 36.1668 73.5988 37.2496C65.2779 37.4386 58.6348 44.2384 58.6348 52.5669Z" fill="url(#paint1_linear_189_12601)"/>
<path d="M67.3457 51.8912V183.867C67.3457 190.539 72.6985 195.975 79.3659 196.076L348.531 199.405C355.14 199.504 360.558 194.182 360.582 187.569L361.032 56.7724C361.049 52.0438 357.285 48.1678 352.559 48.0515L76.986 42.4774C71.701 42.3491 67.3481 46.6005 67.3481 51.8912H67.3457Z" fill="url(#paint2_linear_189_12601)"/>
<path opacity="0.1" d="M73.8359 59.51V175.878C73.8359 181.699 78.8571 186.467 85.1129 186.585L338.621 190.834C344.87 190.953 350.104 186.326 350.264 180.532L353.43 64.791C353.546 60.5637 350.026 57.0851 345.509 56.9664L82.9848 51.15C77.9686 51.0192 73.8359 54.7958 73.8359 59.51Z" fill="white"/>
<path opacity="0.65" d="M362.608 204.851H362.601L67.3384 199.817C67.1108 199.812 66.9292 199.626 66.9317 199.395C66.9365 199.17 67.1205 198.989 67.3457 198.989H67.3529L362.616 204.022C362.843 204.027 363.025 204.214 363.022 204.444C363.018 204.669 362.834 204.851 362.608 204.851Z" fill="white"/>
<path d="M278.903 275.066H164.139C161.021 275.066 158.68 272.845 159.283 270.459L160.755 264.63C161.198 262.879 163.125 261.59 165.412 261.52L276.049 258.065C278.441 257.99 280.557 259.259 281.077 261.081L283.733 270.364C284.423 272.774 282.07 275.064 278.903 275.064V275.066Z" fill="url(#paint3_linear_189_12601)"/>
<path d="M225.917 263.14C225.692 263.14 225.508 262.959 225.503 262.733C225.501 262.506 225.682 262.317 225.91 262.314L230.65 262.246C230.875 262.246 231.066 262.426 231.069 262.653C231.071 262.881 230.89 263.07 230.662 263.072L225.922 263.14H225.915H225.917Z" fill="white"/>
<path d="M163.531 271.893C163.509 271.893 163.487 271.893 163.465 271.888C163.24 271.851 163.085 271.641 163.121 271.415L163.797 267.176C164.163 264.88 166.116 263.189 168.44 263.155L218.724 262.418C218.935 262.409 219.141 262.598 219.143 262.825C219.145 263.053 218.964 263.242 218.736 263.244L168.452 263.981C166.53 264.01 164.918 265.408 164.613 267.307L163.937 271.546C163.906 271.75 163.729 271.895 163.531 271.895V271.893Z" fill="white"/>
</g>
<path d="M71.0002 97.8926C70.9027 97.8926 70.8092 97.8538 70.7403 97.7849C70.6713 97.7159 70.6326 97.6224 70.6326 97.5249L70.4414 84.3816C70.4414 84.2841 70.4801 84.1905 70.5491 84.1216C70.618 84.0527 70.7115 84.0139 70.8091 84.0139C70.9066 84.0139 71.0001 84.0527 71.069 84.1216C71.138 84.1905 71.1767 84.2841 71.1767 84.3816L71.3679 97.5359C71.3679 97.6335 71.3291 97.727 71.2602 97.7959C71.1912 97.8649 71.0977 97.9036 71.0002 97.9036V97.8926Z" fill="white"/>
<g opacity="0.55">
<path d="M85.8594 23.7791C85.8064 23.7786 85.7539 23.7886 85.7049 23.8085C85.6558 23.8284 85.6112 23.8579 85.5736 23.8951C85.536 23.9324 85.5062 23.9767 85.4858 24.0256C85.4654 24.0745 85.455 24.1269 85.455 24.1798V99.9149C85.4496 99.971 85.456 100.028 85.4738 100.081C85.4916 100.135 85.5204 100.184 85.5583 100.225C85.5962 100.267 85.6424 100.3 85.6939 100.323C85.7455 100.346 85.8012 100.358 85.8575 100.358C85.9139 100.358 85.9696 100.346 86.0212 100.323C86.0727 100.3 86.1189 100.267 86.1568 100.225C86.1947 100.184 86.2235 100.135 86.2413 100.081C86.2591 100.028 86.2655 99.971 86.2601 99.9149V24.1798C86.2601 24.0735 86.2179 23.9716 86.1427 23.8964C86.0676 23.8213 85.9657 23.7791 85.8594 23.7791Z" fill="white"/>
<path d="M86.6244 37.5989H85.095C83.6392 37.5989 82.459 38.7791 82.459 40.2349V86.6098C82.459 88.0656 83.6392 89.2458 85.095 89.2458H86.6244C88.0803 89.2458 89.2604 88.0656 89.2604 86.6098V40.2349C89.2604 38.7791 88.0803 37.5989 86.6244 37.5989Z" fill="white"/>
<path d="M98.1721 77.5833C98.0658 77.5833 97.9639 77.6255 97.8887 77.7006C97.8136 77.7758 97.7714 77.8777 97.7714 77.984V130.557C97.766 130.614 97.7724 130.67 97.7902 130.724C97.808 130.777 97.8368 130.826 97.8747 130.868C97.9126 130.91 97.9588 130.943 98.0103 130.966C98.0619 130.989 98.1176 131 98.1739 131C98.2303 131 98.286 130.989 98.3376 130.966C98.3891 130.943 98.4353 130.91 98.4732 130.868C98.5111 130.826 98.5399 130.777 98.5577 130.724C98.5755 130.67 98.5819 130.614 98.5765 130.557V77.984C98.5765 77.9311 98.566 77.8786 98.5457 77.8298C98.5253 77.7809 98.4954 77.7366 98.4578 77.6993C98.4202 77.6621 98.3756 77.6326 98.3266 77.6127C98.2775 77.5928 98.225 77.5828 98.1721 77.5833Z" fill="white"/>
<path d="M98.9398 87.3013H97.4104C95.9546 87.3013 94.7744 88.4815 94.7744 89.9373V120.518C94.7744 121.974 95.9546 123.154 97.4104 123.154H98.9398C100.396 123.154 101.576 121.974 101.576 120.518V89.9373C101.576 88.4815 100.396 87.3013 98.9398 87.3013Z" fill="white"/>
<path d="M110.488 101.039C110.435 101.039 110.383 101.049 110.334 101.069C110.285 101.089 110.24 101.118 110.203 101.155C110.165 101.193 110.135 101.237 110.115 101.286C110.094 101.335 110.084 101.387 110.084 101.44V154.815C110.094 154.915 110.14 155.008 110.215 155.076C110.289 155.143 110.386 155.181 110.487 155.181C110.587 155.181 110.684 155.143 110.759 155.076C110.833 155.008 110.88 154.915 110.889 154.815V101.44C110.889 101.334 110.847 101.232 110.772 101.157C110.697 101.082 110.595 101.039 110.488 101.039Z" fill="white"/>
<path d="M111.254 131.33H109.725C108.269 131.33 107.089 132.51 107.089 133.966V144.664C107.089 146.12 108.269 147.3 109.725 147.3H111.254C112.71 147.3 113.89 146.12 113.89 144.664V133.966C113.89 132.51 112.71 131.33 111.254 131.33Z" fill="white"/>
<path d="M122.801 93.022C122.748 93.022 122.696 93.0325 122.647 93.0528C122.598 93.0732 122.554 93.103 122.516 93.1406C122.479 93.1782 122.45 93.2229 122.43 93.2719C122.41 93.3209 122.4 93.3735 122.4 93.4264V132.941C122.395 132.997 122.401 133.054 122.419 133.107C122.437 133.161 122.466 133.21 122.504 133.252C122.541 133.293 122.588 133.327 122.639 133.349C122.691 133.372 122.746 133.384 122.803 133.384C122.859 133.384 122.915 133.372 122.966 133.349C123.018 133.327 123.064 133.293 123.102 133.252C123.14 133.21 123.169 133.161 123.187 133.107C123.204 133.054 123.211 132.997 123.205 132.941V93.4264C123.205 93.3191 123.163 93.2163 123.087 93.1404C123.011 93.0646 122.908 93.022 122.801 93.022Z" fill="white"/>
<path d="M123.569 100.426H122.039C120.584 100.426 119.403 101.606 119.403 103.062V124.742C119.403 126.198 120.584 127.378 122.039 127.378H123.569C125.025 127.378 126.205 126.198 126.205 124.742V103.062C126.205 101.606 125.025 100.426 123.569 100.426Z" fill="white"/>
<path d="M135.116 66.7344C135.009 66.7344 134.906 66.777 134.83 66.8528C134.754 66.9287 134.712 67.0315 134.712 67.1388V108.495C134.706 108.551 134.713 108.608 134.731 108.661C134.748 108.715 134.777 108.764 134.815 108.806C134.853 108.848 134.899 108.881 134.951 108.904C135.002 108.926 135.058 108.938 135.114 108.938C135.171 108.938 135.226 108.926 135.278 108.904C135.33 108.881 135.376 108.848 135.414 108.806C135.452 108.764 135.48 108.715 135.498 108.661C135.516 108.608 135.522 108.551 135.517 108.495V67.1425C135.518 67.0892 135.508 67.0363 135.489 66.9869C135.469 66.9374 135.44 66.8923 135.402 66.8543C135.365 66.8163 135.32 66.7862 135.271 66.7656C135.222 66.745 135.169 66.7344 135.116 66.7344Z" fill="white"/>
<path d="M135.883 74.4702H134.354C132.898 74.4702 131.718 75.6504 131.718 77.1062V100.04C131.718 101.496 132.898 102.676 134.354 102.676H135.883C137.339 102.676 138.519 101.496 138.519 100.04V77.1062C138.519 75.6504 137.339 74.4702 135.883 74.4702Z" fill="white"/>
<path d="M233.62 74.9077C233.514 74.9077 233.412 74.9499 233.337 75.0251C233.262 75.1002 233.22 75.2022 233.22 75.3084V122.86C233.22 122.966 233.262 123.068 233.337 123.143C233.412 123.218 233.514 123.261 233.62 123.261C233.727 123.261 233.829 123.218 233.904 123.143C233.979 123.068 234.021 122.966 234.021 122.86V75.3084C234.021 75.2022 233.979 75.1002 233.904 75.0251C233.829 74.9499 233.727 74.9077 233.62 74.9077Z" fill="white"/>
<path d="M234.386 83.7351H232.857C231.401 83.7351 230.221 84.9153 230.221 86.3711V113.529C230.221 114.985 231.401 116.165 232.857 116.165H234.386C235.842 116.165 237.022 114.985 237.022 113.529V86.3711C237.022 84.9153 235.842 83.7351 234.386 83.7351Z" fill="white"/>
<path d="M245.933 45.6282C245.88 45.6282 245.827 45.6387 245.779 45.659C245.73 45.6794 245.685 45.7092 245.648 45.7468C245.611 45.7844 245.581 45.8291 245.562 45.8781C245.542 45.9271 245.532 45.9797 245.532 46.0326V98.606C245.527 98.6621 245.533 98.7187 245.551 98.7722C245.569 98.8257 245.598 98.8748 245.635 98.9165C245.673 98.9582 245.72 98.9915 245.771 99.0143C245.823 99.0372 245.878 99.0489 245.935 99.0489C245.991 99.0489 246.047 99.0372 246.098 99.0143C246.15 98.9915 246.196 98.9582 246.234 98.9165C246.272 98.8748 246.301 98.8257 246.318 98.7722C246.336 98.7187 246.343 98.6621 246.337 98.606V46.0326C246.337 45.9253 246.295 45.8225 246.219 45.7466C246.143 45.6708 246.04 45.6282 245.933 45.6282Z" fill="white"/>
<path d="M246.702 55.3452H245.172C243.716 55.3452 242.536 56.5254 242.536 57.9812V88.5621C242.536 90.0179 243.716 91.1981 245.172 91.1981H246.702C248.157 91.1981 249.338 90.0179 249.338 88.5621V57.9812C249.338 56.5254 248.157 55.3452 246.702 55.3452Z" fill="white"/>
<path d="M258.25 34.062C258.144 34.062 258.042 34.1042 257.967 34.1794C257.892 34.2545 257.85 34.3565 257.85 34.4627V57.437C257.85 57.5432 257.892 57.6452 257.967 57.7203C258.042 57.7955 258.144 57.8377 258.25 57.8377C258.357 57.8377 258.459 57.7955 258.534 57.7203C258.609 57.6452 258.651 57.5432 258.651 57.437V34.4627C258.651 34.3565 258.609 34.2545 258.534 34.1794C258.459 34.1042 258.357 34.062 258.25 34.062Z" fill="white"/>
<path d="M259.014 47.3306H257.485C256.029 47.3306 254.849 48.5108 254.849 49.9666V51.5695C254.849 53.0254 256.029 54.2056 257.485 54.2056H259.014C260.47 54.2056 261.65 53.0254 261.65 51.5695V49.9666C261.65 48.5108 260.47 47.3306 259.014 47.3306Z" fill="white"/>
<path d="M270.563 12.2385C270.51 12.2385 270.457 12.249 270.409 12.2694C270.36 12.2897 270.315 12.3196 270.278 12.3572C270.241 12.3948 270.211 12.4394 270.191 12.4884C270.172 12.5375 270.162 12.59 270.162 12.6429V52.1576C270.157 52.2137 270.163 52.2703 270.181 52.3237C270.199 52.3772 270.227 52.4264 270.265 52.4681C270.303 52.5098 270.349 52.5431 270.401 52.5659C270.452 52.5887 270.508 52.6005 270.565 52.6005C270.621 52.6005 270.677 52.5887 270.728 52.5659C270.78 52.5431 270.826 52.5098 270.864 52.4681C270.902 52.4264 270.931 52.3772 270.948 52.3237C270.966 52.2703 270.973 52.2137 270.967 52.1576V12.6429C270.967 12.5357 270.925 12.4328 270.849 12.357C270.773 12.2811 270.67 12.2385 270.563 12.2385Z" fill="white"/>
<path d="M271.331 19.6433H269.802C268.346 19.6433 267.166 20.8235 267.166 22.2793V43.9594C267.166 45.4153 268.346 46.5955 269.802 46.5955H271.331C272.787 46.5955 273.967 45.4153 273.967 43.9594V22.2793C273.967 20.8235 272.787 19.6433 271.331 19.6433Z" fill="white"/>
<path d="M282.877 38.6206C282.771 38.6206 282.669 38.6628 282.594 38.738C282.519 38.8131 282.477 38.9151 282.477 39.0213V80.3742C282.477 80.4268 282.487 80.4789 282.507 80.5275C282.527 80.5762 282.557 80.6203 282.594 80.6576C282.631 80.6948 282.675 80.7243 282.724 80.7444C282.773 80.7646 282.825 80.7749 282.877 80.7749C282.93 80.7749 282.982 80.7646 283.031 80.7444C283.079 80.7243 283.123 80.6948 283.161 80.6576C283.198 80.6203 283.227 80.5762 283.248 80.5275C283.268 80.4789 283.278 80.4268 283.278 80.3742V39.0213C283.278 38.9151 283.236 38.8131 283.161 38.738C283.086 38.6628 282.984 38.6206 282.877 38.6206Z" fill="white"/>
<path d="M283.643 46.3491H282.114C280.658 46.3491 279.478 47.5293 279.478 48.9851V71.9189C279.478 73.3748 280.658 74.5549 282.114 74.5549H283.643C285.099 74.5549 286.279 73.3748 286.279 71.9189V48.9851C286.279 47.5293 285.099 46.3491 283.643 46.3491Z" fill="white"/>
<path d="M147.43 66.3674C147.377 66.3674 147.325 66.3779 147.276 66.3983C147.227 66.4187 147.183 66.4485 147.145 66.4861C147.108 66.5237 147.079 66.5683 147.059 66.6174C147.039 66.6664 147.029 66.7189 147.029 66.7718V82.213C147.024 82.2691 147.03 82.3257 147.048 82.3792C147.066 82.4326 147.095 82.4818 147.132 82.5235C147.17 82.5652 147.217 82.5985 147.268 82.6213C147.32 82.6441 147.375 82.6559 147.432 82.6559C147.488 82.6559 147.544 82.6441 147.595 82.6213C147.647 82.5985 147.693 82.5652 147.731 82.5235C147.769 82.4818 147.798 82.4326 147.815 82.3792C147.833 82.3257 147.84 82.2691 147.834 82.213V66.7718C147.834 66.6646 147.792 66.5617 147.716 66.4859C147.64 66.41 147.537 66.3674 147.43 66.3674Z" fill="white"/>
<path d="M148.416 69.5107H146.452C145.116 69.5107 144.033 70.5938 144.033 71.9299V72.4446C144.033 73.7806 145.116 74.8637 146.452 74.8637H148.416C149.752 74.8637 150.835 73.7806 150.835 72.4446V71.9299C150.835 70.5938 149.752 69.5107 148.416 69.5107Z" fill="white"/>
<path d="M159.745 47.9854C159.638 47.9854 159.535 48.028 159.459 48.1038C159.383 48.1796 159.341 48.2825 159.341 48.3898V75.5956C159.35 75.6957 159.397 75.7887 159.471 75.8563C159.546 75.924 159.643 75.9615 159.743 75.9615C159.844 75.9615 159.941 75.924 160.015 75.8563C160.09 75.7887 160.136 75.6957 160.146 75.5956V48.3898C160.146 48.3368 160.136 48.2843 160.117 48.2353C160.097 48.1862 160.067 48.1416 160.03 48.104C159.993 48.0664 159.948 48.0366 159.899 48.0162C159.851 47.9958 159.798 47.9853 159.745 47.9854Z" fill="white"/>
<path d="M160.202 53.2163H159.29C157.834 53.2163 156.654 54.3965 156.654 55.8523V67.4479C156.654 68.9037 157.834 70.0839 159.29 70.0839H160.202C161.658 70.0839 162.838 68.9037 162.838 67.4479V55.8523C162.838 54.3965 161.658 53.2163 160.202 53.2163Z" fill="white"/>
<path d="M172.06 57C171.954 57 171.852 57.0422 171.777 57.1174C171.701 57.1925 171.659 57.2945 171.659 57.4008V123.945C171.669 124.045 171.715 124.138 171.79 124.206C171.864 124.273 171.961 124.311 172.062 124.311C172.162 124.311 172.259 124.273 172.334 124.206C172.408 124.138 172.455 124.045 172.464 123.945V57.4008C172.464 57.3478 172.454 57.2954 172.433 57.2465C172.413 57.1977 172.383 57.1533 172.346 57.1161C172.308 57.0788 172.263 57.0494 172.214 57.0295C172.165 57.0095 172.113 56.9995 172.06 57Z" fill="white"/>
<path d="M172.827 69.1907H171.297C169.841 69.1907 168.661 70.3709 168.661 71.8267V102.551C168.661 104.007 169.841 105.187 171.297 105.187H172.827C174.282 105.187 175.463 104.007 175.463 102.551V71.8267C175.463 70.3709 174.282 69.1907 172.827 69.1907Z" fill="white"/>
<path d="M184.375 91.9185C184.268 91.9185 184.165 91.9611 184.089 92.0369C184.013 92.1127 183.971 92.2156 183.971 92.3229V132.94C183.965 132.997 183.972 133.053 183.989 133.107C184.007 133.16 184.036 133.209 184.074 133.251C184.112 133.293 184.158 133.326 184.21 133.349C184.261 133.372 184.317 133.383 184.373 133.383C184.43 133.383 184.485 133.372 184.537 133.349C184.588 133.326 184.635 133.293 184.672 133.251C184.71 133.209 184.739 133.16 184.757 133.107C184.775 133.053 184.781 132.997 184.776 132.94V92.3229C184.776 92.2699 184.766 92.2174 184.746 92.1684C184.726 92.1193 184.697 92.0747 184.66 92.0371C184.622 91.9995 184.578 91.9697 184.529 91.9493C184.48 91.9289 184.428 91.9185 184.375 91.9185Z" fill="white"/>
<path d="M185.14 104.664H183.611C182.155 104.664 180.975 105.844 180.975 107.3V124.605C180.975 126.061 182.155 127.241 183.611 127.241H185.14C186.596 127.241 187.776 126.061 187.776 124.605V107.3C187.776 105.844 186.596 104.664 185.14 104.664Z" fill="white"/>
<path d="M196.687 74.4546C196.634 74.4546 196.581 74.4651 196.533 74.4854C196.484 74.5058 196.439 74.5357 196.402 74.5733C196.365 74.6109 196.335 74.6555 196.315 74.7045C196.296 74.7536 196.286 74.8061 196.286 74.859V150.594C196.281 150.65 196.287 150.707 196.305 150.76C196.323 150.814 196.351 150.863 196.389 150.905C196.427 150.946 196.473 150.98 196.525 151.002C196.577 151.025 196.632 151.037 196.689 151.037C196.745 151.037 196.801 151.025 196.852 151.002C196.904 150.98 196.95 150.946 196.988 150.905C197.026 150.863 197.055 150.814 197.072 150.76C197.09 150.707 197.097 150.65 197.091 150.594V74.859C197.091 74.7517 197.049 74.6489 196.973 74.573C196.897 74.4972 196.794 74.4546 196.687 74.4546Z" fill="white"/>
<path d="M197.455 88.2788H195.926C194.47 88.2788 193.29 89.459 193.29 90.9148V137.29C193.29 138.746 194.47 139.926 195.926 139.926H197.455C198.911 139.926 200.091 138.746 200.091 137.29V90.9148C200.091 89.459 198.911 88.2788 197.455 88.2788Z" fill="white"/>
<path d="M209.002 127.764C208.949 127.763 208.897 127.773 208.848 127.793C208.799 127.813 208.754 127.842 208.716 127.88C208.679 127.917 208.649 127.961 208.629 128.01C208.608 128.059 208.598 128.111 208.598 128.164V161.065C208.607 161.165 208.654 161.258 208.728 161.326C208.803 161.393 208.9 161.431 209 161.431C209.101 161.431 209.198 161.393 209.272 161.326C209.347 161.258 209.393 161.165 209.403 161.065V128.161C209.402 128.055 209.359 127.954 209.284 127.88C209.209 127.805 209.108 127.764 209.002 127.764Z" fill="white"/>
<path d="M209.724 140.849H208.195C206.739 140.849 205.559 142.029 205.559 143.485V155.121C205.559 156.576 206.739 157.757 208.195 157.757H209.724C211.18 157.757 212.36 156.576 212.36 155.121V143.485C212.36 142.029 211.18 140.849 209.724 140.849Z" fill="white"/>
<path d="M295.661 66.7344C295.554 66.7344 295.451 66.777 295.375 66.8528C295.299 66.9287 295.257 67.0315 295.257 67.1388V108.495C295.251 108.551 295.258 108.608 295.276 108.661C295.293 108.715 295.322 108.764 295.36 108.806C295.398 108.848 295.444 108.881 295.496 108.904C295.547 108.926 295.603 108.938 295.659 108.938C295.716 108.938 295.771 108.926 295.823 108.904C295.874 108.881 295.921 108.848 295.959 108.806C295.996 108.764 296.025 108.715 296.043 108.661C296.061 108.608 296.067 108.551 296.062 108.495V67.1425C296.063 67.0892 296.053 67.0363 296.034 66.9869C296.014 66.9374 295.984 66.8923 295.947 66.8543C295.91 66.8163 295.865 66.7862 295.816 66.7656C295.767 66.745 295.714 66.7344 295.661 66.7344Z" fill="white"/>
<path d="M296.425 74.4702H294.896C293.44 74.4702 292.26 75.6504 292.26 77.1062V100.04C292.26 101.496 293.44 102.676 294.896 102.676H296.425C297.881 102.676 299.061 101.496 299.061 100.04V77.1062C299.061 75.6504 297.881 74.4702 296.425 74.4702Z" fill="white"/>
<path d="M307.973 66.3674C307.92 66.3674 307.868 66.3779 307.819 66.3983C307.77 66.4187 307.725 66.4485 307.688 66.4861C307.651 66.5237 307.622 66.5683 307.602 66.6174C307.582 66.6664 307.572 66.7189 307.572 66.7718V82.213C307.567 82.2691 307.573 82.3257 307.591 82.3792C307.609 82.4326 307.638 82.4818 307.675 82.5235C307.713 82.5652 307.76 82.5985 307.811 82.6213C307.863 82.6441 307.918 82.6559 307.975 82.6559C308.031 82.6559 308.087 82.6441 308.138 82.6213C308.19 82.5985 308.236 82.5652 308.274 82.5235C308.312 82.4818 308.341 82.4326 308.358 82.3792C308.376 82.3257 308.383 82.2691 308.377 82.213V66.7718C308.377 66.6646 308.335 66.5617 308.259 66.4859C308.183 66.41 308.08 66.3674 307.973 66.3674Z" fill="white"/>
<path d="M308.959 69.5107H306.995C305.659 69.5107 304.576 70.5938 304.576 71.9299V72.4446C304.576 73.7806 305.659 74.8637 306.995 74.8637H308.959C310.295 74.8637 311.378 73.7806 311.378 72.4446V71.9299C311.378 70.5938 310.295 69.5107 308.959 69.5107Z" fill="white"/>
<path d="M320.289 47.9854C320.182 47.9854 320.079 48.028 320.003 48.1038C319.927 48.1796 319.885 48.2825 319.885 48.3898V75.5956C319.894 75.6957 319.941 75.7887 320.015 75.8563C320.09 75.924 320.187 75.9615 320.287 75.9615C320.388 75.9615 320.485 75.924 320.559 75.8563C320.634 75.7887 320.68 75.6957 320.69 75.5956V48.3898C320.69 48.3368 320.68 48.2843 320.66 48.2353C320.641 48.1862 320.611 48.1416 320.574 48.104C320.537 48.0664 320.492 48.0366 320.443 48.0162C320.395 47.9958 320.342 47.9853 320.289 47.9854Z" fill="white"/>
<path d="M320.746 53.2163H319.834C318.378 53.2163 317.198 54.3965 317.198 55.8523V67.4479C317.198 68.9037 318.378 70.0839 319.834 70.0839H320.746C322.202 70.0839 323.382 68.9037 323.382 67.4479V55.8523C323.382 54.3965 322.202 53.2163 320.746 53.2163Z" fill="white"/>
<path d="M332.603 57C332.497 57 332.395 57.0422 332.32 57.1174C332.244 57.1925 332.202 57.2945 332.202 57.4008V123.945C332.212 124.045 332.258 124.138 332.333 124.206C332.407 124.273 332.504 124.311 332.605 124.311C332.705 124.311 332.802 124.273 332.877 124.206C332.951 124.138 332.998 124.045 333.007 123.945V57.4008C333.007 57.3478 332.997 57.2954 332.976 57.2465C332.956 57.1977 332.926 57.1533 332.889 57.1161C332.851 57.0788 332.806 57.0494 332.757 57.0295C332.708 57.0095 332.656 56.9995 332.603 57Z" fill="white"/>
<path d="M333.371 69.1907H331.841C330.385 69.1907 329.205 70.3709 329.205 71.8267V102.551C329.205 104.007 330.385 105.187 331.841 105.187H333.371C334.826 105.187 336.007 104.007 336.007 102.551V71.8267C336.007 70.3709 334.826 69.1907 333.371 69.1907Z" fill="white"/>
<path d="M344.918 91.9185C344.811 91.9185 344.708 91.9611 344.632 92.0369C344.556 92.1127 344.514 92.2156 344.514 92.3229V132.94C344.508 132.997 344.515 133.053 344.532 133.107C344.55 133.16 344.579 133.209 344.617 133.251C344.655 133.293 344.701 133.326 344.753 133.349C344.804 133.372 344.86 133.383 344.916 133.383C344.972 133.383 345.028 133.372 345.08 133.349C345.131 133.326 345.178 133.293 345.215 133.251C345.253 133.209 345.282 133.16 345.3 133.107C345.318 133.053 345.324 132.997 345.319 132.94V92.3229C345.319 92.2699 345.309 92.2174 345.289 92.1684C345.269 92.1193 345.24 92.0747 345.203 92.0371C345.165 91.9995 345.121 91.9697 345.072 91.9493C345.023 91.9289 344.971 91.9185 344.918 91.9185Z" fill="white"/>
<path d="M345.683 104.664H344.154C342.698 104.664 341.518 105.844 341.518 107.3V124.605C341.518 126.061 342.698 127.241 344.154 127.241H345.683C347.139 127.241 348.319 126.061 348.319 124.605V107.3C348.319 105.844 347.139 104.664 345.683 104.664Z" fill="white"/>
<path d="M357.232 74.4546C357.179 74.4546 357.126 74.4651 357.077 74.4854C357.029 74.5058 356.984 74.5357 356.947 74.5733C356.91 74.6109 356.88 74.6555 356.86 74.7045C356.84 74.7536 356.83 74.8061 356.831 74.859V150.594C356.826 150.65 356.832 150.707 356.85 150.76C356.868 150.814 356.896 150.863 356.934 150.905C356.972 150.946 357.018 150.98 357.07 151.002C357.121 151.025 357.177 151.037 357.234 151.037C357.29 151.037 357.346 151.025 357.397 151.002C357.449 150.98 357.495 150.946 357.533 150.905C357.571 150.863 357.599 150.814 357.617 150.76C357.635 150.707 357.641 150.65 357.636 150.594V74.859C357.636 74.7517 357.593 74.6489 357.518 74.573C357.442 74.4972 357.339 74.4546 357.232 74.4546Z" fill="white"/>
<path d="M358 88.2788H356.471C355.015 88.2788 353.835 89.459 353.835 90.9148V137.29C353.835 138.746 355.015 139.926 356.471 139.926H358C359.456 139.926 360.636 138.746 360.636 137.29V90.9148C360.636 89.459 359.456 88.2788 358 88.2788Z" fill="white"/>
<path d="M369.547 127.764C369.494 127.763 369.442 127.773 369.392 127.793C369.343 127.813 369.299 127.842 369.261 127.88C369.224 127.917 369.194 127.961 369.173 128.01C369.153 128.059 369.143 128.111 369.143 128.164V161.065C369.152 161.165 369.199 161.258 369.273 161.326C369.348 161.393 369.445 161.431 369.545 161.431C369.646 161.431 369.743 161.393 369.817 161.326C369.892 161.258 369.938 161.165 369.948 161.065V128.161C369.947 128.055 369.904 127.954 369.829 127.88C369.754 127.805 369.653 127.764 369.547 127.764Z" fill="white"/>
<path d="M370.267 140.849H368.738C367.282 140.849 366.102 142.029 366.102 143.485V155.121C366.102 156.576 367.282 157.757 368.738 157.757H370.267C371.723 157.757 372.903 156.576 372.903 155.121V143.485C372.903 142.029 371.723 140.849 370.267 140.849Z" fill="white"/>
<path d="M221.316 105.297C221.263 105.297 221.21 105.308 221.162 105.328C221.113 105.348 221.068 105.378 221.031 105.416C220.994 105.453 220.964 105.498 220.944 105.547C220.925 105.596 220.915 105.649 220.915 105.702V155.337C220.925 155.438 220.971 155.531 221.046 155.598C221.12 155.666 221.217 155.703 221.318 155.703C221.418 155.703 221.515 155.666 221.59 155.598C221.664 155.531 221.711 155.438 221.72 155.337V105.705C221.721 105.652 221.711 105.599 221.69 105.549C221.67 105.5 221.641 105.455 221.603 105.417C221.565 105.379 221.521 105.349 221.471 105.328C221.422 105.308 221.369 105.297 221.316 105.297Z" fill="white"/>
<path d="M222.084 114.492H220.555C219.099 114.492 217.919 115.672 217.919 117.128V145.702C217.919 147.158 219.099 148.338 220.555 148.338H222.084C223.54 148.338 224.72 147.158 224.72 145.702V117.128C224.72 115.672 223.54 114.492 222.084 114.492Z" fill="white"/>
</g>
<path d="M36.2424 175.801C36.1065 175.8 35.9765 175.745 35.8808 175.649C35.785 175.552 35.7313 175.422 35.7313 175.286V78.6172C35.7253 78.5462 35.7341 78.4748 35.7571 78.4073C35.7802 78.3399 35.817 78.278 35.8652 78.2255C35.9134 78.1731 35.972 78.1312 36.0372 78.1025C36.1025 78.0739 36.1729 78.0591 36.2442 78.0591C36.3155 78.0591 36.3859 78.0739 36.4512 78.1025C36.5164 78.1312 36.575 78.1731 36.6232 78.2255C36.6714 78.278 36.7082 78.3399 36.7312 78.4073C36.7543 78.4748 36.7631 78.5462 36.7571 78.6172V175.286C36.7571 175.423 36.7028 175.554 36.6063 175.65C36.5098 175.747 36.3789 175.801 36.2424 175.801Z" fill="url(#paint4_linear_189_12601)"/>
<path d="M37.9484 92.2229H34.5403C33.0845 92.2229 31.9043 93.4031 31.9043 94.8589V155.521C31.9043 156.976 33.0845 158.157 34.5403 158.157H37.9484C39.4042 158.157 40.5844 156.976 40.5844 155.521V94.8589C40.5844 93.4031 39.4042 92.2229 37.9484 92.2229Z" fill="#4ADA85"/>
<path d="M51.9631 107.11C51.8275 107.11 51.6975 107.056 51.6017 106.96C51.5059 106.864 51.452 106.735 51.452 106.599V39.4925C51.446 39.4215 51.4548 39.35 51.4779 39.2826C51.5009 39.2152 51.5377 39.1533 51.5859 39.1008C51.6341 39.0483 51.6927 39.0064 51.7579 38.9778C51.8232 38.9491 51.8936 38.9343 51.9649 38.9343C52.0362 38.9343 52.1066 38.9491 52.1719 38.9778C52.2371 39.0064 52.2957 39.0483 52.3439 39.1008C52.3921 39.1533 52.4289 39.2152 52.4519 39.2826C52.475 39.35 52.4838 39.4215 52.4778 39.4925V106.599C52.4778 106.666 52.4644 106.733 52.4385 106.795C52.4126 106.858 52.3746 106.914 52.3268 106.962C52.2789 107.009 52.2222 107.047 52.1598 107.072C52.0973 107.098 52.0305 107.11 51.9631 107.11Z" fill="url(#paint5_linear_189_12601)"/>
<path d="M53.6691 48.9365H50.261C48.8052 48.9365 47.625 50.1167 47.625 51.5726V92.0688C47.625 93.5246 48.8052 94.7048 50.261 94.7048H53.6691C55.1249 94.7048 56.3051 93.5246 56.3051 92.0688V51.5726C56.3051 50.1167 55.1249 48.9365 53.6691 48.9365Z" fill="#4ADA85"/>
<path d="M67.6838 77.1685C67.5479 77.1675 67.4179 77.1128 67.3222 77.0164C67.2265 76.92 67.1727 76.7896 67.1727 76.6538V8.51788C67.1667 8.44688 67.1755 8.3754 67.1986 8.30798C67.2216 8.24055 67.2584 8.17864 67.3066 8.12617C67.3548 8.0737 67.4134 8.03182 67.4786 8.00316C67.5439 7.97451 67.6143 7.95972 67.6856 7.95972C67.7569 7.95972 67.8273 7.97451 67.8926 8.00316C67.9578 8.03182 68.0164 8.0737 68.0646 8.12617C68.1128 8.17864 68.1496 8.24055 68.1727 8.30798C68.1957 8.3754 68.2045 8.44688 68.1985 8.51788V76.6611C68.1965 76.7964 68.1415 76.9254 68.0451 77.0203C67.9488 77.1153 67.819 77.1685 67.6838 77.1685Z" fill="url(#paint6_linear_189_12601)"/>
<path d="M69.3888 18.1096H65.9808C64.5249 18.1096 63.3447 19.2898 63.3447 20.7456V35.8633C63.3447 37.3191 64.5249 38.4993 65.9808 38.4993H69.3888C70.8447 38.4993 72.0249 37.3191 72.0249 35.8633V20.7456C72.0249 19.2898 70.8447 18.1096 69.3888 18.1096Z" fill="#4ADA85"/>
<path d="M83.4045 87.4002C83.2689 87.4002 83.139 87.3464 83.0431 87.2505C82.9473 87.1547 82.8934 87.0247 82.8934 86.8892V36.4407C82.8874 36.3697 82.8962 36.2983 82.9193 36.2308C82.9423 36.1634 82.9791 36.1015 83.0273 36.049C83.0755 35.9966 83.1341 35.9547 83.1993 35.926C83.2646 35.8974 83.3351 35.8826 83.4063 35.8826C83.4776 35.8826 83.548 35.8974 83.6133 35.926C83.6785 35.9547 83.7371 35.9966 83.7853 36.049C83.8335 36.1015 83.8703 36.1634 83.8934 36.2308C83.9164 36.2983 83.9252 36.3697 83.9192 36.4407V86.8892C83.9192 86.9566 83.9058 87.0233 83.8799 87.0856C83.854 87.1478 83.816 87.2043 83.7682 87.2518C83.7204 87.2993 83.6636 87.3369 83.6012 87.3624C83.5387 87.3878 83.4719 87.4007 83.4045 87.4002Z" fill="url(#paint7_linear_189_12601)"/>
<path d="M85.1095 43.5435H81.7015C80.2456 43.5435 79.0654 44.7236 79.0654 46.1795V75.3154C79.0654 76.7713 80.2456 77.9515 81.7015 77.9515H85.1095C86.5654 77.9515 87.7456 76.7713 87.7456 75.3154V46.1795C87.7456 44.7236 86.5654 43.5435 85.1095 43.5435Z" fill="#4ADA85"/>
<path d="M99.1253 120.955C98.9894 120.954 98.8594 120.899 98.7637 120.802C98.668 120.706 98.6143 120.576 98.6143 120.44V67.6458C98.6251 67.5173 98.6839 67.3975 98.7789 67.3103C98.8739 67.223 98.9981 67.1746 99.1271 67.1746C99.2561 67.1746 99.3804 67.223 99.4754 67.3103C99.5703 67.3975 99.6291 67.5173 99.64 67.6458V120.44C99.64 120.576 99.5858 120.707 99.4892 120.804C99.3927 120.9 99.2618 120.955 99.1253 120.955Z" fill="url(#paint8_linear_189_12601)"/>
<path d="M100.83 75.0801H97.4222C95.9663 75.0801 94.7861 76.2603 94.7861 77.7161V108.451C94.7861 109.907 95.9663 111.087 97.4222 111.087H100.83C102.286 111.087 103.466 109.907 103.466 108.451V77.7161C103.466 76.2603 102.286 75.0801 100.83 75.0801Z" fill="#4ADA85"/>
<path d="M224.878 110.529C224.741 110.529 224.611 110.475 224.514 110.378C224.418 110.282 224.363 110.151 224.363 110.014V49.3121C224.363 49.2445 224.377 49.1776 224.402 49.1151C224.428 49.0527 224.466 48.9959 224.514 48.9481C224.562 48.9003 224.619 48.8624 224.681 48.8365C224.743 48.8107 224.81 48.7974 224.878 48.7974C224.946 48.7974 225.013 48.8107 225.075 48.8365C225.137 48.8624 225.194 48.9003 225.242 48.9481C225.29 48.9959 225.328 49.0527 225.354 49.1151C225.379 49.1776 225.393 49.2445 225.393 49.3121V110.014C225.393 110.151 225.338 110.282 225.242 110.378C225.145 110.475 225.015 110.529 224.878 110.529Z" fill="url(#paint9_linear_189_12601)"/>
<path d="M226.583 57.8557H223.175C221.719 57.8557 220.539 59.0359 220.539 60.4917V96.6203C220.539 98.0762 221.719 99.2564 223.175 99.2564H226.583C228.039 99.2564 229.219 98.0762 229.219 96.6203V60.4917C229.219 59.0359 228.039 57.8557 226.583 57.8557Z" fill="#4ADA85"/>
<path d="M240.598 147.907C240.461 147.907 240.33 147.853 240.234 147.756C240.137 147.66 240.083 147.529 240.083 147.392V80.2857C240.083 80.2181 240.096 80.1512 240.122 80.0887C240.148 80.0263 240.186 79.9695 240.234 79.9218C240.282 79.874 240.338 79.836 240.401 79.8102C240.463 79.7843 240.53 79.771 240.598 79.771C240.665 79.771 240.732 79.7843 240.795 79.8102C240.857 79.836 240.914 79.874 240.962 79.9218C241.009 79.9695 241.047 80.0263 241.073 80.0887C241.099 80.1512 241.112 80.2181 241.112 80.2857V147.392C241.112 147.529 241.058 147.66 240.962 147.756C240.865 147.853 240.734 147.907 240.598 147.907Z" fill="url(#paint10_linear_189_12601)"/>
<path d="M242.305 89.7346H238.897C237.441 89.7346 236.261 90.9148 236.261 92.3706V132.867C236.261 134.323 237.441 135.503 238.897 135.503H242.305C243.761 135.503 244.941 134.323 244.941 132.867V92.3706C244.941 90.9148 243.761 89.7346 242.305 89.7346Z" fill="#4ADA85"/>
<path d="M256.319 162.691C256.183 162.691 256.052 162.636 255.955 162.54C255.859 162.443 255.805 162.312 255.805 162.176V132.83C255.805 132.694 255.859 132.563 255.955 132.466C256.052 132.37 256.183 132.316 256.319 132.316C256.456 132.316 256.587 132.37 256.683 132.466C256.78 132.563 256.834 132.694 256.834 132.83V162.158C256.837 162.227 256.825 162.296 256.8 162.36C256.776 162.425 256.738 162.484 256.69 162.533C256.642 162.583 256.584 162.623 256.521 162.65C256.457 162.677 256.389 162.691 256.319 162.691Z" fill="url(#paint11_linear_189_12601)"/>
<path d="M258.025 136.959H254.617C253.161 136.959 251.98 138.139 251.98 139.595V143.098C251.98 144.554 253.161 145.734 254.617 145.734H258.025C259.48 145.734 260.661 144.554 260.661 143.098V139.595C260.661 138.139 259.48 136.959 258.025 136.959Z" fill="#4ADA85"/>
<path d="M272.04 190.529C271.904 190.529 271.774 190.475 271.677 190.379C271.581 190.284 271.526 190.154 271.525 190.018V139.569C271.525 139.433 271.58 139.302 271.676 139.205C271.773 139.109 271.904 139.055 272.04 139.055C272.177 139.055 272.308 139.109 272.404 139.205C272.501 139.302 272.555 139.433 272.555 139.569V190.018C272.554 190.154 272.499 190.284 272.403 190.379C272.306 190.475 272.176 190.529 272.04 190.529Z" fill="url(#paint12_linear_189_12601)"/>
<path d="M273.746 146.672H270.338C268.882 146.672 267.702 147.852 267.702 149.308V178.444C267.702 179.9 268.882 181.08 270.338 181.08H273.746C275.202 181.08 276.382 179.9 276.382 178.444V149.308C276.382 147.852 275.202 146.672 273.746 146.672Z" fill="#4ADA85"/>
<path d="M287.761 156.852C287.625 156.852 287.495 156.799 287.398 156.703C287.302 156.607 287.247 156.477 287.246 156.341V103.547C287.246 103.411 287.3 103.28 287.397 103.183C287.493 103.087 287.624 103.032 287.761 103.032C287.897 103.032 288.028 103.087 288.125 103.183C288.221 103.28 288.275 103.411 288.275 103.547V156.341C288.275 156.477 288.22 156.607 288.123 156.703C288.027 156.799 287.897 156.852 287.761 156.852Z" fill="url(#paint13_linear_189_12601)"/>
<path d="M289.467 110.978H286.059C284.603 110.978 283.423 112.158 283.423 113.614V144.349C283.423 145.805 284.603 146.985 286.059 146.985H289.467C290.923 146.985 292.103 145.805 292.103 144.349V113.614C292.103 112.158 290.923 110.978 289.467 110.978Z" fill="#4ADA85"/>
<path d="M114.845 121.422C114.709 121.422 114.579 121.368 114.484 121.272C114.388 121.176 114.334 121.046 114.334 120.911V101.201C114.328 101.13 114.337 101.059 114.36 100.991C114.383 100.924 114.42 100.862 114.468 100.81C114.516 100.757 114.575 100.715 114.64 100.687C114.705 100.658 114.775 100.643 114.847 100.643C114.918 100.643 114.988 100.658 115.054 100.687C115.119 100.715 115.178 100.757 115.226 100.81C115.274 100.862 115.311 100.924 115.334 100.991C115.357 101.059 115.366 101.13 115.36 101.201V120.911C115.36 120.978 115.346 121.045 115.32 121.107C115.294 121.169 115.256 121.226 115.209 121.273C115.161 121.321 115.104 121.358 115.042 121.384C114.979 121.409 114.912 121.422 114.845 121.422Z" fill="url(#paint14_linear_189_12601)"/>
<path d="M116.551 110.588H113.143C111.687 110.588 110.507 111.768 110.507 113.224V114.782C110.507 116.238 111.687 117.419 113.143 117.419H116.551C118.007 117.419 119.187 116.238 119.187 114.782V113.224C119.187 111.768 118.007 110.588 116.551 110.588Z" fill="#4ADA85"/>
<path d="M130.566 144.889C130.43 144.888 130.3 144.833 130.204 144.737C130.108 144.64 130.055 144.51 130.055 144.374V109.646C130.066 109.518 130.124 109.398 130.219 109.311C130.314 109.223 130.439 109.175 130.568 109.175C130.697 109.175 130.821 109.223 130.916 109.311C131.011 109.398 131.07 109.518 131.08 109.646V144.374C131.08 144.442 131.067 144.509 131.041 144.571C131.015 144.634 130.977 144.69 130.93 144.738C130.882 144.786 130.825 144.824 130.763 144.85C130.7 144.876 130.633 144.889 130.566 144.889Z" fill="url(#paint15_linear_189_12601)"/>
<path d="M131.879 116.686H129.258C127.802 116.686 126.622 117.866 126.622 119.322V135.583C126.622 137.039 127.802 138.219 129.258 138.219H131.879C133.335 138.219 134.515 137.039 134.515 135.583V119.322C134.515 117.866 133.335 116.686 131.879 116.686Z" fill="#4ADA85"/>
<path d="M146.286 133.389C146.151 133.389 146.021 133.335 145.925 133.239C145.829 133.143 145.775 133.013 145.775 132.878V47.9512C145.786 47.8227 145.845 47.703 145.94 47.6157C146.035 47.5284 146.159 47.48 146.288 47.48C146.417 47.48 146.542 47.5284 146.637 47.6157C146.731 47.703 146.79 47.8227 146.801 47.9512V132.878C146.801 132.945 146.788 133.012 146.762 133.074C146.736 133.136 146.698 133.193 146.65 133.24C146.602 133.288 146.546 133.325 146.483 133.351C146.421 133.376 146.354 133.389 146.286 133.389Z" fill="url(#paint16_linear_189_12601)"/>
<path d="M147.993 71.8708H144.585C143.129 71.8708 141.949 73.051 141.949 74.5069V115.191C141.949 116.646 143.129 117.827 144.585 117.827H147.993C149.449 117.827 150.629 116.646 150.629 115.191V74.5069C150.629 73.051 149.449 71.8708 147.993 71.8708Z" fill="#4ADA85"/>
<path d="M162.007 88.7936C161.871 88.7936 161.741 88.7397 161.646 88.6439C161.55 88.548 161.496 88.4181 161.496 88.2825V36.4444C161.49 36.3734 161.499 36.3019 161.522 36.2345C161.545 36.1671 161.582 36.1052 161.63 36.0527C161.678 36.0002 161.737 35.9583 161.802 35.9297C161.867 35.901 161.938 35.8862 162.009 35.8862C162.08 35.8862 162.151 35.901 162.216 35.9297C162.281 35.9583 162.34 36.0002 162.388 36.0527C162.436 36.1052 162.473 36.1671 162.496 36.2345C162.519 36.3019 162.528 36.3734 162.522 36.4444V88.2825C162.522 88.3499 162.508 88.4167 162.482 88.4789C162.457 88.5412 162.419 88.5977 162.371 88.6452C162.323 88.6927 162.266 88.7302 162.204 88.7557C162.141 88.7812 162.074 88.794 162.007 88.7936Z" fill="url(#paint17_linear_189_12601)"/>
<path d="M163.713 43.7158H160.305C158.849 43.7158 157.669 44.896 157.669 46.3518V69.9033C157.669 71.3591 158.849 72.5393 160.305 72.5393H163.713C165.169 72.5393 166.349 71.3591 166.349 69.9033V46.3518C166.349 44.896 165.169 43.7158 163.713 43.7158Z" fill="#4ADA85"/>
<path d="M177.728 111.098C177.592 111.098 177.462 111.045 177.366 110.949C177.271 110.853 177.217 110.723 177.217 110.587V13.9148C177.228 13.7863 177.286 13.6666 177.381 13.5793C177.476 13.492 177.601 13.4436 177.73 13.4436C177.859 13.4436 177.983 13.492 178.078 13.5793C178.173 13.6666 178.232 13.7863 178.243 13.9148V110.587C178.243 110.655 178.229 110.722 178.203 110.784C178.177 110.846 178.139 110.903 178.092 110.95C178.044 110.998 177.987 111.035 177.925 111.061C177.862 111.086 177.795 111.099 177.728 111.098Z" fill="url(#paint18_linear_189_12601)"/>
<path d="M179.434 27.5249H176.026C174.57 27.5249 173.39 28.7051 173.39 30.1609V90.8226C173.39 92.2784 174.57 93.4586 176.026 93.4586H179.434C180.89 93.4586 182.07 92.2784 182.07 90.8226V30.1609C182.07 28.7051 180.89 27.5249 179.434 27.5249Z" fill="#4ADA85"/>
<path d="M193.452 43.0544C193.385 43.0549 193.318 43.042 193.255 43.0166C193.193 42.9911 193.136 42.9535 193.088 42.906C193.041 42.8585 193.003 42.802 192.977 42.7398C192.951 42.6775 192.937 42.6108 192.937 42.5434V0.558168C192.931 0.487167 192.94 0.415691 192.963 0.348264C192.986 0.280838 193.023 0.21893 193.071 0.166461C193.119 0.113991 193.178 0.0721015 193.243 0.0434482C193.309 0.0147948 193.379 0 193.45 0C193.522 0 193.592 0.0147948 193.657 0.0434482C193.722 0.0721015 193.781 0.113991 193.829 0.166461C193.877 0.21893 193.914 0.280838 193.937 0.348264C193.96 0.415691 193.969 0.487167 193.963 0.558168V42.5434C193.963 42.6789 193.909 42.8089 193.813 42.9047C193.718 43.0006 193.588 43.0544 193.452 43.0544Z" fill="url(#paint19_linear_189_12601)"/>
<path d="M195.095 4.76416H191.687C190.231 4.76416 189.051 5.94435 189.051 7.40018V23.7126C189.051 25.1685 190.231 26.3487 191.687 26.3487H195.095C196.551 26.3487 197.731 25.1685 197.731 23.7126V7.40018C197.731 5.94435 196.551 4.76416 195.095 4.76416Z" fill="#4ADA85"/>
<path d="M304.077 120.955C303.942 120.954 303.812 120.899 303.716 120.802C303.62 120.706 303.566 120.576 303.566 120.44V67.6458C303.577 67.5173 303.636 67.3975 303.731 67.3103C303.826 67.223 303.95 67.1746 304.079 67.1746C304.208 67.1746 304.333 67.223 304.428 67.3103C304.523 67.3975 304.581 67.5173 304.592 67.6458V120.44C304.592 120.576 304.538 120.707 304.441 120.804C304.345 120.9 304.214 120.955 304.077 120.955Z" fill="url(#paint20_linear_189_12601)"/>
<path d="M305.781 75.0801H302.373C300.917 75.0801 299.737 76.2603 299.737 77.7161V108.451C299.737 109.907 300.917 111.087 302.373 111.087H305.781C307.237 111.087 308.417 109.907 308.417 108.451V77.7161C308.417 76.2603 307.237 75.0801 305.781 75.0801Z" fill="#4ADA85"/>
<path d="M319.796 121.422C319.661 121.422 319.531 121.368 319.435 121.272C319.339 121.176 319.285 121.046 319.285 120.911V101.201C319.279 101.13 319.288 101.059 319.311 100.991C319.334 100.924 319.371 100.862 319.419 100.81C319.467 100.757 319.526 100.715 319.591 100.687C319.656 100.658 319.727 100.643 319.798 100.643C319.869 100.643 319.94 100.658 320.005 100.687C320.07 100.715 320.129 100.757 320.177 100.81C320.225 100.862 320.262 100.924 320.285 100.991C320.308 101.059 320.317 101.13 320.311 101.201V120.911C320.311 120.978 320.297 121.045 320.272 121.107C320.246 121.169 320.208 121.226 320.16 121.273C320.112 121.321 320.055 121.358 319.993 121.384C319.93 121.409 319.863 121.422 319.796 121.422Z" fill="url(#paint21_linear_189_12601)"/>
<path d="M321.502 110.588H318.094C316.638 110.588 315.458 111.768 315.458 113.224V114.782C315.458 116.238 316.638 117.419 318.094 117.419H321.502C322.958 117.419 324.138 116.238 324.138 114.782V113.224C324.138 111.768 322.958 110.588 321.502 110.588Z" fill="#4ADA85"/>
<path d="M335.521 144.889C335.384 144.889 335.253 144.835 335.157 144.738C335.06 144.642 335.006 144.511 335.006 144.374V109.646C335.017 109.518 335.075 109.398 335.17 109.311C335.265 109.223 335.39 109.175 335.519 109.175C335.648 109.175 335.772 109.223 335.867 109.311C335.962 109.398 336.021 109.518 336.032 109.646V144.374C336.032 144.51 335.978 144.64 335.882 144.737C335.786 144.833 335.656 144.888 335.521 144.889Z" fill="url(#paint22_linear_189_12601)"/>
<path d="M336.83 116.686H334.208C332.752 116.686 331.572 117.866 331.572 119.322V135.583C331.572 137.039 332.752 138.219 334.208 138.219H336.83C338.285 138.219 339.466 137.039 339.466 135.583V119.322C339.466 117.866 338.285 116.686 336.83 116.686Z" fill="#4ADA85"/>
<path d="M351.24 133.389C351.104 133.389 350.974 133.335 350.878 133.239C350.782 133.143 350.729 133.013 350.729 132.878V47.9512C350.739 47.8227 350.798 47.703 350.893 47.6157C350.988 47.5284 351.112 47.48 351.241 47.48C351.37 47.48 351.495 47.5284 351.59 47.6157C351.685 47.703 351.743 47.8227 351.754 47.9512V132.878C351.754 132.945 351.741 133.012 351.715 133.074C351.689 133.136 351.651 133.193 351.603 133.24C351.555 133.288 351.499 133.325 351.436 133.351C351.374 133.376 351.307 133.389 351.24 133.389Z" fill="url(#paint23_linear_189_12601)"/>
<path d="M352.944 71.8708H349.535C348.08 71.8708 346.899 73.051 346.899 74.5069V115.191C346.899 116.646 348.08 117.827 349.535 117.827H352.944C354.399 117.827 355.58 116.646 355.58 115.191V74.5069C355.58 73.051 354.399 71.8708 352.944 71.8708Z" fill="#4ADA85"/>
<path d="M366.958 88.7936C366.823 88.7936 366.693 88.7397 366.597 88.6439C366.501 88.548 366.447 88.4181 366.447 88.2825V36.4444C366.441 36.3734 366.45 36.3019 366.473 36.2345C366.496 36.1671 366.533 36.1052 366.581 36.0527C366.629 36.0002 366.688 35.9583 366.753 35.9297C366.818 35.901 366.889 35.8862 366.96 35.8862C367.031 35.8862 367.102 35.901 367.167 35.9297C367.232 35.9583 367.291 36.0002 367.339 36.0527C367.387 36.1052 367.424 36.1671 367.447 36.2345C367.47 36.3019 367.479 36.3734 367.473 36.4444V88.2825C367.473 88.3499 367.46 88.4167 367.434 88.4789C367.408 88.5412 367.37 88.5977 367.322 88.6452C367.274 88.6927 367.217 88.7302 367.155 88.7557C367.092 88.7812 367.026 88.794 366.958 88.7936Z" fill="url(#paint24_linear_189_12601)"/>
<path d="M368.664 43.7158H365.256C363.8 43.7158 362.62 44.896 362.62 46.3518V69.9033C362.62 71.3591 363.8 72.5393 365.256 72.5393H368.664C370.12 72.5393 371.3 71.3591 371.3 69.9033V46.3518C371.3 44.896 370.12 43.7158 368.664 43.7158Z" fill="#4ADA85"/>
<path d="M382.683 111.098C382.615 111.099 382.548 111.086 382.486 111.061C382.424 111.035 382.367 110.998 382.319 110.95C382.271 110.903 382.233 110.846 382.207 110.784C382.181 110.722 382.168 110.655 382.168 110.587V13.9148C382.179 13.7863 382.238 13.6666 382.333 13.5793C382.428 13.492 382.552 13.4436 382.681 13.4436C382.81 13.4436 382.934 13.492 383.029 13.5793C383.124 13.6666 383.183 13.7863 383.194 13.9148V110.587C383.194 110.723 383.14 110.853 383.044 110.949C382.948 111.045 382.818 111.098 382.683 111.098Z" fill="url(#paint25_linear_189_12601)"/>
<path d="M384.385 27.5249H380.977C379.521 27.5249 378.341 28.7051 378.341 30.1609V90.8226C378.341 92.2784 379.521 93.4586 380.977 93.4586H384.385C385.841 93.4586 387.021 92.2784 387.021 90.8226V30.1609C387.021 28.7051 385.841 27.5249 384.385 27.5249Z" fill="#4ADA85"/>
<path d="M398.4 43.0544C398.264 43.0544 398.134 43.0006 398.038 42.9047C397.942 42.8089 397.889 42.6789 397.889 42.5434V0.558168C397.883 0.487167 397.891 0.415691 397.914 0.348264C397.937 0.280838 397.974 0.21893 398.022 0.166461C398.071 0.113991 398.129 0.0721015 398.194 0.0434482C398.26 0.0147948 398.33 0 398.401 0C398.473 0 398.543 0.0147948 398.608 0.0434482C398.674 0.0721015 398.732 0.113991 398.78 0.166461C398.829 0.21893 398.865 0.280838 398.889 0.348264C398.912 0.415691 398.92 0.487167 398.914 0.558168V42.5434C398.914 42.6108 398.901 42.6775 398.875 42.7398C398.849 42.802 398.811 42.8585 398.763 42.906C398.715 42.9535 398.659 42.9911 398.596 43.0166C398.534 43.042 398.467 43.0549 398.4 43.0544Z" fill="url(#paint26_linear_189_12601)"/>
<path d="M400.046 4.76416H396.638C395.182 4.76416 394.002 5.94435 394.002 7.40018V23.7126C394.002 25.1685 395.182 26.3487 396.638 26.3487H400.046C401.502 26.3487 402.682 25.1685 402.682 23.7126V7.40018C402.682 5.94435 401.502 4.76416 400.046 4.76416Z" fill="#4ADA85"/>
<path d="M209.168 71.7316C209.032 71.7306 208.902 71.676 208.807 71.5795C208.711 71.4831 208.657 71.3528 208.657 71.2169V7.86407C208.668 7.73554 208.727 7.61579 208.822 7.52852C208.917 7.44125 209.041 7.39282 209.17 7.39282C209.299 7.39282 209.423 7.44125 209.518 7.52852C209.613 7.61579 209.672 7.73554 209.683 7.86407V71.2169C209.683 71.3534 209.629 71.4843 209.532 71.5808C209.436 71.6774 209.305 71.7316 209.168 71.7316Z" fill="url(#paint27_linear_189_12601)"/>
<path d="M210.875 16.7825H207.467C206.011 16.7825 204.831 17.9627 204.831 19.4185V57.3559C204.831 58.8117 206.011 59.9919 207.467 59.9919H210.875C212.331 59.9919 213.511 58.8117 213.511 57.3559V19.4185C213.511 17.9627 212.331 16.7825 210.875 16.7825Z" fill="#4ADA85"/>
<path d="M193.908 183.55C178.689 161.914 130.258 162.203 105.62 162.203C80.9813 162.203 32.5507 161.914 17.3318 183.55C-0.282609 208.564 -5.41561 269.646 6.32731 282.884C18.0702 296.122 51.8221 282.144 69.4364 257.87C72.5883 253.535 75.398 249.111 78.0095 244.758C90.5629 223.826 120.677 223.826 133.248 244.758C135.86 249.111 138.669 253.535 141.821 257.87C159.435 282.162 193.187 296.141 204.93 282.884C216.673 269.646 211.54 208.564 193.926 183.55H193.908Z" fill="#16283A"/>
<path d="M120.476 188.716C129.171 180.513 129.571 166.815 121.368 158.12C113.166 149.425 99.4674 149.025 90.7722 157.228C82.0771 165.43 81.6777 179.129 89.8802 187.824C98.0827 196.519 111.781 196.918 120.476 188.716Z" fill="#16283A"/>
<path d="M47.2367 234.16C44.3017 234.16 41.9248 231.784 41.9248 228.849V197.301C41.9248 194.366 44.3017 191.99 47.2367 191.99C50.1718 191.99 52.5485 194.366 52.5485 197.301V228.849C52.5485 231.784 50.1718 234.16 47.2367 234.16Z" fill="#8C7BFE"/>
<path d="M26.1523 213.075C26.1523 210.14 28.5292 207.763 31.4642 207.763H63.0114C65.9464 207.763 68.3233 210.14 68.3233 213.075C68.3233 216.01 65.9464 218.387 63.0114 218.387H31.4642C28.5292 218.387 26.1523 216.01 26.1523 213.075Z" fill="#8C7BFE"/>
<path d="M160.854 203.172C164.603 203.172 167.642 200.132 167.642 196.383C167.642 192.634 164.603 189.595 160.854 189.595C157.105 189.595 154.065 192.634 154.065 196.383C154.065 200.132 157.105 203.172 160.854 203.172Z" fill="#4ADA85"/>
<path d="M160.854 233.242C164.603 233.242 167.642 230.203 167.642 226.454C167.642 222.705 164.603 219.665 160.854 219.665C157.105 219.665 154.065 222.705 154.065 226.454C154.065 230.203 157.105 233.242 160.854 233.242Z" fill="#4ADA85"/>
<path d="M175.891 218.207C179.64 218.207 182.679 215.168 182.679 211.419C182.679 207.669 179.64 204.63 175.891 204.63C172.142 204.63 169.103 207.669 169.103 211.419C169.103 215.168 172.142 218.207 175.891 218.207Z" fill="#4ADA85"/>
<path d="M145.82 218.207C142.074 218.207 139.031 215.164 139.031 211.419C139.031 207.673 142.074 204.63 145.82 204.63C149.565 204.63 152.608 207.673 152.608 211.419C152.608 215.164 149.565 218.207 145.82 218.207Z" fill="#4ADA85"/>
<defs>
<linearGradient id="paint0_linear_189_12601" x1="224.363" y1="293.533" x2="220.288" y2="212.908" gradientUnits="userSpaceOnUse">
<stop stop-color="#2B3582"/>
<stop offset="1" stop-color="#150E42"/>
</linearGradient>
<linearGradient id="paint1_linear_189_12601" x1="58.6348" y1="126.748" x2="371.641" y2="126.748" gradientUnits="userSpaceOnUse">
<stop stop-color="#2B3582"/>
<stop offset="1" stop-color="#150E42"/>
</linearGradient>
<linearGradient id="paint2_linear_189_12601" x1="92.369" y1="11.3342" x2="423.221" y2="309.04" gradientUnits="userSpaceOnUse">
<stop stop-color="#061E42"/>
<stop offset="1" stop-color="#535F77"/>
</linearGradient>
<linearGradient id="paint3_linear_189_12601" x1="224.618" y1="263.109" x2="187.141" y2="345.344" gradientUnits="userSpaceOnUse">
<stop stop-color="#2B3582"/>
<stop offset="1" stop-color="#150E42"/>
</linearGradient>
<linearGradient id="paint4_linear_189_12601" x1="244.187" y1="-82.0846" x2="-146.22" y2="310.378" gradientUnits="userSpaceOnUse">
<stop stop-color="#53D8FF"/>
<stop offset="1" stop-color="#3840F7"/>
</linearGradient>
<linearGradient id="paint5_linear_189_12601" x1="225.135" y1="-101.037" x2="-165.272" y2="291.425" gradientUnits="userSpaceOnUse">
<stop stop-color="#53D8FF"/>
<stop offset="1" stop-color="#3840F7"/>
</linearGradient>
<linearGradient id="paint6_linear_189_12601" x1="217.809" y1="-108.327" x2="-172.598" y2="284.136" gradientUnits="userSpaceOnUse">
<stop stop-color="#53D8FF"/>
<stop offset="1" stop-color="#3840F7"/>
</linearGradient>
<linearGradient id="paint7_linear_189_12601" x1="235.25" y1="-90.9781" x2="-155.157" y2="301.486" gradientUnits="userSpaceOnUse">
<stop stop-color="#53D8FF"/>
<stop offset="1" stop-color="#3840F7"/>
</linearGradient>
<linearGradient id="paint8_linear_189_12601" x1="259.339" y1="-67.012" x2="-131.069" y2="325.452" gradientUnits="userSpaceOnUse">
<stop stop-color="#53D8FF"/>
<stop offset="1" stop-color="#3840F7"/>
</linearGradient>
<linearGradient id="paint9_linear_189_12601" x1="315.357" y1="-11.2907" x2="-75.0499" y2="381.179" gradientUnits="userSpaceOnUse">
<stop stop-color="#53D8FF"/>
<stop offset="1" stop-color="#3840F7"/>
</linearGradient>
<linearGradient id="paint10_linear_189_12601" x1="340.343" y1="13.5689" x2="-50.0676" y2="406.03" gradientUnits="userSpaceOnUse">
<stop stop-color="#53D8FF"/>
<stop offset="1" stop-color="#3840F7"/>
</linearGradient>
<linearGradient id="paint11_linear_189_12601" x1="365.072" y1="38.1688" x2="-25.3349" y2="430.63" gradientUnits="userSpaceOnUse">
<stop stop-color="#53D8FF"/>
<stop offset="1" stop-color="#3840F7"/>
</linearGradient>
<linearGradient id="paint12_linear_189_12601" x1="381.624" y1="54.6321" x2="-8.78315" y2="447.093" gradientUnits="userSpaceOnUse">
<stop stop-color="#53D8FF"/>
<stop offset="1" stop-color="#3840F7"/>
</linearGradient>
<linearGradient id="paint13_linear_189_12601" x1="372.102" y1="45.1613" x2="-18.3051" y2="437.618" gradientUnits="userSpaceOnUse">
<stop stop-color="#53D8FF"/>
<stop offset="1" stop-color="#3840F7"/>
</linearGradient>
<linearGradient id="paint14_linear_189_12601" x1="275.744" y1="-50.6919" x2="-114.663" y2="341.768" gradientUnits="userSpaceOnUse">
<stop stop-color="#53D8FF"/>
<stop offset="1" stop-color="#3840F7"/>
</linearGradient>
<linearGradient id="paint15_linear_189_12601" x1="291.625" y1="-34.8939" x2="-98.7827" y2="357.57" gradientUnits="userSpaceOnUse">
<stop stop-color="#53D8FF"/>
<stop offset="1" stop-color="#3840F7"/>
</linearGradient>
<linearGradient id="paint16_linear_189_12601" x1="281.224" y1="-45.2398" x2="-109.183" y2="347.224" gradientUnits="userSpaceOnUse">
<stop stop-color="#53D8FF"/>
<stop offset="1" stop-color="#3840F7"/>
</linearGradient>
<linearGradient id="paint17_linear_189_12601" x1="275.105" y1="-51.3238" x2="-115.302" y2="341.132" gradientUnits="userSpaceOnUse">
<stop stop-color="#53D8FF"/>
<stop offset="1" stop-color="#3840F7"/>
</linearGradient>
<linearGradient id="paint18_linear_189_12601" x1="282.952" y1="-43.5225" x2="-107.455" y2="348.937" gradientUnits="userSpaceOnUse">
<stop stop-color="#53D8FF"/>
<stop offset="1" stop-color="#3840F7"/>
</linearGradient>
<linearGradient id="paint19_linear_189_12601" x1="270.499" y1="-55.9123" x2="-119.912" y2="336.548" gradientUnits="userSpaceOnUse">
<stop stop-color="#53D8FF"/>
<stop offset="1" stop-color="#3840F7"/>
</linearGradient>
<linearGradient id="paint20_linear_189_12601" x1="362.354" y1="35.462" x2="-28.0534" y2="427.93" gradientUnits="userSpaceOnUse">
<stop stop-color="#53D8FF"/>
<stop offset="1" stop-color="#3840F7"/>
</linearGradient>
<linearGradient id="paint21_linear_189_12601" x1="378.76" y1="51.7822" x2="-11.6474" y2="444.249" gradientUnits="userSpaceOnUse">
<stop stop-color="#53D8FF"/>
<stop offset="1" stop-color="#3840F7"/>
</linearGradient>
<linearGradient id="paint22_linear_189_12601" x1="394.638" y1="67.5802" x2="4.23021" y2="460.04" gradientUnits="userSpaceOnUse">
<stop stop-color="#53D8FF"/>
<stop offset="1" stop-color="#3840F7"/>
</linearGradient>
<linearGradient id="paint23_linear_189_12601" x1="384.239" y1="57.2343" x2="-6.16807" y2="449.694" gradientUnits="userSpaceOnUse">
<stop stop-color="#53D8FF"/>
<stop offset="1" stop-color="#3840F7"/>
</linearGradient>
<linearGradient id="paint24_linear_189_12601" x1="378.12" y1="51.1503" x2="-12.2874" y2="443.611" gradientUnits="userSpaceOnUse">
<stop stop-color="#53D8FF"/>
<stop offset="1" stop-color="#3840F7"/>
</linearGradient>
<linearGradient id="paint25_linear_189_12601" x1="385.966" y1="58.9515" x2="-4.44145" y2="451.419" gradientUnits="userSpaceOnUse">
<stop stop-color="#53D8FF"/>
<stop offset="1" stop-color="#3840F7"/>
</linearGradient>
<linearGradient id="paint26_linear_189_12601" x1="373.51" y1="46.5617" x2="-16.8977" y2="439.034" gradientUnits="userSpaceOnUse">
<stop stop-color="#53D8FF"/>
<stop offset="1" stop-color="#3840F7"/>
</linearGradient>
<linearGradient id="paint27_linear_189_12601" x1="287.399" y1="-39.0991" x2="-103.008" y2="353.36" gradientUnits="userSpaceOnUse">
<stop stop-color="#53D8FF"/>
<stop offset="1" stop-color="#3840F7"/>
</linearGradient>
<clipPath id="clip0_189_12601">
<rect width="313.006" height="237.988" fill="white" transform="translate(58.6348 37.0779)"/>
</clipPath>
</defs>
</svg>