<svg xmlns:xlink="http://www.w3.org/1999/xlink" xmlns="http://www.w3.org/2000/svg" width="1440" height="518" viewBox="0 0 1440 518" fill="none">
<g clip-path="url(#clip0_125_895)">
<path opacity="0.1" d="M1439.98 329.352C1435.01 315.685 1429.11 302.61 1422.39 290.177C1425.39 266.987 1425.62 243.073 1422.99 219.045L1418.08 219.587C1420.42 240.919 1420.47 262.135 1418.3 282.825C1413.34 274.256 1407.99 266.016 1402.28 258.106C1402.47 234.916 1399.8 211.331 1394.27 187.928L1389.47 189.062C1394.39 209.867 1397 230.804 1397.33 251.461C1391.42 243.764 1385.17 236.412 1378.61 229.423C1375.99 206.479 1370.46 183.471 1362.1 160.955L1357.48 162.666C1364.92 182.681 1370.07 203.108 1372.88 223.502C1366.13 216.726 1359.09 210.295 1351.77 204.259C1346.39 181.826 1338.08 159.672 1327 138.374L1322.63 140.644C1332.48 159.607 1340.1 179.244 1345.4 199.128C1337.93 193.306 1330.2 187.862 1322.21 182.796C1314.1 161.153 1303.11 140.167 1289.44 120.381L1285.37 123.194C1297.53 140.808 1307.55 159.376 1315.25 178.52C1307.16 173.701 1298.83 169.261 1290.32 165.248C1279.58 144.706 1265.99 125.2 1249.89 107.24L1246.23 110.53C1260.57 126.516 1272.87 143.768 1282.9 161.86C1274.3 158.077 1265.49 154.722 1256.56 151.794C1243.25 132.634 1227.24 114.921 1208.86 99.1157L1205.63 102.849C1221.99 116.927 1236.45 132.552 1248.74 149.36C1239.73 146.679 1230.56 144.443 1221.28 142.634C1205.52 125.184 1187.2 109.576 1166.76 96.254L1164.06 100.382C1182.26 112.257 1198.74 125.973 1213.2 141.186C1203.87 139.657 1194.44 138.571 1184.95 137.963C1166.88 122.552 1146.44 109.395 1124.16 98.8855L1122.06 103.343C1141.9 112.701 1160.25 124.213 1176.72 137.552C1167.49 137.223 1158.22 137.338 1148.91 137.913H1148.88C1133.29 127.799 1116.33 119.23 1098.46 112.454L1096.71 117.059C1112.15 122.914 1126.89 130.134 1140.62 138.522C1116.44 140.726 1092.19 146.005 1068.33 154.673L1070.02 159.31C1093.08 150.939 1116.53 145.758 1139.91 143.538C1129 153.653 1119.03 164.541 1110.21 176.02L1114.12 179.03C1124.03 166.136 1135.42 153.998 1147.97 142.897C1157.98 142.239 1167.96 142.124 1177.89 142.518C1161.17 154.442 1146.13 168.027 1133.2 182.961L1136.93 186.184C1150.92 170.034 1167.39 155.478 1185.87 142.946C1195.33 143.604 1204.71 144.722 1213.99 146.301C1207.98 149.541 1202.13 152.979 1196.46 156.63C1193.49 155.89 1190.82 154.59 1188.68 152.584C1188.68 152.584 1188.65 152.567 1188.65 152.551C1187.23 151.219 1184.91 151.761 1184.4 153.62C1183.15 158.209 1180.8 162.567 1177.29 166.267C1172.33 171.53 1165.92 174.606 1159.28 175.461C1157.66 175.675 1156.66 177.221 1157.12 178.783C1160.1 188.75 1157.83 199.983 1150.18 208.091C1147.48 210.953 1144.32 213.157 1140.95 214.703V192.796V190.608H1140.81H1117H1114.68H1090.87H1088.55H1070.86C1070.86 189.704 1070.12 188.964 1069.22 188.964C1068.31 188.964 1067.57 189.704 1067.57 190.608H1064.74H1062.42H1038.61H1036.29H1034.79H1012.48H997.474V260.671C996.569 260.671 995.828 261.411 995.828 262.316C995.828 263.22 996.569 263.961 997.474 263.961V328.941L992.949 327.247C991.501 326.704 990.217 325.783 989.263 324.566L974.618 306.196C971.195 301.903 964.646 301.903 961.223 306.196L946.578 324.566C945.607 325.783 944.34 326.704 942.892 327.247L920.875 335.487C917.88 336.605 915.955 339.188 915.445 342.049H915.313V349.171H915.363C915.379 349.45 915.429 349.746 915.478 350.026L907.514 357.986C903.449 356.966 899.665 355.667 896.472 354.203L923.13 327.56L919.641 324.073L890.993 352.707V337.855L922.998 305.883L919.51 302.396L891.009 330.882V316.031L922.85 284.206L919.361 280.72L891.026 309.041V291.887L910.245 272.694L906.757 269.207L891.042 284.914L891.075 256.115H886.139L886.106 285.127L870.177 269.207L866.689 272.694L886.089 292.084V309.205L857.573 280.72L854.084 284.206L886.073 316.179V330.734L864.55 309.222C865.126 305.521 864.681 302.347 862.69 300.357C860.074 297.561 854.825 297.841 849.049 300.768L826.045 257.086C825.65 256.329 825.222 255.606 824.778 254.882C824.679 254.717 824.58 254.57 824.481 254.405C824.037 253.698 823.576 253.024 823.083 252.349C819.035 246.84 813.654 242.679 807.648 240.096C803.419 238.287 798.877 237.251 794.253 237.07C787.885 236.824 781.369 238.172 775.33 241.346C773.372 242.383 771.545 243.567 769.834 244.882C768.781 245.705 767.761 246.576 766.823 247.481C766.823 247.481 766.806 247.497 766.79 247.514C765.852 248.418 764.963 249.372 764.124 250.359C764.108 250.376 764.091 250.408 764.075 250.425C763.252 251.412 762.462 252.431 761.755 253.5C761.755 253.5 761.738 253.533 761.722 253.55C760.998 254.619 760.323 255.737 759.714 256.872C755.633 264.52 754.251 273.5 756.045 282.183C756.045 282.216 756.045 282.249 756.061 282.299C756.292 283.368 756.555 284.437 756.884 285.489C756.9 285.555 756.933 285.621 756.95 285.703C757.279 286.739 757.641 287.775 758.052 288.795C758.085 288.861 758.118 288.943 758.151 289.009C758.579 290.045 759.056 291.065 759.583 292.068L766.642 305.472L769.39 310.702C772.204 316.064 778.835 318.119 784.199 315.307C784.529 315.126 784.841 314.945 785.154 314.748C785.269 314.682 785.351 314.6 785.466 314.518C785.664 314.386 785.845 314.254 786.026 314.106C786.158 314.008 786.273 313.876 786.404 313.777C786.552 313.646 786.684 313.531 786.816 313.399C786.947 313.268 787.079 313.12 787.211 312.972C787.309 312.856 787.425 312.741 787.523 312.626C787.655 312.462 787.787 312.281 787.918 312.116C788.001 312.018 788.083 311.903 788.149 311.804C788.28 311.607 788.396 311.409 788.527 311.195C788.576 311.097 788.642 311.014 788.692 310.916C788.823 310.685 788.922 310.455 789.037 310.225C789.07 310.143 789.119 310.077 789.152 309.995C789.268 309.732 789.366 309.468 789.449 309.205C789.465 309.156 789.498 309.09 789.514 309.041C789.597 308.811 789.646 308.58 789.712 308.367C789.712 308.317 789.728 308.268 789.745 308.235C789.745 308.235 789.745 308.202 789.745 308.186C789.745 308.153 789.761 308.12 789.778 308.07C789.844 307.824 789.876 307.561 789.926 307.314C789.926 307.265 789.926 307.215 789.942 307.166V307.133C789.942 307.117 789.942 307.1 789.942 307.067C789.992 306.738 790.008 306.409 790.024 306.064C790.107 304.189 789.712 302.281 788.774 300.505L782.899 289.354L778.967 281.871C778.687 281.328 778.424 280.753 778.21 280.16C778.21 280.128 778.193 280.111 778.177 280.078C777.749 278.911 777.453 277.677 777.305 276.46C777.305 276.427 777.305 276.394 777.305 276.378C777.239 275.753 777.19 275.144 777.206 274.536C777.206 273.713 777.288 272.908 777.42 272.102C777.519 271.46 777.683 270.835 777.864 270.21C777.914 270.013 777.996 269.832 778.062 269.635C778.21 269.207 778.358 268.796 778.539 268.385C778.621 268.187 778.72 267.99 778.819 267.793C779.016 267.398 779.214 267.003 779.444 266.625C779.543 266.46 779.641 266.296 779.757 266.131C780.02 265.72 780.3 265.342 780.596 264.964C780.695 264.849 780.777 264.717 780.875 264.602C781.237 264.174 781.616 263.78 782.011 263.385C782.077 263.319 782.143 263.253 782.208 263.188C782.669 262.76 783.163 262.349 783.689 261.97C783.706 261.954 783.739 261.938 783.755 261.921C784.858 261.132 786.075 260.474 787.408 259.997C787.523 259.948 787.655 259.915 787.77 259.865C788.445 259.635 789.12 259.454 789.794 259.323C790.469 259.191 791.16 259.109 791.851 259.059C793.217 258.977 794.583 259.076 795.915 259.355C798.565 259.898 801.082 261.132 803.139 262.957C804.505 264.174 805.69 265.622 806.595 267.332L809.425 272.694L813.819 281.049L825.502 303.219L832.643 316.787C818.936 338.891 819.496 355.47 820.977 363.413C819.94 366.653 818.985 369.926 818.146 373.199C817.093 371.028 816.089 368.808 815.135 366.555C815.135 372.064 815.431 377.492 815.991 382.804C814.839 388.774 814.049 394.744 813.572 400.731C811.828 394.794 809.869 384.235 810.462 366.752C810.84 357.378 808.207 343.217 803.32 339.155C800.144 336.671 796.129 336.622 792.065 340.01C783.788 346.671 779.822 365.025 784.693 378.265C794.27 402.589 807.533 406.356 813.193 407.03C812.914 414.053 813.078 421.059 813.703 427.999C812.008 425.796 810.33 423.542 808.734 421.19C810.56 427.95 812.798 434.512 815.415 440.844C816.468 446.962 817.883 452.998 819.644 458.952C815.908 454.035 810.231 444.759 804.538 427.851C804.456 427.621 804.373 427.391 804.291 427.161C804.291 427.128 804.324 427.111 804.34 427.078C804.373 427.013 804.423 426.947 804.456 426.865C805.262 425.384 805.854 423.789 806.183 422.095C806.545 420.286 806.628 418.395 806.364 416.454C805.081 407.178 796.508 400.714 787.244 401.997C785.45 402.244 783.772 402.77 782.225 403.51C780.662 400.353 779.065 397.228 777.387 394.152C780.382 370.946 780.612 347.049 777.979 323.02L773.076 323.563C775.412 344.878 775.462 366.111 773.29 386.801C768.337 378.232 762.989 369.992 757.279 362.081C757.46 338.891 754.794 315.307 749.265 291.903L744.46 293.038C749.38 313.843 751.997 334.78 752.326 355.437C746.419 347.74 740.166 340.388 733.6 333.398C730.984 310.455 725.455 287.446 717.096 264.931L712.472 266.641C717.918 281.295 722.114 296.163 725.093 311.08L707.766 274.256C706.038 270.605 701.809 268.862 698.024 270.276L695.128 271.345C691.294 261.543 686.934 251.856 681.981 242.35L677.603 244.619C682.458 253.945 686.736 263.451 690.504 273.056L674.181 279.091C666.43 260.178 656.459 241.807 644.414 224.373L640.349 227.186C652.164 244.29 661.955 262.283 669.557 280.818L668.208 281.312C660.753 276.953 653.118 272.908 645.302 269.223C634.557 248.682 620.965 229.159 604.872 211.216L601.203 214.505C615.535 230.492 627.843 247.728 637.881 265.835C629.275 262.053 620.471 258.698 611.536 255.77C598.224 236.61 582.197 218.88 563.833 203.091L560.608 206.825C576.964 220.903 591.428 236.527 603.737 253.336C594.719 250.655 585.554 248.418 576.273 246.609C560.526 229.159 542.195 213.552 521.757 200.213L519.059 204.341C537.258 216.216 553.746 229.932 568.194 245.146C558.864 243.616 549.435 242.531 539.94 241.922C521.873 226.511 501.435 213.354 479.139 202.828L477.033 207.285C496.877 216.643 515.225 228.156 531.696 241.494C522.465 241.165 513.201 241.281 503.887 241.856H503.854C488.288 231.742 471.323 223.173 453.436 216.397L451.692 221.002C456.859 222.959 461.943 225.097 466.946 227.35C466.781 227.35 466.6 227.35 466.435 227.35C449.01 227.35 434.414 239.652 430.876 256.017C428.358 256.856 425.841 257.727 423.323 258.632L425.018 263.27C426.713 262.645 428.424 262.069 430.119 261.494C430.07 262.234 430.037 262.974 430.037 263.714V289.848H423.274C423.274 289.552 423.307 289.255 423.307 288.959C423.307 288.729 423.307 288.515 423.307 288.285C423.307 287.364 423.274 286.46 423.225 285.539C423.225 285.292 423.192 285.045 423.175 284.798C423.093 283.861 422.961 282.924 422.813 282.003C422.764 281.706 422.714 281.394 422.665 281.098C422.5 280.193 422.287 279.305 422.056 278.417C421.974 278.105 421.892 277.776 421.793 277.463C421.744 277.299 421.711 277.134 421.661 276.986H421.628C419.95 271.51 417.021 266.329 412.759 261.938C411.212 260.342 409.55 258.944 407.806 257.694V257.661C407.674 257.546 407.51 257.448 407.362 257.349C407.082 257.152 406.819 256.971 406.539 256.79C405.749 256.263 404.943 255.77 404.12 255.31C403.857 255.162 403.594 255.03 403.33 254.882C402.475 254.421 401.586 253.994 400.697 253.616C400.484 253.517 400.27 253.435 400.056 253.352C399.101 252.958 398.13 252.596 397.16 252.283C397.028 252.251 396.913 252.218 396.781 252.168C395.761 251.856 394.724 251.576 393.688 251.362C393.622 251.362 393.556 251.33 393.507 251.313C393.507 251.313 393.507 251.313 393.49 251.313C386.069 249.767 378.269 250.524 371.194 253.5C370.864 253.616 370.552 253.78 370.223 253.928C369.614 254.208 369.005 254.471 368.413 254.783C367.935 255.03 367.458 255.326 366.981 255.589C366.438 255.902 365.895 256.198 365.368 256.543C364.793 256.921 364.233 257.333 363.674 257.744C363.262 258.04 362.851 258.319 362.456 258.632C361.502 259.388 360.58 260.194 359.691 261.049L358.227 262.464L348.798 271.592L344.553 275.703C340.192 279.914 340.077 286.871 344.306 291.213C344.569 291.476 344.833 291.739 345.112 291.969C345.211 292.051 345.326 292.134 345.441 292.216C345.622 292.364 345.803 292.495 345.984 292.627C346.132 292.726 346.264 292.808 346.412 292.89C346.577 292.989 346.725 293.088 346.889 293.186C347.054 293.285 347.235 293.351 347.4 293.433C347.548 293.499 347.679 293.581 347.827 293.647C348.025 293.729 348.222 293.795 348.42 293.877C348.551 293.926 348.667 293.976 348.798 294.009C349.029 294.074 349.259 294.14 349.489 294.189C349.588 294.222 349.687 294.255 349.802 294.272C350.049 294.321 350.312 294.37 350.559 294.403C350.641 294.403 350.723 294.436 350.806 294.436C351.085 294.469 351.365 294.486 351.645 294.502C351.711 294.502 351.76 294.502 351.826 294.502C352.056 294.502 352.303 294.502 352.534 294.502C352.583 294.502 352.632 294.502 352.665 294.502C352.682 294.502 352.698 294.502 352.715 294.502C352.747 294.502 352.797 294.502 352.83 294.502C353.093 294.502 353.34 294.453 353.603 294.42C353.652 294.42 353.702 294.42 353.751 294.403H353.784C353.801 294.403 353.817 294.403 353.85 294.403C354.179 294.354 354.508 294.288 354.837 294.206C356.664 293.762 358.391 292.841 359.84 291.443L374.978 276.789C375.423 276.361 375.9 275.95 376.41 275.572C376.426 275.555 376.459 275.539 376.492 275.523C377.496 274.782 378.598 274.157 379.717 273.664C379.75 273.664 379.767 273.631 379.8 273.631C380.375 273.384 380.951 273.171 381.527 273.006C382.317 272.776 383.107 272.628 383.913 272.529C384.555 272.447 385.197 272.414 385.839 272.414C386.036 272.414 386.25 272.431 386.447 272.447C386.892 272.463 387.336 272.496 387.78 272.546C387.994 272.579 388.208 272.611 388.422 272.644C388.866 272.71 389.294 272.809 389.722 272.908C389.903 272.957 390.1 273.006 390.281 273.072C390.742 273.204 391.203 273.368 391.647 273.549C391.795 273.598 391.927 273.664 392.075 273.73C392.585 273.944 393.079 274.207 393.556 274.47C393.638 274.519 393.721 274.552 393.786 274.602C394.329 274.93 394.856 275.292 395.366 275.687C395.383 275.703 395.415 275.72 395.432 275.736C396.501 276.575 397.472 277.562 398.311 278.697C398.394 278.795 398.46 278.911 398.542 279.009C399.76 280.753 400.599 282.677 401.027 284.667C401.306 285.999 401.422 287.364 401.356 288.713C401.339 289.075 401.273 289.436 401.241 289.798H385.147V310.324L379.487 315.8L367.508 327.395L354.706 339.796L339.995 354.022L333.034 360.766C334.219 358.923 334.927 356.868 335.042 354.664C335.486 345.799 326.024 338.102 313.881 337.494C295.5 336.556 282.797 341.901 275.672 346.21L286.647 335.24C286.647 335.405 286.647 335.503 286.647 335.503C286.647 335.503 291.535 331.704 305.077 326.211H337.263V256.148C338.168 256.148 338.909 255.408 338.909 254.504C338.909 253.599 338.168 252.859 337.263 252.859V182.796H267.165C267.165 181.892 266.424 181.152 265.519 181.152C264.614 181.152 263.874 181.892 263.874 182.796H193.775V199.523C190.747 199.276 187.292 199.884 183.672 201.661C167.743 209.67 160.355 223.321 157.113 232.498C158.15 226.479 159.532 220.459 161.293 214.489C161.375 214.752 161.408 214.867 161.342 214.801C161.572 215.278 164.814 202.154 185.646 183.849C191.833 178.356 200.456 166.399 202.924 158.521C204.339 153.505 204.257 149.097 201.739 146.564C196.918 141.384 183.03 146.663 173.667 159.952C171.61 163.044 169.833 166.037 168.302 168.915C161.836 163.373 157.327 155.199 154.431 145.758C158.281 144.492 162.148 143.308 166.032 142.255L164.732 137.502C160.848 138.555 156.965 139.739 153.114 141.005C151.749 135.381 150.909 129.41 150.482 123.391C156.784 121.549 163.103 119.954 169.438 118.621L168.418 113.786C162.346 115.069 156.274 116.582 150.218 118.309C149.939 108.474 150.761 98.6881 152.407 90.0865C158.166 83.294 164.271 76.6989 170.754 70.3505L167.299 66.8309C163.02 71.0084 158.907 75.3174 154.941 79.6922C154.941 79.6922 154.941 79.6922 154.941 79.6758C154.908 79.7251 154.875 79.758 154.826 79.8074C152.983 81.8467 151.173 83.9026 149.412 85.9748C141.678 94.0502 131.394 102.273 120.27 108.638C119.875 97.8822 120.138 86.9946 121.076 76.0904L116.156 75.6628C115.136 87.5866 114.889 99.494 115.432 111.237C109.903 114.049 104.259 116.368 98.6646 117.947C97.9735 109.707 97.6444 101.369 97.7102 92.9647L92.7737 92.9318C92.7079 101.731 93.0699 110.464 93.8104 119.098C84.2335 121.039 75.0187 120.562 67.2354 116.451C67.2025 116.434 67.1696 116.418 67.1367 116.401C66.6595 116.154 66.1658 115.974 65.6722 115.875L65.6064 115.595C65.376 115.645 65.1456 115.71 64.9153 115.76C63.7799 115.678 62.6609 115.974 61.7394 116.549C46.9957 120.25 32.5152 125.792 18.5942 133.111C21.9017 126.22 25.5218 119.559 29.4217 113.112L30.3432 112.75C47.44 106.155 64.9975 101.994 82.5057 100.431L82.0615 95.5139C65.8532 96.9777 49.612 100.596 33.7164 106.27C37.8138 100.02 42.1744 94.0008 46.8147 88.2281L47.5387 88.0636C65.2773 83.8697 83.131 82.0934 100.573 82.8171L100.771 77.8831C84.6778 77.2252 68.2886 78.6397 51.9322 82.0606C56.7206 76.4851 61.7394 71.1564 66.9886 66.0909L67.5152 66.0415C85.5993 64.2159 103.453 64.7751 120.583 67.6862L121.406 62.818C105.674 60.1372 89.3675 59.43 72.8466 60.6306C78.2439 55.7624 83.855 51.1573 89.6637 46.8318H89.9763C108.11 47.3581 125.717 50.1705 142.287 55.2032L143.719 50.483C128.563 45.8779 112.569 43.1149 96.1141 42.1939C102.038 38.0658 108.159 34.2337 114.429 30.6812H114.56C132.48 33.51 149.577 38.5098 165.39 45.549L167.397 41.0426C152.983 34.612 137.515 29.8753 121.373 26.882C127.757 23.5434 134.29 20.5007 140.954 17.7541C158.397 22.7704 174.769 29.8753 189.595 38.8388L192.146 34.612C178.669 26.4544 163.942 19.8429 148.326 14.8595C155.073 12.3432 161.934 10.1393 168.911 8.24798C185.613 15.4187 200.999 24.4973 214.64 35.2369L217.372 31.7667V51.5849H211.76V63.2127C211.662 63.2291 211.579 63.2456 211.481 63.262C211.102 63.3443 210.724 63.4265 210.345 63.5252C210.131 63.5745 209.901 63.6239 209.687 63.6732C209.276 63.7719 208.881 63.887 208.486 64.0021C208.305 64.0515 208.107 64.1008 207.926 64.1666C207.498 64.2982 207.071 64.4462 206.659 64.5778C206.511 64.6271 206.363 64.6764 206.215 64.7258C205.771 64.8902 205.326 65.0547 204.899 65.2356C204.783 65.285 204.652 65.3343 204.537 65.3837C204.076 65.581 203.632 65.7784 203.171 65.9757C203.072 66.0251 202.99 66.058 202.891 66.1073C202.414 66.3211 201.953 66.5514 201.492 66.7981C201.427 66.831 201.361 66.8639 201.278 66.8967C200.801 67.1434 200.324 67.4066 199.863 67.6862C199.814 67.7191 199.781 67.7355 199.732 67.7684C199.386 67.9658 199.041 68.1796 198.695 68.3934C198.563 68.4756 198.432 68.5579 198.3 68.6401C198.267 68.6565 198.251 68.673 198.218 68.6894C197.741 69.0019 197.263 69.3308 196.803 69.6598C196.803 69.6598 196.77 69.6762 196.77 69.6927C196.293 70.0381 195.832 70.3834 195.371 70.7453C194.943 71.0906 194.515 71.436 194.104 71.7978C194.071 71.8307 194.038 71.8636 194.005 71.8965C192.59 73.13 191.274 74.4622 190.04 75.8931C190.007 75.9424 189.974 75.9753 189.924 76.0246C189.332 76.7318 188.773 77.439 188.23 78.1956C188.18 78.2614 188.131 78.3272 188.081 78.3929C187.555 79.133 187.045 79.8896 186.568 80.6626C186.568 80.6626 186.568 80.679 186.551 80.6955C186.074 81.4685 185.646 82.2415 185.218 83.0473C185.152 83.1789 185.087 83.3105 185.021 83.4421C184.609 84.248 184.231 85.0538 183.885 85.8926C183.885 85.9091 183.885 85.9255 183.869 85.942C183.82 86.0571 183.77 86.1887 183.721 86.3038C183.672 86.4189 183.622 86.534 183.589 86.6492C183.359 87.2248 183.145 87.8004 182.948 88.3925C182.898 88.5405 182.849 88.705 182.783 88.853C182.569 89.5273 182.355 90.2016 182.174 90.8924C182.174 90.9089 182.174 90.9253 182.174 90.9417C182.141 91.0898 182.108 91.2213 182.075 91.3694C182.042 91.5174 182.01 91.6654 181.977 91.8134C181.878 92.2575 181.763 92.718 181.68 93.162C181.648 93.3101 181.631 93.4581 181.598 93.6226C181.598 93.6226 181.598 93.639 181.598 93.6554C181.598 93.6883 181.598 93.7048 181.598 93.7377C181.565 93.9022 181.549 94.0501 181.516 94.2146C181.499 94.3462 181.467 94.4778 181.45 94.6094C181.417 94.8561 181.384 95.1192 181.335 95.3824C181.302 95.6126 181.269 95.8428 181.253 96.0731C181.22 96.402 181.17 96.7145 181.137 97.0434C181.137 97.1257 181.137 97.1915 181.121 97.2737C181.121 97.4546 181.088 97.6191 181.072 97.8C181.072 97.9809 181.039 98.1783 181.039 98.3592C180.989 99.1158 180.973 99.8723 180.973 100.629C180.973 101.287 180.989 101.945 181.022 102.586C181.022 102.685 181.022 102.767 181.039 102.866C181.039 103.096 181.072 103.326 181.088 103.556C181.105 103.885 181.137 104.198 181.154 104.527C181.154 104.592 181.17 104.658 181.187 104.741C181.187 104.872 181.22 104.987 181.236 105.119C181.269 105.365 181.302 105.612 181.335 105.875C181.401 106.385 181.483 106.911 181.582 107.421C181.615 107.635 181.648 107.849 181.697 108.063C181.713 108.161 181.73 108.244 181.746 108.342C181.746 108.342 181.746 108.375 181.746 108.392C182.997 114.444 185.695 119.97 189.447 124.608C190.747 126.22 192.179 127.716 193.726 129.098C193.758 129.131 193.791 129.147 193.824 129.18C194.285 129.591 194.762 129.986 195.239 130.381C195.322 130.447 195.42 130.529 195.503 130.595C195.931 130.94 196.375 131.269 196.819 131.581C196.934 131.664 197.049 131.746 197.181 131.828C197.609 132.141 198.053 132.437 198.498 132.716C198.629 132.798 198.744 132.881 198.876 132.963C199.337 133.259 199.814 133.522 200.275 133.802C200.39 133.868 200.505 133.933 200.604 133.999C201.147 134.312 201.706 134.591 202.282 134.871C202.315 134.887 202.348 134.904 202.381 134.92C203.599 135.512 204.866 136.038 206.149 136.515C206.314 136.581 206.478 136.631 206.643 136.68C207.104 136.844 207.581 136.992 208.058 137.14C208.272 137.206 208.502 137.272 208.733 137.338C209.16 137.453 209.588 137.568 210.016 137.683C210.263 137.749 210.51 137.798 210.757 137.848C211.168 137.946 211.596 138.029 212.024 138.111C212.287 138.16 212.55 138.209 212.797 138.242C213.225 138.308 213.653 138.374 214.081 138.423C214.344 138.456 214.591 138.489 214.854 138.522C215.315 138.571 215.792 138.604 216.269 138.637C216.499 138.637 216.713 138.67 216.944 138.686C217.635 138.719 218.342 138.752 219.05 138.752C219.757 138.752 220.465 138.736 221.156 138.686C221.238 138.686 221.321 138.686 221.403 138.686C221.6 138.686 221.798 138.653 221.995 138.637C222.407 138.604 222.835 138.571 223.246 138.522C223.394 138.505 223.559 138.489 223.707 138.473C223.904 138.456 224.102 138.423 224.299 138.39C224.645 138.341 224.974 138.292 225.303 138.242C225.533 138.209 225.747 138.16 225.978 138.127C226.142 138.094 226.307 138.061 226.471 138.029C226.767 137.979 227.047 137.913 227.343 137.848C227.59 137.798 227.837 137.732 228.084 137.683C228.248 137.634 228.429 137.601 228.594 137.568C228.594 137.568 228.627 137.568 228.643 137.568C228.89 137.502 229.137 137.436 229.367 137.354C229.598 137.288 229.812 137.223 230.042 137.157C230.256 137.091 230.453 137.025 230.667 136.96C230.881 136.894 231.079 136.828 231.276 136.746C231.342 136.729 231.391 136.713 231.457 136.68C231.622 136.631 231.786 136.565 231.951 136.515C232.214 136.417 232.461 136.318 232.724 136.219C232.938 136.137 233.168 136.055 233.382 135.956C233.86 135.759 234.337 135.545 234.814 135.331C234.995 135.249 235.176 135.167 235.34 135.085C235.472 135.019 235.587 134.969 235.719 134.904C235.752 134.887 235.785 134.871 235.834 134.854C236.311 134.624 236.789 134.377 237.266 134.114C237.266 134.114 237.282 134.114 237.299 134.098C237.364 134.065 237.43 134.016 237.513 133.983C237.628 133.917 237.743 133.851 237.842 133.785C238.269 133.539 238.681 133.308 239.092 133.045C239.191 132.979 239.273 132.93 239.372 132.864C239.454 132.815 239.536 132.749 239.619 132.7C240.047 132.42 240.474 132.141 240.886 131.861C241.067 131.746 241.231 131.614 241.412 131.483C241.824 131.187 242.219 130.874 242.614 130.562C242.679 130.512 242.762 130.447 242.828 130.397C242.91 130.331 243.009 130.249 243.091 130.183C243.502 129.855 243.914 129.509 244.308 129.147C244.341 129.114 244.374 129.098 244.407 129.065C245.049 128.506 245.658 127.914 246.25 127.305C246.382 127.174 246.497 127.042 246.612 126.927C246.991 126.532 247.353 126.138 247.715 125.726C247.846 125.578 247.978 125.43 248.093 125.282C248.291 125.052 248.488 124.822 248.686 124.575C248.85 124.361 249.015 124.164 249.179 123.95C249.261 123.835 249.36 123.736 249.442 123.621C252.799 119.197 255.218 114 256.387 108.359C256.387 108.359 256.387 108.326 256.387 108.309C256.403 108.211 256.419 108.129 256.436 108.03C256.485 107.816 256.518 107.602 256.551 107.388C256.65 106.879 256.732 106.369 256.798 105.842C256.831 105.596 256.864 105.349 256.897 105.086C256.897 104.954 256.93 104.839 256.946 104.708C256.946 104.642 256.962 104.576 256.979 104.494C257.012 104.181 257.028 103.852 257.045 103.523C257.061 103.293 257.078 103.063 257.094 102.833C257.094 102.734 257.094 102.652 257.111 102.553C257.143 101.895 257.16 101.254 257.16 100.596C257.16 99.8394 257.127 99.0828 257.094 98.3263C257.094 98.096 257.061 97.8822 257.045 97.652C257.045 97.5204 257.028 97.3888 257.012 97.2572C257.012 97.175 257.012 97.0928 256.995 97.0106C256.962 96.6816 256.93 96.3692 256.88 96.0402C256.847 95.81 256.831 95.5797 256.798 95.3494C256.716 94.8067 256.633 94.264 256.535 93.7212C256.535 93.6883 256.535 93.6719 256.535 93.639C256.535 93.639 256.535 93.6225 256.535 93.6061C256.502 93.4581 256.485 93.3101 256.452 93.1456C256.304 92.4055 256.14 91.649 255.942 90.9253C255.942 90.9089 255.942 90.8924 255.942 90.876C255.761 90.1688 255.547 89.478 255.333 88.8037C255.284 88.6721 255.235 88.5241 255.202 88.3925C255.004 87.8004 254.79 87.2084 254.56 86.6327C254.511 86.5176 254.478 86.4025 254.428 86.2873C251.944 80.1527 247.896 74.8076 242.778 70.7617C242.317 70.3999 241.857 70.0545 241.379 69.7091C241.379 69.7091 241.347 69.6927 241.33 69.6762C240.869 69.3473 240.392 69.0183 239.915 68.7059C239.882 68.6894 239.866 68.673 239.833 68.6565C239.372 68.3605 238.895 68.0645 238.401 67.7684C238.352 67.7355 238.319 67.7191 238.269 67.6862C237.809 67.423 237.332 67.1599 236.854 66.8967C236.789 66.8639 236.723 66.831 236.64 66.7981C236.18 66.5678 235.719 66.3211 235.258 66.1073C235.159 66.058 235.077 66.0251 234.978 65.9757C234.534 65.7619 234.073 65.5646 233.613 65.3837C233.497 65.3343 233.366 65.285 233.251 65.2356C232.806 65.0547 232.379 64.8902 231.934 64.7258C231.786 64.6764 231.638 64.6271 231.49 64.5778C231.062 64.4297 230.651 64.2982 230.223 64.1666C230.042 64.1173 229.844 64.0679 229.663 64.0021C229.269 63.887 228.857 63.7719 228.462 63.6732C228.248 63.6239 228.018 63.5745 227.804 63.5252C227.426 63.4429 227.047 63.3443 226.669 63.262C226.57 63.2456 226.488 63.2291 226.389 63.2127V51.5849H220.778V17.6226C227.738 23.0006 234.287 28.7734 240.359 34.908L243.864 31.4378C236.772 24.2835 229.038 17.6061 220.778 11.4386V0.370018C223.542 0.271339 226.323 0.205566 229.104 0.205566C239.915 8.56047 249.854 17.8199 258.624 27.7701L262.327 24.5137C254.741 15.9121 246.316 7.80392 237.216 0.337143C256.008 0.962116 274.997 3.88962 293.838 9.33346L295.204 4.59682C275.622 -1.06083 255.876 -4.07056 236.377 -4.64619C246.826 -11.9321 258.081 -18.3792 269.962 -23.823L267.905 -28.3129C253.655 -21.7836 240.244 -13.8563 228.034 -4.74487C225.616 -4.74487 223.18 -4.6791 220.778 -4.58041V-6.53757C220.778 -7.44214 220.037 -8.18224 219.132 -8.18224C218.227 -8.18224 217.487 -7.44214 217.487 -6.53757V-4.44884C213.867 -4.26793 210.279 -4.00479 206.692 -3.65941C219.182 -15.0898 233.185 -25.1881 248.488 -33.691L246.086 -38C228.429 -28.1813 212.435 -16.2904 198.481 -2.68903C191.208 -1.71868 184.017 -0.435867 176.908 1.19235C187.687 -11.6525 200.11 -23.4118 213.965 -33.8226L211.003 -37.7697C195.026 -25.7472 180.891 -11.9814 168.944 3.16597C161.901 5.02444 154.974 7.21184 148.161 9.71173C157.146 -4.28437 167.858 -17.4746 180.134 -29.5629L176.662 -33.0825C162.51 -19.1522 150.366 -3.77452 140.526 12.6228C133.796 15.3365 127.198 18.3791 120.764 21.6849C127.889 6.75133 136.807 -7.6066 147.372 -21.1093L143.488 -24.1519C131.311 -8.59339 121.257 8.11641 113.589 25.517C107.254 29.053 101.084 32.8686 95.0774 36.9638C100.277 21.3395 107.304 6.04414 116.041 -8.62628L111.796 -11.1591C101.709 5.78098 93.8597 23.5434 88.3967 41.684C82.5387 45.993 76.8452 50.5488 71.3821 55.3841C74.6238 39.2828 79.6919 23.2473 86.5208 7.63946L81.9956 5.66584C74.0972 23.7078 68.5189 42.2761 65.3431 60.9266C60.0281 65.9593 54.927 71.2551 50.0563 76.7812C51.3069 60.3839 54.3676 43.8714 59.2218 27.5399L54.4827 26.1419C48.888 45.0063 45.6299 64.1337 44.7413 83.0473C40.0517 88.7708 35.6088 94.7574 31.4292 100.958C30.6887 84.4782 31.7089 67.6697 34.5063 50.8448L29.6356 50.0389C26.3939 69.4789 25.5054 88.9352 26.9205 107.882C22.9384 114.28 19.236 120.891 15.8298 127.733C13.0818 111.352 12.0451 94.4613 12.7691 77.3568L7.83262 77.1594C7.00986 96.9612 8.49082 116.516 12.2097 135.331C7.42124 145.857 3.30747 156.86 0 168.307L4.73906 169.672C7.65161 159.607 11.1895 149.903 15.2703 140.561L16.3893 139.936C30.2444 132.206 44.6755 126.286 59.4193 122.273C59.2218 131.483 56.9839 140.792 52.3765 149.508C45.4983 162.534 34.5886 172.04 21.984 177.352C18.9398 178.635 17.7879 182.237 19.5486 185.033C30.8039 202.993 32.4659 226.265 21.8523 246.346C17.1297 255.277 10.4819 262.53 2.71509 267.924C0.740481 269.289 0.0493655 271.888 0.97085 274.108L23.4978 328.382L63.6647 320.027C71.7606 328.481 80.2843 336.359 89.2029 343.612C91.4738 352.838 94.2217 361.966 97.414 370.979C80.2514 359.598 64.0596 346.095 49.2336 330.734L45.6793 334.155C55.684 344.533 66.3139 354.039 77.4211 362.673C73.0276 361.835 68.7657 360.009 64.9646 357.147C60.9002 354.072 57.856 350.174 55.8485 345.848C55.0258 344.089 52.6398 343.957 51.4715 345.503C51.4715 345.503 51.455 345.536 51.4386 345.552C42.5364 357.312 17.5247 353.743 4.78843 347.411C14.3653 357.937 24.6003 381.028 15.6981 392.787C15.6981 392.787 15.6817 392.82 15.6652 392.836C14.4969 394.382 15.2703 396.636 17.1956 396.948C21.9017 397.705 26.4927 399.563 30.5406 402.639C36.3163 406.997 40.0681 413.033 41.6478 419.546C42.0263 421.125 43.6882 421.964 45.1856 421.339C54.7789 417.309 66.1988 418.329 75.0845 425.055C79.0502 428.049 82.0285 431.832 84.0361 436.025C84.5462 437.094 85.7474 437.637 86.8992 437.358L100.623 434.118C101.775 434.792 103.009 435.302 104.259 435.614C104.588 435.696 104.918 435.762 105.263 435.812C105.263 435.812 105.247 435.812 105.247 435.828C102.071 439.216 98.0887 441.93 93.4155 443.607C82.9007 447.357 71.7112 444.907 63.7799 438.18C62.5457 437.127 60.7192 437.44 59.88 438.821C56.408 444.561 51.0272 449.199 44.2148 451.617C39.4099 453.327 34.4734 453.738 29.7672 453.031C27.842 452.752 26.4268 454.676 27.0851 456.485C27.0851 456.485 27.0851 456.518 27.1015 456.534C32.0545 470.415 15.3526 489.378 3.06064 496.533C17.1133 494.312 42.0592 498.424 47.0121 512.305C47.0121 512.305 47.0121 512.338 47.0286 512.354C47.6703 514.18 49.9905 514.772 51.3069 513.341C54.5157 509.822 58.5965 507.009 63.3849 505.299C70.1973 502.865 77.3059 503.046 83.6247 505.299C85.155 505.841 86.7676 504.92 87.0638 503.325C88.9561 493.095 96.0812 484.115 106.58 480.382C111.253 478.721 116.074 478.293 120.665 478.918C121.833 479.083 122.952 478.376 123.347 477.257L131.805 454.018C133.665 454.183 135.54 454.528 137.4 455.071C148.112 458.163 155.78 466.682 158.298 476.78C158.693 478.359 160.355 479.181 161.836 478.54C168.006 475.909 175.082 475.284 182.042 477.29C186.93 478.704 191.175 481.254 194.598 484.576C195.996 485.925 198.267 485.201 198.81 483.342C198.81 483.326 198.81 483.31 198.81 483.293C200.703 476.747 206.972 472.044 214.574 468.984L229.301 503.736C228.907 505.792 228.561 507.848 228.199 509.904L224.546 518.917L209.243 482.816L204.701 484.74L221.913 525.38L216.434 538.866L201.213 502.963L196.671 504.888L213.801 545.33L208.321 558.816L193.199 523.11L188.657 525.035L205.705 565.263L200.225 578.749L185.185 543.241L180.644 545.165L197.609 585.197L175.131 640.507L179.706 642.365L201.311 589.177L244.374 570.954L242.449 566.414L205.787 581.94C208.93 576.628 212.205 571.431 215.627 566.382L252.404 550.823L250.825 547.09C264.828 544.721 278.831 543.636 292.67 543.883L292.752 538.949C272.2 538.587 251.285 541.087 230.585 546.333C231.852 544.771 233.135 543.225 234.452 541.679L260.434 530.676L258.509 526.137L242.038 533.11C244.786 530.133 247.583 527.239 250.43 524.393L251.812 524.212C274.026 521.367 296.06 521.581 317.287 524.837L318.027 519.969C297.968 516.91 277.202 516.515 256.238 518.752C258.279 516.828 260.352 514.936 262.442 513.078L268.432 510.545L267.609 508.604C271.114 505.644 274.685 502.766 278.321 499.986H279.424C301.687 500.2 323.375 503.309 343.862 509.246L345.244 504.509C325.942 498.917 305.62 495.793 284.771 495.184C292.522 489.592 300.535 484.395 308.763 479.642L309.586 479.757C331.553 482.882 352.566 488.753 372.049 497.223L374.024 492.701C355.775 484.773 336.194 479.083 315.756 475.744C324.083 471.221 332.59 467.142 341.295 463.475L341.838 463.623C363.196 469.527 383.255 478.014 401.438 488.819L403.956 484.576C398.377 481.254 392.602 478.178 386.694 475.3H419.44C423.619 478.129 427.684 481.073 431.633 484.148L434.661 480.25C432.489 478.556 430.284 476.912 428.046 475.3H453.814C456.711 477.915 459.557 480.579 462.289 483.31L465.777 479.823C464.247 478.293 462.684 476.797 461.104 475.3H483.779C484.223 475.81 484.651 476.32 485.096 476.83V490.447H521.544C522.185 491.467 522.844 492.487 523.452 493.523L527.681 490.99C527.566 490.809 527.451 490.628 527.352 490.447H555.178C555.178 491.352 555.918 492.092 556.823 492.092C557.728 492.092 558.469 491.352 558.469 490.447H569.708C567.733 495.677 567.963 502.519 570.843 509.114C580.074 530.281 594.193 539.047 600.298 542.008L596.496 551.53L599.557 552.747L602.519 545.346L610.681 538.472L604.675 539.952L613.297 518.39C616.835 517.864 627.284 516.877 647.375 519.065C655.126 519.903 667.648 515.035 671.959 508.539C674.691 504.427 675.596 499.806 674.066 495.645C673.704 494.641 673.193 493.72 672.601 492.882C685.946 493.605 701.414 498.506 705.199 509.114C705.199 509.131 705.199 509.147 705.215 509.164C705.857 510.989 708.177 511.581 709.493 510.151C712.702 506.631 716.783 503.818 721.571 502.108C728.384 499.674 735.492 499.855 741.811 502.108C743.341 502.651 744.954 501.73 745.25 500.134C747.143 489.905 754.268 480.925 764.766 477.191C769.439 475.53 774.261 475.103 778.852 475.728C780.02 475.892 781.139 475.185 781.534 474.067L789.383 452.472C804.768 466.978 816.649 465.794 821.569 464.544C823.873 471.369 826.637 478.047 829.846 484.527C827.443 483.096 825.057 481.599 822.688 480.02C826.505 484.888 830.57 489.493 834.848 493.835C838.699 500.496 843.059 506.91 847.914 513.045C842.45 509.657 833.515 502.815 821.882 488.836C815.826 481.467 804.423 472.718 798.088 472.981C794.073 473.261 791.045 475.892 790.288 481.122C788.56 491.566 797.939 508.062 810.659 514.969C834.782 527.387 847.354 521.203 851.929 517.93C854.742 521.235 857.704 524.459 860.814 527.567L862.674 525.709C860.304 523.341 858.017 520.89 855.812 518.39C854.232 514.591 852.85 510.792 851.649 507.009C851.451 508.966 851.303 510.956 851.188 512.963C845.198 505.578 839.949 497.75 835.457 489.592C836.543 486.55 840.361 477.8 852.57 466.435C854.232 464.791 855.861 462.324 857.211 459.544L885.991 488.309L885.941 548.011H890.878L890.927 490.612L924.002 457.554L920.513 454.067L890.943 483.622V468.771L923.87 435.877L920.382 432.391L890.96 461.797V446.946L923.146 414.793C923.475 415.023 923.821 415.253 924.15 415.5C930.633 420.401 934.846 427.177 936.606 434.479C937.034 436.239 938.894 437.193 940.572 436.486C951.334 431.963 964.152 433.114 974.14 440.663C978.583 444.018 981.94 448.278 984.194 452.982C984.77 454.183 986.12 454.775 987.403 454.479L1002.82 450.844C1004.12 451.617 1005.5 452.176 1006.9 452.538C1007.28 452.637 1007.64 452.702 1008.02 452.768C1008.02 452.768 1008 452.768 1007.99 452.785C1004.43 456.6 999.942 459.643 994.693 461.518C982.895 465.728 970.323 462.981 961.421 455.432C960.038 454.248 957.982 454.594 957.044 456.156C953.144 462.603 947.105 467.8 939.453 470.53C934.072 472.455 928.527 472.899 923.228 472.126C921.073 471.813 919.477 473.968 920.201 476.007C920.201 476.024 920.201 476.04 920.217 476.057C925.779 491.648 907.02 512.93 893.214 520.972C908.995 518.472 936.985 523.094 942.547 538.685C942.547 538.702 942.547 538.718 942.563 538.735C943.287 540.791 945.904 541.448 947.368 539.837C950.972 535.889 955.546 532.732 960.943 530.807C968.595 528.077 976.576 528.275 983.668 530.807C985.379 531.416 987.189 530.38 987.518 528.587C989.641 517.107 997.638 507.026 1009.44 502.832C1014.69 500.957 1020.08 500.496 1025.25 501.187C1026.57 501.368 1027.82 500.562 1028.26 499.329L1037.76 473.228C1039.85 473.409 1041.95 473.803 1044.04 474.395C1056.07 477.866 1064.68 487.438 1067.49 498.769C1067.93 500.529 1069.79 501.45 1071.47 500.743C1078.4 497.783 1086.35 497.092 1094.15 499.345C1099.64 500.924 1104.42 503.802 1108.25 507.519C1109.81 509.032 1112.38 508.226 1112.97 506.121C1112.97 506.105 1112.97 506.088 1112.97 506.072C1117.56 490.168 1145.22 483.852 1161.12 485.365C1148.47 479.001 1131.29 462.472 1130.78 447.719C1141.7 441.124 1144.57 433.378 1145.45 429.48C1152.58 430.516 1159.77 431.075 1167.03 431.141C1164.66 432.637 1162.25 434.085 1159.79 435.466C1165.86 434.266 1171.82 432.72 1177.62 430.878C1185.28 430.45 1192.96 429.496 1200.61 427.967C1195.1 431.305 1184.96 436.141 1167.29 440.186C1157.98 442.242 1145.01 448.459 1142.38 454.232C1140.81 457.932 1141.8 461.83 1146.1 464.873C1154.64 471.123 1173.61 470.234 1185.51 462.028C1207.47 446.157 1207.67 432.177 1206.82 426.601C1211.04 425.582 1215.24 424.398 1219.44 423.016L1218.61 420.516C1215.42 421.552 1212.21 422.49 1208.99 423.312C1204.89 423 1200.87 422.506 1196.94 421.865C1198.6 422.934 1200.32 423.954 1202.04 424.973C1192.75 426.963 1183.38 428.098 1174.07 428.427C1173.07 427.358 1171.27 425.269 1169.17 421.799L1178.1 418.937L1194 413.855L1203.98 410.665L1226.86 403.362L1233.42 401.257C1234.61 402.244 1235.97 403.099 1237.47 403.806L1208.11 414.332L1209.78 418.97L1245.76 406.076C1247.89 406.29 1250.11 406.257 1252.4 405.977C1252.89 405.912 1253.37 405.846 1253.84 405.764L1259.49 408.428L1220.47 422.868C1218.43 423.625 1216.8 425.203 1215.96 427.21L1214.09 431.782L1189.52 491.796C1187.89 495.776 1189.8 500.315 1193.78 501.944L1261.53 529.64C1265.51 531.268 1270.05 529.36 1271.68 525.38L1296.25 465.366L1298.12 460.794C1298.95 458.771 1298.9 456.501 1297.96 454.544L1289.75 437.094C1290.56 437.062 1291.38 436.996 1292.2 436.897C1315.12 433.986 1327.5 422.917 1332.05 417.885L1340.13 424.217L1342.16 421.635L1335.89 416.717L1331.58 406.948L1331.31 413.132L1313.03 398.807C1313.53 395.271 1315.52 384.975 1323.25 366.308C1326.23 359.121 1325.08 345.733 1320.04 339.78C1316.87 336.013 1312.67 333.826 1308.24 334.138C1302.99 334.5 1298.6 338.283 1296.03 343.809C1295.87 343.217 1295.71 342.625 1295.51 342.033C1294.62 339.237 1293.42 336.638 1291.99 334.221C1292.66 327.165 1291.07 318.58 1287.31 314.123C1284.14 310.357 1279.94 308.169 1275.52 308.482C1270.91 308.794 1266.96 311.754 1264.33 316.195C1262.45 315.965 1260.56 315.866 1258.65 315.932C1258.62 315.932 1258.57 315.932 1258.53 315.932C1258.15 315.932 1257.78 315.948 1257.4 315.981C1257.53 315.652 1257.64 315.356 1257.79 315.011C1258.93 312.281 1259.45 308.663 1259.41 304.896C1260 304.518 1260.48 303.909 1260.61 303.12C1260.61 303.104 1260.61 303.087 1260.61 303.071C1263.17 288.565 1287.08 280.358 1301.32 280.21C1288 275.194 1268.37 259.273 1270.94 244.767C1270.94 244.751 1270.94 244.734 1270.94 244.718C1271.29 242.81 1269.56 241.149 1267.72 241.758C1263.19 243.221 1258.25 243.649 1253.23 242.761C1246.11 241.494 1240.02 237.827 1235.64 232.745C1234.59 231.511 1232.73 231.528 1231.68 232.745C1224.97 240.705 1214.34 244.965 1203.36 243.024C1198.47 242.152 1194.08 240.146 1190.39 237.317C1189.46 236.61 1188.14 236.659 1187.23 237.432L1176.49 246.56C1174.79 246.461 1173.13 246.675 1171.58 247.152C1171.58 247.152 1171.58 247.136 1171.58 247.119C1172.87 242.662 1175.19 238.419 1178.59 234.817C1186.25 226.709 1197.34 223.798 1207.46 226.166C1209.04 226.544 1210.53 225.442 1210.65 223.814C1211.13 217.12 1213.83 210.558 1218.78 205.295C1222.27 201.595 1226.48 198.98 1231 197.467C1232.85 196.842 1233.24 194.49 1231.83 193.158C1231.83 193.158 1231.79 193.141 1231.79 193.125C1231.4 192.747 1231.04 192.352 1230.67 191.941C1248.91 182.484 1268.75 175.264 1289.72 170.544L1290.06 170.461C1298.52 174.524 1306.78 179.014 1314.81 183.882C1294.37 186.283 1274.66 191.02 1256.16 198.009L1257.91 202.615C1277.7 195.131 1298.93 190.247 1320.98 188.141L1321.54 188.092C1329.45 193.207 1337.14 198.717 1344.54 204.605C1323.83 204.358 1303.57 206.545 1284.22 211.2L1285.37 216.002C1306.02 211.052 1327.74 208.914 1349.91 209.637L1350.73 209.67C1358 215.788 1365 222.285 1371.66 229.143C1351.01 226.133 1330.46 225.673 1310.48 227.827L1311.01 232.728C1332.22 230.442 1354.12 231.133 1376.09 234.784L1377.17 234.965C1383.67 242.054 1389.84 249.487 1395.67 257.283C1375.43 251.428 1354.91 248.221 1334.62 247.744L1334.51 252.678C1355.98 253.172 1377.72 256.79 1399.09 263.434L1400.43 263.845C1406.05 271.855 1411.3 280.21 1416.16 288.877C1396.67 280.111 1376.53 274.026 1356.21 270.819L1355.44 275.687C1376.85 279.075 1398.06 285.687 1418.48 295.374L1420.06 296.13C1425.83 307.232 1430.97 318.827 1435.36 330.898L1440 329.204L1439.98 329.352ZM217.404 31.224C205.096 21.5698 191.405 13.2478 176.662 6.4224C183.704 4.77773 190.846 3.44555 198.053 2.45875C204.8 6.40594 211.25 10.6985 217.404 15.2707V31.2404V31.224ZM217.404 9.15255C213.702 6.50464 209.884 3.95539 205.985 1.50484C209.769 1.11012 213.587 0.83054 217.404 0.616734V9.15255ZM890.845 418.247V408.083C891.47 407.885 892.079 407.638 892.671 407.342C896.95 405.089 899.122 400.418 898.381 395.896L910.328 383.955C911.397 389.3 911.496 394.514 910.13 398.988L890.845 418.263V418.247ZM1179.43 281.345C1180.01 282.364 1181.23 282.874 1182.36 282.529C1186.81 281.147 1191.61 280.769 1196.5 281.624C1207.49 283.565 1216 291.229 1219.57 300.998C1220.13 302.528 1221.87 303.169 1223.29 302.38C1224.92 301.475 1226.63 300.735 1228.4 300.127C1228.16 302.018 1228.08 304.008 1228.22 306.048C1228.68 312.56 1229.84 318.267 1231.37 323.218L1228.17 324.238C1226.69 324.714 1225.39 325.471 1224.29 326.425C1221.11 321.688 1216.64 314.172 1211.26 302.84C1207.92 295.801 1197.21 287.693 1189.41 287.43C1184.47 287.265 1180.06 288.91 1177.31 292.397C1171.83 299.387 1175.14 311.13 1184.72 318.629C1198.98 329.813 1212.26 332.839 1220.6 333.481C1220.44 334.961 1220.57 336.507 1221.05 338.003C1221.16 338.365 1221.3 338.711 1221.44 339.04C1221.49 339.171 1221.56 339.286 1221.62 339.401C1221.72 339.599 1221.82 339.812 1221.92 340.01C1222 340.158 1222.1 340.289 1222.18 340.437C1222.28 340.602 1222.38 340.766 1222.48 340.914C1222.6 341.079 1222.71 341.21 1222.83 341.375C1222.92 341.506 1223.02 341.638 1223.12 341.753C1223.25 341.918 1223.4 342.066 1223.55 342.23C1223.65 342.329 1223.73 342.428 1223.83 342.526C1223.99 342.691 1224.18 342.839 1224.36 343.003C1224.44 343.069 1224.52 343.151 1224.6 343.217C1224.8 343.381 1225.01 343.529 1225.23 343.677C1225.29 343.727 1225.36 343.776 1225.43 343.826C1225.66 343.974 1225.9 344.121 1226.15 344.253C1226.2 344.286 1226.25 344.319 1226.3 344.335C1226.51 344.45 1226.73 344.549 1226.94 344.648C1226.99 344.664 1227.02 344.681 1227.07 344.697C1227.09 344.697 1227.1 344.697 1227.12 344.714C1227.15 344.714 1227.19 344.746 1227.22 344.763C1227.45 344.862 1227.7 344.96 1227.94 345.043C1227.99 345.043 1228.03 345.075 1228.08 345.092H1228.11C1228.12 345.092 1228.14 345.092 1228.16 345.108C1228.47 345.207 1228.8 345.289 1229.13 345.371C1230.95 345.783 1232.91 345.733 1234.82 345.125L1237.75 344.187L1249.52 353.397C1244.05 352.493 1234.85 350.421 1221.26 345.668C1216.31 343.941 1208.64 344.253 1202.44 346.276L1199.71 338.661L1195.07 340.322L1197.91 348.233C1196.79 348.875 1195.79 349.565 1194.95 350.355C1192.58 352.592 1190.97 355.223 1190.28 358.019L1180.06 329.517L1175.42 331.178L1189.32 369.91L1175.9 363.561L1160.4 320.389L1155.76 322.05L1169.58 360.568L1156.15 354.22L1140.91 311.738V311.574V297.281V294.962V281.575C1146.36 288.943 1156.71 290.703 1164.26 285.423C1166.53 283.845 1168.26 281.805 1169.48 279.519C1170.19 278.187 1170.71 276.772 1171.06 275.309C1171.06 275.259 1171.09 275.194 1171.09 275.144C1171.17 274.733 1171.26 274.322 1171.32 273.911C1171.93 274.108 1172.56 274.289 1173.21 274.404C1174.04 274.552 1174.86 274.602 1175.67 274.602L1179.47 281.295L1179.43 281.345ZM1166.48 364.63L1129.36 377.936L1131.02 382.574L1172.79 367.591L1185.95 373.808L1149.02 387.047L1149.3 387.837C1147.99 386.866 1146.67 386.06 1145.42 385.534C1141.42 383.906 1137.44 383.561 1133.94 384.975C1127.04 387.722 1124.23 397.178 1130.51 406.569C1131.4 407.885 1132.34 409.102 1133.31 410.27L1122.5 413.724C1121.51 409.053 1120.74 402.622 1121 394.136C1121.03 387.87 1116.64 377.738 1111.74 373.298L1153.34 358.381L1166.5 364.598L1166.48 364.63ZM1194.9 370.979C1198.13 373.66 1202.67 375.403 1207.79 375.814L1209.04 379.301L1195.61 372.952L1194.9 370.979ZM1267.16 367.246C1266.78 367.443 1266.4 367.64 1266 367.821L1259.26 368.43L1261.69 369.301L1245.34 374.515L1242.28 365.979C1247.87 362.525 1251.57 358.989 1253.66 356.687L1267.16 367.262V367.246ZM1237.92 368.43L1240.65 376.028L1230.64 379.219L1228.22 372.459C1231.84 371.275 1235.07 369.893 1237.93 368.43H1237.92ZM1223.47 373.841L1225.94 380.715L1217.64 383.363L1215.36 382.278L1213 375.732C1213.28 375.699 1213.56 375.699 1213.84 375.65C1217.28 375.206 1220.49 374.581 1223.47 373.824V373.841ZM1109.68 368.808L1111.11 372.804C1107.9 370.255 1104.35 368.841 1100.71 369.137C1093.31 369.696 1087.8 377.87 1090.95 388.692C1095.51 403.708 1105.65 412.885 1113.83 418.049C1113.76 418.131 1113.68 418.214 1113.61 418.296C1113.61 418.296 1113.6 418.312 1113.58 418.329C1113.48 418.444 1113.38 418.559 1113.28 418.674C1108.94 417.046 1104.66 415.253 1100.45 413.247C1096.5 409.513 1092.8 405.632 1089.38 401.619C1090.3 404.119 1091.3 406.602 1092.39 409.086C1092.11 408.938 1091.83 408.773 1091.53 408.625C1091.58 408.543 1091.63 408.527 1091.65 408.576C1091.66 408.51 1091.53 408.477 1091.22 408.461C1087.81 406.553 1084.46 404.514 1081.16 402.343C1080.74 399.185 1080.11 389.761 1085.59 374.005C1087.5 368.051 1086.31 357.049 1082.92 351.292L1114.37 340.01L1127.53 346.227L1090 359.68L1091.66 364.318L1133.84 349.204L1147 355.42L1109.66 368.808H1109.68ZM1059.72 385.337C1059.99 385.386 1060.1 385.403 1060.04 385.435C1060.56 385.435 1050.31 376.62 1043.42 349.763C1042.26 345.388 1039.71 339.484 1036.67 334.089H1067.49C1067.49 334.533 1067.67 334.928 1067.95 335.224L1050.67 341.424L1052.33 346.062L1085.74 334.089H1101.88L1108.08 337.017L1079.65 347.214C1077.87 345.569 1075.85 344.385 1073.59 343.858C1066.29 342.066 1058.57 348.2 1058.41 359.598C1058.34 377.426 1067.18 390.189 1073.91 397.228C1069 393.577 1064.26 389.613 1059.72 385.353V385.337ZM1116.62 335.602L1116.08 334.089H1127.24L1130.07 341.951L1116.64 335.602H1116.62ZM1070.78 334.089H1071.13L1070.75 334.221C1070.75 334.221 1070.78 334.138 1070.78 334.089ZM1136.37 344.944L1132.47 334.089H1140.86V326.408L1149.8 351.276L1136.37 344.927V344.944ZM1143.99 247.991C1144.06 248.172 1144.12 248.353 1144.2 248.534C1144.29 248.747 1144.38 248.945 1144.47 249.142C1144.53 249.29 1144.61 249.422 1144.68 249.57C1145.09 250.376 1145.59 251.149 1146.16 251.872C1146.19 251.922 1146.23 251.954 1146.26 252.004C1146.46 252.25 1146.66 252.481 1146.87 252.711C1146.92 252.76 1146.95 252.81 1147 252.843C1147.89 253.78 1148.93 254.602 1150.06 255.277C1149.83 255.342 1149.58 255.392 1149.35 255.458C1148.3 255.803 1147.26 256.247 1146.26 256.806C1145.77 257.086 1145.27 257.398 1144.8 257.727C1144.35 258.04 1143.94 258.352 1143.55 258.698C1143.41 258.813 1143.3 258.911 1143.18 259.027C1142.92 259.273 1142.66 259.503 1142.41 259.767C1142.28 259.898 1142.15 260.03 1142.03 260.178C1141.82 260.408 1141.62 260.638 1141.42 260.885C1141.26 260.819 1141.08 260.77 1140.9 260.77V247.267L1143.83 247.465C1143.89 247.645 1143.96 247.826 1144.02 248.007L1143.99 247.991ZM1011.77 334.105C1011.77 334.204 1011.81 334.319 1011.82 334.418L1010.97 334.105H1011.77ZM1017.35 414.826C1017.29 413.51 1016.35 412.375 1015.03 412.145C1010.14 411.306 1005.39 409.382 1001.11 406.306C1002.56 404.859 1003.51 402.902 1003.61 400.649L1004.65 377.179C1004.71 375.633 1005.21 374.137 1006.06 372.837L1018.9 353.414C1032.29 375.074 1047.09 381.965 1054.77 384.235C1057.21 386.636 1059.67 388.955 1062.22 391.175C1059.82 391.126 1057.39 391.027 1054.95 390.863C1059.87 393.363 1064.86 395.55 1069.86 397.458C1074.65 401.159 1079.6 404.596 1084.7 407.704C1078.61 406.569 1068.31 403.527 1053.01 395.106C1044.81 390.518 1030.98 386.472 1025.15 388.988C1021.51 390.698 1019.64 394.251 1020.82 399.399C1022.26 406.142 1028.92 413.477 1037.25 418.263C1036.39 418.263 1035.53 418.296 1034.66 418.427C1031.16 418.921 1028.03 420.335 1025.45 422.391C1025.38 422.44 1025.33 422.49 1025.28 422.539C1024.36 423.279 1023.52 424.102 1022.77 425.006C1022.68 425.105 1022.6 425.203 1022.52 425.319C1022.29 425.598 1022.07 425.861 1021.88 426.157C1021.83 426.223 1021.78 426.305 1021.73 426.371C1021.22 425.861 1020.68 425.368 1020.08 424.907C1019.33 424.348 1018.55 423.871 1017.73 423.46L1017.35 414.826ZM1056.05 432.407C1055.91 432.358 1055.76 432.308 1055.61 432.259C1054.61 428.575 1052.55 425.401 1049.82 423C1050.43 423.098 1051.02 423.213 1051.61 423.296C1077.63 425.779 1087.01 415.664 1090.17 410.911C1096.3 414.332 1102.64 417.342 1109.12 419.924C1106.37 420.434 1103.61 420.911 1100.8 421.273C1104.27 421.996 1107.76 422.572 1111.23 423.065C1110.82 424.907 1110.87 426.865 1111.47 428.789C1111.47 428.822 1111.49 428.838 1111.51 428.871C1109.4 428.641 1107.18 428.361 1104.83 428.032C1102.03 427.605 1098.77 427.424 1095.45 427.49C1094.69 426.601 1093.97 425.697 1093.31 424.743C1092.27 423.246 1090.2 423.033 1088.88 424.299C1086.74 426.355 1084.34 428.098 1081.77 429.529C1080.28 430.039 1078.98 430.647 1077.96 431.338C1071.23 434.035 1063.57 434.578 1056.05 432.424V432.407ZM1152.88 390.945L1192.24 376.834L1205.4 383.051L1168.69 396.208L1169.59 398.708L1160.58 401.586C1159.14 398.149 1156.22 394.169 1152.89 390.929L1152.88 390.945ZM1283.05 382.936C1283.73 382.393 1284.37 381.834 1285.01 381.258L1288.45 383.955C1286.97 383.725 1285.17 383.38 1283.05 382.936ZM1256.71 338.299C1256.71 338.299 1256.77 338.299 1256.79 338.299C1258.01 338.086 1259.29 338.003 1260.51 338.069C1260.54 338.069 1260.57 338.069 1260.59 338.069C1260.94 338.086 1261.26 338.151 1261.59 338.184C1263.32 349.68 1267.24 358.249 1271.02 364.186C1270.68 364.565 1270.28 364.927 1269.89 365.272L1262.1 359.17L1255.77 346.44L1256.21 354.549L1247.46 347.69C1247.64 346.358 1248.05 344.056 1248.89 340.684L1254.88 338.776C1255.47 338.595 1256.08 338.447 1256.71 338.332V338.299ZM1161.86 256.362C1162.02 256.296 1162.19 256.231 1162.35 256.165C1162.3 256.28 1162.27 256.412 1162.22 256.543C1162.11 256.477 1161.97 256.428 1161.86 256.362ZM908.863 378.413L896.357 390.912L895.831 389.909L891.24 381.192L904.552 367.887C906.247 371.259 907.728 374.811 908.863 378.413ZM885.908 371.061L872.843 346.26L885.925 359.335V371.078L885.908 371.061ZM1155.97 426.108C1159.26 427.309 1162.35 428.098 1165.07 428.624C1160.36 428.526 1155.66 428.213 1151 427.703L1155.99 426.108H1155.97ZM1287.31 378.923C1288.07 378.084 1288.79 377.212 1289.49 376.324L1289.19 380.386L1287.31 378.923ZM1232.85 150.281C1238.28 151.597 1243.67 153.044 1249.02 154.673C1241.7 157.518 1234.57 160.643 1227.66 164.08C1228.93 159.08 1230.77 154.278 1232.85 150.281ZM1230.3 149.673C1223.04 153.768 1213.27 157.14 1204.51 157.468C1210.07 154.08 1215.78 150.84 1221.67 147.847H1221.71C1224.59 148.406 1227.45 149.015 1230.3 149.673ZM917.634 354.812L921.188 360.19C918.506 360.058 915.807 359.746 913.158 359.302L917.65 354.812H917.634ZM895.929 354.697C898.036 357.147 900.125 360.108 902.084 363.381L890.845 374.614V359.762L895.946 354.68L895.929 354.697ZM885.925 352.345L865.093 331.523L859.63 321.146C860.946 318.942 862.065 316.771 862.888 314.764L885.941 337.806V352.361L885.925 352.345ZM822.178 368.676C822.408 369.137 825.436 356.884 844.491 339.516L847.979 346.128L849.789 349.565L851.813 353.397C849.526 353.611 847.058 354.286 844.524 355.519C828.595 363.529 821.207 377.179 817.965 386.357C819.002 380.337 820.384 374.318 822.145 368.347C822.227 368.611 822.26 368.709 822.194 368.66L822.178 368.676ZM348.979 455.12C351.859 450.498 354.887 445.943 358.062 441.469C365.286 439.89 372.559 440.104 379.372 441.848C378.171 443.344 376.986 444.857 375.817 446.37C366.734 448.854 357.783 451.765 348.963 455.12H348.979ZM315.707 470.202C318.603 463.952 321.746 457.784 325.136 451.715L330.007 454.775C331.553 455.745 333.577 455.548 334.844 454.265C339.172 449.874 344.405 446.272 350.411 443.838C347.235 448.541 344.224 453.311 341.361 458.163C332.639 461.764 324.066 465.777 315.691 470.218L315.707 470.202ZM284.393 489.428C289.873 472.438 297.08 455.745 305.933 439.611L320.973 449.084C316.382 457.291 312.219 465.646 308.533 474.132C300.272 478.82 292.209 483.918 284.393 489.428ZM259.595 508.983L255.86 510.562C256.699 506.351 257.686 502.157 258.74 497.964L276.297 490.53L274.372 485.99L260.303 491.944C261.488 487.586 262.788 483.244 264.186 478.918L284.311 470.399L282.386 465.86L266.292 472.669C267.872 468.129 269.551 463.623 271.361 459.133L292.308 450.268L290.383 445.729L274.043 452.653L269.501 450.696C268.827 452.258 268.201 453.821 267.56 455.383L253.063 461.518L258.657 447.768L294.628 432.539L301.737 437.012C291.567 455.515 283.521 474.724 277.729 494.279C271.509 498.934 265.453 503.835 259.579 508.999L259.595 508.983ZM224.052 546.481C219.955 551.662 215.989 557.007 212.205 562.533L212.007 562.615L217.602 548.866L224.069 546.119C224.069 546.234 224.069 546.366 224.052 546.481ZM220.235 542.386L225.286 529.952C224.924 533.521 224.595 537.074 224.365 540.643L220.251 542.386H220.235ZM87.7714 309.518L88.0676 309.041C95.9495 296.015 104.852 283.943 114.61 272.908C115.432 279.026 117.621 285.391 121.076 290.621C110.084 304.83 100.557 320.521 92.675 337.411C90.5687 328.185 88.9397 318.876 87.7549 309.534L87.7714 309.518ZM280.032 329.023L274.931 342.329L264.203 353.052C265.749 347.789 268.876 339.023 275.112 326.293H287.569C287.256 327.823 287.026 329.188 286.878 330.389L280.839 336.424L280.032 329.023ZM492.122 289.897C494.245 287.463 496.433 285.078 498.655 282.71V289.897H492.122ZM771.101 393.001C764.453 390.008 757.723 387.327 750.927 384.959C746.501 379.153 744.411 371.999 744.839 364.894C747.916 365.716 750.977 366.588 754.037 367.542L755.37 367.953C760.998 375.962 766.263 384.317 771.101 392.984V393.001ZM778.078 406.306C777.535 406.8 777.041 407.342 776.564 407.918C776.531 407.967 776.482 408 776.449 408.05C776.186 408.379 775.923 408.708 775.692 409.053C775.231 408.592 774.754 408.148 774.228 407.754C773.553 407.244 772.862 406.833 772.138 406.454L771.809 398.774C772.352 399.02 772.911 399.251 773.454 399.514L775.034 400.254C776.071 402.26 777.091 404.283 778.095 406.323L778.078 406.306ZM630.476 466.304L628.452 461.156V444.364C631.924 447.045 634.985 448.739 637.091 449.775L630.476 466.32V466.304ZM240.787 381.11C242.021 381.439 244.062 382.048 246.991 383.149L244.67 384.136L249.804 396.257C234.222 396.455 223.246 401.175 216.812 405.073L225.714 396.175L241.725 390.994L232.675 389.218L240.771 381.126L240.787 381.11ZM270.933 402.376C267.115 399.02 261.537 396.734 255.218 396.372L250.15 384.416C254.346 386.143 259.842 388.676 266.671 392.327L270.933 402.376ZM193.742 318.744C192.426 318.185 191.257 317.33 190.369 316.212L189.316 314.879C190.023 314.189 190.731 313.481 191.504 312.774C192.261 312.018 193.018 311.08 193.742 310.028V318.744ZM132.266 369.893L133.253 392.228C133.451 396.849 137.252 400.303 141.612 400.402C141.168 402.803 140.74 405.221 140.378 407.638C137.12 405.616 133.171 404.662 129.09 405.237C126.836 405.55 124.746 406.306 122.886 407.375C125.042 394.481 128.185 381.965 132.282 369.91L132.266 369.893ZM148.145 417.654C148.013 417.622 147.882 417.572 147.75 417.523C147.158 415.336 146.138 413.345 144.805 411.619C145.381 407.49 146.072 403.379 146.878 399.316L166.772 393.823C168.27 393.412 169.849 393.412 171.33 393.823L176.76 395.32C177.501 400.912 178.801 405.78 180.331 409.957C179.393 409.497 178.241 409.629 177.402 410.418C169.899 417.622 158.874 420.746 148.145 417.654ZM195.404 421.832C195.075 421.7 194.762 421.569 194.433 421.421C196.144 415.993 199.287 407.704 204.931 396.224C207.696 390.583 208.041 380.781 205.639 373.906L205.869 368.759C205.935 367.213 206.429 365.716 207.285 364.417L212.007 357.279C213.932 375.88 221.93 387.064 225.813 391.471L213.11 404.168L213.175 395.896L206.972 410.303L195.42 421.848L195.404 421.832ZM261.767 427.161L256.847 439.265L251.779 427.309C255.087 427.72 258.575 427.687 261.767 427.177V427.161ZM266.967 427.49L285.232 419.76C285.578 420.27 285.973 420.763 286.417 421.223C288.737 423.608 291.88 424.71 294.957 424.529L293.772 427.539L261.372 441.255L266.967 427.506V427.49ZM775.873 428.805C775.873 428.805 775.906 428.937 775.906 429.003C775.774 429.003 775.643 428.97 775.511 428.97C775.61 428.871 775.692 428.789 775.791 428.69C775.824 428.723 775.84 428.772 775.873 428.805ZM378.467 347.411L385.115 340.98V350.947C382.103 350.782 379.125 350.322 376.245 349.582L378.467 347.427V347.411ZM359.807 365.469C355.742 372.13 350.016 377.821 342.94 381.784L359.807 365.469ZM620.702 490.809C620.702 490.727 620.685 490.645 620.669 490.562H620.801L620.702 490.809ZM639.066 444.874C638.407 439.381 637.815 429.973 638.556 415.599C638.918 408.543 634.36 397.836 628.485 392.984V368.134L652.46 377.936C646.865 395.106 649.021 408.379 650.979 415.122L647.803 423.049L644.134 416.569L644.693 430.795L639.066 444.874ZM646.882 434.183L652.641 419.776C652.707 419.924 652.756 420.006 652.756 420.006C652.756 420.006 657.709 411.043 676.715 394.086C680.911 394.958 684.975 396.751 688.628 399.497C692.874 402.704 696.017 406.833 698.024 411.372C692.841 408.79 685.634 408.494 678.558 411.109C661.313 417.49 651.736 427.407 646.882 434.167V434.183ZM725.142 355.486C724.435 355.042 723.727 354.549 723.036 354.039C721.522 352.888 720.14 351.621 718.906 350.273L723.99 337.872C726.343 338.201 728.696 338.546 731.049 338.924L732.136 339.105C738.635 346.194 744.806 353.628 750.631 361.423C742.173 358.973 733.666 357.016 725.142 355.503V355.486ZM725.916 333.152L726.097 332.708C726.278 332.888 726.459 333.069 726.623 333.25C726.393 333.217 726.146 333.184 725.916 333.152ZM293.098 399.481L286.68 405.698C286.433 405.944 286.203 406.191 285.973 406.454C285.841 406.619 285.709 406.783 285.594 406.948C285.528 407.046 285.446 407.129 285.38 407.227C285.364 407.26 285.331 407.277 285.315 407.31C285.183 407.507 285.051 407.721 284.936 407.918C284.903 407.967 284.87 408.017 284.854 408.066C284.706 408.329 284.558 408.609 284.426 408.872C284.426 408.888 284.409 408.905 284.393 408.921C284.393 408.921 284.393 408.954 284.377 408.971C284.377 409.004 284.344 409.036 284.327 409.069C284.212 409.316 284.113 409.579 284.015 409.826C283.883 410.171 283.784 410.517 283.702 410.862C283.702 410.862 283.702 410.895 283.702 410.911C283.356 412.293 283.291 413.74 283.488 415.138L274.652 418.872C275.573 417.21 276.149 415.418 276.248 413.51C276.346 411.471 275.902 409.497 275.047 407.655L276.083 405.106L296.01 396.669L293.131 399.464L293.098 399.481ZM278.683 398.659L279.111 397.606C279.605 397.705 280.098 397.77 280.608 397.853L278.683 398.675V398.659ZM274.026 396.997L273.599 395.994C273.829 396.093 274.076 396.192 274.306 396.274L274.01 396.981L274.026 396.997ZM239.981 377.278L229.236 388.018C230.733 382.771 233.892 373.775 240.442 360.437C243.881 353.447 243.568 340.01 238.928 333.76C235.999 329.797 231.951 327.362 227.508 327.379C224.76 327.395 222.193 328.349 219.939 330.027C219.001 328.76 217.701 327.741 216.072 327.132L213.817 326.293H247.27C249.739 342.559 256.798 352.542 260.467 356.769L247.863 369.367L248.126 360.897L239.948 377.278H239.981ZM193.758 259.767V279.552C188.065 275.999 179.443 278.203 174.325 287.282C172.926 289.815 171.824 292.331 170.952 294.831C167.891 294.14 164.501 295.143 162.346 297.841L160.141 300.604C159.186 297.068 158.364 293.499 157.673 289.913C159.565 287.479 165.851 280.341 181.121 273.171C185.531 270.967 190.829 265.227 193.758 259.767ZM152.983 274.503C151.206 272.217 149.478 269.865 147.799 267.431C149.692 274.421 152.028 281.197 154.76 287.726C155.171 290.078 155.632 292.413 156.142 294.749C156.767 297.512 157.475 300.258 158.232 302.972L157.64 303.729C153.937 298.515 148.787 289.453 143.603 274.092C141.217 266.839 135.787 257.398 130.587 253.089C134.997 251.905 139.555 251.181 144.146 251.001C144.278 251.001 144.377 250.968 144.508 250.951C147.717 252.53 150.482 253.089 152.358 253.303C152.094 260.375 152.292 267.447 152.966 274.519L152.983 274.503ZM114.313 265.852C104.259 276.74 95.1103 288.713 86.8992 301.623C86.8005 300.669 86.7018 299.716 86.6195 298.762C87.7714 293.614 89.5979 288.532 92.1813 283.647C97.7102 273.187 105.872 264.997 115.383 259.438C114.774 261.378 114.429 263.549 114.313 265.852ZM94.9129 344.434C102.861 326.392 112.717 309.682 124.219 294.65C135.228 306.64 144.722 310.505 151.568 311.376L147.701 316.228C146.73 317.445 145.463 318.366 144.015 318.909L140.954 320.06C139.523 319.567 138.19 319.32 137.038 319.369C134.027 319.583 131.558 321.129 130.193 324.09L129.699 324.27C130.653 322.642 131.608 321.014 132.595 319.435L128.399 316.837C126.342 320.159 124.384 323.547 122.475 326.984L121.981 327.165C118.987 328.283 117.061 330.866 116.551 333.727H116.42V338.645C111.203 349.45 106.728 360.766 103.058 372.508C99.7671 363.529 96.9368 354.417 94.5673 345.223L94.8964 344.467L94.9129 344.434ZM106.25 378.923C109.574 367.459 113.705 356.407 118.509 345.816L129.6 362.591C124.45 376.554 120.583 391.192 118.032 406.29C113.54 397.672 109.492 388.889 105.921 379.959L106.234 378.906L106.25 378.923ZM241.61 464.972C238.549 463.426 235.192 461.222 231.918 458.557L225.171 442.653L220.63 444.578L222.67 449.38C216.796 442.16 213.027 433.838 215.15 426.519C215.15 426.503 215.15 426.486 215.15 426.47C215.693 424.611 214.146 422.786 212.254 423.181C207.976 424.085 203.451 424.052 198.942 422.95L211.382 410.517C214.837 411.438 224.826 414.645 242.433 424.562C243.436 425.121 244.605 425.615 245.855 426.026L254.214 445.729L248.735 459.215L233.185 422.506L228.643 424.431L246.119 465.662L240.639 479.149L240.376 478.54C240.458 478.26 240.524 477.964 240.606 477.685L239.931 477.487L234.567 464.823C237.068 464.708 239.454 464.741 241.593 464.955L241.61 464.972ZM242.317 488.178L258.295 481.418C256.962 485.727 255.712 490.036 254.593 494.378L236.739 501.944L242.334 488.194L242.317 488.178ZM244.95 481.714L250.545 467.965L265.091 461.814C263.38 466.271 261.767 470.744 260.27 475.251L244.95 481.731V481.714ZM232.856 511.499L234.106 508.424L253.145 500.365C252.158 504.542 251.253 508.703 250.463 512.897L231.391 520.972C231.819 517.815 232.313 514.673 232.856 511.516V511.499ZM384.506 443.459C384.703 443.542 384.917 443.624 385.115 443.706V444.035C384.67 444.134 384.242 444.232 383.798 444.347C384.029 444.051 384.259 443.755 384.506 443.476V443.459ZM385.115 449.084V450.614C384.391 450.285 383.65 449.956 382.926 449.627C383.65 449.446 384.391 449.265 385.115 449.084ZM631.447 472.784L637.108 458.607L647.557 448.952L639.888 451.65L644.019 441.321C647.557 440.795 658.005 439.808 678.097 441.996C685.847 442.834 698.37 437.966 702.681 431.47C705.413 427.358 706.318 422.737 704.787 418.576C704.689 418.296 704.54 418.049 704.425 417.77C713.772 414.283 724.632 415.467 733.172 421.931C737.138 424.924 740.116 428.707 742.124 432.901C742.634 433.97 743.835 434.512 744.987 434.233L758.711 430.993C760.175 431.848 761.755 432.424 763.351 432.703C763.351 432.703 763.334 432.703 763.334 432.72C760.159 436.108 756.176 438.821 751.503 440.499C740.988 444.249 729.799 441.798 721.868 435.071C720.633 434.019 718.807 434.331 717.968 435.713C714.496 441.453 709.115 446.091 702.302 448.508C697.498 450.219 692.561 450.63 687.855 449.923C686.588 449.742 685.551 450.515 685.173 451.584C679.989 447.604 671.499 446.634 663.156 449.709C645.911 456.09 636.334 466.008 631.48 472.767L631.447 472.784ZM651.407 287.545C649.432 288.285 647.853 289.798 646.997 291.722C634.639 294.321 622.627 297.791 611.109 302.15L612.853 306.755C623.121 302.873 633.767 299.716 644.71 297.249L624.273 347.164H558.354C558.354 346.26 557.613 345.52 556.708 345.52C555.803 345.52 555.063 346.26 555.063 347.164H547.674V289.913H502.768V278.434C514.172 266.921 526.908 256.379 540.779 246.971C550.241 247.629 559.621 248.747 568.901 250.326C550.883 260.063 534.346 271.625 519.734 284.831L523.041 288.499C538.821 274.256 556.873 261.905 576.685 251.79H576.717C585.949 253.616 595.065 255.902 604.049 258.632C584.945 266.049 567.124 275.473 551.015 286.756L553.845 290.801C571.188 278.664 590.556 268.664 611.405 261.115L611.586 261.049C620.471 264.026 629.209 267.431 637.766 271.263C617.855 276.23 598.981 283.368 581.572 292.578L583.875 296.936C602.568 287.052 622.989 279.552 644.595 274.684L644.94 274.602C650.765 277.397 656.492 280.391 662.119 283.581L651.358 287.561L651.407 287.545ZM532.832 246.56C522.087 254.224 512.032 262.579 502.785 271.542V263.796C502.785 258.763 501.765 253.977 499.905 249.619C500.892 248.715 501.896 247.826 502.9 246.938C512.905 246.28 522.893 246.165 532.815 246.56H532.832ZM466.403 231.544C476.276 231.544 485.129 236.018 491.052 243.024C472.491 245.014 453.897 248.83 435.484 254.602C439.449 241.281 451.807 231.528 466.403 231.528V231.544ZM434.134 263.796C434.134 262.563 434.216 261.346 434.348 260.145C454.176 253.714 474.268 249.57 494.277 247.629C494.343 247.728 494.393 247.826 494.458 247.925C483.697 257.941 473.857 268.714 465.136 280.062L469.052 283.072C477.279 272.365 486.544 262.184 496.631 252.662C497.914 256.132 498.655 259.882 498.655 263.796V275.605C495.002 279.305 491.497 283.121 488.123 287.002L491.513 289.93H445.603H434.118V263.796H434.134ZM327.785 365.946L317.896 375.518L305.094 387.919L304.6 388.396C305.176 387.064 305.538 385.666 305.62 384.186C306.064 375.321 296.603 367.624 284.459 367.015C266.079 366.078 253.375 371.423 246.25 375.732L257.045 364.943L270.456 360.19L262.343 359.647L262.788 359.203L270.209 351.786C273.664 352.707 283.653 355.914 301.259 365.831C307.973 369.614 321.203 370.091 327.785 365.963V365.946ZM193.758 227.86V243.09C189.612 237.399 180.298 236.577 172.4 243.978C159.351 256.477 156.554 272.069 156.307 281.739C155.468 275.72 154.941 269.651 154.793 263.549C156.34 258.352 158.117 253.287 160.157 248.418C158.347 250.359 156.586 252.399 154.859 254.487C154.859 254.158 154.875 253.846 154.892 253.517C154.99 253.517 155.023 253.55 154.99 253.599C155.056 253.599 155.023 253.451 154.908 253.155C155.073 249.241 155.369 245.343 155.83 241.429C158.462 239.619 166.591 234.801 183.112 232.564C186.239 232.054 190.171 230.261 193.758 227.877V227.86ZM159.515 196.743C159.038 202.253 159.466 206.628 160.042 209.719C159.005 212.959 158.067 216.232 157.228 219.522C156.175 217.334 155.155 215.13 154.2 212.844C154.2 218.403 154.513 223.88 155.073 229.242C153.954 235.212 153.164 241.248 152.72 247.3C151.173 242.119 149.412 233.271 149.429 219.111C150.597 213.93 152.456 208.831 155.056 203.914C156.389 201.381 157.903 199.013 159.515 196.76V196.743ZM69.3417 318.975L80.9919 316.557C81.9956 316.343 82.8677 315.85 83.5589 315.175C84.5462 322.083 85.7803 328.941 87.2777 335.783C81.0906 330.487 75.101 324.879 69.3417 318.991V318.975ZM100.195 378.824C102.828 385.649 105.724 392.376 108.883 399.02C105.263 398.05 101.775 396.405 98.6153 394.004C90.7168 388.034 86.6195 378.939 86.6689 369.762C91.0953 372.92 95.6204 375.929 100.195 378.807V378.824ZM219.165 467.488C222.538 466.485 226.043 465.761 229.433 465.317L235.192 478.918C233.646 484.411 232.23 489.905 230.996 495.431L219.165 467.504V467.488ZM227.08 552.435C233.629 550.642 240.211 549.162 246.793 547.928L220.926 558.882C222.39 556.859 223.888 554.869 225.402 552.895L227.08 552.435ZM231.375 537.715L229.532 538.488C229.828 534.524 230.239 530.561 230.7 526.597L249.048 518.834C242.91 524.821 237.019 531.12 231.358 537.715H231.375ZM375.274 451.683L375.603 451.814C378.829 453.163 381.988 454.594 385.131 456.057V474.708C373.497 469.133 361.271 464.412 348.568 460.597C357.322 457.192 366.241 454.215 375.274 451.666V451.683ZM611.043 490.579C614.219 492.914 616.983 494.427 618.908 495.349L612.244 512.025L609.035 504.394V520.084L602.124 537.304C601.466 531.827 600.857 522.403 601.597 507.947C601.861 502.865 599.557 495.908 596.069 490.579H611.043ZM647.705 488.309C630.443 494.691 620.883 504.608 616.029 511.368L620.702 499.674L633.372 488.605L628.469 489.658V480.25L628.6 479.905C632.138 479.395 642.587 478.392 662.679 480.579C667.336 481.089 673.72 479.51 679.019 476.764C675.76 481.303 671.713 485.497 667.648 488.819C662.432 486.007 655.011 485.596 647.705 488.293V488.309ZM835.243 441.042C826.637 456.65 828.562 472.34 831.277 481.846C829.105 477.323 827.147 472.718 825.419 468.031C825.304 461.649 825.568 455.383 826.242 449.298C824.679 451.716 823.198 454.215 821.75 456.781C820.516 452.456 819.446 448.097 818.591 443.69C820.483 441.255 826.769 434.118 842.039 426.947C847.732 424.102 854.956 415.352 856.536 408.938C857.474 404.76 857.178 400.78 855.187 397.573C851.336 391.225 841.545 390.008 833.318 397.721C820.269 410.221 817.472 425.812 817.225 435.483C816.385 429.463 815.859 423.394 815.711 417.293C817.258 412.096 819.035 407.03 821.075 402.162C819.265 404.102 817.505 406.142 815.777 408.231C815.777 407.902 815.793 407.589 815.81 407.26C815.908 407.26 815.941 407.293 815.908 407.342C815.974 407.342 815.941 407.194 815.826 406.898C815.991 402.984 816.287 399.086 816.748 395.172C819.38 393.363 827.509 388.544 844.03 386.307C849.032 385.501 856.059 381.406 860.469 376.9L868.433 384.86L877.862 402.77C878.158 403.329 878.503 403.856 878.882 404.349C878.898 404.382 878.931 404.415 878.948 404.448C878.964 404.481 878.997 404.514 879.014 404.547C879.392 405.023 879.82 405.468 880.281 405.862C880.281 405.862 880.281 405.862 880.297 405.879C880.297 405.879 880.33 405.912 880.346 405.928C880.379 405.944 880.396 405.977 880.429 405.994C880.922 406.421 881.449 406.783 881.992 407.112C881.992 407.112 882.008 407.112 882.025 407.129C883.226 407.836 884.559 408.296 885.925 408.51V416.931L858.182 389.202L854.693 392.688L885.908 423.888V438.443L858.313 410.878L854.825 414.365L885.892 445.416V459.972L858.445 432.555L856.339 434.66C856.24 434.562 856.158 434.463 856.042 434.381C850.464 429.48 840.772 431.256 835.227 441.091L835.243 441.042ZM859.103 454.692C860.271 451.206 860.946 447.637 860.765 444.808C860.666 443.525 860.436 442.308 860.123 441.14L885.875 466.896V481.451L859.086 454.692H859.103ZM890.845 440.088V425.236L907.58 408.527C907.958 408.888 908.435 409.152 909.028 409.234C912.319 409.76 915.56 410.78 918.637 412.293L890.845 440.071V440.088ZM1261.91 404.283C1278.95 399.941 1288.53 391.159 1292.32 386.932L1306.45 398.017L1298.22 398.955L1313.28 403.379L1327.89 414.826C1322.44 413.921 1313.21 411.849 1299.56 407.079C1293.4 404.925 1283.08 405.928 1276.57 409.448C1274.76 406.01 1270.68 404.399 1267.01 405.764L1265.91 406.175L1261.92 404.283H1261.91ZM1306.91 394.185L1297.01 386.422L1291.21 373.939C1292.69 371.637 1293.91 369.186 1294.87 366.637C1297.37 379.811 1302.7 388.824 1306.91 394.202V394.185ZM1228.04 187.862C1225.87 182.879 1225.62 176.563 1226.53 170.149C1236.09 165.231 1246.09 160.873 1256.46 157.107L1256.64 157.041C1265.53 160.018 1274.28 163.422 1282.82 167.254C1263.44 172.09 1245.04 178.997 1228.03 187.862H1228.04Z" fill="black"/>
</g>
<defs>
<clipPath id="clip0_125_895">
<rect width="1440" height="518" fill="white"/>
</clipPath>
</defs>
</svg>