<svg xmlns:xlink="http://www.w3.org/1999/xlink" xmlns="http://www.w3.org/2000/svg" width="110" height="213" viewBox="0 0 110 213" fill="none">
<path d="M55.2327 162.627V1.27051" stroke="#F0E1D3" stroke-width="2" stroke-miterlimit="10" stroke-linecap="round"/>
<path d="M98.8198 169.064C104.526 144.899 89.5522 120.685 65.3741 114.981C41.1961 109.278 16.9698 124.244 11.2633 148.41C5.55674 172.575 20.5309 196.789 44.7089 202.493C68.887 208.196 93.1132 193.23 98.8198 169.064Z" fill="#FFDEC0"/>
<path d="M86.1583 126.276C78.0818 118.555 67.1394 113.803 55.0767 113.803C43.014 113.803 32.0717 118.555 23.9951 126.276H86.1583Z" fill="#FC5954"/>
<path d="M96.5143 176.273C98.794 170.882 100.058 164.958 100.058 158.748C100.058 150.858 98.0254 143.449 94.4561 137.004H15.7098C12.1405 143.449 10.1084 150.858 10.1084 158.748C10.1084 164.971 11.372 170.895 13.6517 176.273H96.5143V176.273Z" fill="#006941"/>
<path d="M20.1128 187.014C28.3587 197.196 40.9555 203.706 55.0764 203.706C69.1973 203.706 81.7942 197.196 90.04 187.014H20.0999H20.1128Z" fill="#FC5954"/>
<path d="M55.076 141.275L61.5372 149.373L71.242 153.006L65.5234 161.651L65.0674 172.002L55.076 169.242L45.0976 172.002L44.6285 161.651L38.9229 153.006L48.6277 149.373L55.076 141.275Z" fill="#FFDEC0"/>
<path d="M24.2818 172.002L24.7377 161.651L30.4564 153.006L20.7516 149.373L14.2903 141.275L13.0007 142.889C11.1379 147.824 10.0957 153.162 10.0957 158.748C10.0957 162.641 10.5908 166.404 11.5156 170.01L14.2903 169.242L24.2818 172.002V172.002Z" fill="#FFDEC0"/>
<path d="M100.058 158.748C100.058 153.162 99.0158 147.824 97.153 142.889L95.8633 141.275L89.4021 149.373L79.6973 153.006L85.4159 161.651L85.8719 172.002L95.8633 169.242L98.638 170.01C99.5629 166.417 100.058 162.641 100.058 158.748V158.748Z" fill="#FFDEC0"/>
<path d="M60.5603 105.327H49.5918V114.154H60.5603V105.327Z" fill="#FFDEC0"/>
<g style="mix-blend-mode:overlay" opacity="0.31">
<path d="M77.8084 186.233C52.9665 186.233 32.8273 166.104 32.8273 141.275C32.8273 132.005 35.6411 123.385 40.4479 116.237C22.7968 122.305 10.0957 139.035 10.0957 158.748C10.0957 183.577 30.235 203.706 55.0768 203.706C70.6437 203.706 84.3608 195.803 92.4373 183.785C87.8519 185.36 82.9279 186.233 77.8084 186.233Z" fill="black"/>
</g>
</svg>