<svg xmlns:xlink="http://www.w3.org/1999/xlink" xmlns="http://www.w3.org/2000/svg" width="48" height="48" viewBox="0 0 48 48" fill="none">
<g clip-path="url(#clip0_189_11380)">
<path d="M18.5 4C14.358 4 11 7.358 11 11.5C11 12.28 11.1188 13.0313 11.3398 13.7383C14.7908 11.4033 19.2 10 24 10C24.616 10 25.2373 10.032 25.8613 10.082C25.1983 6.61903 22.157 4 18.5 4ZM35.8281 8.00781C35.708 7.99541 35.5866 7.99812 35.4629 8.01562C34.2489 8.18662 30.3331 8.99448 28.1211 12.3965H28.1191C26.7941 12.1455 25.42 12 24 12C16.5235 12 10.1142 15.673 7.39453 20.9004C6.57995 20.6484 6 19.9086 6 19C6 17.3 7.16992 16.8418 7.16992 16.8418C7.4769 16.6939 7.72438 16.4459 7.87162 16.1386C8.01887 15.8313 8.0571 15.483 7.98003 15.151C7.90295 14.8191 7.71517 14.5233 7.44759 14.3123C7.18 14.1013 6.84856 13.9877 6.50781 13.9902C6.27183 13.9921 6.03963 14.0497 5.83008 14.1582C5.83008 14.1582 3 15.7 3 19C3 21.1613 4.40822 23.0016 6.34375 23.6934C6.12233 24.602 6 25.539 6 26.5C6 30.397 7.91844 33.9262 11.0234 36.5312L10.252 38.6055C9.48095 40.6765 10.5364 42.978 12.6074 43.748C13.0674 43.918 13.537 44 14 44C15.624 44 17.151 43.0036 17.75 41.3926L18.1895 40.2129C20.0145 40.7149 21.964 41 24 41C26.036 41 27.9875 40.7188 29.8125 40.2168L30.25 41.3926C30.848 43.0036 32.376 44 34 44C34.463 44 34.9336 43.918 35.3926 43.748C37.4636 42.978 38.519 40.6765 37.748 38.6055L36.9785 36.5332C38.5295 35.2302 39.7854 33.698 40.6504 32H43C44.105 32 45 31.105 45 30V25C45 23.895 44.105 23 43 23H41.4492C40.5492 20.082 38.5628 17.5167 35.8418 15.5977L37.1348 9.82812C37.2418 9.34812 37.1074 8.84637 36.7734 8.48437C36.5229 8.21287 36.1885 8.04503 35.8281 8.00781ZM34 23C35.105 23 36 23.895 36 25C36 26.105 35.105 27 34 27C32.895 27 32 26.105 32 25C32 23.895 32.895 23 34 23Z" fill="#8C7BFE"/>
<path d="M18.5 4C14.358 4 11 7.358 11 11.5C11 12.28 11.1188 13.0313 11.3398 13.7383C14.7908 11.4033 19.2 10 24 10C24.616 10 25.2373 10.032 25.8613 10.082C25.1983 6.61903 22.157 4 18.5 4Z" fill="#FCD535"/>
</g>
<defs>
<clipPath id="clip0_189_11380">
<rect width="48" height="48" fill="white"/>
</clipPath>
</defs>
</svg>