<svg xmlns="http://www.w3.org/2000/svg" xmlns:xlink="http://www.w3.org/1999/xlink" id="Capa_1" enable-background="new 0 0 512 512" height="512" viewBox="0 0 512 512" width="512"><linearGradient id="SVGID_1_" gradientUnits="userSpaceOnUse" x1="256" x2="256" y1="512" y2="0"><stop offset="0" stop-color="#c3ffe8"/><stop offset=".9973" stop-color="#f0fff4"/></linearGradient><linearGradient id="SVGID_2_" gradientUnits="userSpaceOnUse" x1="256" x2="256" y1="291.529" y2="127.582"><stop offset="0" stop-color="#9cffac"/><stop offset="1" stop-color="#00b59c"/></linearGradient><g><g><circle cx="256" cy="256" fill="url(#SVGID_1_)" r="256"/></g><g><g><path d="m260.814 201.283 134.668-87.401h-278.966l134.661 87.401c2.88 1.857 6.775 1.857 9.637 0zm-4.814 36.952c-44.082 0-79.941 35.859-79.941 79.941s35.859 79.941 79.941 79.941 79.941-35.859 79.941-79.941-35.859-79.941-79.941-79.941zm35.529 88.824h-26.647v26.647c0 4.91-3.973 8.882-8.882 8.882s-8.882-3.973-8.882-8.882v-26.647h-26.647c-4.91 0-8.882-3.973-8.882-8.882s3.973-8.882 8.882-8.882h26.647v-26.647c0-4.91 3.973-8.882 8.882-8.882s8.882 3.973 8.882 8.882v26.647h26.647c4.91 0 8.882 3.973 8.882 8.882s-3.972 8.882-8.882 8.882zm-186.529-199.476v137.299c0 14.694 11.953 26.647 26.647 26.647h30.434c11.639-40.948 49.29-71.059 93.919-71.059-5.17 0-10.175-1.483-14.495-4.285zm165.486 88.603c-4.311 2.802-9.316 4.285-14.486 4.285 44.629 0 82.28 30.111 93.919 71.059h30.434c14.694 0 26.647-11.953 26.647-26.647v-137.3z" fill="url(#SVGID_2_)"/></g></g></g></svg>