<svg xmlns:xlink="http://www.w3.org/1999/xlink" xmlns="http://www.w3.org/2000/svg" width="96" height="96" viewBox="0 0 96 96" fill="none">
<path d="M47.9997 90.4266C71.4311 90.4266 90.4261 71.4316 90.4261 48.0001C90.4261 24.5687 71.4311 5.57373 47.9997 5.57373C24.5682 5.57373 5.57324 24.5687 5.57324 48.0001C5.57324 71.4316 24.5682 90.4266 47.9997 90.4266Z" fill="#006941"/>
<path d="M47.9996 95.2926C74.0776 95.2926 95.2941 74.0761 95.2941 47.9981C95.2941 21.9201 74.0776 0.703613 47.9996 0.703613C21.9216 0.703613 0.705078 21.9201 0.705078 47.9981C0.705078 74.0761 21.9216 95.2926 47.9996 95.2926ZM47.9996 10.443C68.7084 10.443 85.5546 27.2893 85.5546 47.9981C85.5546 68.7069 68.7052 85.5532 47.9996 85.5532C27.294 85.5532 10.4445 68.7069 10.4445 47.9981C10.4445 27.2893 27.294 10.443 47.9996 10.443Z" fill="#CB2525"/>
<g opacity="0.9">
<path d="M33.7756 86.256C33.6943 86.7539 33.5446 87.0793 32.9588 87.486C31.4359 88.5371 27.5181 88.5404 22.4385 87.7366C28.9531 91.9474 36.5578 94.5994 44.732 95.1689C46.141 93.2327 47.0912 91.0037 47.5012 88.5306C47.6639 87.5381 47.729 86.5456 47.729 85.5531C42.6071 85.5108 37.7293 84.4435 33.2875 82.5366C33.7235 83.9196 33.9481 85.2342 33.7756 86.2593V86.256Z" fill="white"/>
<path d="M85.3981 19.0532C82.3588 19.8277 79.1112 21.0642 76.0361 23.0037C79.121 26.4562 81.581 30.4782 83.2309 34.894C86.2213 32.9155 89.7748 32.1443 92.4919 31.8579C90.7966 27.2046 88.382 22.8963 85.3981 19.0532V19.0532Z" fill="white"/>
<path d="M7.25844 42.4401C4.19963 43.2959 2.21141 43.5009 0.968364 43.4846C0.828439 44.9717 0.74707 46.4751 0.74707 47.998C0.74707 51.2033 1.07247 54.3304 1.68098 57.3599C4.81139 57.2818 8.08824 56.6538 11.2935 55.7492C10.7663 53.2468 10.4832 50.6566 10.4832 47.998C10.4832 45.6746 10.7078 43.4065 11.1113 41.197C9.82918 41.6558 8.53078 42.0821 7.25844 42.4368V42.4401Z" fill="white"/>
<path d="M50.502 10.5341C55.3538 10.8497 59.9583 12.0862 64.1397 14.0777C64.3773 11.0905 64.7027 7.97311 65.3404 6.82768C65.6073 6.34933 66.5738 5.81566 68.2105 5.23644C63.4434 2.97812 58.2401 1.49102 52.7635 0.944336C51.4945 3.6387 50.8957 6.80816 50.5052 10.5341H50.502Z" fill="white"/>
<path d="M14.0074 23.3744C14.9087 23.856 16.3113 24.5784 18.0196 25.457C21.0362 21.4512 24.8369 18.0735 29.1876 15.5354C25.8001 13.8172 22.8584 12.3139 21.1338 11.4092C21.0068 10.9016 20.9678 10.1239 21.0036 9.229C16.7766 12.1869 13.0474 15.812 9.98535 19.9576C10.9876 21.2918 12.299 22.4665 14.0074 23.3776V23.3744Z" fill="white"/>
<path d="M71.6492 77.1772C67.9558 80.171 63.6865 82.4814 59.0332 83.9099C61.3664 86.1292 63.0878 89.2693 64.3146 92.4062C68.7596 90.7694 72.8922 88.4818 76.6019 85.6606C75.3523 82.7905 73.7383 79.8586 71.6492 77.1772Z" fill="white"/>
<path d="M95.2517 50.6694C92.3133 48.9122 88.9616 47.7408 85.5676 46.9468C85.5774 47.2982 85.5936 47.6464 85.5936 48.0011C85.5936 52.4754 84.8029 56.7675 83.3613 60.7505C87.0417 61.717 90.0582 63.2594 90.6667 65.7585C90.862 66.5655 90.8262 67.532 90.5919 68.6188C93.2569 63.139 94.8937 57.0734 95.2517 50.6727V50.6694Z" fill="white"/>
<path d="M16.7576 83.4282C19.1786 81.3424 21.5053 78.9799 23.4577 76.3604C19.6927 73.0933 16.5819 69.0941 14.3528 64.584C14.1836 64.9322 14.0144 65.2836 13.8355 65.6285C12.5338 68.183 10.308 70.6203 7.78613 72.7907C10.2429 76.7672 13.2725 80.3467 16.7576 83.4282V83.4282Z" fill="white"/>
</g>
<g clip-path="url(#clip0_76_2427)">
<path d="M54.9831 49.4062C54.3298 52.6117 51.3957 55.0312 48.0005 55.0312C44.6052 55.0312 41.7649 52.6117 41.1115 49.4062H38.2988C38.9885 54.1641 43.0547 57.8438 48.0005 57.8438C52.9462 57.8438 57.1061 54.1641 57.7958 49.4062H54.9831Z" fill="white"/>
<path d="M60.6079 49.4062C59.8979 55.717 54.4975 60.6562 48 60.6562C41.5025 60.6562 36.1958 55.717 35.4859 49.4062H24V50.8125C24 51.4181 24.3887 51.9564 24.9627 52.1473L30.7488 54.0356C30.9919 54.7251 31.2487 55.3526 31.5233 55.9321L28.8536 61.2962C28.5845 61.8372 28.6915 62.4895 29.1187 62.9167L33.0833 66.8813C33.5132 67.3112 34.1641 67.4128 34.7038 67.1464L40.0679 64.4767C40.6475 64.7513 41.275 65.0081 41.9644 65.2512L43.8527 71.0373C44.0436 71.6113 44.5819 72 45.1875 72H50.9062C51.5119 72 52.0502 71.6113 52.2411 71.0373L54.1294 65.2512C54.8188 65.0081 55.4464 64.7513 56.0258 64.4767L61.3899 67.1464C61.9297 67.4141 62.582 67.3112 63.0104 66.8813L66.9751 62.9167C67.4022 62.4895 67.5093 61.8372 67.2401 61.2962L64.5704 55.9321C64.8451 55.3525 65.1019 54.725 65.345 54.0356L71.0373 52.1473C71.6113 51.9564 72 51.4181 72 50.8125V49.4062H60.6079Z" fill="white"/>
<path d="M44.04 49.4062C44.6225 51.0396 46.1688 52.2188 47.9998 52.2188C49.8307 52.2188 51.4708 51.0396 52.0532 49.4062H44.04Z" fill="white"/>
<path d="M48 24C44.8977 24 42.375 26.5227 42.375 29.625C42.375 32.7273 44.8977 35.25 48 35.25C51.1023 35.25 53.7188 32.7273 53.7188 29.625C53.7188 26.5227 51.1023 24 48 24Z" fill="white"/>
<path d="M62.1562 24C59.054 24 56.5312 26.5227 56.5312 29.625C56.5312 32.7273 59.054 35.25 62.1562 35.25C65.2585 35.25 67.7812 32.7273 67.7812 29.625C67.7812 26.5227 65.2585 24 62.1562 24Z" fill="white"/>
<path d="M33.9375 24C30.8352 24 28.3125 26.5227 28.3125 29.625C28.3125 32.7273 30.8352 35.25 33.9375 35.25C37.0398 35.25 39.5625 32.7273 39.5625 29.625C39.5625 26.5227 37.0398 24 33.9375 24Z" fill="white"/>
<path d="M66.9529 36.5515C65.5889 37.4992 63.9394 38.0625 62.1562 38.0625C60.3803 38.0625 58.736 37.5052 57.3752 36.5647C56.7584 36.9188 56.1656 37.317 55.6289 37.7971C58.3637 39.8414 60.2624 43.0341 60.664 46.5937H71.9999V45.1875C71.9999 41.5103 69.9486 38.2414 66.9529 36.5515Z" fill="white"/>
<path d="M48.0004 38.0625C43.0496 38.0625 38.9407 41.8298 38.2568 46.5938H57.8376C57.1537 41.8298 52.9511 38.0625 48.0004 38.0625Z" fill="white"/>
<path d="M38.7185 36.5647C37.3577 37.5052 35.7133 38.0625 33.9375 38.0625C32.1543 38.0625 30.5047 37.4992 29.1408 36.5515C26.1451 38.2414 24 41.5103 24 45.1875V46.5937H35.4296C35.8312 43.0341 37.73 39.8414 40.4647 37.7971C39.9279 37.317 39.3352 36.9188 38.7185 36.5647Z" fill="white"/>
</g>
<defs>
<clipPath id="clip0_76_2427">
<rect width="48" height="48" fill="white" transform="translate(24 24)"/>
</clipPath>
</defs>
</svg>