<svg xmlns:xlink="http://www.w3.org/1999/xlink" xmlns="http://www.w3.org/2000/svg" width="40" height="41" viewBox="0 0 40 41" fill="none">
<path d="M13.3335 37.8155C12.8668 37.8155 12.3835 37.6989 11.9501 37.4656C11.0001 36.9656 10.4168 35.9655 10.4168 34.8988V32.5323C5.3835 32.0156 2.0835 28.3155 2.0835 23.0155V13.0156C2.0835 7.28225 5.9335 3.43225 11.6668 3.43225H28.3335C34.0668 3.43225 37.9168 7.28225 37.9168 13.0156V23.0155C37.9168 28.7488 34.0668 32.5988 28.3335 32.5988H22.0501L14.9501 37.3323C14.4668 37.649 13.9002 37.8155 13.3335 37.8155ZM11.6668 5.91557C7.36683 5.91557 4.5835 8.6989 4.5835 12.9989V22.999C4.5835 27.299 7.36683 30.0823 11.6668 30.0823C12.3502 30.0823 12.9168 30.649 12.9168 31.3323V34.8823C12.9168 35.099 13.0502 35.199 13.1335 35.249C13.2168 35.299 13.3835 35.3489 13.5669 35.2323L20.9835 30.299C21.1835 30.1657 21.4335 30.0823 21.6835 30.0823H28.3502C32.6502 30.0823 35.4335 27.299 35.4335 22.999V12.9989C35.4335 8.6989 32.6502 5.91557 28.3502 5.91557H11.6668Z" fill="#FCD535"/>
<path d="M19.9995 20.7991C19.3162 20.7991 18.7495 20.2324 18.7495 19.5491V19.1991C18.7495 17.2658 20.1662 16.3158 20.6995 15.9491C21.3162 15.5325 21.5162 15.2491 21.5162 14.8158C21.5162 13.9825 20.8329 13.2991 19.9995 13.2991C19.1662 13.2991 18.4829 13.9825 18.4829 14.8158C18.4829 15.4991 17.9162 16.0658 17.2329 16.0658C16.5496 16.0658 15.9829 15.4991 15.9829 14.8158C15.9829 12.5991 17.7829 10.7991 19.9995 10.7991C22.2162 10.7991 24.0162 12.5991 24.0162 14.8158C24.0162 16.7158 22.6162 17.6658 22.0995 18.0158C21.4495 18.4491 21.2495 18.7325 21.2495 19.1991V19.5491C21.2495 20.2491 20.6829 20.7991 19.9995 20.7991Z" fill="#FCD535"/>
<path d="M20 24.949C19.3 24.949 18.75 24.3823 18.75 23.699C18.75 23.0156 19.3167 22.449 20 22.449C20.6833 22.449 21.25 23.0156 21.25 23.699C21.25 24.3823 20.7 24.949 20 24.949Z" fill="#FCD535"/>
</svg>