<svg xmlns:xlink="http://www.w3.org/1999/xlink" xmlns="http://www.w3.org/2000/svg" width="24" height="24" viewBox="0 0 24 24" fill="none">
<path d="M4.58002 12.25H8C8.41 12.25 8.75 12.59 8.75 13V19.99C8.75 20.73 8.46 21.42 7.94 21.94C7.42 22.46 6.72999 22.75 5.98999 22.75H5.97998C4.72998 22.74 3.55002 22.25 2.65002 21.36C1.75002 20.45 1.26001 19.25 1.26001 18V15.58C1.25001 13.59 2.59002 12.25 4.58002 12.25ZM7.25 13.75H4.58002C3.42002 13.75 2.75 14.42 2.75 15.58V18C2.75 18.86 3.09001 19.68 3.70001 20.3C4.31001 20.9 5.11998 21.24 5.97998 21.25C5.97998 21.25 5.97999 21.25 5.98999 21.25C6.31999 21.25 6.64 21.12 6.88 20.88C7.12 20.64 7.25 20.33 7.25 19.99V13.75Z" fill="#FBBB20"/>
<path d="M15.0002 0.67C15.4702 0.67 15.9102 0.85 16.2402 1.19L17.9003 2.86C17.9903 2.95 18.1302 2.96 18.2302 2.88L19.9402 1.6C20.4702 1.2 21.1703 1.13 21.7703 1.43C22.3703 1.73 22.7402 2.33 22.7402 3V18C22.7402 21.02 21.0102 22.75 17.9902 22.75H5.99023C5.58023 22.75 5.24023 22.41 5.24023 22C5.24023 21.59 5.58023 21.25 5.99023 21.25C6.68023 21.25 7.24023 20.69 7.24023 20V3C7.24023 2.33 7.61027 1.73 8.21027 1.43C8.80027 1.13 9.51022 1.2 10.0402 1.6L11.7502 2.88C11.8502 2.96 11.9903 2.94 12.0703 2.86L13.7502 1.18C14.0902 0.85 14.5302 0.67 15.0002 0.67ZM18.0903 4.43C17.6303 4.43 17.1803 4.26 16.8403 3.91L15.1802 2.24C15.1202 2.18 15.0402 2.17 15.0002 2.17C14.9602 2.17 14.8803 2.18 14.8203 2.24L13.1403 3.92C12.5203 4.54 11.5402 4.6 10.8502 4.07L9.15027 2.8C9.04027 2.72 8.94026 2.75 8.89026 2.78C8.84026 2.81 8.75024 2.87 8.75024 3V20C8.75024 20.45 8.64026 20.88 8.45026 21.25H18.0002C20.2202 21.25 21.2502 20.22 21.2502 18V3C21.2502 2.86 21.1602 2.8 21.1102 2.77C21.0502 2.74 20.9502 2.72 20.8502 2.8L19.1403 4.08C18.8303 4.31 18.4603 4.43 18.0903 4.43Z" fill="#FBBB20"/>
<path d="M12 14.25H18C18.41 14.25 18.75 14.59 18.75 15C18.75 15.41 18.41 15.75 18 15.75H12C11.59 15.75 11.25 15.41 11.25 15C11.25 14.59 11.59 14.25 12 14.25Z" fill="#FBBB20"/>
<path d="M12.75 10.25H17.25C17.66 10.25 18 10.59 18 11C18 11.41 17.66 11.75 17.25 11.75H12.75C12.34 11.75 12 11.41 12 11C12 10.59 12.34 10.25 12.75 10.25Z" fill="#FBBB20"/>
</svg>