<svg xmlns:xlink="http://www.w3.org/1999/xlink" xmlns="http://www.w3.org/2000/svg" width="48" height="48" viewBox="0 0 48 48" fill="none">
<path d="M15 9H14.5V4C14.5 3.18 13.82 2.5 13 2.5C12.18 2.5 11.5 3.18 11.5 4V9H11C7.82 9 6 10.82 6 14V26C6 29.18 7.82 31 11 31H11.5V44C11.5 44.82 12.18 45.5 13 45.5C13.82 45.5 14.5 44.82 14.5 44V31H15C18.18 31 20 29.18 20 26V14C20 10.82 18.18 9 15 9Z" fill="#8C7BFE"/>
<path d="M37 17H36.5V4C36.5 3.18 35.82 2.5 35 2.5C34.18 2.5 33.5 3.18 33.5 4V17H33C29.82 17 28 18.82 28 22V34C28 37.18 29.82 39 33 39H33.5V44C33.5 44.82 34.18 45.5 35 45.5C35.82 45.5 36.5 44.82 36.5 44V39H37C40.18 39 42 37.18 42 34V22C42 18.82 40.18 17 37 17Z" fill="#FCD535"/>
</svg>