<svg xmlns:xlink="http://www.w3.org/1999/xlink" xmlns="http://www.w3.org/2000/svg" width="20" height="20" viewBox="0 0 20 20" fill="none">
<g clip-path="url(#clip0_136_1432)">
<path d="M4.36533 0.319854C3.58287 -0.112621 2.66417 -0.102622 1.88672 0.326104L10.9987 8.73188L14.0598 5.6708L4.36533 0.319854Z" fill="white"/>
<path d="M0.975957 1.18604C0.753469 1.54976 0.625977 1.96599 0.625977 2.40722V17.5889C0.625977 18.0163 0.74222 18.4238 0.952208 18.78L10.1154 9.61681L0.975957 1.18604Z" fill="white"/>
<path d="M18.1189 7.91096L15.199 6.2998L11.918 9.57962L15.939 13.2882L18.1201 12.0845C18.9051 11.6495 19.375 10.8695 19.375 9.9971C19.3738 9.12465 18.9051 8.34469 18.1189 7.91096Z" fill="white"/>
<path d="M11.0339 10.4644L1.8457 19.6526C2.24443 19.8801 2.68191 20.0001 3.12188 20.0001C3.54686 20.0001 3.97433 19.8926 4.36556 19.6763L14.7862 13.9254L11.0339 10.4644Z" fill="white"/>
</g>
<defs>
<clipPath id="clip0_136_1432">
<rect width="20" height="20" fill="white"/>
</clipPath>
</defs>
</svg>