<svg xmlns:xlink="http://www.w3.org/1999/xlink" xmlns="http://www.w3.org/2000/svg" width="25" height="24" viewBox="0 0 25 24" fill="none">
<path d="M17.4496 10H19.4496C21.4496 10 22.4496 9 22.4496 7V5C22.4496 3 21.4496 2 19.4496 2H17.4496C15.4496 2 14.4496 3 14.4496 5V7C14.4496 9 15.4496 10 17.4496 10Z" stroke="#FBFBFD" stroke-width="1.5" stroke-miterlimit="10" stroke-linecap="round" stroke-linejoin="round"/>
<path d="M5.44958 22H7.44958C9.44958 22 10.4496 21 10.4496 19V17C10.4496 15 9.44958 14 7.44958 14H5.44958C3.44958 14 2.44958 15 2.44958 17V19C2.44958 21 3.44958 22 5.44958 22Z" stroke="#FBFBFD" stroke-width="1.5" stroke-miterlimit="10" stroke-linecap="round" stroke-linejoin="round"/>
<path d="M6.44958 10C8.65872 10 10.4496 8.20914 10.4496 6C10.4496 3.79086 8.65872 2 6.44958 2C4.24045 2 2.44958 3.79086 2.44958 6C2.44958 8.20914 4.24045 10 6.44958 10Z" stroke="#FBBB20" stroke-width="1.5" stroke-miterlimit="10" stroke-linecap="round" stroke-linejoin="round"/>
<path d="M18.4496 22C20.6587 22 22.4496 20.2091 22.4496 18C22.4496 15.7909 20.6587 14 18.4496 14C16.2404 14 14.4496 15.7909 14.4496 18C14.4496 20.2091 16.2404 22 18.4496 22Z" stroke="#FBBB20" stroke-width="1.5" stroke-miterlimit="10" stroke-linecap="round" stroke-linejoin="round"/>
</svg>