<svg xmlns:xlink="http://www.w3.org/1999/xlink" xmlns="http://www.w3.org/2000/svg" width="96" height="96" viewBox="0 0 96 96" fill="none">
<path d="M47.9997 90.4266C71.4311 90.4266 90.4261 71.4316 90.4261 48.0001C90.4261 24.5687 71.4311 5.57373 47.9997 5.57373C24.5682 5.57373 5.57324 24.5687 5.57324 48.0001C5.57324 71.4316 24.5682 90.4266 47.9997 90.4266Z" fill="#006941"/>
<path d="M47.9996 95.2926C74.0776 95.2926 95.2941 74.0761 95.2941 47.9981C95.2941 21.9201 74.0776 0.703613 47.9996 0.703613C21.9216 0.703613 0.705078 21.9201 0.705078 47.9981C0.705078 74.0761 21.9216 95.2926 47.9996 95.2926ZM47.9996 10.443C68.7084 10.443 85.5546 27.2893 85.5546 47.9981C85.5546 68.7069 68.7052 85.5532 47.9996 85.5532C27.294 85.5532 10.4445 68.7069 10.4445 47.9981C10.4445 27.2893 27.294 10.443 47.9996 10.443Z" fill="#CB2525"/>
<g opacity="0.9">
<path d="M33.7756 86.256C33.6943 86.7539 33.5446 87.0793 32.9588 87.486C31.4359 88.5371 27.5181 88.5404 22.4385 87.7366C28.9531 91.9474 36.5578 94.5994 44.732 95.1689C46.141 93.2327 47.0912 91.0037 47.5012 88.5306C47.6639 87.5381 47.729 86.5456 47.729 85.5531C42.6071 85.5108 37.7293 84.4435 33.2875 82.5366C33.7235 83.9196 33.9481 85.2342 33.7756 86.2593V86.256Z" fill="white"/>
<path d="M85.3981 19.0532C82.3588 19.8277 79.1112 21.0642 76.0361 23.0037C79.121 26.4562 81.581 30.4782 83.2309 34.894C86.2213 32.9155 89.7748 32.1443 92.4919 31.8579C90.7966 27.2046 88.382 22.8963 85.3981 19.0532V19.0532Z" fill="white"/>
<path d="M7.25844 42.4401C4.19963 43.2959 2.21141 43.5009 0.968364 43.4846C0.828439 44.9717 0.74707 46.4751 0.74707 47.998C0.74707 51.2033 1.07247 54.3304 1.68098 57.3599C4.81139 57.2818 8.08824 56.6538 11.2935 55.7492C10.7663 53.2468 10.4832 50.6566 10.4832 47.998C10.4832 45.6746 10.7078 43.4065 11.1113 41.197C9.82918 41.6558 8.53078 42.0821 7.25844 42.4368V42.4401Z" fill="white"/>
<path d="M50.502 10.5341C55.3538 10.8497 59.9583 12.0862 64.1397 14.0777C64.3773 11.0905 64.7027 7.97311 65.3404 6.82768C65.6073 6.34933 66.5738 5.81566 68.2105 5.23644C63.4434 2.97812 58.2401 1.49102 52.7635 0.944336C51.4945 3.6387 50.8957 6.80816 50.5052 10.5341H50.502Z" fill="white"/>
<path d="M14.0074 23.3744C14.9087 23.856 16.3113 24.5784 18.0196 25.457C21.0362 21.4512 24.8369 18.0735 29.1876 15.5354C25.8001 13.8172 22.8584 12.3139 21.1338 11.4092C21.0068 10.9016 20.9678 10.1239 21.0036 9.229C16.7766 12.1869 13.0474 15.812 9.98535 19.9576C10.9876 21.2918 12.299 22.4665 14.0074 23.3776V23.3744Z" fill="white"/>
<path d="M71.6492 77.1772C67.9558 80.171 63.6865 82.4814 59.0332 83.9099C61.3664 86.1292 63.0878 89.2693 64.3146 92.4062C68.7596 90.7694 72.8922 88.4818 76.6019 85.6606C75.3523 82.7905 73.7383 79.8586 71.6492 77.1772Z" fill="white"/>
<path d="M95.2517 50.6694C92.3133 48.9122 88.9616 47.7408 85.5676 46.9468C85.5774 47.2982 85.5936 47.6464 85.5936 48.0011C85.5936 52.4754 84.8029 56.7675 83.3613 60.7505C87.0417 61.717 90.0582 63.2594 90.6667 65.7585C90.862 66.5655 90.8262 67.532 90.5919 68.6188C93.2569 63.139 94.8937 57.0734 95.2517 50.6727V50.6694Z" fill="white"/>
<path d="M16.7576 83.4282C19.1786 81.3424 21.5053 78.9799 23.4577 76.3604C19.6927 73.0933 16.5819 69.0941 14.3528 64.584C14.1836 64.9322 14.0144 65.2836 13.8355 65.6285C12.5338 68.183 10.308 70.6203 7.78613 72.7907C10.2429 76.7672 13.2725 80.3467 16.7576 83.4282V83.4282Z" fill="white"/>
</g>
<path d="M48.0003 24C34.7665 24 24.0001 34.7664 24.0001 48.0002C23.9834 54.1544 26.3474 60.0765 30.5974 64.5275C34.5117 61.1491 40.9579 59.1467 48.0003 59.1467C55.0427 59.1467 61.4889 61.1491 65.4032 64.5275C69.6532 60.0765 72.0171 54.1544 72.0005 48.0002C72.0005 34.7664 61.2341 24 48.0003 24ZM34.8258 53.7993L32.8165 54.9594C32.7047 55.0247 32.5804 55.0657 32.4517 55.0797C32.323 55.0938 32.1928 55.0806 32.0696 55.041C31.9484 55.0037 31.8364 54.9412 31.7409 54.8577C31.6454 54.7742 31.5686 54.6716 31.5154 54.5564C30.3949 52.1559 29.8174 49.5379 29.824 46.8888C29.824 46.032 29.884 45.1762 30.0036 44.3278L34.1043 45.0503C34.0243 45.6599 33.9842 46.274 33.9842 46.8888C33.9802 48.8595 34.3958 50.8084 35.2033 52.606C35.2999 52.8163 35.3147 53.0549 35.2449 53.2755C35.1751 53.4961 35.0257 53.6828 34.8258 53.7993ZM34.3131 43.8635L30.2115 43.1409C31.0088 39.3633 32.9879 35.9375 35.862 33.3597L38.5415 36.5538C36.4159 38.4992 34.9397 41.051 34.3131 43.8635L34.3131 43.8635ZM36.7848 32.5847C39.8232 30.2044 43.5398 28.8519 47.3973 28.7229V32.8861C44.5186 33.0126 41.7487 34.0225 39.4641 35.7786L36.7848 32.5847ZM47.9998 54.6192C47.4652 54.6192 46.9426 54.4607 46.4981 54.1637C46.0536 53.8667 45.7071 53.4445 45.5025 52.9506C45.2979 52.4566 45.2444 51.9131 45.3487 51.3888C45.453 50.8644 45.7104 50.3828 46.0885 50.0047C46.4665 49.6267 46.9481 49.3693 47.4725 49.265C47.9969 49.1607 48.5404 49.2142 49.0343 49.4188C49.5282 49.6234 49.9504 49.9699 50.2474 50.4144C50.5444 50.8589 50.7029 51.3815 50.7029 51.9161C50.7021 52.6328 50.4171 53.3199 49.9103 53.8266C49.4036 54.3334 48.7165 54.6184 47.9998 54.6192ZM51.5856 50.3685C51.3769 49.8907 51.0756 49.4589 50.6992 49.0982C50.3227 48.7374 49.8786 48.4548 49.3923 48.2666L55.9034 43.912L51.5856 50.3685ZM48.6024 32.8861V28.7229C52.4599 28.8519 56.1765 30.2044 59.2149 32.5847L56.5356 35.7786C54.251 34.0225 51.4811 33.0126 48.6024 32.8861ZM57.4582 36.5537L60.1377 33.3597C63.0119 35.9375 64.9909 39.3633 65.7882 43.1409L61.6866 43.8635C61.06 41.051 59.5838 38.4991 57.4582 36.5537ZM64.4843 54.5564C64.4311 54.6716 64.3543 54.7742 64.2588 54.8577C64.1633 54.9412 64.0514 55.0037 63.9302 55.041C63.8069 55.0806 63.6767 55.0937 63.548 55.0797C63.4194 55.0656 63.2951 55.0246 63.1833 54.9594L61.1739 53.7993C60.974 53.6828 60.8246 53.4961 60.7548 53.2755C60.685 53.0549 60.6998 52.8163 60.7963 52.606C61.6039 50.8084 62.0195 48.8595 62.0155 46.8888C62.0155 46.274 61.9754 45.6599 61.8954 45.0503L65.9961 44.3278C66.1157 45.1762 66.1757 46.032 66.1757 46.8888C66.1824 49.5379 65.6048 52.1559 64.4843 54.5564Z" fill="white"/>
<path d="M31.4512 65.3828C35.9135 69.6309 41.8386 72.0002 47.9997 72.0002C54.1607 72.0002 60.0858 69.6309 64.5482 65.3828C60.8791 62.2672 54.6178 60.3516 47.9997 60.3516C41.3815 60.3516 35.1202 62.2672 31.4512 65.3828Z" fill="white"/>
</svg>