<svg xmlns:xlink="http://www.w3.org/1999/xlink" xmlns="http://www.w3.org/2000/svg" width="24" height="24" viewBox="0 0 24 24" fill="none">
<path d="M12.005 22.7326C6.08732 22.7326 1.27734 17.9227 1.27734 12.005C1.27734 6.08732 6.08732 1.27734 12.005 1.27734C17.9227 1.27734 22.7326 6.08732 22.7326 12.005C22.7326 17.9227 17.9127 22.7326 12.005 22.7326ZM12.005 2.77422C6.91559 2.77422 2.77422 6.91559 2.77422 12.005C2.77422 17.0944 6.91559 21.2358 12.005 21.2358C17.0944 21.2358 21.2358 17.0944 21.2358 12.005C21.2358 6.91559 17.0944 2.77422 12.005 2.77422Z" fill="#FBBB20"/>
<path d="M14.3002 12.953C14.1006 12.953 13.911 12.8732 13.7713 12.7335L5.60831 4.55052C5.31892 4.26112 5.31892 3.78212 5.60831 3.49272C5.89771 3.20333 6.37671 3.20333 6.66611 3.49272L13.5617 10.3983L13.5717 7.66403C13.5717 7.25489 13.911 6.91559 14.3202 6.91559C14.7293 6.88566 15.0686 7.25489 15.0686 7.66403L15.0586 12.2046C15.0586 12.504 14.879 12.7834 14.5996 12.8931C14.4998 12.9331 14.4 12.953 14.3002 12.953Z" fill="#FBBB20"/>
<path d="M17.8628 20.7268C17.6732 20.7268 17.4836 20.657 17.3339 20.5073L10.4383 13.6017L10.4283 16.336C10.4283 16.7451 10.089 17.0844 9.67984 17.0844C9.27069 17.0844 8.9314 16.7451 8.9314 16.336L8.94138 11.7954C8.94138 11.4961 9.121 11.2166 9.40042 11.1069C9.67984 10.9871 9.99917 11.057 10.2187 11.2665L18.3817 19.4495C18.6711 19.7389 18.6711 20.2179 18.3817 20.5073C18.252 20.657 18.0524 20.7268 17.8628 20.7268Z" fill="#FBBB20"/>
</svg>