<svg xmlns:xlink="http://www.w3.org/1999/xlink" xmlns="http://www.w3.org/2000/svg" width="16" height="16" viewBox="0 0 16 16" fill="none">
<path d="M8.30679 15.1666C8.19346 15.1666 8.08013 15.1666 7.96679 15.16C4.23346 14.9933 1.11346 11.9866 0.853462 8.31995C0.626795 5.17329 2.44679 2.23329 5.38013 0.999954C6.21346 0.653288 6.65346 0.919954 6.84013 1.11329C7.02679 1.29995 7.28679 1.73329 6.94013 2.52662C6.63346 3.23329 6.48013 3.98662 6.48679 4.75995C6.50013 7.71329 8.95346 10.22 11.9468 10.34C12.3801 10.36 12.8068 10.3266 13.2201 10.2533C14.1001 10.0933 14.4668 10.4466 14.6068 10.6733C14.7468 10.9 14.9068 11.3866 14.3735 12.1066C12.9601 14.04 10.7135 15.1666 8.30679 15.1666ZM1.84679 8.24662C2.07346 11.42 4.78013 14.02 8.00679 14.16C10.2001 14.2666 12.2801 13.2666 13.5601 11.52C13.6601 11.38 13.7068 11.28 13.7268 11.2266C13.6668 11.22 13.5601 11.2133 13.3935 11.2466C12.9068 11.3333 12.4001 11.3666 11.9001 11.3466C8.38013 11.2066 5.50013 8.25329 5.48013 4.77329C5.48013 3.85329 5.66013 2.96662 6.02679 2.13329C6.09346 1.98662 6.10679 1.88662 6.11346 1.83329C6.05346 1.83329 5.94679 1.84662 5.77346 1.91995C3.23346 2.98662 1.66013 5.53329 1.84679 8.24662Z" fill="white"/>
</svg>