<svg xmlns:xlink="http://www.w3.org/1999/xlink" xmlns="http://www.w3.org/2000/svg" width="32" height="32" viewBox="0 0 32 32" fill="none">
<path d="M18.1442 4.06787C18.0563 4.06774 17.968 4.07418 17.8799 4.0861C17.5275 4.1338 17.1799 4.2792 16.8929 4.53402C16.8929 4.53445 16.8929 4.53489 16.8929 4.53532L10.7445 10.0002H6.33301C4.68801 10.0002 3.33301 11.3552 3.33301 13.0002V19.0002C3.33301 20.6452 4.68801 22.0002 6.33301 22.0002H10.7445L16.8929 27.465C17.4668 27.9752 18.2806 28.0503 18.8968 27.7736C19.513 27.4969 19.9997 26.8384 19.9997 26.0705V5.92985C19.9997 5.16221 19.5143 4.50348 18.8981 4.22673C18.667 4.12294 18.4079 4.06828 18.1442 4.06787ZM17.9997 6.22673V25.7736L11.7887 20.2528C11.6058 20.0901 11.3695 20.0003 11.1247 20.0002H6.33301C5.76867 20.0002 5.33301 19.5645 5.33301 19.0002V13.0002C5.33301 12.4358 5.76867 12.0002 6.33301 12.0002H11.1247C11.3695 12.0001 11.6058 11.9102 11.7887 11.7476L17.9997 6.22673ZM25.8369 7.98714C25.6634 7.98643 25.4927 8.03086 25.3416 8.11607C25.1905 8.20127 25.0641 8.32432 24.975 8.47313C24.8858 8.62194 24.8368 8.79139 24.833 8.96484C24.8291 9.13828 24.8704 9.30975 24.9528 9.4624C27.259 13.8789 27.259 18.1214 24.9528 22.5379C24.8895 22.6546 24.8501 22.7827 24.8369 22.9147C24.8236 23.0468 24.8368 23.1801 24.8756 23.307C24.9144 23.4339 24.9781 23.5518 25.0629 23.6539C25.1477 23.7559 25.252 23.8401 25.3697 23.9014C25.4874 23.9628 25.6161 24.0001 25.7483 24.0112C25.8806 24.0223 26.0137 24.007 26.1399 23.9661C26.2662 23.9252 26.3831 23.8597 26.4837 23.7732C26.5844 23.6867 26.6668 23.5811 26.7262 23.4624C29.2867 18.5589 29.2867 13.4414 26.7262 8.53793C26.6433 8.37297 26.5163 8.23421 26.3593 8.13699C26.2024 8.03978 26.0215 7.98791 25.8369 7.98714ZM22.7809 11.3309C22.6159 11.3379 22.4552 11.3857 22.3132 11.47C22.1711 11.5543 22.0522 11.6725 21.967 11.8139C21.8817 11.9554 21.8328 12.1158 21.8247 12.2807C21.8165 12.4457 21.8494 12.6101 21.9202 12.7593C22.9313 14.9716 22.9299 17.04 21.915 19.2528C21.8594 19.3722 21.8279 19.5015 21.8224 19.6332C21.8169 19.7649 21.8374 19.8964 21.8829 20.0201C21.9283 20.1438 21.9978 20.2573 22.0873 20.3541C22.1768 20.4508 22.2845 20.529 22.4043 20.584C22.524 20.639 22.6535 20.6697 22.7852 20.6745C22.9169 20.6793 23.0483 20.658 23.1717 20.6119C23.2952 20.5657 23.4083 20.4957 23.5046 20.4056C23.6009 20.3156 23.6784 20.2075 23.7327 20.0874C24.9579 17.4161 24.9602 14.5989 23.7393 11.9272C23.6581 11.7429 23.5233 11.5874 23.3523 11.481C23.1813 11.3745 22.9821 11.3222 22.7809 11.3309Z" fill="#FBBB20"/>
</svg>