<svg xmlns:xlink="http://www.w3.org/1999/xlink" xmlns="http://www.w3.org/2000/svg" width="24" height="24" viewBox="0 0 24 24" fill="none">
<path d="M14.2226 3.27441C13.7203 3.29766 13.2198 3.4267 12.7529 3.66015C12.7393 3.66691 12.726 3.67407 12.7128 3.68164L11.2949 4.50097C11.2799 4.5002 11.2649 4.49987 11.2499 4.49999H1.74994C1.65056 4.49859 1.55188 4.51695 1.45966 4.55401C1.36743 4.59107 1.28349 4.64609 1.21271 4.71587C1.14194 4.78566 1.08573 4.86881 1.04737 4.96051C1.00901 5.0522 0.989258 5.1506 0.989258 5.24999C0.989258 5.34939 1.00901 5.44779 1.04737 5.53948C1.08573 5.63118 1.14194 5.71433 1.21271 5.78411C1.28349 5.8539 1.36743 5.90892 1.45966 5.94598C1.55188 5.98304 1.65056 6.0014 1.74994 5.99999H8.13178L7.8056 6.13574C7.78941 6.14234 7.77345 6.1495 7.75775 6.15722C6.92658 6.57281 6.54312 7.45812 6.62592 8.25488C6.70871 9.05163 7.2791 9.84595 8.1933 10.0742C8.54966 10.163 8.9455 10.2148 9.37689 10.2148C11.5637 10.2148 13.7065 9.53343 14.3408 9.32324C14.7578 9.78885 16.8145 12.0873 17.5019 12.791C17.9996 13.3004 18.0501 13.7976 17.9218 14.1514C17.7936 14.5051 17.5024 14.7783 16.8681 14.7803C16.6958 14.7808 16.529 14.8406 16.3956 14.9496C16.2623 15.0586 16.1705 15.2102 16.1357 15.3789C15.9487 16.2833 15.6187 16.4117 15.2822 16.5C14.9457 16.5883 14.621 16.5117 14.621 16.5117C14.5117 16.4819 14.3969 16.4772 14.2855 16.498C14.1741 16.5189 14.0688 16.5647 13.9776 16.6321C13.8865 16.6995 13.8117 16.7867 13.7591 16.8871C13.7065 16.9875 13.6773 17.0986 13.6738 17.2119C13.6738 17.2119 13.6489 17.5991 13.4579 17.9307C13.267 18.2622 13.0682 18.5416 12.1777 18.4443C11.9887 18.4235 11.7988 18.4753 11.6465 18.5892C11.4943 18.703 11.3909 18.8705 11.3574 19.0576C11.2553 19.6284 10.9449 19.8762 10.4794 19.9619C10.014 20.0476 9.38188 19.8952 8.82904 19.3486C8.12118 18.649 5.54016 16.0169 4.37201 14.8242C3.8548 14.296 3.14647 14 2.40912 14H1.74994C1.65056 13.9986 1.55188 14.017 1.45966 14.054C1.36743 14.0911 1.28349 14.1461 1.21271 14.2159C1.14194 14.2857 1.08573 14.3688 1.04737 14.4605C1.00901 14.5522 0.989258 14.6506 0.989258 14.75C0.989258 14.8494 1.00901 14.9478 1.04737 15.0395C1.08573 15.1312 1.14194 15.2143 1.21271 15.2841C1.28349 15.3539 1.36743 15.4089 1.45966 15.446C1.55188 15.483 1.65056 15.5014 1.74994 15.5H2.40912C2.74777 15.5 3.06494 15.6332 3.30072 15.874C4.46957 17.0674 7.02622 19.6756 7.77435 20.415C8.63701 21.2679 9.74937 21.6219 10.7509 21.4375C11.563 21.288 12.2742 20.7216 12.6298 19.9141C13.4851 19.8427 14.1423 19.4499 14.539 18.9814C14.5491 18.982 14.5592 18.9823 14.5693 18.9824C14.5693 18.9824 16.8262 19.0218 18.082 18.9824C18.9555 18.9553 19.8362 18.6588 20.6132 17.9775C20.9638 17.6704 21.3854 17.499 21.8144 17.499H22.2499C22.3493 17.5004 22.448 17.4821 22.5402 17.445C22.6324 17.4079 22.7164 17.3529 22.7872 17.2831C22.8579 17.2134 22.9141 17.1302 22.9525 17.0385C22.9909 16.9468 23.0106 16.8484 23.0106 16.749C23.0106 16.6496 22.9909 16.5512 22.9525 16.4595C22.9141 16.3678 22.8579 16.2847 22.7872 16.2149C22.7164 16.1451 22.6324 16.0901 22.5402 16.053C22.448 16.016 22.3493 15.9976 22.2499 15.999H21.8144C20.9873 15.999 20.2194 16.3287 19.6249 16.8496C19.079 17.3283 18.6455 17.4645 18.0361 17.4834C18.0357 17.4834 18.0354 17.4834 18.0351 17.4834C17.6256 17.4962 17.0553 17.4936 16.5185 17.4932C16.9011 17.1778 17.2442 16.7193 17.456 16.1064C18.3225 15.9083 19.0569 15.4217 19.332 14.6631C19.6715 13.7267 19.4074 12.5948 18.5742 11.7422C17.9428 11.0958 15.1396 7.97265 15.1396 7.97265C15.0413 7.86292 14.9128 7.78458 14.7702 7.74741C14.6276 7.71024 14.4772 7.7159 14.3378 7.76367C14.3378 7.76367 11.4815 8.71484 9.37689 8.71484C9.06529 8.71484 8.79422 8.67834 8.55658 8.61914C8.25728 8.5444 8.14419 8.3506 8.1181 8.0996C8.09217 7.85004 8.1743 7.62971 8.42572 7.50195L10.7734 6.52734C10.8036 6.51463 10.833 6.49995 10.8613 6.48339L13.4277 4.99999C13.9947 4.71771 14.5972 4.69646 15.1435 4.91503L18.5234 6.2666C18.9075 6.4209 19.3176 6.4989 19.7304 6.49902L22.2499 6.49999C22.3493 6.5014 22.448 6.48304 22.5402 6.44598C22.6324 6.40892 22.7164 6.3539 22.7872 6.28411C22.8579 6.21433 22.9141 6.13118 22.9525 6.03948C22.9909 5.94779 23.0106 5.84939 23.0106 5.74999C23.0106 5.6506 22.9909 5.5522 22.9525 5.46051C22.9141 5.36881 22.8579 5.28566 22.7872 5.21587C22.7164 5.14609 22.6324 5.09107 22.5402 5.05401C22.448 5.01695 22.3493 4.99859 22.2499 4.99999L19.7314 4.99902C19.5085 4.99902 19.2885 4.95757 19.0829 4.87499C19.0823 4.87467 19.0816 4.87434 19.081 4.87402L15.7011 3.52246C15.2288 3.33349 14.7249 3.25115 14.2226 3.27441Z" fill="#FBBB20"/>
</svg>