<svg xmlns:xlink="http://www.w3.org/1999/xlink" xmlns="http://www.w3.org/2000/svg" width="48" height="48" viewBox="0 0 48 48" fill="none">
<rect width="48" height="48" rx="24" fill="#F8F8FC"/>
<path d="M24 10.6666C20.5066 10.6666 17.6666 13.5066 17.6666 17C17.6666 20.4266 20.3466 23.2 23.84 23.32C23.9466 23.3066 24.0533 23.3066 24.1333 23.32C24.16 23.32 24.1733 23.32 24.2 23.32C24.2133 23.32 24.2133 23.32 24.2266 23.32C27.64 23.2 30.32 20.4266 30.3333 17C30.3333 13.5066 27.4933 10.6666 24 10.6666Z" fill="#CCD0DA"/>
<path d="M30.7733 26.8667C27.0533 24.3867 20.9866 24.3867 17.2399 26.8667C15.5466 28 14.6133 29.5334 14.6133 31.1734C14.6133 32.8134 15.5466 34.3334 17.2266 35.4534C19.0933 36.7067 21.5466 37.3334 23.9999 37.3334C26.4533 37.3334 28.9066 36.7067 30.7733 35.4534C32.4533 34.32 33.3866 32.8 33.3866 31.1467C33.3733 29.5067 32.4533 27.9867 30.7733 26.8667Z" fill="#CCD0DA"/>
</svg>