<svg xmlns:xlink="http://www.w3.org/1999/xlink" xmlns="http://www.w3.org/2000/svg" width="400" height="277" viewBox="0 0 400 277" fill="none">
<path d="M277.357 276.939H39.7896C18.3409 276.939 0.869141 259.467 0.869141 238.019V81.7928C0.869141 60.344 18.3409 42.8723 39.7896 42.8723H91.3889C92.5447 42.8723 93.4625 43.7901 93.4625 44.9458C93.4625 46.1015 92.5447 47.0193 91.3889 47.0193H39.7896C20.6183 47.0193 5.01613 62.6215 5.01613 81.7928V238.019C5.01613 257.19 20.6183 272.792 39.7896 272.792H277.357C296.529 272.792 312.131 257.19 312.131 238.019V179.961C312.131 178.805 313.049 177.887 314.204 177.887H394.595C395.75 177.887 396.668 178.805 396.668 179.961C396.668 181.116 395.75 182.034 394.595 182.034H316.278V238.019C316.278 259.467 298.806 276.939 277.357 276.939Z" fill="#4ADA85"/>
<path d="M380.794 196.957L377.973 193.931L392.997 179.961L377.973 165.99L380.794 162.965L399.082 179.961L380.794 196.957Z" fill="#4ADA85"/>
<path style="mix-blend-mode:multiply" opacity="0.3" d="M200.466 87.3018C208.163 54.6879 187.965 22.009 155.351 14.3114C122.737 6.61386 90.0581 26.8125 82.3605 59.4264C74.663 92.0402 94.8616 124.719 127.475 132.417C160.089 140.114 192.768 119.916 200.466 87.3018Z" fill="url(#paint0_radial_76_2427)"/>
<rect x="93" width="96" height="96" rx="24" fill="white"/>
<rect x="101" y="8" width="80" height="80" rx="16" fill="#4ADA85"/>
<path d="M163.68 49.9285H147.045C146.318 49.9285 145.725 50.5211 145.725 51.248C145.725 51.6183 145.882 51.9518 146.128 52.1924L157.842 63.9064C158.082 64.1656 158.43 64.3279 158.81 64.3279C159.268 64.3279 159.671 64.0963 159.907 63.7444C162.787 60.4014 164.639 56.1557 164.972 51.484C164.991 51.4053 165 51.3267 165 51.2478C165 50.5211 164.412 49.9285 163.68 49.9285Z" fill="white"/>
<path d="M142.021 26.0142C141.294 26.0186 140.706 26.6068 140.706 27.3337V45.8215C140.706 46.5531 141.294 47.1457 142.021 47.1457H160.514C161.241 47.1457 161.833 46.5531 161.833 45.8215C161.18 35.1818 152.665 26.6671 142.021 26.0142Z" fill="white"/>
<path d="M152.184 62.8278L138.544 49.1877C138.312 48.9515 138.174 48.6227 138.174 48.2663L138.169 29.0005C138.169 28.2736 137.581 27.6855 136.854 27.6855C125.774 28.3616 117 37.566 117 48.8127C117 60.5035 126.478 69.9859 138.169 69.9859C143.502 69.9859 148.373 68.0136 152.096 64.7585C152.383 64.5175 152.564 64.1566 152.564 63.7538C152.564 63.3971 152.42 63.0684 152.184 62.8278Z" fill="white"/>
<defs>
<radialGradient id="paint0_radial_76_2427" cx="0" cy="0" r="1" gradientUnits="userSpaceOnUse" gradientTransform="translate(141.43 73.3542) scale(60.6751)">
<stop offset="0.11"/>
<stop offset="0.12" stop-color="#030303"/>
<stop offset="0.26" stop-color="#454545"/>
<stop offset="0.41" stop-color="#7D7D7D"/>
<stop offset="0.55" stop-color="#ACACAC"/>
<stop offset="0.68" stop-color="#D0D0D0"/>
<stop offset="0.8" stop-color="#E9E9E9"/>
<stop offset="0.91" stop-color="#F9F9F9"/>
<stop offset="1" stop-color="white"/>
</radialGradient>
</defs>
</svg>