<svg xmlns="http://www.w3.org/2000/svg" xmlns:xlink="http://www.w3.org/1999/xlink" id="Capa_1" enable-background="new 0 0 512 512" height="512" viewBox="0 0 512 512" width="512"><linearGradient id="SVGID_1_" gradientUnits="userSpaceOnUse" x1="256" x2="256" y1="512" y2="0"><stop offset="0" stop-color="#c3ffe8"/><stop offset=".9973" stop-color="#f0fff4"/></linearGradient><linearGradient id="SVGID_2_" gradientUnits="userSpaceOnUse" x1="256" x2="256" y1="389.5" y2="122.5"><stop offset="0" stop-color="#9cffac"/><stop offset="1" stop-color="#00b59c"/></linearGradient><g><g><circle cx="256" cy="256" fill="url(#SVGID_1_)" r="256"/></g><g><g><path d="m167.975 138.079c3.678-3.25 4.025-8.874.781-12.559-3.244-3.703-8.83-4.042-12.543-.791-32.546 28.777-51.213 70.13-51.213 113.473 0 4.919 3.973 8.9 8.882 8.9s8.882-3.981 8.882-8.9c.001-38.233 16.482-74.727 45.211-100.123zm187.813-13.35c-3.695-3.251-9.281-2.912-12.543.791-3.244 3.685-2.897 9.308.781 12.559 28.729 25.396 45.21 61.891 45.21 100.124 0 4.919 3.973 8.9 8.882 8.9s8.882-3.981 8.882-8.9c0-43.344-18.667-84.697-51.212-113.474zm-164.914 40.554c3.643-3.277 3.955-8.9.677-12.568-3.279-3.677-8.917-3.963-12.543-.678-24.444 21.963-38.479 53.373-38.479 86.165 0 4.919 3.973 8.9 8.882 8.9 4.91 0 8.883-3.981 8.883-8.9 0-27.742 11.866-54.32 32.58-72.919zm142.118-13.246c-3.643-3.268-9.264-2.981-12.543.678-3.279 3.668-2.967 9.291.677 12.568 20.714 18.599 32.58 45.177 32.58 72.92 0 4.919 3.973 8.9 8.883 8.9 4.909 0 8.882-3.981 8.882-8.9 0-32.793-14.035-64.203-38.479-86.166zm11.831 184.064h-8.882v-97.898c0-34.678-21.286-64.22-53.624-75.406-2.012-12.733-13.046-22.493-26.317-22.493s-24.305 9.778-26.317 22.51c-31.886 11.194-53.624 41.318-53.624 75.388v97.898h-8.882c-4.91 0-8.882 3.981-8.882 8.9s3.973 8.9 8.882 8.9h177.647c4.91 0 8.882-3.981 8.882-8.9s-3.973-8.899-8.883-8.899zm-88.823 53.399c11.565 0 21.332-7.463 25.011-17.8h-50.021c3.678 10.337 13.445 17.8 25.01 17.8z" fill="url(#SVGID_2_)"/></g></g></g></svg>