<svg xmlns:xlink="http://www.w3.org/1999/xlink" xmlns="http://www.w3.org/2000/svg" width="43" height="59" viewBox="0 0 43 59" fill="none">
<path d="M2.44399 6.032C2.49526 5.87369 2.56612 5.72592 2.65358 5.59173C2.76213 5.25097 2.89784 4.91624 3.04409 4.57397C3.10742 4.42319 3.17527 4.27542 3.24162 4.12615C3.25217 4.10203 3.26273 4.07941 3.27328 4.05529C3.28534 4.02664 3.29741 3.99799 3.30494 3.97688C3.39993 3.73714 3.47683 3.49137 3.5296 3.23957C3.53262 3.18679 3.53564 3.13553 3.53714 3.08276C3.54317 2.66812 3.69848 2.27458 3.99401 1.98056C4.38452 1.59004 4.84742 1.50863 5.35705 1.55989C5.30277 1.55235 5.24849 1.54481 5.1927 1.53727C5.32689 1.55235 5.45807 1.55989 5.59076 1.55536C5.68123 1.53275 5.77169 1.50712 5.86065 1.47546C5.86819 1.47244 5.87724 1.46943 5.88628 1.46641C5.93755 1.44379 5.98882 1.41966 6.04159 1.39554C6.55122 1.16485 7.06689 0.937171 7.61723 0.822579C8.56865 0.62355 9.53816 0.673308 10.4986 0.56927C12.1934 0.318977 13.8866 0.0340022 15.604 0.00233849C16.863 -0.0202784 18.122 0.124469 19.3675 0.293342C21.4663 0.576807 23.734 1.1558 25.2735 2.70732C25.9701 3.40995 26.4285 4.29804 26.6335 5.24795C26.6893 5.24041 26.7466 5.23438 26.8024 5.22684C27.4085 5.13788 28.0056 5.02027 28.5982 4.86195C29.1922 4.70364 29.8074 4.56341 30.4256 4.58C31.1795 4.60111 31.9108 4.81823 32.6511 4.93584C33.3703 5.05043 34.0926 5.12582 34.7892 5.35048C35.4541 5.56459 35.9336 6.13755 35.9336 6.85375C35.9336 7.52171 35.4617 8.20624 34.7892 8.35702C34.2765 8.47312 33.7503 8.49423 33.2271 8.49423C33.1201 8.49423 33.016 8.48367 32.915 8.46106C31.9394 8.65255 30.9518 8.3917 29.9657 8.46408C28.7731 8.67215 27.6287 9.08076 26.4586 9.38534C25.8329 10.0759 24.8875 10.4559 23.9436 10.6428C23.627 10.7062 23.3058 10.7529 22.9892 10.8208C22.8746 10.9188 22.763 11.0183 22.6514 11.1178C22.282 11.4495 21.8975 11.7541 21.504 12.0572C20.251 13.0252 18.8051 13.6841 17.3274 14.2314C17.1585 14.2932 16.9882 14.352 16.8208 14.4153C15.5784 15.3291 14.2862 16.1734 12.9805 16.9922C12.8417 17.0781 12.7045 17.1656 12.5673 17.253C12.4618 17.6254 12.2281 17.9541 11.8692 18.126C11.7561 18.1803 11.643 18.2301 11.5315 18.2828C11.4154 18.3839 11.2842 18.4683 11.144 18.5301C11.0294 18.8648 10.7655 19.1242 10.4474 19.287C10.1744 19.6474 9.86837 19.9746 9.54721 20.2957C9.19287 20.8159 8.77974 21.2939 8.38319 21.7824C8.35454 21.8216 8.3274 21.8593 8.30026 21.8985C8.2113 22.0252 8.1329 22.1594 8.05902 22.2951C8.05449 22.3041 8.04997 22.3132 8.04545 22.3222C8.04092 22.3343 8.0364 22.3463 8.03188 22.3584C8.00775 22.4278 7.98966 22.5001 7.97307 22.571C8.01227 22.6886 8.04997 22.8077 8.09219 22.9238C8.12837 23.0203 8.16758 23.1259 8.1917 23.1937C8.23995 23.3264 8.28519 23.4606 8.33042 23.5948C8.41938 23.8602 8.50231 24.1285 8.58222 24.3969C8.72546 24.8734 8.83251 25.3634 8.98782 25.8369C9.0421 26.0042 9.09186 26.1746 9.14011 26.3435C9.20947 26.4882 9.25168 26.6451 9.26826 26.8064C9.28033 26.8501 9.29239 26.8938 9.30445 26.9376C9.65577 26.722 10.0779 26.6435 10.5122 26.7642C11.3445 26.9934 11.8074 27.8588 11.6008 28.6821C11.4531 29.2731 11.2978 29.8612 11.1379 30.4492C11.1636 30.5653 11.1741 30.6874 11.1651 30.8111C10.9781 33.302 10.2694 35.6782 9.50047 38.041C9.13558 39.1643 8.79331 40.2921 8.45255 41.4229C8.1329 42.4829 7.78761 43.5399 7.6112 44.6345C7.52978 45.4291 7.57501 46.2253 7.55089 47.0244C7.52827 47.7572 7.42725 48.4568 7.21616 49.1368C7.21918 49.2107 7.2237 49.2831 7.22672 49.3569C7.2629 50.2058 6.49091 50.916 5.66916 50.916C5.38419 50.916 5.12334 50.8406 4.90019 50.7094C4.83686 50.6838 4.77655 50.6552 4.71774 50.6205C4.01059 50.2058 3.82061 49.4082 4.07392 48.6905C3.97139 47.1314 3.74673 45.5844 3.5477 44.0359C3.31852 42.2537 3.34716 40.4474 3.33208 38.6531C3.31851 36.8483 3.24162 35.045 3.22202 33.2416C3.20242 31.4821 3.20845 29.7225 3.20694 27.9629C2.87975 26.0676 2.73651 24.1376 2.6385 22.2167C2.4636 18.7925 2.22385 15.3683 2.14093 11.9395C2.13942 11.8717 2.14243 11.8053 2.14997 11.7405C2.14093 11.5656 2.13338 11.3907 2.13037 11.2158C1.87405 9.46827 1.88762 7.72526 2.44249 6.02749L2.44399 6.032Z" fill="#ED2B2B"/>
<path d="M0.0769081 54.1862C0.0904779 54.144 0.102541 54.1002 0.114603 54.058C0.0859547 54.1606 0.101034 53.9977 0.120636 54.0324C0.120636 54.0294 0.122142 54.0264 0.12365 54.0233C0.12365 54.0264 0.123652 54.0294 0.120636 54.0324C0.125159 54.0384 0.128173 54.052 0.132696 54.0776C0.101032 53.8756 0.0482616 53.6841 0.0361996 53.476C0.0165977 53.1594 0.188486 52.8895 0.379976 52.6588C0.422194 52.6075 0.480999 52.5668 0.530756 52.5231C0.539803 52.5156 0.545832 52.511 0.551863 52.505C0.554878 52.4884 0.557897 52.4733 0.559404 52.4613C0.559404 52.4387 0.560911 52.4175 0.562419 52.3949C0.574481 52.1838 0.627255 51.9954 0.714707 51.8265C0.707169 51.7813 0.701138 51.736 0.696614 51.6878C0.667966 51.338 0.91675 51.0741 1.2168 50.958C1.18363 50.8057 1.18514 50.6459 1.2364 50.4921C1.39472 50.0202 1.79278 49.8287 2.25718 49.7804C2.26321 49.7804 2.27075 49.7804 2.27678 49.7789C2.41851 49.5166 2.65222 49.2919 2.94775 49.1411C3.2478 48.9888 3.54785 48.9255 3.87504 48.9632C3.93385 48.8591 4.00321 48.7627 4.10875 48.6797C4.47515 48.3917 4.81892 48.3555 5.25769 48.4159C5.70249 48.4777 6.15332 48.5817 6.58002 48.7189C6.98562 48.8486 7.23742 49.1049 7.48169 49.4381C7.48922 49.4487 7.49676 49.4593 7.50279 49.4668C7.50732 49.4713 7.51486 49.4773 7.52239 49.4864C7.71238 49.5512 7.89482 49.5995 8.07726 49.6915C8.36073 49.8362 8.53412 50.1393 8.65625 50.4197C8.65927 50.4273 8.66379 50.4363 8.66681 50.4438C8.92766 50.5177 9.1478 50.7439 9.21866 51.0017C9.28199 51.2294 9.24128 51.436 9.13574 51.6033C9.16589 51.6275 9.19604 51.6516 9.2262 51.6742C9.03019 51.5189 9.34079 51.7179 9.39658 51.7511C9.77202 51.9697 10.0555 52.3286 10.0479 52.7794C10.0419 53.1232 9.84892 53.3856 9.58204 53.5484C9.63934 53.6434 9.6906 53.7429 9.7298 53.8545C9.84892 54.1967 9.75695 54.5933 9.50665 54.8526C9.48705 54.8722 9.46745 54.8903 9.44785 54.9084C9.64838 55.2477 9.74639 55.6201 9.63783 56.0121C9.50514 56.4901 9.08296 56.7525 8.60801 56.7796C8.59444 56.7796 8.58086 56.7796 8.56729 56.7796C8.45119 57.3088 8.0652 57.6104 7.54501 57.7913C7.47113 57.817 7.39423 57.8351 7.31884 57.8562C7.29924 57.8622 7.28416 57.8682 7.27361 57.8712C7.25099 57.8893 7.19973 57.927 7.17862 57.9451C7.03538 58.0718 6.93436 58.1291 6.75644 58.1954C6.39758 58.3296 6.03119 58.2437 5.70701 58.0778C5.3376 58.4864 4.79781 58.5724 4.28215 58.3356C4.13438 58.2678 4.00773 58.1622 3.88409 58.0567C3.80568 58.0688 3.72728 58.0763 3.64887 58.0763C3.36691 58.0793 3.08496 57.9376 2.88744 57.7431C2.81506 57.7612 2.74269 57.7717 2.67785 57.7687C2.35669 57.7521 2.11997 57.6315 1.87571 57.4279C1.75659 57.3284 1.69779 57.1912 1.63295 57.0585C1.56812 57.0359 1.50328 57.0118 1.43996 56.9862C1.15498 56.8701 0.910718 56.7253 0.735814 56.4615C0.657409 56.3423 0.613684 56.1825 0.562419 56.0468C0.541309 55.988 0.520202 55.9307 0.497584 55.8719C0.497584 55.8719 0.497584 55.8719 0.497584 55.8689C0.493061 55.8614 0.487027 55.8523 0.480996 55.8402C0.395052 55.6925 0.280459 55.5673 0.208085 55.4105C0.140235 55.2643 0.10254 55.118 0.0859547 54.9748C0.046752 54.8617 0.0181055 54.7411 0.00302792 54.6099C-0.0120497 54.4742 0.0346918 54.3128 0.0784178 54.1817L0.0769081 54.1862Z" fill="#EDE6E6"/>
<path d="M0.514018 53.1778C0.673844 53.0315 0.866845 52.9199 1.07341 52.8566C1.04175 52.635 1.14578 52.4118 1.35235 52.3108C1.35687 52.3093 1.3614 52.3063 1.36593 52.3048C1.29054 52.2369 1.20459 52.163 1.15333 52.1057C1.00255 51.9369 0.895491 51.7107 0.972389 51.483C1.06135 51.2191 1.30863 51.097 1.574 51.1151C1.64788 51.1196 1.72176 51.1332 1.79564 51.1483C1.74589 50.9372 1.70065 50.7291 1.78207 50.4924C1.85445 50.2798 2.03689 50.1863 2.25401 50.224C2.32337 50.2361 2.38218 50.2572 2.43495 50.2843C2.49677 50.1034 2.70786 49.9616 2.90086 50.031C3.14814 50.12 3.34264 50.2964 3.5477 50.4502C3.55524 50.4441 3.56428 50.4396 3.57182 50.4351C3.70451 50.3582 3.84926 50.3265 3.9925 50.3356C3.99551 50.2768 4.00004 50.2165 4.01059 50.1546C4.04829 49.939 4.29406 49.8486 4.48253 49.8863C5.08414 50.0069 5.56211 50.4185 6.13809 50.6055C6.20745 50.6281 6.26324 50.6628 6.30545 50.705C6.48036 50.6899 6.65828 50.708 6.83469 50.7728C7.03523 50.8467 7.15585 51.0292 7.10308 51.2448C7.07141 51.3714 7.01563 51.4845 6.93722 51.5886C6.92667 51.6021 6.91461 51.6172 6.90254 51.6323C6.98698 51.6624 7.08499 51.67 7.16942 51.6836C7.46495 51.7273 7.52526 52.1404 7.33829 52.3259C7.21315 52.4495 7.06991 52.5204 6.91611 52.5747C6.91611 52.5807 6.91762 52.5882 6.91913 52.5943C7.1845 52.7933 7.40916 53.0858 7.48455 53.3662C7.55089 53.612 7.36392 53.8457 7.11514 53.8518C7.10911 53.8518 7.10157 53.8518 7.09554 53.8518C7.21767 54.0432 7.30965 54.2694 7.28251 54.5001C7.25084 54.7685 7.06237 54.9087 6.797 54.871C6.73367 54.862 6.67185 54.8424 6.61003 54.8183C6.63566 54.9087 6.65526 55.0022 6.65979 55.1002C6.66733 55.257 6.53766 55.4425 6.37783 55.4711C6.21499 55.4998 6.06572 55.5073 5.90137 55.4907C5.85462 55.4862 5.80637 55.4787 5.75812 55.4726C5.7732 55.6973 5.72948 55.9039 5.49577 56.0607C5.31483 56.1828 5.00574 56.1632 4.81575 56.0848C4.74639 56.0562 4.68609 56.0215 4.62577 55.9838C4.56697 55.9989 4.50816 56.0094 4.44936 56.0185C4.4177 56.0531 4.38754 56.0863 4.35889 56.118C4.21414 56.2883 4.05432 56.3894 3.82815 56.406C3.59897 56.4225 3.34867 56.2974 3.13004 56.2461C2.79983 56.1692 2.4832 56.1255 2.17109 55.9823C2.01428 55.9099 1.94492 55.6913 1.9992 55.5284C1.89214 55.5737 1.77001 55.5752 1.66748 55.5028C1.35839 55.2826 1.1292 54.9404 1.14126 54.5468C1.14277 54.4911 1.15785 54.4353 1.18197 54.3825C1.11111 54.2589 1.03722 54.1382 0.976912 54.0206C0.942233 53.9528 0.930172 53.8879 0.93168 53.8261C0.88343 53.8322 0.832165 53.8322 0.7809 53.8261C0.474818 53.7945 0.238092 53.419 0.509495 53.1702L0.514018 53.1778Z" fill="white"/>
<path d="M20.8721 11.2715C20.7937 11.3906 20.6821 11.4735 20.5569 11.5203C20.661 11.4358 20.7665 11.3529 20.8721 11.2715Z" fill="#604939"/>
<path d="M15.2892 12.1457C14.861 12.6192 14.3227 12.9554 13.7588 13.2479C13.2069 13.5344 12.6566 13.7787 12.2073 14.222C11.7715 14.6517 11.4277 15.1674 11.0523 15.6483C11.0297 15.677 11.0086 15.7041 10.9875 15.7328C11.1382 14.8372 11.4142 13.9852 11.7519 13.1364C11.8273 12.9479 11.9148 12.77 12.0459 12.6222C12.0595 12.6011 12.0761 12.583 12.0957 12.5709C12.1243 12.5423 12.1545 12.5151 12.1877 12.4895C12.3686 12.3508 12.6264 12.3372 12.8436 12.3041C13.2733 12.2392 13.6593 12.096 14.0483 11.9C14.276 11.7854 14.4931 11.6542 14.7087 11.5185C14.9077 11.3934 15.1445 11.2652 15.3148 11.1023C15.4747 10.9501 15.6646 10.8189 15.8426 10.6877C15.9813 10.5852 16.1682 10.4057 16.3386 10.5279C16.0944 11.0647 15.7657 11.5803 15.3993 12.0583C15.3631 12.0779 15.3269 12.1065 15.2937 12.1442L15.2892 12.1457Z" fill="#D32626"/>
<path d="M27.047 8.8001C28.5986 8.02358 30.1636 7.25913 31.8433 6.80227C31.9956 6.76156 32.1479 6.72236 32.3002 6.68316C31.4317 6.64396 30.5647 6.5957 29.6947 6.57761C29.5198 6.5746 29.3449 6.57308 29.17 6.57459C29.1006 6.57459 28.8443 6.60324 28.7991 6.60626C28.5036 6.66205 28.211 6.74498 27.9246 6.83696C27.6049 6.93949 27.2928 7.06162 26.9807 7.18526C26.8405 7.24104 26.7017 7.29834 26.5615 7.35413C26.5495 7.36016 26.5344 7.36769 26.5148 7.37674C26.4349 7.41443 26.3565 7.45665 26.2781 7.49887C25.7428 7.78384 25.2482 8.13817 24.71 8.42164C24.039 8.77597 23.3786 8.98706 22.6382 9.02627C22.593 9.06396 22.5478 9.10317 22.504 9.14237C22.4754 9.16649 22.4483 9.19213 22.4196 9.21776C22.3216 9.25244 22.2251 9.29164 22.1286 9.33386C21.6506 9.55098 21.3023 9.89476 20.9043 10.225C20.5032 10.5582 20.0855 10.8733 19.692 11.2156C19.6694 11.1734 19.6513 11.1266 19.6377 11.0754C19.6015 10.9412 19.5774 10.8055 19.5608 10.6713C19.7252 10.1164 19.9122 9.57058 20.1187 9.02476C20.3343 8.4518 20.8033 6.944 19.7855 6.83846C19.4297 6.80227 19.0587 7.06463 18.7421 7.19581C18.231 7.4069 17.7274 7.63307 17.2268 7.86828C16.69 8.12008 16.1517 8.36887 15.6149 8.62067C15.3511 8.74431 15.0751 8.86192 14.8068 8.98706C14.7344 8.69455 14.6394 8.40657 14.5218 8.12763C14.371 7.77028 14.1901 7.42801 14.0348 7.07217C13.9036 6.77363 13.8493 6.43286 13.6654 6.15995C13.296 5.61413 12.7818 5.20099 12.4456 4.62351C12.2435 4.27671 12.0777 3.91334 11.9254 3.54393C11.9193 3.49568 11.9118 3.44593 11.9058 3.39768C11.8952 3.31324 11.9118 3.22729 11.948 3.14587C12.2164 3.22277 12.4878 3.29213 12.7577 3.36299C13.5915 3.58464 14.4012 3.87564 15.2576 4.0023C16.102 4.12744 16.9765 4.08825 17.7635 3.72638C18.1028 3.57107 18.5174 3.42029 18.8311 3.17603C19.0331 3.10516 19.2352 3.03128 19.4342 2.95288C19.4583 2.94383 19.4809 2.93478 19.505 2.92423C19.585 2.88955 19.6649 2.85336 19.7448 2.81868C19.977 2.71314 20.2047 2.59854 20.4308 2.47943C20.8545 2.25477 21.2631 2.00297 21.6506 1.7195C21.6717 1.70141 21.6944 1.68482 21.7155 1.66673C21.8014 1.59586 21.8843 1.52047 21.9658 1.44358C22.0457 1.36969 22.1211 1.29128 22.195 1.21288C22.2296 1.17518 22.2945 1.09678 22.3412 1.03949C22.3563 1.01838 22.3683 0.995761 22.3819 0.973145C23.4585 1.35009 24.4627 1.89441 25.2693 2.70711C25.9659 3.40974 26.4243 4.29783 26.6294 5.24774C26.6852 5.2402 26.7425 5.23416 26.7982 5.22662C27.4044 5.13766 28.0015 5.02006 28.594 4.86174C29.1881 4.70342 29.8033 4.5632 30.4215 4.57978C31.1754 4.60089 31.9067 4.81801 32.647 4.93562C33.3662 5.05021 34.0884 5.1256 34.785 5.35026C35.45 5.56437 35.9294 6.13734 35.9294 6.85354C35.9294 7.52149 35.4575 8.20603 34.785 8.35681C34.2724 8.47291 33.7462 8.49402 33.223 8.49402C33.1159 8.49402 33.0119 8.48346 32.9108 8.46084C31.9353 8.65233 30.9477 8.39149 29.9616 8.46386C28.7765 8.67043 27.6396 9.07603 26.4771 9.37909C26.5977 9.13332 26.7877 8.92374 27.044 8.79558L27.047 8.8001Z" fill="#D32626"/>
<path d="M8.76608 37.2569C8.42834 37.8645 7.95941 38.5023 7.7061 39.1838C7.54175 39.3994 7.35629 39.6045 7.21607 39.8246C7.19345 39.8593 7.17234 39.8955 7.15124 39.9317C7.14822 38.1419 7.04418 36.3522 7.09243 34.5624C7.13314 33.0124 7.25678 31.4654 7.33669 29.9154C7.33518 29.9079 7.33368 29.9003 7.33066 29.8928C7.14219 29.1283 6.93713 28.3699 6.79841 27.5964C6.53002 26.7883 6.16665 26.0148 5.68566 25.297C5.01017 24.2883 3.98638 23.5405 3.54761 22.3765C3.02591 20.9878 3.74362 19.4347 4.35126 18.1999C4.72369 17.4429 5.10365 16.7026 5.39767 15.9095C5.68415 15.139 5.91032 14.3474 6.12593 13.5543C6.5843 11.8732 7.07434 10.2025 7.51461 8.51681C7.7242 7.71315 7.95489 6.92609 8.21272 6.13751C8.24438 6.03951 8.27605 5.9415 8.30621 5.84349C8.55499 5.43035 8.79925 5.01421 8.95757 4.55433C8.99376 4.45029 9.03447 4.33871 9.0782 4.22412C8.97717 5.57209 8.80529 6.92006 8.68768 8.26652C8.55047 9.84065 8.44945 11.4208 8.44794 13.001C8.44794 13.7564 8.48111 14.5118 8.5369 15.2642C8.59118 16.012 8.64395 16.7765 8.80528 17.5093C9.01336 18.4471 9.34507 19.3639 9.54561 20.3032C9.19128 20.8234 8.77815 21.3014 8.3816 21.7899C8.35295 21.8291 8.3258 21.8668 8.29866 21.906C8.2097 22.0327 8.1313 22.1669 8.05742 22.3026C8.05289 22.3116 8.04837 22.3207 8.04385 22.3297C8.03932 22.3418 8.0348 22.3538 8.03028 22.3659C8.00615 22.4353 7.98806 22.5076 7.97148 22.5785C8.01068 22.6961 8.04837 22.8152 8.09059 22.9313C8.12677 23.0278 8.16598 23.1334 8.1901 23.2012C8.23835 23.3339 8.28359 23.4681 8.32882 23.6023C8.41778 23.8677 8.50071 24.136 8.58062 24.4044C8.72386 24.8809 8.83091 25.3709 8.98622 25.8444C9.0405 26.0117 9.09026 26.1821 9.13851 26.351C9.20786 26.4957 9.25008 26.6526 9.26667 26.8139C9.27873 26.8576 9.29079 26.9013 9.30286 26.9451C9.65417 26.7295 10.0764 26.651 10.5106 26.7717C11.3429 27.0008 11.8058 27.8663 11.5992 28.6896C11.4515 29.2806 11.2962 29.8687 11.1363 30.4567C11.162 30.5728 11.1725 30.6949 11.1635 30.8186C11.1635 30.8216 11.1635 30.8246 11.1635 30.8276C10.6508 31.9057 10.2286 33.0064 9.8924 34.1538C9.5818 35.2168 9.30738 36.2858 8.76608 37.2599V37.2569Z" fill="#D32626"/>
<path d="M9.8021 21.3088C9.8021 21.3088 7.98973 15.4465 8.49334 11.1025C8.49334 11.1025 4.14637 21.1821 7.7123 26.7067C7.7123 26.7067 9.31207 30.0088 9.36484 32.8706C9.36484 32.8706 10.9314 28.02 10.9857 25.1386C11.0415 22.2572 9.8021 21.3088 9.8021 21.3088Z" fill="#B22222"/>
<path d="M8.04853 24.1193C7.52382 23.2523 7.60524 22.0837 8.35461 21.3434C8.41191 21.2424 8.48881 21.1519 8.5838 21.0765C8.63205 20.9725 8.68482 20.87 8.74514 20.7705C8.87028 20.5624 9.01352 20.3754 9.16882 20.202C9.17335 20.1643 9.17937 20.1281 9.18993 20.0919C9.27588 19.7723 9.60458 19.5401 9.89709 19.43C9.94232 19.4134 9.99057 19.3984 10.0403 19.3863C10.1308 19.3094 10.2228 19.2325 10.3132 19.1541C10.3901 19.0878 10.467 19.0214 10.5424 18.9551C10.5515 18.8948 10.565 18.8345 10.5831 18.7756C10.6781 18.4726 10.8621 18.3052 11.1712 18.1544C11.1757 18.1469 11.1787 18.1379 11.1847 18.1258C11.1516 18.1967 11.23 17.9856 11.2224 18.0082C11.2677 17.8725 11.3084 17.7338 11.3536 17.5981C11.4396 17.3402 11.5572 17.0372 11.812 16.8984C11.9959 16.7989 12.2357 16.7869 12.4287 16.7281C12.4332 16.7115 12.4377 16.6949 12.4407 16.6843C12.4709 16.5637 12.5493 16.4431 12.6428 16.3617C12.8252 16.2034 13.0363 16.0872 13.2565 15.9907C13.5399 15.8656 13.8339 15.7706 14.128 15.6741C14.6331 15.2655 15.1578 14.884 15.7157 14.5433C15.871 14.4498 16.0263 14.3563 16.1816 14.2658C16.367 14.0985 16.5495 13.9266 16.7274 13.7517C17.0274 13.4577 17.3984 13.236 17.6728 12.9149C17.6652 12.9239 17.6803 12.8922 17.6894 12.8757C17.7014 12.749 17.7195 12.6344 17.7828 12.5168C17.9397 12.2288 18.3061 12.0554 18.6121 11.983C18.9227 11.9107 19.2514 11.9288 19.5666 11.9288C19.6329 11.9288 19.6977 11.9272 19.7641 11.9242C19.7837 11.9242 19.933 11.9076 19.9375 11.9107C19.9661 11.9061 19.9933 11.8986 20.0204 11.8911C20.1184 11.7493 20.2526 11.6815 20.3913 11.6694C21.4423 11.0377 22.5173 10.4587 23.6482 9.98219C23.8789 9.85554 24.1156 9.73944 24.3508 9.62485C24.6101 9.4997 24.868 9.38209 25.1424 9.29162C25.4243 9.19965 25.7199 9.14085 25.9913 9.02173C26.0003 9.01118 26.0154 8.99006 26.0335 8.95388C26.0757 8.86944 26.1119 8.785 26.1677 8.70811C26.3426 8.45781 26.62 8.29196 26.9321 8.32664C27.1839 8.35529 27.3724 8.46384 27.5564 8.62367C27.6001 8.58598 27.6393 8.54526 27.68 8.50757C27.8609 8.33568 28.0524 8.16983 28.2831 8.07182C28.5636 7.95271 28.7973 8.00548 29.0838 8.06278C29.1637 7.99493 29.233 7.9135 29.3114 7.84414C29.5602 7.61948 29.8407 7.55012 30.1664 7.52147C30.676 7.47473 31.157 7.70241 31.6546 7.76423C31.8445 7.70542 32.0345 7.64512 32.2245 7.58179C32.5803 7.34507 33.0357 7.22896 33.4292 7.13095C33.4428 7.12794 33.4579 7.12342 33.4729 7.1204C33.5378 7.09477 33.6026 7.06763 33.6659 7.04049C33.7986 6.9847 33.9509 6.9666 34.1062 6.97263C34.3384 6.91082 34.5586 6.83091 34.7335 6.70274C34.9219 6.56403 35.1345 6.5987 35.2959 6.71782C35.4361 6.6756 35.5824 6.65298 35.7316 6.65449C35.8115 6.60624 35.8975 6.56403 35.9895 6.53236C36.2036 6.45697 36.4569 6.42682 36.6725 6.51427C36.7705 6.55347 36.8519 6.59418 36.9409 6.64996C36.9635 6.66504 36.9876 6.67711 37.0102 6.69068C37.0102 6.68766 37.0329 6.69068 37.0886 6.68465C37.3058 6.66806 37.5847 6.86257 37.6164 7.08572C37.6254 7.14452 37.6405 7.20182 37.6586 7.25761C37.6601 7.26213 37.6631 7.26967 37.6661 7.27872C37.6857 7.32094 37.7068 7.36165 37.7279 7.40085C37.8335 7.60139 37.9617 7.78986 38.0898 7.97532C38.1577 8.07333 38.227 8.16982 38.2979 8.26482C38.8241 8.79857 39.3066 9.37304 39.7695 9.96108C39.8494 10.044 39.9173 10.133 39.9761 10.2265C40.0409 10.3109 40.1057 10.3953 40.1706 10.4798C40.2987 10.6471 40.4254 10.8175 40.549 10.9894C40.5973 10.9984 40.647 11.003 40.6983 11.0075C41.0677 11.0331 41.3014 11.3362 41.226 11.6996C41.2215 11.7192 41.2426 11.7719 41.226 11.7644C41.2833 11.8157 41.3753 11.8292 41.4989 11.8473C41.9287 11.9092 41.992 12.4942 41.7402 12.7611C41.704 12.8003 41.6934 12.8108 41.6708 12.847C41.6708 12.85 41.6738 12.853 41.6753 12.856C41.7055 12.8591 41.8307 12.8862 41.8261 12.8847C42.1156 12.939 42.2694 13.2647 42.2121 13.5361C42.3689 13.7019 42.5076 13.8844 42.6449 14.0668C42.8137 14.29 42.7308 14.5448 42.5559 14.7121C42.583 14.7363 42.6117 14.7619 42.6373 14.7875C42.8846 15.0258 43.0384 15.365 42.9917 15.7118C42.9615 15.938 42.8484 16.1385 42.6494 16.2199C42.6494 16.238 42.6494 16.2546 42.6479 16.2712C42.6871 16.4461 42.6403 16.6451 42.5257 16.7823C42.4383 16.9874 42.3101 17.1744 42.1533 17.3282C42.0613 17.7368 41.8141 18.1077 41.4281 18.3143C41.4039 18.3278 41.3798 18.3414 41.3557 18.355C41.3813 18.6535 41.1144 18.931 40.8144 18.937C40.7948 19.2129 40.5505 19.4858 40.258 19.4843C40.1344 19.4843 40.0092 19.4798 39.8856 19.4798C39.8811 19.4843 39.875 19.4888 39.8705 19.4934C39.9399 19.7572 39.7243 20.0558 39.474 20.1206C39.0563 20.2277 38.9176 20.4146 38.699 20.7177C38.5753 20.8881 38.4457 21.0539 38.2904 21.1941C38.1682 21.3042 38.031 21.3932 37.8667 21.4173C37.7988 21.4354 37.7295 21.4399 37.6601 21.4339C37.5832 21.4927 37.5048 21.5515 37.4234 21.6058C37.3646 21.6993 37.3058 21.7927 37.2243 21.8651C37.3148 21.7837 37.2108 21.9028 37.1866 21.9556C37.164 22.0068 37.1414 22.0581 37.1113 22.1064C36.8368 22.5225 36.4493 22.4743 36.104 22.2828C35.8688 22.3838 35.6291 22.4773 35.3878 22.5632C34.7847 22.9356 34.1469 23.4181 33.4458 23.5584C32.8653 23.6745 32.2607 23.5644 31.6817 23.4905C31.4872 23.4649 31.2912 23.4453 31.0967 23.4302C30.6805 23.4664 30.2629 23.495 29.8467 23.5192C29.5919 23.5584 29.3386 23.5946 29.0838 23.6277C28.9028 23.6503 28.7732 23.7061 28.6676 23.7936C28.3314 24.074 28.0585 24.3952 27.6106 24.4932C27.107 24.6048 26.7587 24.2414 26.317 24.1193C26.2566 24.1781 26.2054 24.2489 26.1511 24.3138C25.9807 24.5173 25.7395 24.6636 25.4786 24.7118C25.2117 24.7616 24.9434 24.6575 24.8348 24.4073C24.3825 24.5264 23.9075 24.5384 23.4356 24.546C23.1506 24.5505 22.8596 24.546 22.5806 24.6018C22.1781 24.6817 21.7936 24.7917 21.4 24.9078C21.0125 25.0224 20.61 25.0224 20.2194 25.1189C20.2692 25.1069 20.1365 25.1943 20.1169 25.2124C20.0596 25.2682 20.0068 25.3285 19.9526 25.3858C19.835 25.5094 19.6947 25.621 19.5409 25.6949C19.1188 25.897 18.5729 25.9256 18.101 25.9331C17.9336 25.9859 17.7587 26.0146 17.5853 26.0372C17.5718 26.0387 17.5582 26.0402 17.5446 26.0417C17.6547 26.0266 17.6275 26.0296 17.4617 26.0523C17.3727 26.0462 17.2838 26.0342 17.1963 26.0146C17.1541 26.0055 17.1134 25.9904 17.0727 25.9754C17.0546 26.0085 17.0365 26.0432 17.0139 26.0734C16.8917 26.2422 16.7591 26.3327 16.5661 26.4066C16.3957 26.4729 16.2178 26.482 16.0383 26.485C15.7971 26.7504 15.4639 26.8227 15.096 26.7745C14.9331 26.7534 14.7718 26.7232 14.6104 26.6931C14.5803 26.7594 14.5441 26.8258 14.5049 26.8906C14.4416 27.0836 14.3194 27.251 14.1038 27.358C14.0299 27.3957 13.9531 27.4213 13.8746 27.4409C13.7344 27.5088 13.5912 27.5751 13.4389 27.6053C13.4087 27.6113 13.3786 27.6173 13.3484 27.6219C13.3047 27.9928 12.9082 28.2536 12.5357 28.0456C12.4965 28.0245 12.4558 28.0064 12.4136 27.9913C12.293 28.0109 12.1633 27.9958 12.0442 27.937C11.9794 27.9053 11.916 27.8752 11.8512 27.845C11.806 27.8767 11.7577 27.9008 11.7079 27.9174C11.5707 28.1858 11.2466 28.3381 10.951 28.1556C10.6902 27.9943 10.4158 27.8963 10.1836 27.6867C10.072 27.5857 10.0207 27.4681 10.0147 27.349C9.71917 27.6369 9.15676 27.5088 9.09343 26.9705C9.0874 26.9238 9.0482 26.7835 9.03915 26.6976C9.02257 26.5604 9.07232 26.4458 9.15525 26.3568C8.96979 26.0899 8.82655 25.7959 8.73156 25.4838C8.69085 25.4356 8.65617 25.3768 8.63506 25.3074C8.32144 25.3707 7.93846 25.1717 7.946 24.7827C7.94751 24.6832 7.96259 24.5957 7.98671 24.5188C8.01083 24.3831 8.02742 24.2459 8.05004 24.1102L8.04853 24.1193Z" fill="#EDE6E6"/>
<path d="M41.0967 14.8709C41.0967 14.8709 38.4023 21.8731 25.3568 22.3661C25.3568 22.3661 33.1431 18.1398 30.9281 15.2478C30.9281 15.2478 37.8956 12.6273 41.0967 14.8709Z" fill="#D6D2D2"/>
<path d="M26.6309 5.24939C26.6309 5.24939 23.4735 6.02591 21.6687 7.88652C21.6687 7.88652 23.8716 4.40353 23.6997 1.55078C23.6997 1.55078 26.0172 2.53084 26.6309 5.2509V5.24939Z" fill="#B22222"/>
<path d="M13 25C16.1378 20.6071 21.2039 18 26.6023 18H43V25H13Z" fill="white"/>
<path d="M8.88414 21.4705C9.08468 21.4162 9.26712 21.3378 9.38774 21.1614C9.55662 20.9141 9.85064 20.9232 10.0406 21.0574C10.1024 21.0167 10.1643 20.979 10.2276 20.9428C10.312 20.7619 10.3377 20.5508 10.3663 20.3547C10.3859 20.2175 10.5397 20.0758 10.6724 20.0487C10.6799 20.0487 10.6875 20.0456 10.6965 20.0441C10.6995 20.0396 10.701 20.0351 10.7041 20.0306C10.7493 19.9537 10.7975 19.9039 10.8714 19.8557C10.8835 19.8481 10.9136 19.8331 10.9438 19.818C11.0071 19.7742 11.0825 19.7501 11.1609 19.7441C11.2393 19.6174 11.3298 19.4998 11.4489 19.4048C11.5801 19.3008 11.7339 19.2164 11.8967 19.1772C11.8605 19.0475 11.8862 18.9012 12.0113 18.7761C12.1545 18.6344 12.3159 18.5333 12.5149 18.4941C12.7019 18.4564 12.8964 18.4941 13.0788 18.4444C13.109 18.4368 13.1376 18.4248 13.1678 18.4142C13.011 18.17 13.1346 17.7809 13.5236 17.7372C13.5402 17.7357 13.5583 17.7312 13.5749 17.7282C13.6186 17.701 13.6563 17.6603 13.7076 17.6076C13.8011 17.5111 13.8825 17.4025 13.982 17.312C14.1071 17.1989 14.2474 17.1477 14.3816 17.1492C14.6107 16.8612 14.8414 16.5732 15.0887 16.3018C15.3164 16.05 15.5803 15.8208 15.8969 15.6896C15.9889 15.6519 16.0974 15.6263 16.206 15.6188C16.1592 15.4152 16.2422 15.1906 16.5075 15.1272C16.5422 15.1197 16.5769 15.1106 16.6116 15.1031C16.8378 15.0443 17.1092 14.9387 17.3459 14.7925C17.3308 14.7669 17.3172 14.7397 17.3022 14.7126C17.1996 14.5075 17.2388 14.2301 17.459 14.114C17.5901 14.0446 17.7243 13.9964 17.8631 13.9632C17.9173 13.8984 17.9897 13.8456 18.0741 13.8154C18.1314 13.7943 18.1887 13.7762 18.246 13.7581C18.2928 13.3978 18.4345 13.0796 18.8461 12.9289C19.2201 12.7917 19.6196 12.867 20.0132 12.9334C20.0343 12.8851 20.0629 12.8399 20.1051 12.7977C20.3705 12.5278 20.7731 12.4132 21.1395 12.4569C21.1516 12.4509 21.1651 12.4434 21.1772 12.4373C21.3476 12.3514 21.524 12.3785 21.6506 12.469C21.7878 12.3182 21.9537 12.1991 22.1331 12.0981C22.2658 12.0242 22.403 11.994 22.5312 12.0076C22.4045 11.8086 22.4121 11.5296 22.6729 11.415C22.988 11.2763 23.3062 11.1919 23.6379 11.121C23.7525 11.0517 23.8656 10.9763 23.9862 10.9039C24.134 10.8164 24.3043 10.83 24.4385 10.9145C24.535 10.8858 24.63 10.8556 24.728 10.8285C24.8517 10.7938 24.9768 10.7652 25.1005 10.7275C25.1095 10.7245 25.117 10.723 25.1231 10.7215C25.1231 10.7184 25.1261 10.7109 25.1397 10.7003C25.1683 10.6747 25.1879 10.6325 25.209 10.5993C25.3854 10.3279 25.6448 10.1998 25.969 10.2284C26.1755 10.2465 26.3384 10.3445 26.4907 10.4666C26.5691 10.4244 26.649 10.3822 26.7289 10.3415C26.7364 10.3385 26.7425 10.3355 26.75 10.3309C26.7681 10.2782 26.7907 10.2299 26.8148 10.1817C26.655 9.90876 26.8917 9.4338 27.3139 9.50919C27.6441 9.56799 27.9879 9.34183 28.2653 9.19406C28.5609 9.03725 28.8775 8.85028 29.2228 8.85933C29.4595 8.86536 29.7565 8.93773 29.9465 8.95884C29.9948 8.96487 30.0445 8.96639 30.0928 8.9679C30.0973 8.9679 30.1094 8.96789 30.1244 8.96639C30.135 8.53666 30.6461 8.33612 30.9296 8.72362C30.9869 8.80203 30.9417 8.76585 30.999 8.74624C31.0728 8.72212 31.1693 8.6407 31.2432 8.59547C31.4634 8.45524 31.7061 8.35874 31.97 8.41906C32.163 8.46429 32.3303 8.62412 32.4841 8.73871C32.5158 8.76283 32.549 8.78544 32.5806 8.80806C32.7344 8.61657 33.0254 8.62863 33.2049 8.77037C33.3194 8.7387 33.4235 8.68292 33.4913 8.57737C33.5893 8.42509 33.7416 8.35723 33.8939 8.36779C33.9105 8.27732 33.9271 8.18686 33.9572 8.0979C34.0372 7.85966 34.3628 7.6531 34.5996 7.83705C34.9765 8.12805 35.4228 8.19137 35.7183 7.82046C35.7591 7.65008 35.8948 7.52945 36.1285 7.52945H36.1647C36.1978 7.52945 36.2295 7.51287 36.2612 7.5189C36.326 7.52644 36.3908 7.52493 36.4572 7.53247C36.6939 7.56263 36.8944 7.70436 36.8944 7.96521C36.8944 8.07679 36.8432 8.19138 36.7617 8.27581C36.8326 8.32859 36.8884 8.40247 36.9155 8.50047C36.9155 8.50047 36.9155 8.50048 36.9155 8.50198C36.9382 8.50801 37.0045 8.53516 36.9985 8.53365C37.1266 8.57587 37.2276 8.63165 37.3302 8.71609C37.4478 8.81409 37.5111 8.97844 37.5292 9.15033C37.6604 9.15335 37.7946 9.20914 37.8911 9.34183C37.9363 9.40364 37.9861 9.47149 38.0419 9.52728C38.2906 9.45943 38.547 9.61926 38.6917 9.85297C38.8621 10.1274 38.6812 10.3958 38.4248 10.4847C38.5575 10.628 38.6842 10.7772 38.8063 10.9341C38.835 10.9431 38.8651 10.9476 38.8968 10.9491C39.132 10.9612 39.3371 11.1391 39.334 11.3864C39.3476 11.3969 39.4019 11.4603 39.4004 11.4573C39.4547 11.507 39.5708 11.5703 39.6522 11.6171C39.8542 11.7347 40.0744 11.8855 40.0623 12.1524C40.0593 12.2262 40.0412 12.2896 40.0125 12.3438C40.2055 12.3876 40.3548 12.57 40.3548 12.7721C40.3548 12.852 40.3518 12.9334 40.3473 13.0133C40.385 13.0329 40.4227 13.054 40.4619 13.0827C40.6307 13.2018 40.8026 13.3088 40.9549 13.4491C41.068 13.5531 41.1012 13.6993 41.0725 13.835C41.2052 13.9481 41.3243 14.0748 41.4238 14.2301C41.6199 14.5362 41.3786 14.8257 41.0997 14.8694C41.065 15.0684 40.9172 15.2418 40.6805 15.2162C40.6353 15.2117 40.5915 15.2041 40.5478 15.1981C40.4498 15.2871 40.3156 15.3278 40.1633 15.2735C39.8301 15.1529 39.4758 15.0669 39.2059 14.8302C39.0611 14.7699 38.9149 14.7141 38.7641 14.6658C38.4444 14.5618 38.1384 14.5211 37.8202 14.5271C37.19 14.8604 36.5989 15.2433 35.8344 15.1182C35.6505 15.088 35.4756 14.9629 35.3248 14.8619C35.1997 14.7774 35.1213 14.7035 34.9856 14.7804C34.9072 14.8242 34.8242 14.9267 34.7383 15.0021C34.592 15.1333 34.4232 15.2267 34.2317 15.2705C33.9964 15.3232 33.7627 15.2855 33.529 15.2524C33.4838 15.2463 33.4401 15.2388 33.3963 15.2328C33.2772 15.2494 33.1551 15.2614 33.033 15.2659C33.0284 15.2675 33.0239 15.269 33.0209 15.2705C32.5972 15.477 32.3017 15.7801 31.8071 15.8284C31.6217 15.8464 31.4377 15.8148 31.2583 15.7876C30.8919 15.9128 30.5225 16.0138 30.132 16.0998C29.8802 16.1555 29.6404 16.2249 29.4037 16.3048C29.1006 16.528 28.7433 16.6637 28.3618 16.7119C28.3573 16.7119 28.3528 16.7119 28.3483 16.7119C28.1854 16.7752 27.9638 16.8325 27.7798 16.8506C27.4888 16.9773 27.1978 17.107 26.9068 17.2351C26.857 17.2577 26.8058 17.2698 26.756 17.2728C26.661 17.3392 26.563 17.401 26.4635 17.4613C26.2554 17.5879 26.0293 17.7116 25.788 17.7538C25.5528 17.7945 25.3342 17.7432 25.105 17.698C25.0251 17.6829 24.9376 17.692 24.8562 17.6965C24.8215 17.8217 24.7853 17.9408 24.7084 18.0508C24.5471 18.277 24.3285 18.3901 24.0556 18.4263C23.9591 18.4383 23.8641 18.4414 23.7661 18.4383C23.7193 18.4368 23.6726 18.4353 23.6258 18.4353C23.4374 18.4323 23.5881 18.4383 23.5897 18.4383C23.4826 18.5168 23.3439 18.5183 23.2233 18.4715C22.9986 18.6148 22.7604 18.7354 22.5221 18.8575C22.1799 19.0324 21.9024 19.2586 21.6054 19.4983C21.3415 19.7079 21.0551 19.922 20.7203 19.9974C20.553 20.0351 20.2559 20.008 20.069 20.0396C20.0659 20.0833 20.0674 20.1286 20.0614 20.1693C20.0418 20.3261 19.9996 20.4754 19.888 20.5945C19.6995 20.795 19.4462 20.8387 19.2487 21.0137C19.0406 21.1976 18.8914 21.4434 18.6984 21.6424C18.4767 21.8731 18.2129 21.9756 17.9007 22.0073C17.7831 22.0194 17.6595 21.9907 17.5449 21.9696C17.5208 21.9651 17.3821 21.95 17.4002 21.9394C17.3278 21.9575 17.3006 22.0284 17.275 22.0917C17.2132 22.2485 17.1499 22.425 17.0247 22.5456C16.7865 22.7748 16.5271 22.8049 16.2211 22.8728C16.0552 22.909 15.912 23.022 15.8019 23.1547C15.7205 23.598 15.5215 23.9418 15.1415 24.2192C14.8173 24.4559 14.3921 24.5509 14.0137 24.6625C13.8704 24.7047 13.6819 24.7349 13.587 24.8631C13.4724 25.0153 13.3728 25.1556 13.2507 25.2837C13.3291 25.4677 13.3035 25.6999 13.0924 25.8416C12.815 26.0271 12.6747 26.3633 12.4275 26.5819C12.1862 26.7945 11.9088 26.8549 11.6344 26.8051C11.3961 27.0041 10.9423 26.9152 10.9061 26.5382C10.8307 26.4779 10.7613 26.4116 10.6965 26.3407C10.6543 26.3482 10.6106 26.3543 10.5668 26.3588C10.4085 26.5186 10.1175 26.502 9.93658 26.3588C9.6305 26.1115 9.44806 25.7662 9.32593 25.3983C9.19777 25.0123 9.21737 24.6022 9.11182 24.2117C9.00477 23.8212 8.82534 23.4759 8.78614 23.0658C8.77106 22.8984 8.77256 22.728 8.76503 22.5606C8.7605 22.4626 8.76503 22.2772 8.69718 22.2003C8.48458 21.9575 8.55695 21.5595 8.89017 21.469L8.88414 21.4705Z" fill="#FAFAFA"/>
</svg>