<svg xmlns:xlink="http://www.w3.org/1999/xlink" xmlns="http://www.w3.org/2000/svg" width="24" height="24" viewBox="0 0 24 24" fill="none">
<path d="M9.25 2C7.182 2 5.5 3.682 5.5 5.75C5.5 6.1395 5.5604 6.51564 5.6709 6.86914C6.0969 6.58114 6.55566 6.32663 7.03516 6.09863C7.01716 5.98413 7 5.8695 7 5.75C7 4.5095 8.0095 3.5 9.25 3.5C10.236 3.5 11.0671 4.14137 11.3701 5.02637C11.5796 5.01537 11.7875 5 12 5C12.3135 5 12.6232 5.01556 12.9307 5.03906C12.5972 3.31006 11.0745 2 9.25 2ZM17.748 4C17.748 4 15.0743 4.06899 13.6123 6.1543C13.0876 6.07526 12.5589 6 12 6C8.31995 6 5.06542 7.80061 3.69336 10.4492C3.28811 10.322 3 9.95287 3 9.5C3 8.65 3.58496 8.4209 3.58496 8.4209C3.73845 8.34694 3.86219 8.22293 3.93581 8.06928C4.00943 7.91563 4.02855 7.74149 3.99001 7.57552C3.95148 7.40956 3.85759 7.26166 3.72379 7.15617C3.59 7.05067 3.42428 6.99387 3.25391 6.99512C3.13592 6.99607 3.01982 7.02484 2.91504 7.0791C2.91504 7.0791 1.5 7.85 1.5 9.5C1.5 10.5803 2.20359 11.5005 3.1709 11.8467C3.0619 12.2995 3 12.7672 3 13.25C3 15.1339 3.92922 16.8166 5.34668 18.083L5.14355 18.6279C4.66594 19.9139 5.33051 21.365 6.61621 21.8428C6.90099 21.9483 7.19617 21.999 7.48633 21.999C8.50365 21.999 9.45814 21.3702 9.83008 20.3701L9.88379 20.2246C10.5705 20.3616 11.2598 20.5 12 20.5C12.7352 20.5 13.4206 20.3636 14.1035 20.2285L14.1562 20.3711C14.5281 21.3717 15.482 22 16.499 22C16.7892 22 17.0853 21.9483 17.3701 21.8428C18.6558 21.3646 19.3203 19.9145 18.8428 18.6289L18.6426 18.0898C19.1757 17.6149 19.6314 17.0851 19.998 16.501H21.249C21.9308 16.501 22.499 15.9328 22.499 15.251V12.252V12.251C22.4997 11.5691 21.9315 11 21.25 11H20.5127C19.9942 9.72601 19.0329 8.66567 17.834 7.82812L18.4824 4.91309C18.5069 4.80324 18.5063 4.6893 18.4807 4.5797C18.4552 4.47011 18.4053 4.36767 18.3348 4.27998C18.2642 4.19229 18.1749 4.12159 18.0733 4.07312C17.9717 4.02466 17.8606 3.99967 17.748 4ZM16.7734 5.68555L16.3135 7.75977L16.4199 7.62695C16.3532 7.7103 16.3051 7.80693 16.2787 7.91038C16.2524 8.01382 16.2484 8.1217 16.2671 8.22681C16.2857 8.33192 16.3266 8.43183 16.387 8.51986C16.4474 8.6079 16.5259 8.68203 16.6172 8.7373C17.9686 9.55396 18.9188 10.6968 19.3018 11.9668C19.3483 12.1209 19.4432 12.256 19.5725 12.352C19.7018 12.4481 19.8585 12.4999 20.0195 12.5H20.999V15.001H19.6094C19.4734 15.0009 19.34 15.0377 19.2234 15.1075C19.1068 15.1774 19.0113 15.2776 18.9473 15.3975C18.5715 16.1028 18.0162 16.7504 17.3096 17.2959C17.183 17.3936 17.0909 17.5292 17.0468 17.6829C17.0027 17.8366 17.0089 18.0004 17.0645 18.1504L17.4365 19.1514C17.6318 19.6773 17.374 20.2403 16.8486 20.4365C16.7314 20.48 16.6139 20.5 16.499 20.5C16.095 20.5 15.7146 20.258 15.5625 19.8486L15.3037 19.1523C15.2388 18.978 15.1114 18.8339 14.9463 18.7482C14.7812 18.6625 14.5901 18.6412 14.4102 18.6885C13.6515 18.8877 12.8424 19 12 19C11.153 19 10.3416 18.8862 9.5791 18.6846C9.39888 18.6368 9.20731 18.6578 9.04175 18.7435C8.87619 18.8293 8.7485 18.9736 8.68359 19.1484L8.42383 19.8477C8.27176 20.2565 7.89 20.499 7.48633 20.499C7.37179 20.499 7.25557 20.4797 7.13867 20.4365H7.13769C6.61289 20.2411 6.35451 19.6762 6.5498 19.1504L6.9248 18.1426C6.98048 17.9927 6.98682 17.829 6.9429 17.6753C6.89899 17.5216 6.80711 17.3859 6.68066 17.2881C5.30397 16.2218 4.5 14.8004 4.5 13.25C4.5 12.6783 4.61393 12.1199 4.82617 11.5898C4.83809 11.5673 4.84884 11.5442 4.8584 11.5205C5.81341 9.24079 8.59451 7.5 12 7.5C12.6085 7.5 13.2005 7.56294 13.7754 7.6709C13.9348 7.70063 14.0996 7.67788 14.2451 7.60604C14.3905 7.53421 14.5087 7.41716 14.582 7.27246C15.1224 6.217 16.0284 5.85842 16.7734 5.68555ZM17 11.5C16.7348 11.5 16.4804 11.6054 16.2929 11.7929C16.1054 11.9804 16 12.2348 16 12.5C16 12.7652 16.1054 13.0196 16.2929 13.2071C16.4804 13.3946 16.7348 13.5 17 13.5C17.2652 13.5 17.5196 13.3946 17.7071 13.2071C17.8946 13.0196 18 12.7652 18 12.5C18 12.2348 17.8946 11.9804 17.7071 11.7929C17.5196 11.6054 17.2652 11.5 17 11.5Z" fill="#FBBB20"/>
</svg>