<svg xmlns:xlink="http://www.w3.org/1999/xlink" xmlns="http://www.w3.org/2000/svg" width="1440" height="102" viewBox="0 0 1440 102" fill="none">
<path d="M3.55205 18.5932C6.973 14.9738 13.9589 10.7745 35.5432 6.56349C68.3671 0.157484 92.4811 2.00999 144.317 3.28263C148.302 3.37992 181.811 3.71075 248.825 4.37626C297.652 4.85885 306.891 4.85496 321.342 4.37626C366.433 2.88179 367.503 -0.0838063 398.125 0.00181466C425.831 0.0796519 430.287 2.52374 483.438 6.56349C494.608 7.41191 526.638 9.81708 560.221 10.9379C584.946 11.763 613.368 11.9887 673.26 9.8443C752.338 7.01492 749.633 4.94445 803.365 3.28263C857.57 1.60523 898.264 2.5393 978.257 4.37626C1019.53 5.32198 1040.99 5.83958 1072.1 7.65708C1121.49 10.5448 1126.38 12.6931 1165.95 14.2187C1217.38 16.1997 1260.37 14.5418 1268.32 14.2187C1293.96 13.1796 1306.77 11.8525 1342.97 10.9379C1374.96 10.1284 1395.45 10.393 1415.49 16.406C1423.37 18.7722 1435.66 22.5824 1438.95 29.5294C1443.42 38.9632 1428.28 47.8172 1424.02 50.308C1409.79 58.6288 1399.06 55.5309 1385.63 63.4314C1378.57 67.5801 1375.16 72.873 1368.34 83.4667C1360.76 95.224 1359.38 101.786 1357.23 101.688C1354.05 101.544 1350.71 86.7319 1351.31 72.838C1351.44 69.8763 1351.95 62.2638 1345.11 55.7761C1341.73 52.5731 1337.95 50.9696 1335.02 50.0589C1332.18 49.1755 1328.43 48.4088 1323.18 48.1597C1307.88 47.4358 1289.33 51.6779 1285.42 52.3357C1252.84 57.7998 1244.23 46.7625 1204.72 50.4364C1178.5 52.8766 1175.68 58.3525 1156.6 56.8891C1138.82 55.527 1137.8 50.5026 1116.62 48.9186C1110.26 48.4438 1088.98 46.852 1072.94 52.7132C1067.49 54.7058 1066.05 56.317 1055.92 59.9248C1046.44 63.299 1044.06 63.1901 1040.37 65.6186C1034.23 69.6583 1036.69 72.659 1030.74 74.7294C1025.43 76.5781 1022.1 74.6555 1016.68 76.2472C1010.1 78.1776 1010.79 82.2329 1005.57 89.9116C1002.11 95.0099 996.019 101.599 993.727 101.299C990.353 100.859 993.723 85.2919 991.505 65.6147C991.17 62.6374 990.45 57.4807 983.363 54.986C979.296 53.5538 973.159 53.0089 968.555 54.2271C962.075 55.9395 960.907 60.5436 959.669 65.9961C957.136 77.1618 962.732 82.4353 955.229 87.2534C954.528 87.701 950.13 90.4486 947.083 89.9116C943.281 89.2383 943.974 83.8987 943.382 67.5139C943.156 61.2831 942.888 57.434 937.459 54.6085C933.283 52.4329 927.986 51.8725 924.872 51.5729C891.219 48.3232 872.324 52.2734 851.581 47.3969C837.193 44.0148 839.816 40.5939 827.891 39.0449C808.144 36.4841 797.605 45.4354 773.845 49.2961C734.848 55.632 718.798 37.278 671.68 42.8434C664.351 43.7074 645.406 46.0775 630.22 54.231C622.019 58.6366 617.548 63.3146 614.672 66.3775C603.136 78.6719 604.094 88.4016 600.606 88.3938C598.147 88.3899 597.438 83.5484 590.242 72.8302C585.249 65.3968 582.786 63.552 581.357 62.579C580.225 61.8084 567.471 53.3242 555.445 54.986C549.14 55.8578 545.848 59.1269 542.859 62.1976C537.072 68.1444 537.266 72.9003 536.196 78.5201C534.25 88.7479 528.416 100.237 525.093 100.159C520.742 100.058 516.857 80.0807 515.468 69.0318C514.273 59.52 514.908 56.4571 509.545 53.0868C502.352 48.5683 490.027 47.3035 470.307 44.7348C465.89 44.1588 458.923 43.2676 449.579 42.8356C429.174 41.8899 412.415 43.8241 388.87 46.6302C375.451 48.2297 376.999 48.4088 373.322 48.5294C350.593 49.2689 340.011 40.917 325.942 43.5946C319.034 44.91 320.735 47.0816 311.877 50.0472C299.112 54.3205 285.296 53.2502 274.861 53.0829C246.945 52.6353 244.061 58.6599 216.375 60.2945C162.982 63.4508 137.261 43.2131 96.4391 50.8061C91.5509 51.7168 85.3979 53.2191 74.9677 54.2232C63.8253 55.2974 43.6538 57.2355 26.8448 52.324C5.22556 46.0036 -6.79641 29.5216 3.54427 18.5816L3.55205 18.5932Z" fill="white"/>
<path d="M1438.96 29.5371C1437.76 27.0191 1435.39 24.9097 1432.45 23.1389C1429.2 25.8204 1425.72 27.8442 1424.02 28.8405C1420.42 30.9576 1417.92 31.1873 1415.32 32.8257C1411.12 35.48 1411.88 37.5894 1409.97 40.4655C1406.69 45.4003 1398.54 47.9378 1382.24 53.0089C1373.66 55.6787 1367.54 57.539 1364.33 56.3559C1360.94 55.1066 1364.67 51.8803 1360.23 47.9884C1357.85 45.9024 1354.41 44.762 1350.17 43.3532C1347.08 42.3257 1342.95 40.9558 1337.39 40.4616C1332.26 40.0062 1328.59 40.5394 1320.27 41.7147C1307.19 43.5673 1300.65 44.4935 1299.48 44.6414C1288.25 46.0464 1279.57 45.7545 1265.23 45.268C1255.91 44.9528 1248.83 44.3573 1235.05 43.1781C1199.23 40.1113 1198.67 38.8036 1188.98 39.6248C1174.04 40.8858 1170.69 44.3846 1158.8 43.1781C1155.27 42.82 1155.14 42.4659 1138.42 39.2045C1129.23 37.4104 1124.63 36.5152 1122.52 36.2778C1109.36 34.795 1107.35 37.6478 1092.75 37.1146C1078.01 36.5775 1072.28 33.3822 1063.3 35.5695C1060.73 36.1961 1059.06 36.9783 1055.91 38.4572C1052.81 39.9128 1046.9 42.6877 1043.82 46.9415C1041.07 50.7517 1043.8 51.3004 1040.56 55.3051C1040.35 55.5698 1040.05 55.7682 1039.69 55.9083C1037.09 56.9163 1030.33 54.5073 1023.39 53.5655C1012.8 52.1333 1009.35 55.3635 1002.51 53.7717C994.922 52.0087 992.716 46.5095 991.544 44.3495C991.536 44.2873 991.532 44.2211 991.525 44.1588C990.793 37.6244 982.402 41.5863 978.183 42.1312C976.471 42.353 972.805 42.8706 972.805 42.8706C964.387 44.4702 962.246 44.7348 962.246 44.7348C957.65 45.303 950.866 46.1398 947.558 44.4896C944.608 43.0146 947.068 40.8858 944.344 39.4146C940.849 37.5271 932.734 38.8854 930.072 39.2045C921.938 40.1891 901.681 38.6051 861.163 35.4411C850.694 34.6238 843.762 33.9855 839.147 31.051C834.831 28.3073 835.543 25.4662 830.585 23.9445C825.98 22.5278 819.968 23.3179 814.682 24.3609C796.177 28.0193 789.307 34.2774 779.208 37.7412C766.653 42.0456 739.134 39.2045 684.612 33.3511C657.046 30.3894 638.587 27.8558 630.228 32.7673C625.3 35.659 625.153 40.3876 614.691 44.9216C611.076 46.4862 607.024 47.6848 603.88 48.615C596.306 50.8567 592.515 51.9737 590.25 51.3705C586.401 50.343 587.923 46.1709 582.015 41.5707C581.622 41.2672 581.478 41.1737 581.373 41.1154C577.94 39.1188 571.021 40.5705 561.883 40.878C549.892 41.2827 547.981 39.2473 542.875 40.734C539.236 41.7926 539.835 42.9329 533.748 47.1478C529.164 50.3274 524.758 53.3786 521.108 53.0011C518.481 52.7287 517.115 50.775 515.472 47.572C509.837 36.5814 514.266 34.5771 509.553 31.6271C502.353 27.1125 490.047 25.8359 470.315 23.2673C465.902 22.6991 458.947 21.8117 449.599 21.372C429.178 20.4379 412.435 22.3566 388.882 25.1782C378.514 26.408 377.085 26.7933 375.276 26.9646C374.279 27.058 373.524 27.0697 373.341 27.0736C368.901 27.2176 356.202 29.4904 344.997 29.5216C341.199 29.5332 336.127 29.5488 330.146 28.4318C324.436 27.3693 320.984 25.8515 316.789 26.5365C314.111 26.9763 312.605 28.0699 311.881 28.5875C311.881 28.5875 311.776 28.6614 293.017 39.8544C285.035 44.6142 274.037 42.5087 247.401 44.2055C211.985 46.4589 212.063 51.4172 190.116 50.7322C175.518 50.2768 164.473 47.5292 142.379 42.03C119.46 36.3245 103.25 30.0431 82.9735 31.8022C79.86 32.0707 76.5325 32.5416 74.9796 32.7635C53.8935 35.7407 48.0013 40.084 40.5406 40.4032C32.8853 40.7301 21.2914 36.9122 4.61869 17.5541C4.22561 17.9082 3.87923 18.2507 3.5601 18.5893C-6.79614 29.5293 5.23749 46.0036 26.8646 52.3278C43.6579 57.2472 63.8334 55.3012 74.9796 54.2232C85.4098 53.223 91.5512 51.7207 96.4355 50.81C137.277 43.2209 162.998 63.4547 216.367 60.3062C244.062 58.6638 246.949 52.6431 274.866 53.0867C285.296 53.2502 299.108 54.3244 311.885 50.0511C320.739 47.0933 319.038 44.9177 325.942 43.6023C340.023 40.9208 350.605 49.2688 373.341 48.5333C377.015 48.4204 375.462 48.2297 388.878 46.6379C412.431 43.8319 429.174 41.8977 449.595 42.8434C458.943 43.2715 465.898 44.1588 470.311 44.7387C490.039 47.3073 502.349 48.5722 509.549 53.0867C514.9 56.4649 514.285 59.5239 515.468 69.0317C516.873 80.0846 520.746 100.065 525.112 100.167C528.417 100.244 534.262 88.7479 536.212 78.5162C537.27 72.9002 537.076 68.1483 542.871 62.2015C545.856 59.1269 549.16 55.8539 555.449 54.9821C567.483 53.3241 580.237 61.8123 581.369 62.5829C582.801 63.5559 585.265 65.389 590.247 72.8263C597.446 83.5484 598.163 88.3937 600.603 88.3937C604.105 88.3937 603.144 78.668 614.683 66.3775C617.544 63.3185 622.031 58.6366 630.22 54.2232C645.41 46.0658 664.351 43.7035 671.676 42.8434C718.806 37.278 734.86 55.6281 773.853 49.2922C797.601 45.4353 808.156 36.4841 827.887 39.0371C839.824 40.5939 837.185 44.007 851.589 47.3968C872.329 52.2772 891.22 48.3192 924.884 51.569C927.99 51.8725 933.295 52.429 937.463 54.6046C942.888 57.4379 943.161 61.283 943.382 67.5139C943.974 83.9025 943.285 89.2383 947.083 89.9077C950.143 90.4525 954.533 87.6932 955.249 87.2534C962.744 82.4353 957.148 77.1618 959.685 65.9961C960.919 60.5475 962.079 55.9434 968.563 54.2232C973.174 53.0089 979.293 53.5538 983.36 54.9821C990.462 57.4845 991.178 62.6335 991.525 65.6186C991.82 68.3506 992.264 76.6598 992.264 76.6598C992.657 90.8339 991.03 100.953 993.743 101.307C996.035 101.599 1002.13 95.0099 1005.58 89.9115C1010.79 82.2368 1010.12 78.1776 1016.68 76.2433C1022.11 74.6632 1025.44 76.5703 1030.76 74.7255C1036.71 72.6628 1034.24 69.6544 1040.38 65.6225C1044.08 63.1939 1046.45 63.3068 1055.92 59.9326C1066.05 56.317 1067.51 54.7097 1072.96 52.7131C1088.99 46.8442 1110.27 48.4399 1116.64 48.9186C1137.82 50.4987 1138.83 55.5308 1156.61 56.8852C1175.68 58.3524 1178.51 52.8766 1204.73 50.4364C1244.24 46.7547 1252.84 57.7959 1285.42 52.3317C1289.34 51.674 1307.89 47.4397 1323.18 48.1597C1328.44 48.4126 1332.18 49.1716 1335.04 50.055C1337.95 50.9657 1341.73 52.573 1345.1 55.7721C1351.96 62.2599 1351.44 69.8724 1351.32 72.8302C1350.7 86.728 1354.06 101.537 1357.24 101.688C1359.38 101.778 1360.77 95.2123 1368.34 83.4666C1375.17 72.8691 1378.6 67.5839 1385.65 63.4235C1399.06 55.5309 1409.79 58.6326 1424.02 50.3118C1428.29 47.8211 1443.43 38.9671 1438.97 29.5332L1438.96 29.5371Z" fill="#E1EFFA"/>
<path d="M634.797 52.0009C633.248 52.6898 631.722 53.437 630.228 54.2388C622.031 58.6443 617.552 63.3223 614.676 66.3852C603.148 78.6757 604.101 88.4054 600.61 88.4054C598.151 88.4015 597.446 83.5561 590.25 72.8379C585.257 65.4084 582.79 63.5636 581.361 62.5907C580.229 61.8162 567.479 53.3358 555.449 54.9976C549.148 55.8694 545.856 59.1386 542.863 62.2093C537.08 68.156 537.27 72.9119 536.2 78.5356C534.258 88.7595 528.42 100.248 525.097 100.171C520.749 100.069 516.862 80.0962 515.472 69.0434C514.281 59.5316 514.912 56.4688 509.553 53.0984C509.541 53.0906 509.366 52.9894 509.416 52.9544C509.778 52.682 519.839 58.0683 528.689 57.6597C538.189 57.2238 538.29 50.4792 549.362 48.8446C558.785 47.4552 568.748 50.8606 574.504 52.826C589.153 57.8348 591.41 63.8205 597.516 63.3418C604.53 62.7931 603.436 54.7524 614.341 51.7752C621.268 49.8837 629.543 50.9852 634.797 51.997V52.0009Z" fill="#B4D5E8"/>
<path d="M766.294 45.3964C776.191 45.0423 785.224 44.7504 793.526 44.5208C787.84 46.2721 781.543 48.0546 773.852 49.3039C755.592 52.2695 742.355 49.8215 728.609 46.9532C738.779 46.4589 751.007 45.9413 766.294 45.3964Z" fill="#B4D5E8"/>
<path d="M1069.61 54.0871C1066.34 55.5776 1063.68 57.1694 1055.92 59.9326C1046.44 63.3108 1044.07 63.1979 1040.37 65.6264C1034.23 69.6662 1036.7 72.6668 1030.75 74.7373C1025.43 76.5859 1022.11 74.6633 1016.68 76.2551C1010.1 78.1855 1010.79 82.2408 1005.58 89.9233C1002.12 95.0216 996.023 101.607 993.731 101.311C990.361 100.871 993.723 85.3037 991.509 65.6264C991.174 62.6492 990.454 57.4924 983.363 54.9977C979.296 53.5655 973.163 53.0207 968.562 54.2389C962.083 55.9513 960.911 60.5553 959.673 66.0078C957.14 77.1736 962.732 82.4432 955.233 87.2652C954.536 87.7127 950.131 90.4604 947.087 89.9233C943.285 89.25 943.974 83.9104 943.382 67.5257C943.156 61.2948 942.888 57.4457 937.463 54.6164C933.287 52.4447 927.99 51.8804 924.876 51.5807C891.223 48.331 872.325 52.2812 851.581 47.4047C846.23 46.1477 843.241 44.8867 840.972 43.7152C849.534 43.6958 857.049 43.7658 863.973 43.8982C865.23 43.9215 873.204 44.0772 879.334 44.3029C904.506 45.2409 918.019 45.7468 931.049 49.7554C942.592 53.3087 945.2 56.9826 952.738 56.4806C960.506 55.9668 960.771 51.3472 969.384 50.0667C978.884 48.6579 991.454 52.2034 997.744 56.8425C1006.49 63.2913 1001.35 70.573 1007.2 71.5382C1008.77 71.7989 1013.56 69.962 1023.09 66.2841C1033.91 62.1082 1037.29 60.5748 1039.15 59.6174C1044.8 56.7179 1044.84 56.5078 1046.52 55.9045C1050.68 54.4101 1057.6 53.0869 1069.61 54.0832L1069.61 54.0871Z" fill="#B4D5E8"/>
<path d="M1190.73 50.8646C1192.7 50.884 1195.36 50.9113 1195.36 50.9113C1196.89 50.9268 1198.4 50.9424 1199.88 50.958C1178.07 53.5655 1174.43 58.263 1156.61 56.8969C1143.15 55.8617 1139.29 52.7366 1129.03 50.5883C1151.42 53.0518 1162.96 52.8845 1169.41 52.1489C1169.41 52.1489 1181.49 50.7751 1190.73 50.8646H1190.73Z" fill="#B4D5E8"/>
<path d="M1242.95 51.3861C1249.41 52.1061 1257.53 52.7171 1266.92 52.7561C1275 52.7872 1282.12 52.3825 1287.99 51.8532C1286.86 52.075 1285.99 52.2462 1285.42 52.3396C1266.87 55.4492 1256.09 53.2114 1242.95 51.3861H1242.95Z" fill="#B4D5E8"/>
<path d="M1424.03 50.3119C1409.79 58.6327 1399.06 55.5348 1385.63 63.4353C1378.58 67.584 1375.16 72.8769 1368.34 83.4706C1360.76 95.224 1359.38 101.786 1357.23 101.688C1354.05 101.544 1350.71 86.7358 1351.32 72.838C1351.44 69.8763 1351.95 62.2638 1345.11 55.78C1344.01 54.7448 1342.88 53.873 1341.74 53.1413C1344.87 53.8535 1349.12 55.095 1352.61 57.3017C1361.34 62.8321 1358.06 69.8763 1362.06 70.3317C1365.02 70.6703 1367.47 66.9029 1375.36 62.4545C1380.91 59.3177 1382.15 59.8003 1393.97 55.0288C1415.48 46.35 1412.79 44.1784 1425 41.0921C1427.78 40.3877 1432.66 39.3018 1436.01 36.6515C1438.68 34.5382 1439.3 32.2848 1439.4 30.6775C1442.22 39.6755 1428.11 47.9262 1424.03 50.3158L1424.03 50.3119Z" fill="#B4D5E8"/>
</svg>