<svg xmlns:xlink="http://www.w3.org/1999/xlink" xmlns="http://www.w3.org/2000/svg" width="331" height="283" viewBox="0 0 331 283" fill="none">
<path d="M286.758 189.542H269.558V248.512L292.758 246.702L286.758 189.542Z" fill="#FFCD50"/>
<path d="M279.748 245.472V189.542H269.558V248.512L292.758 246.702L292.528 244.472L279.748 245.472Z" fill="#FFAD4A"/>
<path d="M267.777 177.062L256.205 178.074L254.998 216.556L273.998 217.062L267.777 177.062Z" fill="#FFCD50"/>
<path d="M119.638 174.392L91.6179 175.832L88.708 230.612L134.708 231.332L119.638 174.392Z" fill="#FFAD4A"/>
<path d="M124.848 153.062L106.668 154.502L104.778 209.282L134.628 210.002L124.848 153.062Z" fill="#FFAD4A"/>
<path d="M73.3085 184.392L59.5385 185.832L58.1084 240.612L80.6985 241.332L73.3085 184.392Z" fill="#FFAD4A"/>
<path d="M95.3683 162.962L72.7983 165.172L70.7783 219.942L96.6984 218.292L95.3683 162.962Z" fill="#FFAD4A"/>
<path d="M261.434 177.062L256.109 177.578L254.998 216.854L261.998 217.062L261.434 177.062Z" fill="#FFAD4A"/>
<path d="M323.588 235.612H306.468V250.722H323.588V235.612Z" fill="#FFCD50"/>
<path d="M298.408 226.762H278.278V249.242H301.398L298.408 226.762Z" fill="#FFCD50"/>
<path d="M50.2186 241.502H31.2686V255.882H50.2186V241.502Z" fill="#FFCD50"/>
<path d="M51.6376 199.492H36.4775V244.452H51.6376V199.492Z" fill="#FFCD50"/>
<path d="M36.9481 247.042H17.998V255.882H36.9481V247.042Z" fill="#FFCD50"/>
<path d="M278.048 211.652H57.5582L42.1582 255.882H278.048V211.652Z" fill="#FFCD50"/>
<path d="M330.628 244.822H74.8477V255.882H330.628V244.822Z" fill="#FFCD50"/>
<path d="M141.278 241.782L155.488 237.912L156.908 230.172L169.698 229.072L180.358 220.502L279.678 214.782L278.048 211.652H57.5581L51.6381 228.662V199.492H36.478V241.502H31.2681V247.042H17.998V255.882H31.2681H36.9481H42.1581H50.2181H74.848H135.808L140.218 250.072L141.278 241.782Z" fill="#FFAD4A"/>
<path d="M182.618 216.632H164.498V227.782H182.618V216.632Z" fill="#FFCD50"/>
<path d="M140.338 231.282H126.748V234.872H140.338V231.282Z" fill="#FFCD50"/>
<path d="M132.748 250.912L115.378 248.892V253.272H131.878L132.748 250.912Z" fill="#FFCD50"/>
<path d="M94.6182 236.262L111.988 234.242V238.622H95.4882L94.6182 236.262Z" fill="#FFCD50"/>
<path d="M160.688 223.552L143.318 221.522V225.902H159.818L160.688 223.552Z" fill="#FFCD50"/>
<path d="M134.668 241.502H121.798V245.092H134.668V241.502Z" fill="#FFCD50"/>
<path d="M152.888 237.912H120.538V241.502H152.888V237.912Z" fill="#FFAD4A"/>
<path d="M252.318 250.502H232.558V253.482H252.318V250.502Z" fill="#FFAD4A"/>
<path d="M247.778 234.472H232.048V237.452H247.778V234.472Z" fill="#FFE592"/>
<path d="M222.608 228.212L206.128 227.282V230.632L222.608 230.422V228.212Z" fill="#FFE592"/>
<path d="M186.868 244.612L170.378 243.692V247.032L186.868 246.822V244.612Z" fill="#FFE592"/>
<path d="M280.508 240.182H258.738V243.162H280.508V240.182Z" fill="#FFAD4A"/>
<path d="M280.508 233.732H266.288V236.712H280.508V233.732Z" fill="#FFAD4A"/>
<path d="M294.098 233.372H279.878V236.352H294.098V233.372Z" fill="#FFAD4A"/>
<path d="M276.348 225.902H262.128V228.882H276.348V225.902Z" fill="#FFAD4A"/>
<path d="M192.588 232.572L174.768 231.132L174.318 234.712L192.368 234.282L192.588 232.572Z" fill="#FFAD4A"/>
<path d="M285.478 246.662V226.762H274.348L272.198 249.242H298.408V246.662H285.478Z" fill="#FFAD4A"/>
<path d="M313.268 235.612H306.468V250.722H313.268V235.612Z" fill="#FFAD4A"/>
<path d="M313.258 242.952H292.868V255.882H313.258V242.952Z" fill="#FFAD4A"/>
<path d="M297.618 248.112H247.528V255.882H297.618V248.112Z" fill="#FFAD4A"/>
<path d="M299.128 245.162L282.648 244.242V247.592L299.128 247.372V245.162Z" fill="#FFCD50"/>
<path d="M266.158 221.942L249.668 221.022V224.372L266.158 224.152V221.942Z" fill="#FFE592"/>
<path d="M268.318 188.222L257.718 187.292V190.642L268.318 190.432V188.222Z" fill="#FFAD4A"/>
<path d="M297.619 194.852L287.019 193.932V197.282L297.619 197.062V194.852Z" fill="#FFAD4A"/>
<path d="M293.848 227.192L279.368 226.272V229.622L293.848 229.402V227.192Z" fill="#FFAD4A"/>
<path d="M324.018 251.312L309.548 250.382V253.732L324.018 253.522V251.312Z" fill="#FFAD4A"/>
<path d="M322.518 245.922L308.048 245.002V248.352L322.518 248.142V245.922Z" fill="#FFCD50"/>
<path d="M267.208 204.622L258.378 203.702V207.052L267.208 206.832V204.622Z" fill="#FFCD50"/>
<path d="M265.188 181.812L257.458 180.892V184.242L265.188 184.022V181.812Z" fill="#FFAD4A"/>
<path d="M263.648 176.062L255.998 177.512L256.378 180.832L263.908 178.262L263.648 176.062Z" fill="#FFAD4A"/>
<path opacity="0.6" d="M49.5983 216.872H41.7783V220.192H49.5983V216.872Z" fill="#FFCD50"/>
<path opacity="0.6" d="M81.9182 220.742H64.8682V224.062H81.9182V220.742Z" fill="#FFCD50"/>
<path opacity="0.6" d="M65.5782 243.342H50.6582V246.242H65.5782V243.342Z" fill="#FFCD50"/>
<path opacity="0.6" d="M85.8282 233.462H70.9082V236.362H85.8282V233.462Z" fill="#FFCD50"/>
<path d="M129.578 142.062H15.998V255.583H129.578V142.062Z" fill="#297F58"/>
<path d="M45.5425 223.971V142.075H15.998V255.596H129.578V237.824H59.3899C51.7302 237.824 45.5296 231.627 45.5296 223.971H45.5425Z" fill="#006941"/>
<path d="M15.998 201.433H129.591" stroke="#006941" stroke-width="2" stroke-miterlimit="10"/>
<path d="M63.6629 178.935C67.3624 182.632 72.7946 201.433 72.7946 201.433C72.7946 201.433 53.984 196.004 50.2844 192.306C46.5849 188.608 46.5849 182.619 50.2844 178.922C53.984 175.224 59.9763 175.224 63.6759 178.922L63.6629 178.935Z" stroke="#006941" stroke-width="2" stroke-miterlimit="10" stroke-linecap="round"/>
<path d="M81.3915 178.935C77.6919 182.632 72.2598 201.433 72.2598 201.433C72.2598 201.433 91.0703 196.004 94.7699 192.306C98.4695 188.609 98.4695 182.619 94.7699 178.922C91.0703 175.224 85.078 175.224 81.3784 178.922L81.3915 178.935Z" stroke="#006941" stroke-width="2" stroke-miterlimit="10" stroke-linecap="round"/>
<path d="M92.0092 211.901C87.7364 213.711 82.7993 212.669 79.6208 209.284L72.2607 201.433L67.6753 214.245C66.034 218.828 61.1359 221.367 56.4463 220.065" stroke="#006941" stroke-width="2" stroke-miterlimit="10" stroke-linecap="round"/>
<path d="M89.9505 142.062H88.1007L15.998 214.128V215.964L89.9505 142.062Z" fill="#5A915A"/>
<path d="M69.2511 142.062H67.4143L15.998 193.452V195.288L69.2511 142.062Z" fill="#5A915A"/>
<path d="M48.5647 142.062H46.728L15.998 172.776V174.612L48.5647 142.062Z" fill="#5A915A"/>
<path d="M129.591 142.062H129.473L15.998 255.479V255.596H17.7306L129.591 143.794V142.062Z" fill="#5A915A"/>
<path d="M15.998 153.936L27.8784 142.062H26.0416L15.998 152.1V153.936Z" fill="#5A915A"/>
<path d="M129.591 226.51V224.661L98.6396 255.596H100.489L129.591 226.51Z" fill="#5A915A"/>
<path d="M129.59 247.185V245.337L119.325 255.596H121.175L129.59 247.185Z" fill="#5A915A"/>
<path d="M129.591 205.821V203.985L77.9531 255.596H79.803L129.591 205.821Z" fill="#5A915A"/>
<path d="M129.591 164.469V162.634L36.5801 255.596H38.4169L129.591 164.469Z" fill="#5A915A"/>
<path d="M110.637 142.062H108.787L15.998 234.803V236.652L110.637 142.062Z" fill="#5A915A"/>
<path d="M129.591 185.145V183.309L57.2666 255.596H59.1164L129.591 185.145Z" fill="#5A915A"/>
<path d="M15.998 198.829H129.591" stroke="#F0E1D3" stroke-width="2" stroke-miterlimit="10" stroke-linecap="round"/>
<path d="M72.7939 142.062V255.596" stroke="#F0E1D3" stroke-width="2" stroke-miterlimit="10" stroke-linecap="round"/>
<path d="M63.6629 176.331C67.3624 180.028 72.7946 198.829 72.7946 198.829C72.7946 198.829 53.984 193.4 50.2844 189.702C46.5849 186.004 46.5849 180.015 50.2844 176.318C53.984 172.62 59.9763 172.62 63.6759 176.318L63.6629 176.331Z" stroke="#F0E1D3" stroke-width="2" stroke-miterlimit="10" stroke-linecap="round"/>
<path d="M81.3915 176.331C77.6919 180.028 72.2598 198.829 72.2598 198.829C72.2598 198.829 91.0703 193.4 94.7699 189.702C98.4695 186.005 98.4695 180.015 94.7699 176.318C91.0703 172.62 85.078 172.62 81.3784 176.318L81.3915 176.331Z" stroke="#F0E1D3" stroke-width="2" stroke-miterlimit="10" stroke-linecap="round"/>
<path d="M92.0092 209.297C87.7364 211.107 82.7993 210.065 79.6208 206.68L72.2607 198.829L67.6753 211.641C66.034 216.224 61.1359 218.763 56.4463 217.461" stroke="#F0E1D3" stroke-width="2" stroke-miterlimit="10" stroke-linecap="round"/>
<path d="M188.786 187.062H119.998V255.815H188.786V187.062Z" fill="#FC5954"/>
<path d="M137.891 236.669V187.07H119.998V255.822H188.786V245.059H146.278C141.639 245.059 137.883 241.305 137.883 236.669H137.891Z" fill="#CD2846"/>
<path d="M119.998 223.019H188.786" stroke="#CD2846" stroke-width="2" stroke-miterlimit="10"/>
<path d="M148.866 209.394C151.106 211.633 154.396 223.019 154.396 223.019C154.396 223.019 143.004 219.731 140.763 217.492C138.523 215.252 138.523 211.625 140.763 209.386C143.004 207.146 146.633 207.146 148.874 209.386L148.866 209.394Z" stroke="#CD2846" stroke-width="2" stroke-miterlimit="10" stroke-linecap="round"/>
<path d="M159.595 209.393C157.354 211.633 154.064 223.019 154.064 223.019C154.064 223.019 165.457 219.731 167.697 217.492C169.938 215.252 169.938 211.625 167.697 209.386C165.457 207.146 161.828 207.146 159.587 209.386L159.595 209.393Z" stroke="#CD2846" stroke-width="2" stroke-miterlimit="10" stroke-linecap="round"/>
<path d="M166.033 229.359C163.445 230.455 160.455 229.824 158.53 227.774L154.073 223.019L151.296 230.778C150.302 233.554 147.335 235.092 144.495 234.303" stroke="#CD2846" stroke-width="2" stroke-miterlimit="10" stroke-linecap="round"/>
<path d="M119.998 221.442H188.786" stroke="#F0E1D3" stroke-width="2" stroke-miterlimit="10" stroke-linecap="round"/>
<path d="M154.388 187.062V255.823" stroke="#F0E1D3" stroke-width="2" stroke-miterlimit="10" stroke-linecap="round"/>
<path d="M148.866 207.816C151.106 210.056 154.396 221.442 154.396 221.442C154.396 221.442 143.004 218.154 140.763 215.915C138.523 213.675 138.523 210.048 140.763 207.808C143.004 205.569 146.633 205.569 148.874 207.808L148.866 207.816Z" stroke="#F0E1D3" stroke-width="2" stroke-miterlimit="10" stroke-linecap="round"/>
<path d="M159.595 207.816C157.354 210.056 154.064 221.442 154.064 221.442C154.064 221.442 165.457 218.154 167.697 215.915C169.938 213.675 169.938 210.048 167.697 207.809C165.457 205.569 161.828 205.569 159.587 207.809L159.595 207.816Z" stroke="#F0E1D3" stroke-width="2" stroke-miterlimit="10" stroke-linecap="round"/>
<path d="M166.033 227.782C163.445 228.878 160.455 228.247 158.53 226.197L154.073 221.442L151.296 229.202C150.302 231.977 147.335 233.515 144.495 232.726" stroke="#F0E1D3" stroke-width="2" stroke-miterlimit="10" stroke-linecap="round"/>
<path d="M260.987 160.287H176.998V256.119H260.987V160.287Z" fill="#1A71BE"/>
<path d="M208.256 216.338V160.287H176.998V256.119H260.987V235.651H227.57C216.901 235.651 208.256 227.01 208.256 216.347V216.338Z" fill="#1269AA"/>
<path d="M236.726 175.504V146.786C236.726 136.998 228.786 129.062 218.993 129.062C209.2 129.062 201.26 136.998 201.26 146.786V175.504" stroke="#F0E1D3" stroke-width="2.5" stroke-miterlimit="10"/>
<path d="M215.059 194.522C221.962 201.651 221.781 213.069 214.648 219.968L161.931 270.987C159.841 273.005 156.511 272.95 154.492 270.868C152.472 268.779 152.527 265.451 154.61 263.432L207.327 212.414C210.286 209.544 210.365 204.805 207.501 201.848C204.629 198.891 199.887 198.812 196.929 201.674L189.671 208.7C187.58 210.719 184.251 210.664 182.231 208.582C180.211 206.492 180.266 203.165 182.349 201.146L189.607 194.12C196.739 187.22 208.163 187.402 215.067 194.53L215.059 194.522Z" fill="white"/>
<path d="M215.059 194.522C221.962 201.651 221.781 213.069 214.648 219.968L161.931 270.987C159.841 273.005 156.511 272.95 154.492 270.868C152.472 268.779 152.527 265.451 154.61 263.432L207.327 212.414C210.286 209.544 210.365 204.805 207.501 201.848C204.629 198.891 199.887 198.812 196.929 201.674L189.671 208.7C187.58 210.719 184.251 210.664 182.231 208.582C180.211 206.492 180.266 203.165 182.349 201.146L189.607 194.12C196.739 187.22 208.163 187.402 215.067 194.53L215.059 194.522Z" fill="#FFDEC0"/>
<path d="M192.874 241.038L186.728 246.983L175.32 243.38L181.458 237.434L192.874 241.038Z" fill="#FC5954"/>
<path d="M180.985 252.542L174.839 258.488L163.431 254.884L169.569 248.939L180.985 252.542Z" fill="#FC5954"/>
<path d="M154.602 263.424C153.624 264.37 153.103 265.601 153.017 266.854L162.949 269.993L169.087 264.047L157.679 260.444L154.602 263.424Z" fill="#FC5954"/>
<path d="M216.424 217.973L205.237 214.432L199.099 220.378L210.507 223.982L214.649 219.976C215.296 219.345 215.887 218.683 216.424 217.981V217.973Z" fill="#FC5954"/>
<path d="M204.755 229.533L198.617 235.478L187.209 231.875L193.347 225.937L204.755 229.533Z" fill="#FC5954"/>
<path d="M189.481 208.85L184.377 199.166L182.341 201.138C180.251 203.156 180.203 206.492 182.223 208.574C184.188 210.6 187.391 210.703 189.481 208.85Z" fill="#FC5954"/>
<path d="M208.227 202.738C209.789 204.962 210.002 207.832 208.874 210.23L219.982 209.22C220.282 206.721 220.061 204.166 219.319 201.737L208.227 202.746V202.738Z" fill="#FC5954"/>
<path d="M196.921 201.666C197.836 200.783 198.917 200.184 200.061 199.853L195.114 190.461C193.118 191.305 191.241 192.511 189.6 194.104L188.897 194.782L194.01 204.481L196.921 201.658V201.666Z" fill="#FC5954"/>
<path d="M201.213 199.632C203.461 199.356 205.805 200.089 207.501 201.84C207.73 202.076 207.935 202.328 208.132 202.589L212.7 192.472C210.609 190.958 208.258 189.941 205.828 189.428L201.229 199.624L201.213 199.632Z" fill="#FC5954"/>
<path d="M211.493 197.968C206.594 192.913 198.531 192.787 193.473 197.676L182.223 208.566C184.243 210.655 187.58 210.711 189.663 208.684L196.921 201.658C199.88 198.788 204.629 198.867 207.493 201.832C210.365 204.789 210.286 209.536 207.319 212.398L154.602 263.417C152.512 265.435 152.456 268.771 154.484 270.852L211.201 215.962C216.258 211.065 216.384 203.007 211.493 197.952V197.968Z" fill="#D8C5B6"/>
<path d="M153.017 266.854L157.245 268.187L163.383 262.242L157.679 260.444L154.602 263.424C153.703 264.292 153.111 265.506 153.017 266.854Z" fill="#CD2846"/>
<path d="M175.281 250.745L169.569 248.939L163.431 254.885L169.135 256.682L175.281 250.745Z" fill="#CD2846"/>
<path d="M187.162 239.24L181.458 237.434L175.32 243.38L181.024 245.178L187.162 239.24Z" fill="#CD2846"/>
<path d="M199.051 227.735L193.347 225.937L187.209 231.875L192.913 233.681L199.051 227.735Z" fill="#CD2846"/>
<path d="M205.237 214.432L199.091 220.37L204.803 222.176L210.933 216.23L205.237 214.432Z" fill="#CD2846"/>
<path d="M208.227 202.739C209.789 204.962 210.002 207.833 208.874 210.23L214.743 209.693C215.311 207.21 215.146 204.592 214.207 202.194L208.227 202.739Z" fill="#CD2846"/>
<path d="M203.674 194.167L201.205 199.632C203.856 199.308 206.491 200.404 208.116 202.589L210.578 197.124C208.566 195.413 206.152 194.427 203.667 194.159L203.674 194.167Z" fill="#CD2846"/>
<path d="M191.445 199.632L194.002 204.489L196.913 201.666C197.773 200.83 198.925 200.176 200.053 199.852L197.512 195.034C196.045 195.634 194.664 196.501 193.457 197.676L191.438 199.632H191.445Z" fill="#CD2846"/>
<path d="M187.256 210.017C188.053 209.82 188.818 209.433 189.473 208.85L186.917 204.008L182.207 208.566C182.286 208.613 184.29 210.742 187.248 210.017H187.256Z" fill="#CD2846"/>
<path d="M9.83937 226.581L-30.8713 11.0891C-30.8409 33.6747 -43.448 71.7641 -66.4507 76.1204C-66.4787 76.1264 -66.5067 76.1324 -66.5348 76.1383C-69.5639 76.701 -71.0543 80.2012 -69.1262 82.5987C-64.3987 88.4863 -60.9933 95.5755 -59.4919 103.527C-57.3539 114.808 -59.3831 125.903 -64.4832 135.265C-65.715 137.526 -64.6666 140.281 -62.235 141.129C-46.6483 146.605 -34.3266 159.98 -31.0363 177.376C-29.5746 185.113 -30.1014 192.764 -32.2133 199.825C-32.7533 201.617 -31.9117 203.536 -30.2712 204.442L9.8314 226.571L9.83937 226.581Z" fill="#006941"/>
<path d="M9.83921 226.58L-30.8714 11.089C-22.6633 32.1217 2.97591 62.9798 25.9686 58.6315C25.9966 58.6255 26.0247 58.6195 26.0527 58.6135C29.0738 58.0409 31.7343 60.7398 30.8177 63.6841C28.5694 70.9039 27.9841 78.7487 29.4875 86.6824C31.6255 97.963 37.5497 107.553 45.7079 114.41C47.6835 116.065 47.7061 119.014 45.7464 120.692C33.2398 131.484 26.6417 148.452 29.932 165.847C31.3937 173.585 34.6713 180.514 39.2166 186.317C40.3735 187.788 40.2915 189.887 39.0892 191.321L9.82121 226.578L9.83921 226.58Z" fill="#005935"/>
<path d="M-30.5557 139.61L0.499202 158.313" stroke="#005935" stroke-width="2.04" stroke-miterlimit="10"/>
<path d="M126.812 224.49C116.298 228.005 112.781 230.737 112.781 230.737C112.781 230.737 112.183 221.501 121.409 212.273C125.125 208.559 130.343 207.748 133.062 210.459C134.422 211.818 134.899 213.803 134.572 215.909C134.052 219.239 130.009 223.415 126.812 224.483V224.49Z" fill="#297F58"/>
<path d="M120.604 226.766C115.429 228.495 112.937 230.566 112.937 230.566C112.937 230.566 112.646 226.019 117.18 221.487C119.01 219.658 121.572 219.26 122.911 220.598C123.58 221.266 123.815 222.241 123.651 223.28C123.395 224.916 122.177 226.247 120.604 226.773V226.766Z" fill="#5A915A"/>
<path d="M119.11 243.793C109.45 238.35 105.064 237.567 105.064 237.567C105.064 237.567 111.521 230.929 124.555 231.598C129.809 231.868 133.909 235.191 133.71 239.026C133.61 240.947 132.457 242.626 130.678 243.793C127.859 245.643 122.043 245.444 119.11 243.793Z" fill="#297F58"/>
<path d="M113.258 240.719C108.509 238.044 105.299 237.574 105.299 237.574C105.299 237.574 108.474 234.309 114.888 234.636C117.472 234.764 119.486 236.4 119.394 238.293C119.344 239.239 118.782 240.065 117.899 240.641C116.511 241.552 114.71 241.53 113.265 240.719H113.258Z" fill="#5A915A"/>
<path d="M106.388 256.507C96.7279 251.064 92.3428 250.282 92.3428 250.282C92.3428 250.282 98.7994 243.643 111.834 244.312C117.087 244.583 121.188 247.905 120.988 251.74C120.889 253.661 119.736 255.341 117.956 256.507C115.137 258.357 109.321 258.158 106.388 256.507Z" fill="#297F58"/>
<path d="M100.537 253.434C95.7887 250.758 92.5781 250.289 92.5781 250.289C92.5781 250.289 95.7531 247.023 102.167 247.35C104.751 247.478 106.766 249.115 106.673 251.007C106.623 251.954 106.061 252.779 105.178 253.355C103.79 254.266 101.989 254.252 100.544 253.434H100.537Z" fill="#5A915A"/>
<path d="M93.6673 269.215C84.0072 263.772 79.6221 262.989 79.6221 262.989C79.6221 262.989 86.0787 256.351 99.1131 257.02C104.367 257.29 108.467 260.613 108.268 264.448C108.168 266.369 107.015 268.048 105.235 269.215C102.416 271.065 96.6002 270.866 93.6673 269.215Z" fill="#297F58"/>
<path d="M87.823 266.148C83.0748 263.473 79.8643 263.003 79.8643 263.003C79.8643 263.003 83.0392 259.738 89.4531 260.065C92.0372 260.193 94.0518 261.829 93.9593 263.722C93.9094 264.668 93.3471 265.494 92.4644 266.07C91.0762 266.981 89.2752 266.967 87.8301 266.148H87.823Z" fill="#5A915A"/>
<path d="M107.876 226.56C102.985 236.507 102.459 240.925 102.459 240.925C102.459 240.925 95.461 234.856 95.3898 221.814C95.3614 216.556 98.4509 212.28 102.295 212.259C104.217 212.245 105.961 213.305 107.235 215.02C109.243 217.73 109.371 223.536 107.89 226.56H107.876Z" fill="#297F58"/>
<path d="M105.142 232.572C102.736 237.467 102.459 240.691 102.459 240.691C102.459 240.691 99.0204 237.709 98.9776 231.292C98.9634 228.709 100.48 226.603 102.373 226.589C103.32 226.589 104.174 227.101 104.801 227.948C105.79 229.278 105.876 231.085 105.142 232.572Z" fill="#5A915A"/>
<path d="M92.7989 241.487C87.9083 251.434 87.3816 255.853 87.3816 255.853C87.3816 255.853 80.3839 249.784 80.3127 236.742C80.2842 231.484 83.3737 227.208 87.2178 227.186C89.1399 227.172 90.884 228.232 92.1582 229.947C94.1657 232.658 94.2938 238.464 92.8131 241.487H92.7989Z" fill="#297F58"/>
<path d="M90.0653 247.5C87.6592 252.395 87.3815 255.618 87.3815 255.618C87.3815 255.618 83.9432 252.637 83.9005 246.219C83.8863 243.636 85.4025 241.53 87.2961 241.516C88.2429 241.516 89.0971 242.028 89.7236 242.875C90.7131 244.205 90.7985 246.013 90.0653 247.5Z" fill="#5A915A"/>
<path d="M77.4366 256.963C72.546 266.909 72.0193 271.328 72.0193 271.328C72.0193 271.328 65.0216 265.259 64.9504 252.217C64.9219 246.959 68.0114 242.683 71.8555 242.661C73.7776 242.647 75.5217 243.707 76.7959 245.422C78.8034 248.133 78.9315 253.939 77.4508 256.963H77.4366Z" fill="#297F58"/>
<path d="M74.6961 262.975C72.29 267.87 72.0124 271.093 72.0124 271.093C72.0124 271.093 68.5741 268.112 68.5313 261.694C68.5171 259.112 70.0334 257.005 71.927 256.991C72.8738 256.991 73.728 257.503 74.3544 258.35C75.3439 259.681 75.4294 261.488 74.6961 262.975Z" fill="#5A915A"/>
<path d="M114.126 228.261L68.4102 273.961" stroke="#5A915A" stroke-width="2" stroke-miterlimit="10"/>
<path d="M110.382 232.003L109.934 227.891L107.107 235.276L110.382 232.003Z" fill="#5A915A"/>
<path d="M98.415 243.964L101.327 241.053L105.776 241.352L98.415 243.964Z" fill="#5A915A"/>
<path d="M95.9951 246.39L96.1374 241.687L91.5957 250.78L95.9951 246.39Z" fill="#5A915A"/>
<path d="M84.9473 257.425L88.6063 253.768L93.3616 254.7L84.9473 257.425Z" fill="#5A915A"/>
<path d="M80.9606 261.41L80.9962 256.82L77.5508 264.818L80.9606 261.41Z" fill="#5A915A"/>
<path d="M69.9053 272.459L75.7711 270.681L72.2616 270.104L69.9053 272.459Z" fill="#5A915A"/>
<path d="M27.4327 246.389L-20.2412 210.352C-16.0981 214.905 -11.6703 224.895 -15.5215 229.982C-15.5215 229.982 -15.5286 229.996 -15.5358 230.003C-16.0412 230.672 -15.7066 231.647 -14.8737 231.782C-12.8378 232.109 -10.8516 232.913 -9.10045 234.244C-6.60179 236.129 -4.97872 238.741 -4.29533 241.558C-4.1316 242.241 -3.41261 242.604 -2.76481 242.334C1.38539 240.591 6.32577 241.032 10.1699 243.942C11.8855 245.237 13.174 246.873 14.0424 248.687C14.2631 249.15 14.7828 249.385 15.2811 249.264L27.4327 246.396V246.389Z" fill="#006941"/>
<path d="M27.4327 246.389L-20.2412 210.352C-14.7313 213.091 -3.9038 214.635 -0.0597019 209.548C-0.0597019 209.548 -0.0525856 209.533 -0.0454655 209.526C0.459961 208.858 1.49217 208.914 1.84811 209.676C2.71659 211.54 4.03355 213.233 5.79187 214.564C8.29053 216.449 11.2448 217.303 14.1421 217.189C14.8397 217.161 15.3879 217.751 15.3024 218.449C14.7543 222.917 16.5269 227.542 20.3781 230.452C22.0937 231.747 24.0229 232.544 26.0019 232.885C26.5073 232.97 26.8703 233.404 26.8917 233.917L27.4398 246.382L27.4327 246.389Z" fill="#005935"/>
<path d="M-7.99707 227.648L1.69148 225.742" stroke="#005935" stroke-miterlimit="10"/>
<path d="M3.35742 236.229L13.0531 234.329" stroke="#005935" stroke-miterlimit="10"/>
<path d="M35.2989 254.814L-21.0029 274.878C-14.9236 273.918 -4.13161 275.696 -1.98889 281.702C-1.98889 281.709 -1.98889 281.716 -1.98177 281.723C-1.70414 282.513 -0.700401 282.769 -0.130907 282.15C1.25724 280.627 3.02268 279.411 5.09422 278.671C8.04136 277.618 11.1166 277.696 13.8502 278.671C14.5123 278.905 15.2099 278.507 15.338 277.817C16.1567 273.391 19.2391 269.506 23.7808 267.891C25.8025 267.173 27.8883 266.988 29.8744 267.258C30.3798 267.329 30.8639 267.023 31.0348 266.539L35.2989 254.814Z" fill="#006941"/>
<path d="M35.2989 254.814L-21.0029 274.878C-15.6853 271.776 -8.45978 263.579 -10.6025 257.574C-10.6025 257.574 -10.6025 257.56 -10.6096 257.553C-10.8944 256.763 -10.2751 255.931 -9.44928 256.059C-7.41333 256.358 -5.27773 256.187 -3.19906 255.447C-0.251925 254.394 2.08301 252.395 3.57793 249.911C3.94099 249.314 4.73117 249.179 5.26507 249.634C8.69628 252.544 13.5441 253.604 18.0858 251.982C20.1076 251.263 21.8374 250.082 23.2042 248.616C23.553 248.246 24.1154 248.175 24.5567 248.439L35.2846 254.821L35.2989 254.814Z" fill="#005935"/>
<path d="M0.174805 274.138L3.905 264.988" stroke="#005935" stroke-miterlimit="10"/>
<path d="M13.5869 269.357L17.3171 260.214" stroke="#005935" stroke-miterlimit="10"/>
<path d="M24.8125 244.589L82.2462 261.16C76.7505 258.392 69.0339 250.651 70.7993 244.525C70.7993 244.518 70.7993 244.511 70.7993 244.504C71.0342 243.7 70.3651 242.91 69.5464 243.081C67.5318 243.508 65.3891 243.465 63.2677 242.853C60.2636 241.985 57.8077 240.128 56.1633 237.745C55.7646 237.168 54.9673 237.083 54.4619 237.574C51.2157 240.69 46.4462 242.042 41.8048 240.704C39.7404 240.107 37.9465 239.04 36.4872 237.659C36.117 237.311 35.5475 237.275 35.1275 237.567L24.8125 244.596V244.589Z" fill="#006941"/>
<path d="M24.8125 244.589L82.2462 261.16C76.117 260.57 65.4603 263.01 63.6877 269.136C63.6877 269.143 63.6877 269.151 63.6877 269.158C63.4599 269.962 62.4704 270.275 61.8653 269.691C60.3846 268.261 58.548 267.151 56.4338 266.539C53.4297 265.671 50.3615 265.934 47.692 267.08C47.0442 267.358 46.3252 267.002 46.1615 266.319C45.0723 261.95 41.7621 258.264 37.1207 256.927C35.0563 256.329 32.9705 256.279 30.9987 256.671C30.5003 256.77 30.002 256.493 29.7956 256.023L24.8196 244.582L24.8125 244.589Z" fill="#005935"/>
<path d="M64.6125 249.399L56.248 254.65" stroke="#005935" stroke-miterlimit="10"/>
<path d="M50.938 245.45L42.5664 250.701" stroke="#005935" stroke-miterlimit="10"/>
<path d="M27.9376 237.809C30.6071 239.822 31.1339 243.622 29.1122 246.29C27.0905 248.958 23.2962 249.485 20.6267 247.464C17.9572 245.45 17.4304 241.651 19.4521 238.983C21.4667 236.315 25.2681 235.788 27.9376 237.809Z" fill="#FC5954"/>
<path d="M28.1941 241.857C26.1795 244.525 22.3781 245.052 19.7086 243.031C19.1533 242.611 18.6977 242.113 18.3276 241.565C17.936 243.736 18.7476 246.048 20.634 247.464C23.3035 249.477 27.0978 248.951 29.1195 246.29C30.7141 244.177 30.7141 241.359 29.3188 239.282C29.1551 240.192 28.7849 241.075 28.1941 241.864V241.857Z" fill="#CD2846"/>
<path d="M21.8508 238.961C22.2494 239.26 22.1284 240.093 21.5874 240.811C21.0392 241.53 20.2775 241.871 19.8789 241.565C19.4802 241.266 19.6012 240.434 20.1423 239.715C20.6904 238.997 21.4521 238.655 21.8508 238.961Z" fill="#32285F"/>
<path d="M41.8339 241.573C42.3891 245.585 39.5915 249.285 35.5765 249.84C31.5616 250.395 27.8599 247.599 27.3046 243.586C26.7493 239.573 29.547 235.873 33.5619 235.318C37.5769 234.763 41.2786 237.56 41.8339 241.573Z" fill="#FC5954"/>
<path d="M38.5804 245.258C34.5654 245.813 30.8637 243.017 30.3085 239.004C30.1946 238.172 30.2302 237.346 30.3868 236.564C28.1942 238.093 26.9128 240.761 27.3044 243.586C27.8596 247.599 31.5685 250.395 35.5763 249.84C38.7512 249.399 41.1645 246.987 41.7553 244.006C40.837 244.646 39.7621 245.087 38.5804 245.251V245.258Z" fill="#CD2846"/>
<path d="M35.6405 237.346C35.7259 237.944 34.9144 238.556 33.8323 238.705C32.7503 238.855 31.8035 238.492 31.7181 237.894C31.6327 237.296 32.4442 236.685 33.5262 236.535C34.6083 236.386 35.5551 236.749 35.6405 237.346Z" fill="#32285F"/>
<path d="M31.6114 248.183C34.2809 250.196 34.8077 253.995 32.786 256.664C30.7714 259.332 26.97 259.858 24.3005 257.838C21.631 255.824 21.1042 252.025 23.1259 249.356C25.1477 246.688 28.9419 246.162 31.6114 248.183Z" fill="#FC5954"/>
<path d="M31.8679 252.231C29.8533 254.899 26.0519 255.426 23.3824 253.405C22.8272 252.985 22.3716 252.487 22.0014 251.939C21.6099 254.109 22.4214 256.422 24.3079 257.838C26.9774 259.851 30.7716 259.325 32.7933 256.664C34.3879 254.55 34.3879 251.733 32.9927 249.648C32.8289 250.559 32.4588 251.441 31.8679 252.231Z" fill="#CD2846"/>
<path d="M25.5246 249.328C25.9232 249.627 25.8022 250.459 25.2612 251.178C24.713 251.896 23.9513 252.238 23.5527 251.932C23.1541 251.633 23.2751 250.801 23.8161 250.082C24.3642 249.363 25.1259 249.022 25.5246 249.328Z" fill="#32285F"/>
</svg>