<svg xmlns:xlink="http://www.w3.org/1999/xlink" xmlns="http://www.w3.org/2000/svg" width="24" height="24" viewBox="0 0 24 24" fill="none">
<path d="M19.6416 4.01465C19.4653 4.02244 19.2872 4.05168 19.1094 4.10449L3.6084 8.71192C2.65793 8.99511 2 9.87645 2 10.8691V13.1309C2 14.1235 2.65793 15.0049 3.6084 15.2881L6.10645 16.0303C5.88531 17.9249 6.97798 19.7776 8.86621 20.3359C10.7503 20.8925 12.6701 19.9368 13.5176 18.2334L19.1084 19.8955C20.5314 20.3188 22 19.2241 22 17.7393V6.26074C22 5.14733 21.1743 4.253 20.1611 4.05371C19.9923 4.0205 19.8179 4.00685 19.6416 4.01465ZM19.7207 5.50879C20.1445 5.48264 20.5 5.80448 20.5 6.26074V17.7393C20.5 18.2614 20.0361 18.6067 19.5361 18.458L4.03613 13.8496C3.71537 13.7534 3.5 13.4657 3.5 13.1309V10.8691C3.5 10.5343 3.71537 10.2466 4.03613 10.1504L19.5361 5.54199C19.5986 5.52343 19.6602 5.51253 19.7207 5.50879ZM7.54199 16.457L12.082 17.8066C11.502 18.7361 10.3981 19.2245 9.29102 18.8975C8.18155 18.5694 7.52028 17.5553 7.54199 16.457Z" fill="#FBBB20"/>
</svg>