<svg xmlns:xlink="http://www.w3.org/1999/xlink" xmlns="http://www.w3.org/2000/svg" width="48" height="48" viewBox="0 0 48 48" fill="none">
<path d="M30 31C30 38.18 24.18 44 17 44C9.82 44 4 38.18 4 31C4 23.82 9.82 18 17 18C17.34 18 17.7 18.02 18.04 18.04C24.38 18.54 29.46 23.62 29.96 29.96C29.98 30.3 30 30.66 30 31Z" fill="#8C7BFE"/>
<path d="M44.0002 17C44.0002 23.52 39.2002 28.9 32.9602 29.84V29.72C32.3402 21.96 26.0402 15.66 18.2202 15.04H18.1602C19.1002 8.8 24.4802 4 31.0002 4C38.1802 4 44.0002 9.82 44.0002 17Z" fill="#FCD535"/>
<path d="M11.18 4H6C4.9 4 4 4.9 4 6V11.18C4 12.96 6.16 13.86 7.42 12.6L12.6 7.42C13.84 6.16 12.96 4 11.18 4Z" fill="#8C7BFE"/>
<path d="M36.8204 44H42.0004C43.1004 44 44.0004 43.1 44.0004 42V36.82C44.0004 35.04 41.8404 34.14 40.5804 35.4L35.4004 40.58C34.1604 41.84 35.0404 44 36.8204 44Z" fill="#8C7BFE"/>
</svg>