<svg xmlns:xlink="http://www.w3.org/1999/xlink" xmlns="http://www.w3.org/2000/svg" width="89" height="222" viewBox="0 0 89 222" fill="none">
<path d="M88.0766 143.517C28.5667 126.319 -34.4461 160.558 -52 221.204" stroke="#5A915A" stroke-width="3" stroke-miterlimit="10"/>
<path d="M62.9566 156.079C57.0869 150.157 50.1758 144.779 42.3652 140.214C48.8582 133.795 56.5662 127.936 65.4418 123" stroke="#5A915A" stroke-width="3" stroke-miterlimit="10"/>
<path d="M71.7535 152.712C67.3986 147.776 62.4204 143.131 56.8662 138.897C62.5071 134.678 68.8266 130.885 75.8087 127.684" stroke="#5A915A" stroke-width="3" stroke-miterlimit="10"/>
<path d="M50.5701 156.15C44.0692 151.032 36.6058 146.569 28.3298 143.029C33.9077 135.853 40.7162 129.064 48.7555 123.023" stroke="#5A915A" stroke-width="3" stroke-miterlimit="10"/>
<path d="M38.4443 157.79C31.3991 153.532 23.4702 150.039 14.8313 147.555C19.4308 139.749 25.2927 132.171 32.4089 125.168" stroke="#5A915A" stroke-width="3" stroke-miterlimit="10"/>
<path d="M26.7044 160.937C19.2094 157.593 10.9177 155.117 2.03418 153.729C5.61597 145.41 10.4601 137.17 16.5902 129.34" stroke="#5A915A" stroke-width="3" stroke-miterlimit="10"/>
<path d="M15.4939 165.518C7.64396 163.137 -0.892386 161.717 -9.9021 161.457C-7.3696 152.752 -3.59845 143.975 1.49022 135.443" stroke="#5A915A" stroke-width="3" stroke-miterlimit="10"/>
<path d="M4.9379 171.456C-3.15664 170.076 -11.8271 169.745 -20.821 170.651C-19.3773 161.662 -16.7107 152.476 -12.7265 143.376" stroke="#5A915A" stroke-width="3" stroke-miterlimit="10"/>
<path d="M17.2798 136.685L15 -2" stroke="#F0E1D3" stroke-width="2" stroke-miterlimit="10" stroke-linecap="round"/>
<path d="M17.2799 151.628C27.3712 151.628 35.5518 143.452 35.5518 133.366C35.5518 123.279 27.3712 115.103 17.2799 115.103C7.18866 115.103 -0.991943 123.279 -0.991943 133.366C-0.991943 143.452 7.18866 151.628 17.2799 151.628Z" fill="#FFDEC0"/>
<path d="M29.9112 120.173C26.6292 117.035 22.1874 115.103 17.2881 115.103C12.3888 115.103 7.93915 117.035 4.66504 120.173H29.9191H29.9112Z" fill="#FC5954"/>
<path d="M34.116 140.486C35.0469 138.302 35.5597 135.889 35.5597 133.366C35.5597 130.164 34.7313 127.152 33.2797 124.534H1.2881C-0.163555 127.152 -0.991943 130.164 -0.991943 133.366C-0.991943 135.889 -0.47913 138.294 0.451821 140.486H34.116Z" fill="#006941"/>
<path d="M3.07886 144.847C6.43186 148.979 11.5442 151.628 17.2877 151.628C23.0312 151.628 28.1435 148.987 31.4965 144.847H3.08675H3.07886Z" fill="#FC5954"/>
<path d="M17.2798 126.269L19.907 129.557L23.8438 131.031L21.5243 134.54L21.335 138.743L17.2798 137.623L13.2247 138.743L13.0353 134.54L10.7158 131.031L14.6605 129.557L17.2798 126.269Z" fill="#FFDEC0"/>
<path d="M4.76701 138.743L4.95635 134.54L7.27584 131.031L3.33114 129.557L0.711845 126.269L0.191146 126.923C-0.566238 128.926 -0.984375 131.094 -0.984375 133.365C-0.984375 134.942 -0.787143 136.48 -0.408451 137.939L0.719736 137.631L4.7749 138.751L4.76701 138.743Z" fill="#FFDEC0"/>
<path d="M35.5512 133.365C35.5512 131.094 35.1252 128.926 34.3757 126.923L33.855 126.269L31.2357 129.557L27.291 131.031L29.6105 134.54L29.7999 138.743L33.855 137.623L34.9832 137.931C35.3619 136.472 35.5591 134.935 35.5591 133.358L35.5512 133.365Z" fill="#FFDEC0"/>
<path d="M20.7669 109.867H13.8005V115.466H20.7669V109.867Z" fill="#FFDEC0"/>
<g style="mix-blend-mode:overlay" opacity="0.31">
<path d="M26.5104 144.531C16.4198 144.531 8.23851 136.354 8.23851 126.269C8.23851 122.5 9.38248 119.006 11.3312 116.097C4.15968 118.565 -1 125.362 -1 133.366C-1 143.451 7.18133 151.628 17.2719 151.628C23.5992 151.628 29.1691 148.419 32.4511 143.538C30.5892 144.177 28.5853 144.531 26.5104 144.531Z" fill="black"/>
</g>
</svg>