<svg width="28" height="140" viewBox="0 0 28 140" fill="none" xmlns="http://www.w3.org/2000/svg">
<path d="M21.6074 119.018V1.99707" stroke="#F0E1D3" stroke-width="2" stroke-miterlimit="10" stroke-linecap="round"/>
<path d="M40.0486 121.648C42.3833 111.761 36.257 101.855 26.3652 99.5213C16.4735 97.1878 6.56197 103.311 4.2273 113.198C1.89263 123.084 8.01887 132.991 17.9106 135.324C27.8024 137.658 37.7139 131.535 40.0486 121.648Z" fill="#FFDEC0"/>
<path d="M34.8689 104.143C31.5646 100.984 27.0878 99.0396 22.1527 99.0396C17.2176 99.0396 12.7408 100.984 9.43652 104.143H34.8689Z" fill="#FC5954"/>
<path d="M39.1054 124.597C40.0381 122.392 40.555 119.968 40.555 117.427C40.555 114.199 39.7237 111.168 38.2634 108.532H6.04656C4.58628 111.168 3.75488 114.199 3.75488 117.427C3.75488 119.974 4.27186 122.397 5.20452 124.597H39.1054Z" fill="#006941"/>
<path d="M7.84808 128.992C11.2216 133.157 16.3753 135.821 22.1525 135.821C27.9296 135.821 33.0833 133.157 36.4568 128.992H7.84277H7.84808Z" fill="#FC5954"/>
<path d="M22.1516 110.279L24.795 113.592L28.7654 115.078L26.4258 118.615L26.2393 122.85L22.1516 121.721L18.0692 122.85L17.8773 118.615L15.543 115.078L19.5134 113.592L22.1516 110.279Z" fill="#FFDEC0"/>
<path d="M9.55383 122.85L9.74038 118.615L12.08 115.078L8.10956 113.592L5.46611 110.279L4.9385 110.939C4.17638 112.958 3.75 115.142 3.75 117.427C3.75 119.02 3.95254 120.559 4.33093 122.035L5.46611 121.721L9.55383 122.85Z" fill="#FFDEC0"/>
<path d="M24.3957 95.5718H19.9082V99.1833H24.3957V95.5718Z" fill="#FFDEC0"/>
<g style="mix-blend-mode:overlay" opacity="0.31">
<path d="M31.4527 128.672C21.2894 128.672 13.05 120.437 13.05 110.279C13.05 106.486 14.2012 102.96 16.1678 100.036C8.94628 102.518 3.75 109.363 3.75 117.428C3.75 127.586 11.9894 135.821 22.1528 135.821C28.5215 135.821 34.1335 132.588 37.4378 127.671C35.5618 128.315 33.5472 128.672 31.4527 128.672Z" fill="black"/>
</g>
</svg>
