<svg xmlns:xlink="http://www.w3.org/1999/xlink" xmlns="http://www.w3.org/2000/svg" width="96" height="96" viewBox="0 0 96 96" fill="none">
<path d="M47.9997 90.4266C71.4311 90.4266 90.4261 71.4316 90.4261 48.0001C90.4261 24.5687 71.4311 5.57373 47.9997 5.57373C24.5682 5.57373 5.57324 24.5687 5.57324 48.0001C5.57324 71.4316 24.5682 90.4266 47.9997 90.4266Z" fill="#006941"/>
<path d="M47.9996 95.2926C74.0776 95.2926 95.2941 74.0761 95.2941 47.9981C95.2941 21.9201 74.0776 0.703613 47.9996 0.703613C21.9216 0.703613 0.705078 21.9201 0.705078 47.9981C0.705078 74.0761 21.9216 95.2926 47.9996 95.2926ZM47.9996 10.443C68.7084 10.443 85.5546 27.2893 85.5546 47.9981C85.5546 68.7069 68.7052 85.5532 47.9996 85.5532C27.294 85.5532 10.4445 68.7069 10.4445 47.9981C10.4445 27.2893 27.294 10.443 47.9996 10.443Z" fill="#CB2525"/>
<g opacity="0.9">
<path d="M33.7756 86.256C33.6943 86.7539 33.5446 87.0793 32.9588 87.486C31.4359 88.5371 27.5181 88.5404 22.4385 87.7366C28.9531 91.9474 36.5578 94.5994 44.732 95.1689C46.141 93.2327 47.0912 91.0037 47.5012 88.5306C47.6639 87.5381 47.729 86.5456 47.729 85.5531C42.6071 85.5108 37.7293 84.4435 33.2875 82.5366C33.7235 83.9196 33.9481 85.2342 33.7756 86.2593V86.256Z" fill="white"/>
<path d="M85.3981 19.0532C82.3588 19.8277 79.1112 21.0642 76.0361 23.0037C79.121 26.4562 81.581 30.4782 83.2309 34.894C86.2213 32.9155 89.7748 32.1443 92.4919 31.8579C90.7966 27.2046 88.382 22.8963 85.3981 19.0532V19.0532Z" fill="white"/>
<path d="M7.25844 42.4401C4.19963 43.2959 2.21141 43.5009 0.968364 43.4846C0.828439 44.9717 0.74707 46.4751 0.74707 47.998C0.74707 51.2033 1.07247 54.3304 1.68098 57.3599C4.81139 57.2818 8.08824 56.6538 11.2935 55.7492C10.7663 53.2468 10.4832 50.6566 10.4832 47.998C10.4832 45.6746 10.7078 43.4065 11.1113 41.197C9.82918 41.6558 8.53078 42.0821 7.25844 42.4368V42.4401Z" fill="white"/>
<path d="M50.502 10.5341C55.3538 10.8497 59.9583 12.0862 64.1397 14.0777C64.3773 11.0905 64.7027 7.97311 65.3404 6.82768C65.6073 6.34933 66.5738 5.81566 68.2105 5.23644C63.4434 2.97812 58.2401 1.49102 52.7635 0.944336C51.4945 3.6387 50.8957 6.80816 50.5052 10.5341H50.502Z" fill="white"/>
<path d="M14.0074 23.3744C14.9087 23.856 16.3113 24.5784 18.0196 25.457C21.0362 21.4512 24.8369 18.0735 29.1876 15.5354C25.8001 13.8172 22.8584 12.3139 21.1338 11.4092C21.0068 10.9016 20.9678 10.1239 21.0036 9.229C16.7766 12.1869 13.0474 15.812 9.98535 19.9576C10.9876 21.2918 12.299 22.4665 14.0074 23.3776V23.3744Z" fill="white"/>
<path d="M71.6492 77.1772C67.9558 80.171 63.6865 82.4814 59.0332 83.9099C61.3664 86.1292 63.0878 89.2693 64.3146 92.4062C68.7596 90.7694 72.8922 88.4818 76.6019 85.6606C75.3523 82.7905 73.7383 79.8586 71.6492 77.1772Z" fill="white"/>
<path d="M95.2517 50.6694C92.3133 48.9122 88.9616 47.7408 85.5676 46.9468C85.5774 47.2982 85.5936 47.6464 85.5936 48.0011C85.5936 52.4754 84.8029 56.7675 83.3613 60.7505C87.0417 61.717 90.0582 63.2594 90.6667 65.7585C90.862 66.5655 90.8262 67.532 90.5919 68.6188C93.2569 63.139 94.8937 57.0734 95.2517 50.6727V50.6694Z" fill="white"/>
<path d="M16.7576 83.4282C19.1786 81.3424 21.5053 78.9799 23.4577 76.3604C19.6927 73.0933 16.5819 69.0941 14.3528 64.584C14.1836 64.9322 14.0144 65.2836 13.8355 65.6285C12.5338 68.183 10.308 70.6203 7.78613 72.7907C10.2429 76.7672 13.2725 80.3467 16.7576 83.4282V83.4282Z" fill="white"/>
</g>
<path d="M38.6843 44.1702L48.0073 34.851L57.3341 44.1778L62.7558 38.7523L48.0073 24L33.2588 38.7485L38.6843 44.1702Z" fill="white"/>
<path d="M24 48.0026L29.4217 42.5771L34.8472 48.0026L29.4217 53.4243L24 48.0026Z" fill="white"/>
<path d="M38.6843 51.8334L48.0073 61.1564L57.3342 51.8296L62.7596 57.2475L48.0111 71.9998L33.2588 57.2589L38.6843 51.8334Z" fill="white"/>
<path d="M61.1562 48.0026L66.5779 42.5771L72.0034 47.9988L66.5779 53.4281L61.1562 48.0026Z" fill="white"/>
<path d="M53.5085 48.0002L48.0072 42.4951L43.939 46.5633L43.4689 47.0296L42.5059 47.9926L48.0072 53.4902L53.5085 48.004V48.0002Z" fill="white"/>
</svg>