<svg xmlns:xlink="http://www.w3.org/1999/xlink" xmlns="http://www.w3.org/2000/svg" width="24" height="24" viewBox="0 0 24 24" fill="none">
<path d="M4.58002 12.25H8C8.41 12.25 8.75 12.59 8.75 13V19.99C8.75 20.73 8.46 21.42 7.94 21.94C7.42 22.46 6.72999 22.75 5.98999 22.75H5.97998C4.72998 22.74 3.55002 22.25 2.65002 21.36C1.75002 20.45 1.26001 19.25 1.26001 18V15.58C1.25001 13.59 2.59002 12.25 4.58002 12.25ZM7.25 13.75H4.58002C3.42002 13.75 2.75 14.42 2.75 15.58V18C2.75 18.86 3.09001 19.68 3.70001 20.3C4.31001 20.9 5.11998 21.24 5.97998 21.25C5.97998 21.25 5.97999 21.25 5.98999 21.25C6.31999 21.25 6.64 21.12 6.88 20.88C7.12 20.64 7.25 20.33 7.25 19.99V13.75Z" fill="#FBBB20"/>
<path d="M15.0002 0.67C15.4702 0.67 15.9102 0.85 16.2402 1.19L17.9003 2.86C17.9903 2.95 18.1302 2.96 18.2302 2.88L19.9402 1.6C20.4702 1.2 21.1703 1.13 21.7703 1.43C22.3703 1.73 22.7402 2.33 22.7402 3V18C22.7402 21.02 21.0102 22.75 17.9902 22.75H5.99023C5.58023 22.75 5.24023 22.41 5.24023 22C5.24023 21.59 5.58023 21.25 5.99023 21.25C6.68023 21.25 7.24023 20.69 7.24023 20V3C7.24023 2.33 7.61027 1.73 8.21027 1.43C8.80027 1.13 9.51022 1.2 10.0402 1.6L11.7502 2.88C11.8502 2.96 11.9903 2.94 12.0703 2.86L13.7502 1.18C14.0902 0.85 14.5302 0.67 15.0002 0.67ZM18.0903 4.43C17.6303 4.43 17.1803 4.26 16.8403 3.91L15.1802 2.24C15.1202 2.18 15.0402 2.17 15.0002 2.17C14.9602 2.17 14.8803 2.18 14.8203 2.24L13.1403 3.92C12.5203 4.54 11.5402 4.6 10.8502 4.07L9.15027 2.8C9.04027 2.72 8.94026 2.75 8.89026 2.78C8.84026 2.81 8.75024 2.87 8.75024 3V20C8.75024 20.45 8.64026 20.88 8.45026 21.25H18.0002C20.2202 21.25 21.2502 20.22 21.2502 18V3C21.2502 2.86 21.1602 2.8 21.1102 2.77C21.0502 2.74 20.9502 2.72 20.8502 2.8L19.1403 4.08C18.8303 4.31 18.4603 4.43 18.0903 4.43Z" fill="#FBBB20"/>
<path d="M15.9692 15.7694H14.2339C13.0062 15.7694 12 14.7356 12 13.4617C12 13.0833 12.3138 12.7694 12.6923 12.7694C13.0708 12.7694 13.3846 13.0833 13.3846 13.4617C13.3846 13.9694 13.7631 14.3848 14.2339 14.3848H15.9692C16.3292 14.3848 16.6154 14.0618 16.6154 13.6648C16.6154 13.1664 16.4769 13.0925 16.1631 12.9817L13.3846 12.0125C12.7938 11.8094 12 11.3756 12 10.0187C12 8.86483 12.9139 7.91406 14.0308 7.91406H15.7661C16.9938 7.91406 18 8.94791 18 10.2218C18 10.6002 17.6862 10.9141 17.3077 10.9141C16.9292 10.9141 16.6154 10.6002 16.6154 10.2218C16.6154 9.71406 16.2369 9.29868 15.7661 9.29868H14.0308C13.6708 9.29868 13.3846 9.62175 13.3846 10.0187C13.3846 10.5171 13.5231 10.591 13.8369 10.7017L16.6154 11.671C17.2062 11.8741 18 12.3079 18 13.6648C18 14.8279 17.0861 15.7694 15.9692 15.7694Z" fill="#FBBB20"/>
<path d="M15 16.6923C14.6215 16.6923 14.3077 16.3785 14.3077 16V7.69231C14.3077 7.31385 14.6215 7 15 7C15.3785 7 15.6923 7.31385 15.6923 7.69231V16C15.6923 16.3785 15.3785 16.6923 15 16.6923Z" fill="#FBBB20"/>
</svg>